  0
SECTION
  2
BLOCKS
  0
ENDSEC
  0
SECTION
  2
ENTITIES
  0
LINE
  8
0
 10
22.9196
 20
9.10677
 11
23.0876
 21
9.25021
  0
LINE
  8
0
 10
23.0876
 20
9.25021
 11
23.1391
 21
9.465
  0
LINE
  8
0
 10
23.1391
 20
9.465
 11
22.9693
 21
9.86989
  0
LINE
  8
0
 10
22.9693
 20
9.86989
 11
22.7936
 21
10.2693
  0
LINE
  8
0
 10
22.7936
 20
10.2693
 11
22.6109
 21
10.6655
  0
LINE
  8
0
 10
22.6109
 20
10.6655
 11
22.4213
 21
11.0585
  0
LINE
  8
0
 10
22.4213
 20
11.0585
 11
22.2249
 21
11.4481
  0
LINE
  8
0
 10
22.2249
 20
11.4481
 11
22.0217
 21
11.8342
  0
LINE
  8
0
 10
22.0217
 20
11.8342
 11
21.8118
 21
12.2168
  0
LINE
  8
0
 10
21.8118
 20
12.2168
 11
21.5953
 21
12.5956
  0
LINE
  8
0
 10
21.5953
 20
12.5956
 11
21.3722
 21
12.9706
  0
LINE
  8
0
 10
21.3722
 20
12.9706
 11
21.1425
 21
13.3416
  0
LINE
  8
0
 10
21.1425
 20
13.3416
 11
20.9065
 21
13.7085
  0
LINE
  8
0
 10
20.9065
 20
13.7085
 11
20.664
 21
14.0713
  0
LINE
  8
0
 10
20.664
 20
14.0713
 11
20.4153
 21
14.4298
  0
LINE
  8
0
 10
20.4153
 20
14.4298
 11
20.1604
 21
14.7839
  0
LINE
  8
0
 10
20.1604
 20
14.7839
 11
19.8993
 21
15.1335
  0
LINE
  8
0
 10
19.8993
 20
15.1335
 11
19.6321
 21
15.4785
  0
LINE
  8
0
 10
19.6321
 20
15.4785
 11
19.359
 21
15.8188
  0
LINE
  8
0
 10
19.359
 20
15.8188
 11
19.08
 21
16.1542
  0
LINE
  8
0
 10
19.08
 20
16.1542
 11
18.7952
 21
16.4847
  0
LINE
  8
0
 10
18.7952
 20
16.4847
 11
18.5046
 21
16.8103
  0
LINE
  8
0
 10
18.5046
 20
16.8103
 11
18.2084
 21
17.1306
  0
LINE
  8
0
 10
18.2084
 20
17.1306
 11
17.9067
 21
17.4458
  0
LINE
  8
0
 10
17.9067
 20
17.4458
 11
17.5995
 21
17.7557
  0
LINE
  8
0
 10
17.5995
 20
17.7557
 11
17.2869
 21
18.0601
  0
LINE
  8
0
 10
17.2869
 20
18.0601
 11
16.9691
 21
18.3591
  0
LINE
  8
0
 10
16.9691
 20
18.3591
 11
16.6461
 21
18.6524
  0
LINE
  8
0
 10
16.6461
 20
18.6524
 11
16.318
 21
18.9401
  0
LINE
  8
0
 10
16.318
 20
18.9401
 11
15.985
 21
19.222
  0
LINE
  8
0
 10
15.985
 20
19.222
 11
15.6471
 21
19.498
  0
LINE
  8
0
 10
15.6471
 20
19.498
 11
15.3044
 21
19.7682
  0
LINE
  8
0
 10
15.3044
 20
19.7682
 11
14.9571
 21
20.0322
  0
LINE
  8
0
 10
14.9571
 20
20.0322
 11
14.6052
 21
20.2902
  0
LINE
  8
0
 10
14.6052
 20
20.2902
 11
14.2488
 21
20.542
  0
LINE
  8
0
 10
14.2488
 20
20.542
 11
13.8882
 21
20.7876
  0
LINE
  8
0
 10
13.8882
 20
20.7876
 11
13.5233
 21
21.0268
  0
LINE
  8
0
 10
13.5233
 20
21.0268
 11
13.1542
 21
21.2596
  0
LINE
  8
0
 10
13.1542
 20
21.2596
 11
12.7812
 21
21.4859
  0
LINE
  8
0
 10
12.7812
 20
21.4859
 11
12.4043
 21
21.7057
  0
LINE
  8
0
 10
12.4043
 20
21.7057
 11
12.0236
 21
21.9189
  0
LINE
  8
0
 10
12.0236
 20
21.9189
 11
11.6392
 21
22.1254
  0
LINE
  8
0
 10
11.6392
 20
22.1254
 11
11.2513
 21
22.3252
  0
LINE
  8
0
 10
11.2513
 20
22.3252
 11
10.8599
 21
22.5181
  0
LINE
  8
0
 10
10.8599
 20
22.5181
 11
10.4653
 21
22.7042
  0
LINE
  8
0
 10
10.4653
 20
22.7042
 11
10.0674
 21
22.8834
  0
LINE
  8
0
 10
10.0674
 20
22.8834
 11
9.66653
 21
23.0556
  0
LINE
  8
0
 10
9.66653
 20
23.0556
 11
9.2627
 21
23.2208
  0
LINE
  8
0
 10
9.2627
 20
23.2208
 11
8.85602
 21
23.379
  0
LINE
  8
0
 10
8.85602
 20
23.379
 11
8.44666
 21
23.53
  0
LINE
  8
0
 10
8.44666
 20
23.53
 11
8.03471
 21
23.6738
  0
LINE
  8
0
 10
8.03471
 20
23.6738
 11
7.62033
 21
23.8104
  0
LINE
  8
0
 10
7.62033
 20
23.8104
 11
7.20361
 21
23.9398
  0
LINE
  8
0
 10
7.20361
 20
23.9398
 11
6.78471
 21
24.0618
  0
LINE
  8
0
 10
6.78471
 20
24.0618
 11
6.36374
 21
24.1766
  0
LINE
  8
0
 10
6.36374
 20
24.1766
 11
5.94083
 21
24.284
  0
LINE
  8
0
 10
5.94083
 20
24.284
 11
5.51611
 21
24.384
  0
LINE
  8
0
 10
5.51611
 20
24.384
 11
5.08971
 21
24.4765
  0
LINE
  8
0
 10
5.08971
 20
24.4765
 11
4.66176
 21
24.5616
  0
LINE
  8
0
 10
4.66176
 20
24.5616
 11
4.23239
 21
24.6392
  0
LINE
  8
0
 10
4.23239
 20
24.6392
 11
3.80174
 21
24.7093
  0
LINE
  8
0
 10
3.80174
 20
24.7093
 11
3.36992
 21
24.7719
  0
LINE
  8
0
 10
3.36992
 20
24.7719
 11
2.93707
 21
24.827
  0
LINE
  8
0
 10
2.93707
 20
24.827
 11
2.50334
 21
24.8745
  0
LINE
  8
0
 10
2.50334
 20
24.8745
 11
2.06883
 21
24.9144
  0
LINE
  8
0
 10
2.06883
 20
24.9144
 11
1.63371
 21
24.9467
  0
LINE
  8
0
 10
1.63371
 20
24.9467
 11
1.19807
 21
24.9714
  0
LINE
  8
0
 10
1.19807
 20
24.9714
 11
0.762085
 21
24.9885
  0
LINE
  8
0
 10
0.762085
 20
24.9885
 11
0.325867
 21
24.998
  0
LINE
  8
0
 10
0.325867
 20
24.998
 11
-0.110428
 21
24.9999
  0
LINE
  8
0
 10
-0.110428
 20
24.9999
 11
-0.289124
 21
24.87
  0
LINE
  8
0
 10
-0.289124
 20
24.87
 11
-0.357376
 21
24.66
  0
LINE
  8
0
 10
-0.357376
 20
24.66
 11
-0.339966
 21
24.6064
  0
LINE
  8
0
 10
-0.339966
 20
24.6064
 11
-0.357376
 21
24.5527
  0
LINE
  8
0
 10
-0.357376
 20
24.5527
 11
-0.339966
 21
24.4991
  0
LINE
  8
0
 10
-0.339966
 20
24.4991
 11
-0.357376
 21
24.4455
  0
LINE
  8
0
 10
-0.357376
 20
24.4455
 11
-0.339966
 21
24.3919
  0
LINE
  8
0
 10
-0.339966
 20
24.3919
 11
-0.357376
 21
24.3383
  0
LINE
  8
0
 10
-0.357376
 20
24.3383
 11
-0.339966
 21
24.2847
  0
LINE
  8
0
 10
-0.339966
 20
24.2847
 11
-0.357376
 21
24.2311
  0
LINE
  8
0
 10
-0.357376
 20
24.2311
 11
-0.339966
 21
24.1775
  0
LINE
  8
0
 10
-0.339966
 20
24.1775
 11
-0.357376
 21
24.1239
  0
LINE
  8
0
 10
-0.357376
 20
24.1239
 11
-0.339966
 21
24.0703
  0
LINE
  8
0
 10
-0.339966
 20
24.0703
 11
-0.357376
 21
24.0167
  0
LINE
  8
0
 10
-0.357376
 20
24.0167
 11
-0.339966
 21
23.9631
  0
LINE
  8
0
 10
-0.339966
 20
23.9631
 11
-0.357376
 21
23.9094
  0
LINE
  8
0
 10
-0.357376
 20
23.9094
 11
-0.339966
 21
23.8558
  0
LINE
  8
0
 10
-0.339966
 20
23.8558
 11
-0.357376
 21
23.8022
  0
LINE
  8
0
 10
-0.357376
 20
23.8022
 11
-0.339966
 21
23.7486
  0
LINE
  8
0
 10
-0.339966
 20
23.7486
 11
-0.357376
 21
23.695
  0
LINE
  8
0
 10
-0.357376
 20
23.695
 11
-0.339966
 21
23.6414
  0
LINE
  8
0
 10
-0.339966
 20
23.6414
 11
-0.357376
 21
23.5878
  0
LINE
  8
0
 10
-0.357376
 20
23.5878
 11
-0.339966
 21
23.5342
  0
LINE
  8
0
 10
-0.339966
 20
23.5342
 11
-0.357376
 21
23.4806
  0
LINE
  8
0
 10
-0.357376
 20
23.4806
 11
-0.339966
 21
23.427
  0
LINE
  8
0
 10
-0.339966
 20
23.427
 11
-0.357376
 21
23.3734
  0
LINE
  8
0
 10
-0.357376
 20
23.3734
 11
-0.339966
 21
23.3197
  0
LINE
  8
0
 10
-0.339966
 20
23.3197
 11
-0.357376
 21
23.2661
  0
LINE
  8
0
 10
-0.357376
 20
23.2661
 11
-0.339966
 21
23.2125
  0
LINE
  8
0
 10
-0.339966
 20
23.2125
 11
-0.357376
 21
23.1589
  0
LINE
  8
0
 10
-0.357376
 20
23.1589
 11
-0.339966
 21
23.1053
  0
LINE
  8
0
 10
-0.339966
 20
23.1053
 11
-0.357376
 21
23.0517
  0
LINE
  8
0
 10
-0.357376
 20
23.0517
 11
-0.339966
 21
22.9981
  0
LINE
  8
0
 10
-0.339966
 20
22.9981
 11
-0.357376
 21
22.9445
  0
LINE
  8
0
 10
-0.357376
 20
22.9445
 11
-0.339966
 21
22.8909
  0
LINE
  8
0
 10
-0.339966
 20
22.8909
 11
-0.357376
 21
22.8373
  0
LINE
  8
0
 10
-0.357376
 20
22.8373
 11
-0.339966
 21
22.7837
  0
LINE
  8
0
 10
-0.339966
 20
22.7837
 11
-0.357376
 21
22.7301
  0
LINE
  8
0
 10
-0.357376
 20
22.7301
 11
-0.339966
 21
22.6765
  0
LINE
  8
0
 10
-0.339966
 20
22.6765
 11
-0.357376
 21
22.6228
  0
LINE
  8
0
 10
-0.357376
 20
22.6228
 11
-0.339966
 21
22.5692
  0
LINE
  8
0
 10
-0.339966
 20
22.5692
 11
-0.357376
 21
22.5156
  0
LINE
  8
0
 10
-0.357376
 20
22.5156
 11
-0.289124
 21
22.3056
  0
LINE
  8
0
 10
-0.289124
 20
22.3056
 11
-0.110428
 21
22.1757
  0
LINE
  8
0
 10
-0.110428
 20
22.1757
 11
0.193573
 21
22.1751
  0
LINE
  8
0
 10
0.193573
 20
22.1751
 11
0.580521
 21
22.1683
  0
LINE
  8
0
 10
0.580521
 20
22.1683
 11
0.967239
 21
22.1548
  0
LINE
  8
0
 10
0.967239
 20
22.1548
 11
1.35379
 21
22.1346
  0
LINE
  8
0
 10
1.35379
 20
22.1346
 11
1.7399
 21
22.1076
  0
LINE
  8
0
 10
1.7399
 20
22.1076
 11
2.12547
 21
22.0738
  0
LINE
  8
0
 10
2.12547
 20
22.0738
 11
2.51035
 21
22.0334
  0
LINE
  8
0
 10
2.51035
 20
22.0334
 11
2.89449
 21
21.9862
  0
LINE
  8
0
 10
2.89449
 20
21.9862
 11
3.27779
 21
21.9324
  0
LINE
  8
0
 10
3.27779
 20
21.9324
 11
3.66006
 21
21.8718
  0
LINE
  8
0
 10
3.66006
 20
21.8718
 11
4.04124
 21
21.8046
  0
LINE
  8
0
 10
4.04124
 20
21.8046
 11
4.42114
 21
21.7307
  0
LINE
  8
0
 10
4.42114
 20
21.7307
 11
4.7997
 21
21.6503
  0
LINE
  8
0
 10
4.7997
 20
21.6503
 11
5.17683
 21
21.5632
  0
LINE
  8
0
 10
5.17683
 20
21.5632
 11
5.55234
 21
21.4696
  0
LINE
  8
0
 10
5.55234
 20
21.4696
 11
5.92622
 21
21.3694
  0
LINE
  8
0
 10
5.92622
 20
21.3694
 11
6.29831
 21
21.2627
  0
LINE
  8
0
 10
6.29831
 20
21.2627
 11
6.66838
 21
21.1496
  0
LINE
  8
0
 10
6.66838
 20
21.1496
 11
7.03654
 21
21.03
  0
LINE
  8
0
 10
7.03654
 20
21.03
 11
7.40245
 21
20.904
  0
LINE
  8
0
 10
7.40245
 20
20.904
 11
7.76614
 21
20.7716
  0
LINE
  8
0
 10
7.76614
 20
20.7716
 11
8.12747
 21
20.6329
  0
LINE
  8
0
 10
8.12747
 20
20.6329
 11
8.48636
 21
20.4879
  0
LINE
  8
0
 10
8.48636
 20
20.4879
 11
8.84264
 21
20.3367
  0
LINE
  8
0
 10
8.84264
 20
20.3367
 11
9.19623
 21
20.1792
  0
LINE
  8
0
 10
9.19623
 20
20.1792
 11
9.54695
 21
20.0157
  0
LINE
  8
0
 10
9.54695
 20
20.0157
 11
9.89485
 21
19.846
  0
LINE
  8
0
 10
9.89485
 20
19.846
 11
10.2397
 21
19.6703
  0
LINE
  8
0
 10
10.2397
 20
19.6703
 11
10.5814
 21
19.4886
  0
LINE
  8
0
 10
10.5814
 20
19.4886
 11
10.92
 21
19.3009
  0
LINE
  8
0
 10
10.92
 20
19.3009
 11
11.2551
 21
19.1074
  0
LINE
  8
0
 10
11.2551
 20
19.1074
 11
11.4761
 21
18.9753
  0
LINE
  8
0
 10
11.4761
 20
18.9753
 11
11.4453
 21
18.8554
  0
LINE
  8
0
 10
11.4453
 20
18.8554
 11
11.4453
 21
18.5867
  0
LINE
  8
0
 10
11.4453
 20
18.5867
 11
11.5121
 21
18.3264
  0
LINE
  8
0
 10
11.5121
 20
18.3264
 11
11.6416
 21
18.0909
  0
LINE
  8
0
 10
11.6416
 20
18.0909
 11
11.8256
 21
17.8949
  0
LINE
  8
0
 10
11.8256
 20
17.8949
 11
12.0525
 21
17.7509
  0
LINE
  8
0
 10
12.0525
 20
17.7509
 11
12.3081
 21
17.6679
  0
LINE
  8
0
 10
12.3081
 20
17.6679
 11
12.5763
 21
17.651
  0
LINE
  8
0
 10
12.5763
 20
17.651
 11
12.8403
 21
17.7014
  0
LINE
  8
0
 10
12.8403
 20
17.7014
 11
13.0835
 21
17.8158
  0
LINE
  8
0
 10
13.0835
 20
17.8158
 11
13.2906
 21
17.9871
  0
LINE
  8
0
 10
13.2906
 20
17.9871
 11
13.4486
 21
18.2045
  0
LINE
  8
0
 10
13.4486
 20
18.2045
 11
13.5475
 21
18.4544
  0
LINE
  8
0
 10
13.5475
 20
18.4544
 11
13.5812
 21
18.7211
  0
LINE
  8
0
 10
13.5812
 20
18.7211
 11
13.5475
 21
18.9877
  0
LINE
  8
0
 10
13.5475
 20
18.9877
 11
13.4486
 21
19.2376
  0
LINE
  8
0
 10
13.4486
 20
19.2376
 11
13.2906
 21
19.455
  0
LINE
  8
0
 10
13.2906
 20
19.455
 11
13.0835
 21
19.6263
  0
LINE
  8
0
 10
13.0835
 20
19.6263
 11
12.8403
 21
19.7408
  0
LINE
  8
0
 10
12.8403
 20
19.7408
 11
12.5763
 21
19.7911
  0
LINE
  8
0
 10
12.5763
 20
19.7911
 11
12.3081
 21
19.7742
  0
LINE
  8
0
 10
12.3081
 20
19.7742
 11
12.0525
 21
19.6912
  0
LINE
  8
0
 10
12.0525
 20
19.6912
 11
11.8346
 21
19.5529
  0
LINE
  8
0
 10
11.8346
 20
19.5529
 11
11.5908
 21
19.6986
  0
LINE
  8
0
 10
11.5908
 20
19.6986
 11
11.2452
 21
19.8979
  0
LINE
  8
0
 10
11.2452
 20
19.8979
 11
10.8963
 21
20.0911
  0
LINE
  8
0
 10
10.8963
 20
20.0911
 11
10.544
 21
20.2782
  0
LINE
  8
0
 10
10.544
 20
20.2782
 11
10.1884
 21
20.4592
  0
LINE
  8
0
 10
10.1884
 20
20.4592
 11
9.82983
 21
20.6339
  0
LINE
  8
0
 10
9.82983
 20
20.6339
 11
9.46823
 21
20.8023
  0
LINE
  8
0
 10
9.46823
 20
20.8023
 11
9.10373
 21
20.9644
  0
LINE
  8
0
 10
9.10373
 20
20.9644
 11
8.73647
 21
21.1201
  0
LINE
  8
0
 10
8.73647
 20
21.1201
 11
8.36655
 21
21.2693
  0
LINE
  8
0
 10
8.36655
 20
21.2693
 11
7.99406
 21
21.4121
  0
LINE
  8
0
 10
7.99406
 20
21.4121
 11
7.61916
 21
21.5483
  0
LINE
  8
0
 10
7.61916
 20
21.5483
 11
7.24193
 21
21.678
  0
LINE
  8
0
 10
7.24193
 20
21.678
 11
6.86249
 21
21.8011
  0
LINE
  8
0
 10
6.86249
 20
21.8011
 11
6.48096
 21
21.9176
  0
LINE
  8
0
 10
6.48096
 20
21.9176
 11
6.09746
 21
22.0273
  0
LINE
  8
0
 10
6.09746
 20
22.0273
 11
5.7121
 21
22.1304
  0
LINE
  8
0
 10
5.7121
 20
22.1304
 11
5.32501
 21
22.2267
  0
LINE
  8
0
 10
5.32501
 20
22.2267
 11
4.93628
 21
22.3163
  0
LINE
  8
0
 10
4.93628
 20
22.3163
 11
4.54607
 21
22.399
  0
LINE
  8
0
 10
4.54607
 20
22.399
 11
4.15445
 21
22.4749
  0
LINE
  8
0
 10
4.15445
 20
22.4749
 11
3.76158
 21
22.544
  0
LINE
  8
0
 10
3.76158
 20
22.544
 11
3.36755
 21
22.6062
  0
LINE
  8
0
 10
3.36755
 20
22.6062
 11
2.9725
 21
22.6616
  0
LINE
  8
0
 10
2.9725
 20
22.6616
 11
2.57655
 21
22.71
  0
LINE
  8
0
 10
2.57655
 20
22.71
 11
2.17982
 21
22.7515
  0
LINE
  8
0
 10
2.17982
 20
22.7515
 11
1.78242
 21
22.7861
  0
LINE
  8
0
 10
1.78242
 20
22.7861
 11
1.38448
 21
22.8137
  0
LINE
  8
0
 10
1.38448
 20
22.8137
 11
0.986115
 21
22.8344
  0
LINE
  8
0
 10
0.986115
 20
22.8344
 11
0.587448
 21
22.8481
  0
LINE
  8
0
 10
0.587448
 20
22.8481
 11
0.35231
 21
22.8529
  0
LINE
  8
0
 10
0.35231
 20
22.8529
 11
0.339966
 21
22.8909
  0
LINE
  8
0
 10
0.339966
 20
22.8909
 11
0.357376
 21
22.9445
  0
LINE
  8
0
 10
0.357376
 20
22.9445
 11
0.339966
 21
22.9981
  0
LINE
  8
0
 10
0.339966
 20
22.9981
 11
0.357376
 21
23.0517
  0
LINE
  8
0
 10
0.357376
 20
23.0517
 11
0.339966
 21
23.1053
  0
LINE
  8
0
 10
0.339966
 20
23.1053
 11
0.357376
 21
23.1589
  0
LINE
  8
0
 10
0.357376
 20
23.1589
 11
0.339966
 21
23.2125
  0
LINE
  8
0
 10
0.339966
 20
23.2125
 11
0.357376
 21
23.2661
  0
LINE
  8
0
 10
0.357376
 20
23.2661
 11
0.339966
 21
23.3197
  0
LINE
  8
0
 10
0.339966
 20
23.3197
 11
0.357376
 21
23.3734
  0
LINE
  8
0
 10
0.357376
 20
23.3734
 11
0.339966
 21
23.427
  0
LINE
  8
0
 10
0.339966
 20
23.427
 11
0.357376
 21
23.4806
  0
LINE
  8
0
 10
0.357376
 20
23.4806
 11
0.339966
 21
23.5342
  0
LINE
  8
0
 10
0.339966
 20
23.5342
 11
0.357376
 21
23.5878
  0
LINE
  8
0
 10
0.357376
 20
23.5878
 11
0.339966
 21
23.6414
  0
LINE
  8
0
 10
0.339966
 20
23.6414
 11
0.357376
 21
23.695
  0
LINE
  8
0
 10
0.357376
 20
23.695
 11
0.339966
 21
23.7486
  0
LINE
  8
0
 10
0.339966
 20
23.7486
 11
0.357376
 21
23.8022
  0
LINE
  8
0
 10
0.357376
 20
23.8022
 11
0.339966
 21
23.8558
  0
LINE
  8
0
 10
0.339966
 20
23.8558
 11
0.357376
 21
23.9094
  0
LINE
  8
0
 10
0.357376
 20
23.9094
 11
0.339966
 21
23.9631
  0
LINE
  8
0
 10
0.339966
 20
23.9631
 11
0.357376
 21
24.0167
  0
LINE
  8
0
 10
0.357376
 20
24.0167
 11
0.339966
 21
24.0703
  0
LINE
  8
0
 10
0.339966
 20
24.0703
 11
0.357376
 21
24.1239
  0
LINE
  8
0
 10
0.357376
 20
24.1239
 11
0.339966
 21
24.1775
  0
LINE
  8
0
 10
0.339966
 20
24.1775
 11
0.357376
 21
24.2311
  0
LINE
  8
0
 10
0.357376
 20
24.2311
 11
0.339966
 21
24.2847
  0
LINE
  8
0
 10
0.339966
 20
24.2847
 11
0.350662
 21
24.3177
  0
LINE
  8
0
 10
0.350662
 20
24.3177
 11
0.742752
 21
24.309
  0
LINE
  8
0
 10
0.742752
 20
24.309
 11
1.16687
 21
24.2923
  0
LINE
  8
0
 10
1.16687
 20
24.2923
 11
1.59065
 21
24.2682
  0
LINE
  8
0
 10
1.59065
 20
24.2682
 11
2.01398
 21
24.2368
  0
LINE
  8
0
 10
2.01398
 20
24.2368
 11
2.43654
 21
24.1979
  0
LINE
  8
0
 10
2.43654
 20
24.1979
 11
2.85857
 21
24.1517
  0
LINE
  8
0
 10
2.85857
 20
24.1517
 11
3.27959
 21
24.0982
  0
LINE
  8
0
 10
3.27959
 20
24.0982
 11
3.69966
 21
24.0372
  0
LINE
  8
0
 10
3.69966
 20
24.0372
 11
4.11864
 21
23.969
  0
LINE
  8
0
 10
4.11864
 20
23.969
 11
4.53625
 21
23.8935
  0
LINE
  8
0
 10
4.53625
 20
23.8935
 11
4.95264
 21
23.8107
  0
LINE
  8
0
 10
4.95264
 20
23.8107
 11
5.36742
 21
23.7206
  0
LINE
  8
0
 10
5.36742
 20
23.7206
 11
5.78062
 21
23.6233
  0
LINE
  8
0
 10
5.78062
 20
23.6233
 11
6.19199
 21
23.5188
  0
LINE
  8
0
 10
6.19199
 20
23.5188
 11
6.60153
 21
23.4072
  0
LINE
  8
0
 10
6.60153
 20
23.4072
 11
7.009
 21
23.2884
  0
LINE
  8
0
 10
7.009
 20
23.2884
 11
7.41435
 21
23.1626
  0
LINE
  8
0
 10
7.41435
 20
23.1626
 11
7.81744
 21
23.0296
  0
LINE
  8
0
 10
7.81744
 20
23.0296
 11
8.21826
 21
22.8897
  0
LINE
  8
0
 10
8.21826
 20
22.8897
 11
8.61641
 21
22.7428
  0
LINE
  8
0
 10
8.61641
 20
22.7428
 11
9.01208
 21
22.5889
  0
LINE
  8
0
 10
9.01208
 20
22.5889
 11
9.40495
 21
22.4282
  0
LINE
  8
0
 10
9.40495
 20
22.4282
 11
9.79491
 21
22.2607
  0
LINE
  8
0
 10
9.79491
 20
22.2607
 11
10.1819
 21
22.0863
  0
LINE
  8
0
 10
10.1819
 20
22.0863
 11
10.5658
 21
21.9053
  0
LINE
  8
0
 10
10.5658
 20
21.9053
 11
10.9465
 21
21.7175
  0
LINE
  8
0
 10
10.9465
 20
21.7175
 11
11.3239
 21
21.5232
  0
LINE
  8
0
 10
11.3239
 20
21.5232
 11
11.6978
 21
21.3223
  0
LINE
  8
0
 10
11.6978
 20
21.3223
 11
12.0682
 21
21.1148
  0
LINE
  8
0
 10
12.0682
 20
21.1148
 11
12.4348
 21
20.901
  0
LINE
  8
0
 10
12.4348
 20
20.901
 11
12.7977
 21
20.6808
  0
LINE
  8
0
 10
12.7977
 20
20.6808
 11
13.1566
 21
20.4543
  0
LINE
  8
0
 10
13.1566
 20
20.4543
 11
13.5117
 21
20.2216
  0
LINE
  8
0
 10
13.5117
 20
20.2216
 11
13.8625
 21
19.9827
  0
LINE
  8
0
 10
13.8625
 20
19.9827
 11
14.2091
 21
19.7377
  0
LINE
  8
0
 10
14.2091
 20
19.7377
 11
14.5514
 21
19.4867
  0
LINE
  8
0
 10
14.5514
 20
19.4867
 11
14.8893
 21
19.2298
  0
LINE
  8
0
 10
14.8893
 20
19.2298
 11
15.2226
 21
18.967
  0
LINE
  8
0
 10
15.2226
 20
18.967
 11
15.5513
 21
18.6985
  0
LINE
  8
0
 10
15.5513
 20
18.6985
 11
15.8753
 21
18.4242
  0
LINE
  8
0
 10
15.8753
 20
18.4242
 11
16.1945
 21
18.1443
  0
LINE
  8
0
 10
16.1945
 20
18.1443
 11
16.5087
 21
17.8589
  0
LINE
  8
0
 10
16.5087
 20
17.8589
 11
16.8178
 21
17.5681
  0
LINE
  8
0
 10
16.8178
 20
17.5681
 11
17.1219
 21
17.2719
  0
LINE
  8
0
 10
17.1219
 20
17.2719
 11
17.4207
 21
16.9705
  0
LINE
  8
0
 10
17.4207
 20
16.9705
 11
17.7142
 21
16.6638
  0
LINE
  8
0
 10
17.7142
 20
16.6638
 11
18.0024
 21
16.3521
  0
LINE
  8
0
 10
18.0024
 20
16.3521
 11
18.2849
 21
16.0355
  0
LINE
  8
0
 10
18.2849
 20
16.0355
 11
18.562
 21
15.7139
  0
LINE
  8
0
 10
18.562
 20
15.7139
 11
18.8334
 21
15.3876
  0
LINE
  8
0
 10
18.8334
 20
15.3876
 11
19.0991
 21
15.0565
  0
LINE
  8
0
 10
19.0991
 20
15.0565
 11
19.359
 21
14.721
  0
LINE
  8
0
 10
19.359
 20
14.721
 11
19.613
 21
14.3808
  0
LINE
  8
0
 10
19.613
 20
14.3808
 11
19.8609
 21
14.0364
  0
LINE
  8
0
 10
19.8609
 20
14.0364
 11
20.1029
 21
13.6876
  0
LINE
  8
0
 10
20.1029
 20
13.6876
 11
20.3387
 21
13.3346
  0
LINE
  8
0
 10
20.3387
 20
13.3346
 11
20.5683
 21
12.9777
  0
LINE
  8
0
 10
20.5683
 20
12.9777
 11
20.7917
 21
12.6167
  0
LINE
  8
0
 10
20.7917
 20
12.6167
 11
21.0087
 21
12.2519
  0
LINE
  8
0
 10
21.0087
 20
12.2519
 11
21.2194
 21
11.8834
  0
LINE
  8
0
 10
21.2194
 20
11.8834
 11
21.4235
 21
11.5113
  0
LINE
  8
0
 10
21.4235
 20
11.5113
 11
21.6211
 21
11.1357
  0
LINE
  8
0
 10
21.6211
 20
11.1357
 11
21.8122
 21
10.7566
  0
LINE
  8
0
 10
21.8122
 20
10.7566
 11
21.9966
 21
10.3743
  0
LINE
  8
0
 10
21.9966
 20
10.3743
 11
22.1743
 21
9.98878
  0
LINE
  8
0
 10
22.1743
 20
9.98878
 11
22.3453
 21
9.60031
  0
LINE
  8
0
 10
22.3453
 20
9.60031
 11
22.5111
 21
9.20485
  0
LINE
  8
0
 10
22.5111
 20
9.20485
 11
22.6994
 21
9.08943
  0
LINE
  8
0
 10
22.6994
 20
9.08943
 11
22.9196
 21
9.10677
  0
LINE
  8
0
 10
12.4353
 20
18.3349
 11
12.3416
 21
18.3653
  0
LINE
  8
0
 10
12.3416
 20
18.3653
 11
12.2584
 21
18.4181
  0
LINE
  8
0
 10
12.2584
 20
18.4181
 11
12.191
 21
18.49
  0
LINE
  8
0
 10
12.191
 20
18.49
 11
12.1435
 21
18.5763
  0
LINE
  8
0
 10
12.1435
 20
18.5763
 11
12.119
 21
18.6718
  0
LINE
  8
0
 10
12.119
 20
18.6718
 11
12.119
 21
18.7703
  0
LINE
  8
0
 10
12.119
 20
18.7703
 11
12.1435
 21
18.8658
  0
LINE
  8
0
 10
12.1435
 20
18.8658
 11
12.191
 21
18.9521
  0
LINE
  8
0
 10
12.191
 20
18.9521
 11
12.2584
 21
19.024
  0
LINE
  8
0
 10
12.2584
 20
19.024
 11
12.3416
 21
19.0768
  0
LINE
  8
0
 10
12.3416
 20
19.0768
 11
12.4353
 21
19.1072
  0
LINE
  8
0
 10
12.4353
 20
19.1072
 11
12.5337
 21
19.1134
  0
LINE
  8
0
 10
12.5337
 20
19.1134
 11
12.6305
 21
19.0949
  0
LINE
  8
0
 10
12.6305
 20
19.0949
 11
12.7197
 21
19.053
  0
LINE
  8
0
 10
12.7197
 20
19.053
 11
12.7956
 21
18.9902
  0
LINE
  8
0
 10
12.7956
 20
18.9902
 11
12.8535
 21
18.9104
  0
LINE
  8
0
 10
12.8535
 20
18.9104
 11
12.8898
 21
18.8188
  0
LINE
  8
0
 10
12.8898
 20
18.8188
 11
12.9021
 21
18.7211
  0
LINE
  8
0
 10
12.9021
 20
18.7211
 11
12.8898
 21
18.6233
  0
LINE
  8
0
 10
12.8898
 20
18.6233
 11
12.8535
 21
18.5317
  0
LINE
  8
0
 10
12.8535
 20
18.5317
 11
12.7956
 21
18.4519
  0
LINE
  8
0
 10
12.7956
 20
18.4519
 11
12.7197
 21
18.3891
  0
LINE
  8
0
 10
12.7197
 20
18.3891
 11
12.6305
 21
18.3472
  0
LINE
  8
0
 10
12.6305
 20
18.3472
 11
12.5337
 21
18.3287
  0
LINE
  8
0
 10
12.5337
 20
18.3287
 11
12.4353
 21
18.3349
  0
LINE
  8
0
 10
-3.64291
 20
-20.9995
 11
-3.39973
 21
-20.8851
  0
LINE
  8
0
 10
-3.39973
 20
-20.8851
 11
-3.19266
 21
-20.7138
  0
LINE
  8
0
 10
-3.19266
 20
-20.7138
 11
-3.03468
 21
-20.4964
  0
LINE
  8
0
 10
-3.03468
 20
-20.4964
 11
-2.93575
 21
-20.2465
  0
LINE
  8
0
 10
-2.93575
 20
-20.2465
 11
-2.90205
 21
-19.9798
  0
LINE
  8
0
 10
-2.90205
 20
-19.9798
 11
-2.93575
 21
-19.7132
  0
LINE
  8
0
 10
-2.93575
 20
-19.7132
 11
-3.03468
 21
-19.4633
  0
LINE
  8
0
 10
-3.03468
 20
-19.4633
 11
-3.19266
 21
-19.2459
  0
LINE
  8
0
 10
-3.19266
 20
-19.2459
 11
-3.39973
 21
-19.0746
  0
LINE
  8
0
 10
-3.39973
 20
-19.0746
 11
-3.64291
 21
-18.9601
  0
LINE
  8
0
 10
-3.64291
 20
-18.9601
 11
-3.90691
 21
-18.9098
  0
LINE
  8
0
 10
-3.90691
 20
-18.9098
 11
-4.17514
 21
-18.9267
  0
LINE
  8
0
 10
-4.17514
 20
-18.9267
 11
-4.43074
 21
-19.0097
  0
LINE
  8
0
 10
-4.43074
 20
-19.0097
 11
-4.65765
 21
-19.1537
  0
LINE
  8
0
 10
-4.65765
 20
-19.1537
 11
-4.84164
 21
-19.3496
  0
LINE
  8
0
 10
-4.84164
 20
-19.3496
 11
-4.88409
 21
-19.4269
  0
LINE
  8
0
 10
-4.88409
 20
-19.4269
 11
-5.1001
 21
-19.3714
  0
LINE
  8
0
 10
-5.1001
 20
-19.3714
 11
-5.43733
 21
-19.2795
  0
LINE
  8
0
 10
-5.43733
 20
-19.2795
 11
-5.77303
 21
-19.1817
  0
LINE
  8
0
 10
-5.77303
 20
-19.1817
 11
-6.10686
 21
-19.078
  0
LINE
  8
0
 10
-6.10686
 20
-19.078
 11
-6.43893
 21
-18.9685
  0
LINE
  8
0
 10
-6.43893
 20
-18.9685
 11
-6.76898
 21
-18.8532
  0
LINE
  8
0
 10
-6.76898
 20
-18.8532
 11
-7.09698
 21
-18.7322
  0
LINE
  8
0
 10
-7.09698
 20
-18.7322
 11
-7.42287
 21
-18.6055
  0
LINE
  8
0
 10
-7.42287
 20
-18.6055
 11
-7.7464
 21
-18.4731
  0
LINE
  8
0
 10
-7.7464
 20
-18.4731
 11
-8.06763
 21
-18.3351
  0
LINE
  8
0
 10
-8.06763
 20
-18.3351
 11
-8.38637
 21
-18.1915
  0
LINE
  8
0
 10
-8.38637
 20
-18.1915
 11
-8.70258
 21
-18.0424
  0
LINE
  8
0
 10
-8.70258
 20
-18.0424
 11
-9.0162
 21
-17.8878
  0
LINE
  8
0
 10
-9.0162
 20
-17.8878
 11
-9.32698
 21
-17.7277
  0
LINE
  8
0
 10
-9.32698
 20
-17.7277
 11
-9.63496
 21
-17.5622
  0
LINE
  8
0
 10
-9.63496
 20
-17.5622
 11
-9.94003
 21
-17.3914
  0
LINE
  8
0
 10
-9.94003
 20
-17.3914
 11
-10.242
 21
-17.2152
  0
LINE
  8
0
 10
-10.242
 20
-17.2152
 11
-10.5409
 21
-17.0339
  0
LINE
  8
0
 10
-10.5409
 20
-17.0339
 11
-10.8366
 21
-16.8473
  0
LINE
  8
0
 10
-10.8366
 20
-16.8473
 11
-11.1289
 21
-16.6556
  0
LINE
  8
0
 10
-11.1289
 20
-16.6556
 11
-11.4179
 21
-16.4589
  0
LINE
  8
0
 10
-11.4179
 20
-16.4589
 11
-11.7034
 21
-16.2571
  0
LINE
  8
0
 10
-11.7034
 20
-16.2571
 11
-11.9853
 21
-16.0504
  0
LINE
  8
0
 10
-11.9853
 20
-16.0504
 11
-12.2637
 21
-15.8387
  0
LINE
  8
0
 10
-12.2637
 20
-15.8387
 11
-12.5383
 21
-15.6223
  0
LINE
  8
0
 10
-12.5383
 20
-15.6223
 11
-12.809
 21
-15.4011
  0
LINE
  8
0
 10
-12.809
 20
-15.4011
 11
-13.0758
 21
-15.1752
  0
LINE
  8
0
 10
-13.0758
 20
-15.1752
 11
-13.3387
 21
-14.9447
  0
LINE
  8
0
 10
-13.3387
 20
-14.9447
 11
-13.5975
 21
-14.7096
  0
LINE
  8
0
 10
-13.5975
 20
-14.7096
 11
-13.8521
 21
-14.4701
  0
LINE
  8
0
 10
-13.8521
 20
-14.4701
 11
-14.1026
 21
-14.2261
  0
LINE
  8
0
 10
-14.1026
 20
-14.2261
 11
-14.3486
 21
-13.9778
  0
LINE
  8
0
 10
-14.3486
 20
-13.9778
 11
-14.5904
 21
-13.7253
  0
LINE
  8
0
 10
-14.5904
 20
-13.7253
 11
-14.8278
 21
-13.4685
  0
LINE
  8
0
 10
-14.8278
 20
-13.4685
 11
-15.0605
 21
-13.2077
  0
LINE
  8
0
 10
-15.0605
 20
-13.2077
 11
-15.2887
 21
-12.9429
  0
LINE
  8
0
 10
-15.2887
 20
-12.9429
 11
-15.5123
 21
-12.6741
  0
LINE
  8
0
 10
-15.5123
 20
-12.6741
 11
-15.7311
 21
-12.4014
  0
LINE
  8
0
 10
-15.7311
 20
-12.4014
 11
-15.9452
 21
-12.125
  0
LINE
  8
0
 10
-15.9452
 20
-12.125
 11
-16.1543
 21
-11.8449
  0
LINE
  8
0
 10
-16.1543
 20
-11.8449
 11
-16.3586
 21
-11.5611
  0
LINE
  8
0
 10
-16.3586
 20
-11.5611
 11
-16.5579
 21
-11.2739
  0
LINE
  8
0
 10
-16.5579
 20
-11.2739
 11
-16.7521
 21
-10.9832
  0
LINE
  8
0
 10
-16.7521
 20
-10.9832
 11
-16.9412
 21
-10.6891
  0
LINE
  8
0
 10
-16.9412
 20
-10.6891
 11
-17.1252
 21
-10.3918
  0
LINE
  8
0
 10
-17.1252
 20
-10.3918
 11
-17.304
 21
-10.0914
  0
LINE
  8
0
 10
-17.304
 20
-10.0914
 11
-17.4775
 21
-9.78783
  0
LINE
  8
0
 10
-17.4775
 20
-9.78783
 11
-17.6456
 21
-9.48134
  0
LINE
  8
0
 10
-17.6456
 20
-9.48134
 11
-17.8084
 21
-9.17191
  0
LINE
  8
0
 10
-17.8084
 20
-9.17191
 11
-17.9657
 21
-8.85976
  0
LINE
  8
0
 10
-17.9657
 20
-8.85976
 11
-18.1176
 21
-8.54488
  0
LINE
  8
0
 10
-18.1176
 20
-8.54488
 11
-18.264
 21
-8.22734
  0
LINE
  8
0
 10
-18.264
 20
-8.22734
 11
-18.4048
 21
-7.90733
  0
LINE
  8
0
 10
-18.4048
 20
-7.90733
 11
-18.5488
 21
-7.56364
  0
LINE
  8
0
 10
-18.5488
 20
-7.56364
 11
-18.7372
 21
-7.44823
  0
LINE
  8
0
 10
-18.7372
 20
-7.44823
 11
-18.9574
 21
-7.46556
  0
LINE
  8
0
 10
-18.9574
 20
-7.46556
 11
-19.0002
 21
-7.50217
  0
LINE
  8
0
 10
-19.0002
 20
-7.50217
 11
-19.0564
 21
-7.50659
  0
LINE
  8
0
 10
-19.0564
 20
-7.50659
 11
-19.0993
 21
-7.5432
  0
LINE
  8
0
 10
-19.0993
 20
-7.5432
 11
-19.1555
 21
-7.54762
  0
LINE
  8
0
 10
-19.1555
 20
-7.54762
 11
-19.1983
 21
-7.58423
  0
LINE
  8
0
 10
-19.1983
 20
-7.58423
 11
-19.2545
 21
-7.58865
  0
LINE
  8
0
 10
-19.2545
 20
-7.58865
 11
-19.2974
 21
-7.62526
  0
LINE
  8
0
 10
-19.2974
 20
-7.62526
 11
-19.3536
 21
-7.62968
  0
LINE
  8
0
 10
-19.3536
 20
-7.62968
 11
-19.3965
 21
-7.66629
  0
LINE
  8
0
 10
-19.3965
 20
-7.66629
 11
-19.4527
 21
-7.67072
  0
LINE
  8
0
 10
-19.4527
 20
-7.67072
 11
-19.4955
 21
-7.70732
  0
LINE
  8
0
 10
-19.4955
 20
-7.70732
 11
-19.5517
 21
-7.71175
  0
LINE
  8
0
 10
-19.5517
 20
-7.71175
 11
-19.5946
 21
-7.74835
  0
LINE
  8
0
 10
-19.5946
 20
-7.74835
 11
-19.6508
 21
-7.75278
  0
LINE
  8
0
 10
-19.6508
 20
-7.75278
 11
-19.6936
 21
-7.78938
  0
LINE
  8
0
 10
-19.6936
 20
-7.78938
 11
-19.7498
 21
-7.79381
  0
LINE
  8
0
 10
-19.7498
 20
-7.79381
 11
-19.7927
 21
-7.83041
  0
LINE
  8
0
 10
-19.7927
 20
-7.83041
 11
-19.8489
 21
-7.83482
  0
LINE
  8
0
 10
-19.8489
 20
-7.83482
 11
-19.8917
 21
-7.87144
  0
LINE
  8
0
 10
-19.8917
 20
-7.87144
 11
-19.9479
 21
-7.87585
  0
LINE
  8
0
 10
-19.9479
 20
-7.87585
 11
-19.9908
 21
-7.91248
  0
LINE
  8
0
 10
-19.9908
 20
-7.91248
 11
-20.047
 21
-7.91689
  0
LINE
  8
0
 10
-20.047
 20
-7.91689
 11
-20.0898
 21
-7.95351
  0
LINE
  8
0
 10
-20.0898
 20
-7.95351
 11
-20.146
 21
-7.95792
  0
LINE
  8
0
 10
-20.146
 20
-7.95792
 11
-20.1889
 21
-7.99452
  0
LINE
  8
0
 10
-20.1889
 20
-7.99452
 11
-20.2451
 21
-7.99895
  0
LINE
  8
0
 10
-20.2451
 20
-7.99895
 11
-20.288
 21
-8.03555
  0
LINE
  8
0
 10
-20.288
 20
-8.03555
 11
-20.3441
 21
-8.03998
  0
LINE
  8
0
 10
-20.3441
 20
-8.03998
 11
-20.387
 21
-8.07658
  0
LINE
  8
0
 10
-20.387
 20
-8.07658
 11
-20.4432
 21
-8.08101
  0
LINE
  8
0
 10
-20.4432
 20
-8.08101
 11
-20.4861
 21
-8.11761
  0
LINE
  8
0
 10
-20.4861
 20
-8.11761
 11
-20.5423
 21
-8.12204
  0
LINE
  8
0
 10
-20.5423
 20
-8.12204
 11
-20.5851
 21
-8.15865
  0
LINE
  8
0
 10
-20.5851
 20
-8.15865
 11
-20.6413
 21
-8.16307
  0
LINE
  8
0
 10
-20.6413
 20
-8.16307
 11
-20.6842
 21
-8.19968
  0
LINE
  8
0
 10
-20.6842
 20
-8.19968
 11
-20.7404
 21
-8.2041
  0
LINE
  8
0
 10
-20.7404
 20
-8.2041
 11
-20.7832
 21
-8.24071
  0
LINE
  8
0
 10
-20.7832
 20
-8.24071
 11
-20.8394
 21
-8.24513
  0
LINE
  8
0
 10
-20.8394
 20
-8.24513
 11
-20.8823
 21
-8.28174
  0
LINE
  8
0
 10
-20.8823
 20
-8.28174
 11
-20.9385
 21
-8.28616
  0
LINE
  8
0
 10
-20.9385
 20
-8.28616
 11
-20.9814
 21
-8.32277
  0
LINE
  8
0
 10
-20.9814
 20
-8.32277
 11
-21.0376
 21
-8.32719
  0
LINE
  8
0
 10
-21.0376
 20
-8.32719
 11
-21.0804
 21
-8.3638
  0
LINE
  8
0
 10
-21.0804
 20
-8.3638
 11
-21.1366
 21
-8.36823
  0
LINE
  8
0
 10
-21.1366
 20
-8.36823
 11
-21.1795
 21
-8.40483
  0
LINE
  8
0
 10
-21.1795
 20
-8.40483
 11
-21.2357
 21
-8.40926
  0
LINE
  8
0
 10
-21.2357
 20
-8.40926
 11
-21.2785
 21
-8.44586
  0
LINE
  8
0
 10
-21.2785
 20
-8.44586
 11
-21.3347
 21
-8.45029
  0
LINE
  8
0
 10
-21.3347
 20
-8.45029
 11
-21.3776
 21
-8.48689
  0
LINE
  8
0
 10
-21.3776
 20
-8.48689
 11
-21.4338
 21
-8.49132
  0
LINE
  8
0
 10
-21.4338
 20
-8.49132
 11
-21.4766
 21
-8.52792
  0
LINE
  8
0
 10
-21.4766
 20
-8.52792
 11
-21.5328
 21
-8.53235
  0
LINE
  8
0
 10
-21.5328
 20
-8.53235
 11
-21.5757
 21
-8.56895
  0
LINE
  8
0
 10
-21.5757
 20
-8.56895
 11
-21.6319
 21
-8.57338
  0
LINE
  8
0
 10
-21.6319
 20
-8.57338
 11
-21.6747
 21
-8.60999
  0
LINE
  8
0
 10
-21.6747
 20
-8.60999
 11
-21.7309
 21
-8.61441
  0
LINE
  8
0
 10
-21.7309
 20
-8.61441
 11
-21.7738
 21
-8.65102
  0
LINE
  8
0
 10
-21.7738
 20
-8.65102
 11
-21.83
 21
-8.65544
  0
LINE
  8
0
 10
-21.83
 20
-8.65544
 11
-21.8728
 21
-8.69205
  0
LINE
  8
0
 10
-21.8728
 20
-8.69205
 11
-21.929
 21
-8.69647
  0
LINE
  8
0
 10
-21.929
 20
-8.69647
 11
-21.9719
 21
-8.73308
  0
LINE
  8
0
 10
-21.9719
 20
-8.73308
 11
-22.0281
 21
-8.7375
  0
LINE
  8
0
 10
-22.0281
 20
-8.7375
 11
-22.071
 21
-8.77411
  0
LINE
  8
0
 10
-22.071
 20
-8.77411
 11
-22.1272
 21
-8.77853
  0
LINE
  8
0
 10
-22.1272
 20
-8.77853
 11
-22.17
 21
-8.81514
  0
LINE
  8
0
 10
-22.17
 20
-8.81514
 11
-22.2262
 21
-8.81956
  0
LINE
  8
0
 10
-22.2262
 20
-8.81956
 11
-22.2691
 21
-8.85617
  0
LINE
  8
0
 10
-22.2691
 20
-8.85617
 11
-22.3253
 21
-8.86058
  0
LINE
  8
0
 10
-22.3253
 20
-8.86058
 11
-22.3681
 21
-8.8972
  0
LINE
  8
0
 10
-22.3681
 20
-8.8972
 11
-22.4243
 21
-8.90161
  0
LINE
  8
0
 10
-22.4243
 20
-8.90161
 11
-22.4672
 21
-8.93823
  0
LINE
  8
0
 10
-22.4672
 20
-8.93823
 11
-22.5234
 21
-8.94264
  0
LINE
  8
0
 10
-22.5234
 20
-8.94264
 11
-22.5662
 21
-8.97926
  0
LINE
  8
0
 10
-22.5662
 20
-8.97926
 11
-22.6007
 21
-8.98196
  0
LINE
  8
0
 10
-22.6007
 20
-8.98196
 11
-22.705
 21
-8.71561
  0
LINE
  8
0
 10
-22.705
 20
-8.71561
 11
-22.8536
 21
-8.31804
  0
LINE
  8
0
 10
-22.8536
 20
-8.31804
 11
-22.9953
 21
-7.91789
  0
LINE
  8
0
 10
-22.9953
 20
-7.91789
 11
-23.13
 21
-7.51537
  0
LINE
  8
0
 10
-23.13
 20
-7.51537
 11
-23.2576
 21
-7.11055
  0
LINE
  8
0
 10
-23.2576
 20
-7.11055
 11
-23.3782
 21
-6.70358
  0
LINE
  8
0
 10
-23.3782
 20
-6.70358
 11
-23.4916
 21
-6.29451
  0
LINE
  8
0
 10
-23.4916
 20
-6.29451
 11
-23.5979
 21
-5.88359
  0
LINE
  8
0
 10
-23.5979
 20
-5.88359
 11
-23.697
 21
-5.47087
  0
LINE
  8
0
 10
-23.697
 20
-5.47087
 11
-23.7888
 21
-5.05647
  0
LINE
  8
0
 10
-23.7888
 20
-5.05647
 11
-23.8735
 21
-4.64052
  0
LINE
  8
0
 10
-23.8735
 20
-4.64052
 11
-23.9508
 21
-4.22314
  0
LINE
  8
0
 10
-23.9508
 20
-4.22314
 11
-24.0209
 21
-3.80452
  0
LINE
  8
0
 10
-24.0209
 20
-3.80452
 11
-24.0836
 21
-3.38472
  0
LINE
  8
0
 10
-24.0836
 20
-3.38472
 11
-24.139
 21
-2.96391
  0
LINE
  8
0
 10
-24.139
 20
-2.96391
 11
-24.1871
 21
-2.5421
  0
LINE
  8
0
 10
-24.1871
 20
-2.5421
 11
-24.2278
 21
-2.11969
  0
LINE
  8
0
 10
-24.2278
 20
-2.11969
 11
-24.261
 21
-1.69652
  0
LINE
  8
0
 10
-24.261
 20
-1.69652
 11
-24.287
 21
-1.27284
  0
LINE
  8
0
 10
-24.287
 20
-1.27284
 11
-24.3055
 21
-0.848785
  0
LINE
  8
0
 10
-24.3055
 20
-0.848785
 11
-24.3166
 21
-0.424408
  0
LINE
  8
0
 10
-24.3166
 20
-0.424408
 11
-24.3203
 21
0
  0
LINE
  8
0
 10
-24.3203
 20
0
 11
-24.3166
 21
0.424408
  0
LINE
  8
0
 10
-24.3166
 20
0.424408
 11
-24.3055
 21
0.848785
  0
LINE
  8
0
 10
-24.3055
 20
0.848785
 11
-24.287
 21
1.27284
  0
LINE
  8
0
 10
-24.287
 20
1.27284
 11
-24.261
 21
1.69652
  0
LINE
  8
0
 10
-24.261
 20
1.69652
 11
-24.2278
 21
2.11969
  0
LINE
  8
0
 10
-24.2278
 20
2.11969
 11
-24.1871
 21
2.5421
  0
LINE
  8
0
 10
-24.1871
 20
2.5421
 11
-24.139
 21
2.96391
  0
LINE
  8
0
 10
-24.139
 20
2.96391
 11
-24.0836
 21
3.38472
  0
LINE
  8
0
 10
-24.0836
 20
3.38472
 11
-24.0209
 21
3.80452
  0
LINE
  8
0
 10
-24.0209
 20
3.80452
 11
-23.9508
 21
4.22314
  0
LINE
  8
0
 10
-23.9508
 20
4.22314
 11
-23.8735
 21
4.64052
  0
LINE
  8
0
 10
-23.8735
 20
4.64052
 11
-23.7888
 21
5.05647
  0
LINE
  8
0
 10
-23.7888
 20
5.05647
 11
-23.697
 21
5.47087
  0
LINE
  8
0
 10
-23.697
 20
5.47087
 11
-23.5979
 21
5.88359
  0
LINE
  8
0
 10
-23.5979
 20
5.88359
 11
-23.4916
 21
6.29451
  0
LINE
  8
0
 10
-23.4916
 20
6.29451
 11
-23.3782
 21
6.70358
  0
LINE
  8
0
 10
-23.3782
 20
6.70358
 11
-23.2576
 21
7.11055
  0
LINE
  8
0
 10
-23.2576
 20
7.11055
 11
-23.13
 21
7.51537
  0
LINE
  8
0
 10
-23.13
 20
7.51537
 11
-22.9953
 21
7.91789
  0
LINE
  8
0
 10
-22.9953
 20
7.91789
 11
-22.8536
 21
8.31804
  0
LINE
  8
0
 10
-22.8536
 20
8.31804
 11
-22.705
 21
8.71561
  0
LINE
  8
0
 10
-22.705
 20
8.71561
 11
-22.5494
 21
9.11052
  0
LINE
  8
0
 10
-22.5494
 20
9.11052
 11
-22.3869
 21
9.50273
  0
LINE
  8
0
 10
-22.3869
 20
9.50273
 11
-22.2177
 21
9.89197
  0
LINE
  8
0
 10
-22.2177
 20
9.89197
 11
-22.0417
 21
10.2782
  0
LINE
  8
0
 10
-22.0417
 20
10.2782
 11
-21.859
 21
10.6612
  0
LINE
  8
0
 10
-21.859
 20
10.6612
 11
-21.6696
 21
11.0412
  0
LINE
  8
0
 10
-21.6696
 20
11.0412
 11
-21.4736
 21
11.4176
  0
LINE
  8
0
 10
-21.4736
 20
11.4176
 11
-21.271
 21
11.7907
  0
LINE
  8
0
 10
-21.271
 20
11.7907
 11
-21.062
 21
12.1601
  0
LINE
  8
0
 10
-21.062
 20
12.1601
 11
-20.8466
 21
12.5258
  0
LINE
  8
0
 10
-20.8466
 20
12.5258
 11
-20.6248
 21
12.8878
  0
LINE
  8
0
 10
-20.6248
 20
12.8878
 11
-20.4142
 21
13.2186
  0
LINE
  8
0
 10
-20.4142
 20
13.2186
 11
-20.3809
 21
13.2092
  0
LINE
  8
0
 10
-20.3809
 20
13.2092
 11
-20.346
 21
13.1649
  0
LINE
  8
0
 10
-20.346
 20
13.1649
 11
-20.2917
 21
13.1496
  0
LINE
  8
0
 10
-20.2917
 20
13.1496
 11
-20.2568
 21
13.1053
  0
LINE
  8
0
 10
-20.2568
 20
13.1053
 11
-20.2026
 21
13.09
  0
LINE
  8
0
 10
-20.2026
 20
13.09
 11
-20.1677
 21
13.0458
  0
LINE
  8
0
 10
-20.1677
 20
13.0458
 11
-20.1134
 21
13.0305
  0
LINE
  8
0
 10
-20.1134
 20
13.0305
 11
-20.0785
 21
12.9862
  0
LINE
  8
0
 10
-20.0785
 20
12.9862
 11
-20.0243
 21
12.9709
  0
LINE
  8
0
 10
-20.0243
 20
12.9709
 11
-19.9894
 21
12.9267
  0
LINE
  8
0
 10
-19.9894
 20
12.9267
 11
-19.9351
 21
12.9113
  0
LINE
  8
0
 10
-19.9351
 20
12.9113
 11
-19.9002
 21
12.8671
  0
LINE
  8
0
 10
-19.9002
 20
12.8671
 11
-19.846
 21
12.8518
  0
LINE
  8
0
 10
-19.846
 20
12.8518
 11
-19.8111
 21
12.8075
  0
LINE
  8
0
 10
-19.8111
 20
12.8075
 11
-19.7568
 21
12.7922
  0
LINE
  8
0
 10
-19.7568
 20
12.7922
 11
-19.7219
 21
12.7479
  0
LINE
  8
0
 10
-19.7219
 20
12.7479
 11
-19.6677
 21
12.7327
  0
LINE
  8
0
 10
-19.6677
 20
12.7327
 11
-19.6328
 21
12.6884
  0
LINE
  8
0
 10
-19.6328
 20
12.6884
 11
-19.5785
 21
12.6731
  0
LINE
  8
0
 10
-19.5785
 20
12.6731
 11
-19.5436
 21
12.6288
  0
LINE
  8
0
 10
-19.5436
 20
12.6288
 11
-19.4894
 21
12.6135
  0
LINE
  8
0
 10
-19.4894
 20
12.6135
 11
-19.4545
 21
12.5692
  0
LINE
  8
0
 10
-19.4545
 20
12.5692
 11
-19.4003
 21
12.5539
  0
LINE
  8
0
 10
-19.4003
 20
12.5539
 11
-19.3654
 21
12.5097
  0
LINE
  8
0
 10
-19.3654
 20
12.5097
 11
-19.3111
 21
12.4944
  0
LINE
  8
0
 10
-19.3111
 20
12.4944
 11
-19.2762
 21
12.4501
  0
LINE
  8
0
 10
-19.2762
 20
12.4501
 11
-19.222
 21
12.4348
  0
LINE
  8
0
 10
-19.222
 20
12.4348
 11
-19.1871
 21
12.3905
  0
LINE
  8
0
 10
-19.1871
 20
12.3905
 11
-19.1328
 21
12.3752
  0
LINE
  8
0
 10
-19.1328
 20
12.3752
 11
-19.0979
 21
12.331
  0
LINE
  8
0
 10
-19.0979
 20
12.331
 11
-19.0437
 21
12.3157
  0
LINE
  8
0
 10
-19.0437
 20
12.3157
 11
-19.0088
 21
12.2714
  0
LINE
  8
0
 10
-19.0088
 20
12.2714
 11
-18.9545
 21
12.2561
  0
LINE
  8
0
 10
-18.9545
 20
12.2561
 11
-18.9196
 21
12.2119
  0
LINE
  8
0
 10
-18.9196
 20
12.2119
 11
-18.707
 21
12.1519
  0
LINE
  8
0
 10
-18.707
 20
12.1519
 11
-18.4998
 21
12.2283
  0
LINE
  8
0
 10
-18.4998
 20
12.2283
 11
-18.2757
 21
12.5606
  0
LINE
  8
0
 10
-18.2757
 20
12.5606
 11
-18.0538
 21
12.8776
  0
LINE
  8
0
 10
-18.0538
 20
12.8776
 11
-17.8263
 21
13.1908
  0
LINE
  8
0
 10
-17.8263
 20
13.1908
 11
-17.5934
 21
13.4998
  0
LINE
  8
0
 10
-17.5934
 20
13.4998
 11
-17.3551
 21
13.8049
  0
LINE
  8
0
 10
-17.3551
 20
13.8049
 11
-17.1115
 21
14.1056
  0
LINE
  8
0
 10
-17.1115
 20
14.1056
 11
-16.8627
 21
14.4021
  0
LINE
  8
0
 10
-16.8627
 20
14.4021
 11
-16.6088
 21
14.6942
  0
LINE
  8
0
 10
-16.6088
 20
14.6942
 11
-16.3498
 21
14.9818
  0
LINE
  8
0
 10
-16.3498
 20
14.9818
 11
-16.0859
 21
15.2649
  0
LINE
  8
0
 10
-16.0859
 20
15.2649
 11
-15.817
 21
15.5433
  0
LINE
  8
0
 10
-15.817
 20
15.5433
 11
-15.5433
 21
15.817
  0
LINE
  8
0
 10
-15.5433
 20
15.817
 11
-15.2649
 21
16.0859
  0
LINE
  8
0
 10
-15.2649
 20
16.0859
 11
-14.9818
 21
16.3498
  0
LINE
  8
0
 10
-14.9818
 20
16.3498
 11
-14.6942
 21
16.6088
  0
LINE
  8
0
 10
-14.6942
 20
16.6088
 11
-14.4021
 21
16.8627
  0
LINE
  8
0
 10
-14.4021
 20
16.8627
 11
-14.1056
 21
17.1115
  0
LINE
  8
0
 10
-14.1056
 20
17.1115
 11
-13.8049
 21
17.3551
  0
LINE
  8
0
 10
-13.8049
 20
17.3551
 11
-13.4998
 21
17.5934
  0
LINE
  8
0
 10
-13.4998
 20
17.5934
 11
-13.1908
 21
17.8263
  0
LINE
  8
0
 10
-13.1908
 20
17.8263
 11
-12.8776
 21
18.0538
  0
LINE
  8
0
 10
-12.8776
 20
18.0538
 11
-12.5606
 21
18.2757
  0
LINE
  8
0
 10
-12.5606
 20
18.2757
 11
-12.2397
 21
18.4922
  0
LINE
  8
0
 10
-12.2397
 20
18.4922
 11
-11.9151
 21
18.703
  0
LINE
  8
0
 10
-11.9151
 20
18.703
 11
-11.5869
 21
18.9081
  0
LINE
  8
0
 10
-11.5869
 20
18.9081
 11
-11.2551
 21
19.1074
  0
LINE
  8
0
 10
-11.2551
 20
19.1074
 11
-10.92
 21
19.3009
  0
LINE
  8
0
 10
-10.92
 20
19.3009
 11
-10.5814
 21
19.4886
  0
LINE
  8
0
 10
-10.5814
 20
19.4886
 11
-10.2397
 21
19.6703
  0
LINE
  8
0
 10
-10.2397
 20
19.6703
 11
-9.89485
 21
19.846
  0
LINE
  8
0
 10
-9.89485
 20
19.846
 11
-9.54695
 21
20.0157
  0
LINE
  8
0
 10
-9.54695
 20
20.0157
 11
-9.19623
 21
20.1792
  0
LINE
  8
0
 10
-9.19623
 20
20.1792
 11
-8.84264
 21
20.3367
  0
LINE
  8
0
 10
-8.84264
 20
20.3367
 11
-8.48636
 21
20.4879
  0
LINE
  8
0
 10
-8.48636
 20
20.4879
 11
-8.12747
 21
20.6329
  0
LINE
  8
0
 10
-8.12747
 20
20.6329
 11
-7.76614
 21
20.7716
  0
LINE
  8
0
 10
-7.76614
 20
20.7716
 11
-7.40245
 21
20.904
  0
LINE
  8
0
 10
-7.40245
 20
20.904
 11
-7.03654
 21
21.03
  0
LINE
  8
0
 10
-7.03654
 20
21.03
 11
-6.66838
 21
21.1496
  0
LINE
  8
0
 10
-6.66838
 20
21.1496
 11
-6.29831
 21
21.2627
  0
LINE
  8
0
 10
-6.29831
 20
21.2627
 11
-5.92622
 21
21.3694
  0
LINE
  8
0
 10
-5.92622
 20
21.3694
 11
-5.55234
 21
21.4696
  0
LINE
  8
0
 10
-5.55234
 20
21.4696
 11
-5.17683
 21
21.5632
  0
LINE
  8
0
 10
-5.17683
 20
21.5632
 11
-4.7997
 21
21.6503
  0
LINE
  8
0
 10
-4.7997
 20
21.6503
 11
-4.42114
 21
21.7307
  0
LINE
  8
0
 10
-4.42114
 20
21.7307
 11
-4.21794
 21
21.7712
  0
LINE
  8
0
 10
-4.21794
 20
21.7712
 11
-4.06801
 21
21.9334
  0
LINE
  8
0
 10
-4.06801
 20
21.9334
 11
-4.04205
 21
22.1527
  0
LINE
  8
0
 10
-4.04205
 20
22.1527
 11
-4.0696
 21
22.2019
  0
LINE
  8
0
 10
-4.0696
 20
22.2019
 11
-4.06297
 21
22.2579
  0
LINE
  8
0
 10
-4.06297
 20
22.2579
 11
-4.09052
 21
22.3071
  0
LINE
  8
0
 10
-4.09052
 20
22.3071
 11
-4.08388
 21
22.363
  0
LINE
  8
0
 10
-4.08388
 20
22.363
 11
-4.11142
 21
22.4122
  0
LINE
  8
0
 10
-4.11142
 20
22.4122
 11
-4.1048
 21
22.4682
  0
LINE
  8
0
 10
-4.1048
 20
22.4682
 11
-4.13234
 21
22.5174
  0
LINE
  8
0
 10
-4.13234
 20
22.5174
 11
-4.12572
 21
22.5733
  0
LINE
  8
0
 10
-4.12572
 20
22.5733
 11
-4.15326
 21
22.6225
  0
LINE
  8
0
 10
-4.15326
 20
22.6225
 11
-4.14664
 21
22.6785
  0
LINE
  8
0
 10
-4.14664
 20
22.6785
 11
-4.17418
 21
22.7277
  0
LINE
  8
0
 10
-4.17418
 20
22.7277
 11
-4.16756
 21
22.7837
  0
LINE
  8
0
 10
-4.16756
 20
22.7837
 11
-4.1951
 21
22.8328
  0
LINE
  8
0
 10
-4.1951
 20
22.8328
 11
-4.18846
 21
22.8888
  0
LINE
  8
0
 10
-4.18846
 20
22.8888
 11
-4.21602
 21
22.938
  0
LINE
  8
0
 10
-4.21602
 20
22.938
 11
-4.20938
 21
22.994
  0
LINE
  8
0
 10
-4.20938
 20
22.994
 11
-4.23692
 21
23.0432
  0
LINE
  8
0
 10
-4.23692
 20
23.0432
 11
-4.2303
 21
23.0991
  0
LINE
  8
0
 10
-4.2303
 20
23.0991
 11
-4.25784
 21
23.1483
  0
LINE
  8
0
 10
-4.25784
 20
23.1483
 11
-4.25122
 21
23.2043
  0
LINE
  8
0
 10
-4.25122
 20
23.2043
 11
-4.27876
 21
23.2535
  0
LINE
  8
0
 10
-4.27876
 20
23.2535
 11
-4.27214
 21
23.3094
  0
LINE
  8
0
 10
-4.27214
 20
23.3094
 11
-4.29968
 21
23.3586
  0
LINE
  8
0
 10
-4.29968
 20
23.3586
 11
-4.29306
 21
23.4146
  0
LINE
  8
0
 10
-4.29306
 20
23.4146
 11
-4.3206
 21
23.4638
  0
LINE
  8
0
 10
-4.3206
 20
23.4638
 11
-4.31396
 21
23.5198
  0
LINE
  8
0
 10
-4.31396
 20
23.5198
 11
-4.34151
 21
23.5689
  0
LINE
  8
0
 10
-4.34151
 20
23.5689
 11
-4.33488
 21
23.6249
  0
LINE
  8
0
 10
-4.33488
 20
23.6249
 11
-4.36243
 21
23.6741
  0
LINE
  8
0
 10
-4.36243
 20
23.6741
 11
-4.3558
 21
23.7301
  0
LINE
  8
0
 10
-4.3558
 20
23.7301
 11
-4.38335
 21
23.7793
  0
LINE
  8
0
 10
-4.38335
 20
23.7793
 11
-4.37672
 21
23.8352
  0
LINE
  8
0
 10
-4.37672
 20
23.8352
 11
-4.40427
 21
23.8844
  0
LINE
  8
0
 10
-4.40427
 20
23.8844
 11
-4.39764
 21
23.9404
  0
LINE
  8
0
 10
-4.39764
 20
23.9404
 11
-4.42519
 21
23.9896
  0
LINE
  8
0
 10
-4.42519
 20
23.9896
 11
-4.41856
 21
24.0455
  0
LINE
  8
0
 10
-4.41856
 20
24.0455
 11
-4.44611
 21
24.0947
  0
LINE
  8
0
 10
-4.44611
 20
24.0947
 11
-4.43947
 21
24.1507
  0
LINE
  8
0
 10
-4.43947
 20
24.1507
 11
-4.46701
 21
24.1999
  0
LINE
  8
0
 10
-4.46701
 20
24.1999
 11
-4.46039
 21
24.2559
  0
LINE
  8
0
 10
-4.46039
 20
24.2559
 11
-4.56831
 21
24.4486
  0
LINE
  8
0
 10
-4.56831
 20
24.4486
 11
-4.76891
 21
24.541
  0
LINE
  8
0
 10
-4.76891
 20
24.541
 11
-5.19914
 21
24.4535
  0
LINE
  8
0
 10
-5.19914
 20
24.4535
 11
-5.62514
 21
24.359
  0
LINE
  8
0
 10
-5.62514
 20
24.359
 11
-6.04939
 21
24.2572
  0
LINE
  8
0
 10
-6.04939
 20
24.2572
 11
-6.47182
 21
24.1479
  0
LINE
  8
0
 10
-6.47182
 20
24.1479
 11
-6.89227
 21
24.0313
  0
LINE
  8
0
 10
-6.89227
 20
24.0313
 11
-7.31062
 21
23.9073
  0
LINE
  8
0
 10
-7.31062
 20
23.9073
 11
-7.72676
 21
23.7761
  0
LINE
  8
0
 10
-7.72676
 20
23.7761
 11
-8.14053
 21
23.6376
  0
LINE
  8
0
 10
-8.14053
 20
23.6376
 11
-8.55182
 21
23.4919
  0
LINE
  8
0
 10
-8.55182
 20
23.4919
 11
-8.96051
 21
23.3391
  0
LINE
  8
0
 10
-8.96051
 20
23.3391
 11
-9.36647
 21
23.1792
  0
LINE
  8
0
 10
-9.36647
 20
23.1792
 11
-9.76958
 21
23.0122
  0
LINE
  8
0
 10
-9.76958
 20
23.0122
 11
-10.1697
 21
22.8382
  0
LINE
  8
0
 10
-10.1697
 20
22.8382
 11
-10.5667
 21
22.6572
  0
LINE
  8
0
 10
-10.5667
 20
22.6572
 11
-10.9606
 21
22.4693
  0
LINE
  8
0
 10
-10.9606
 20
22.4693
 11
-11.351
 21
22.2746
  0
LINE
  8
0
 10
-11.351
 20
22.2746
 11
-11.738
 21
22.0731
  0
LINE
  8
0
 10
-11.738
 20
22.0731
 11
-12.1215
 21
21.8649
  0
LINE
  8
0
 10
-12.1215
 20
21.8649
 11
-12.5012
 21
21.65
  0
LINE
  8
0
 10
-12.5012
 20
21.65
 11
-12.8772
 21
21.4286
  0
LINE
  8
0
 10
-12.8772
 20
21.4286
 11
-13.2492
 21
21.2006
  0
LINE
  8
0
 10
-13.2492
 20
21.2006
 11
-13.6172
 21
20.9661
  0
LINE
  8
0
 10
-13.6172
 20
20.9661
 11
-13.981
 21
20.7253
  0
LINE
  8
0
 10
-13.981
 20
20.7253
 11
-14.3406
 21
20.4781
  0
LINE
  8
0
 10
-14.3406
 20
20.4781
 11
-14.6958
 21
20.2247
  0
LINE
  8
0
 10
-14.6958
 20
20.2247
 11
-15.0465
 21
19.9651
  0
LINE
  8
0
 10
-15.0465
 20
19.9651
 11
-15.3927
 21
19.6995
  0
LINE
  8
0
 10
-15.3927
 20
19.6995
 11
-15.7341
 21
19.4279
  0
LINE
  8
0
 10
-15.7341
 20
19.4279
 11
-16.0708
 21
19.1503
  0
LINE
  8
0
 10
-16.0708
 20
19.1503
 11
-16.4026
 21
18.8669
  0
LINE
  8
0
 10
-16.4026
 20
18.8669
 11
-16.7294
 21
18.5778
  0
LINE
  8
0
 10
-16.7294
 20
18.5778
 11
-17.051
 21
18.283
  0
LINE
  8
0
 10
-17.051
 20
18.283
 11
-17.3675
 21
17.9826
  0
LINE
  8
0
 10
-17.3675
 20
17.9826
 11
-17.6787
 21
17.6768
  0
LINE
  8
0
 10
-17.6787
 20
17.6768
 11
-17.7142
 21
17.4588
  0
LINE
  8
0
 10
-17.7142
 20
17.4588
 11
-17.6148
 21
17.2615
  0
LINE
  8
0
 10
-17.6148
 20
17.2615
 11
-17.4184
 21
17.1604
  0
LINE
  8
0
 10
-17.4184
 20
17.1604
 11
-17.2001
 21
17.194
  0
LINE
  8
0
 10
-17.2001
 20
17.194
 11
-16.8943
 21
17.4946
  0
LINE
  8
0
 10
-16.8943
 20
17.4946
 11
-16.5864
 21
17.7867
  0
LINE
  8
0
 10
-16.5864
 20
17.7867
 11
-16.2734
 21
18.0735
  0
LINE
  8
0
 10
-16.2734
 20
18.0735
 11
-15.9555
 21
18.3548
  0
LINE
  8
0
 10
-15.9555
 20
18.3548
 11
-15.6328
 21
18.6304
  0
LINE
  8
0
 10
-15.6328
 20
18.6304
 11
-15.3053
 21
18.9004
  0
LINE
  8
0
 10
-15.3053
 20
18.9004
 11
-14.973
 21
19.1647
  0
LINE
  8
0
 10
-14.973
 20
19.1647
 11
-14.6363
 21
19.423
  0
LINE
  8
0
 10
-14.6363
 20
19.423
 11
-14.2951
 21
19.6755
  0
LINE
  8
0
 10
-14.2951
 20
19.6755
 11
-13.9495
 21
19.9221
  0
LINE
  8
0
 10
-13.9495
 20
19.9221
 11
-13.5997
 21
20.1625
  0
LINE
  8
0
 10
-13.5997
 20
20.1625
 11
-13.2457
 21
20.3967
  0
LINE
  8
0
 10
-13.2457
 20
20.3967
 11
-12.8878
 21
20.6248
  0
LINE
  8
0
 10
-12.8878
 20
20.6248
 11
-12.5258
 21
20.8466
  0
LINE
  8
0
 10
-12.5258
 20
20.8466
 11
-12.1601
 21
21.062
  0
LINE
  8
0
 10
-12.1601
 20
21.062
 11
-11.7907
 21
21.271
  0
LINE
  8
0
 10
-11.7907
 20
21.271
 11
-11.4176
 21
21.4736
  0
LINE
  8
0
 10
-11.4176
 20
21.4736
 11
-11.0412
 21
21.6696
  0
LINE
  8
0
 10
-11.0412
 20
21.6696
 11
-10.6612
 21
21.859
  0
LINE
  8
0
 10
-10.6612
 20
21.859
 11
-10.2782
 21
22.0417
  0
LINE
  8
0
 10
-10.2782
 20
22.0417
 11
-9.89197
 21
22.2177
  0
LINE
  8
0
 10
-9.89197
 20
22.2177
 11
-9.50273
 21
22.3869
  0
LINE
  8
0
 10
-9.50273
 20
22.3869
 11
-9.11052
 21
22.5494
  0
LINE
  8
0
 10
-9.11052
 20
22.5494
 11
-8.71561
 21
22.705
  0
LINE
  8
0
 10
-8.71561
 20
22.705
 11
-8.31804
 21
22.8536
  0
LINE
  8
0
 10
-8.31804
 20
22.8536
 11
-7.91789
 21
22.9953
  0
LINE
  8
0
 10
-7.91789
 20
22.9953
 11
-7.51537
 21
23.13
  0
LINE
  8
0
 10
-7.51537
 20
23.13
 11
-7.11055
 21
23.2576
  0
LINE
  8
0
 10
-7.11055
 20
23.2576
 11
-6.70358
 21
23.3782
  0
LINE
  8
0
 10
-6.70358
 20
23.3782
 11
-6.29451
 21
23.4916
  0
LINE
  8
0
 10
-6.29451
 20
23.4916
 11
-5.88359
 21
23.5979
  0
LINE
  8
0
 10
-5.88359
 20
23.5979
 11
-5.47087
 21
23.697
  0
LINE
  8
0
 10
-5.47087
 20
23.697
 11
-5.08807
 21
23.782
  0
LINE
  8
0
 10
-5.08807
 20
23.782
 11
-5.07115
 21
23.7518
  0
LINE
  8
0
 10
-5.07115
 20
23.7518
 11
-5.07777
 21
23.6958
  0
LINE
  8
0
 10
-5.07777
 20
23.6958
 11
-5.05023
 21
23.6466
  0
LINE
  8
0
 10
-5.05023
 20
23.6466
 11
-5.05685
 21
23.5906
  0
LINE
  8
0
 10
-5.05685
 20
23.5906
 11
-5.02931
 21
23.5414
  0
LINE
  8
0
 10
-5.02931
 20
23.5414
 11
-5.03593
 21
23.4855
  0
LINE
  8
0
 10
-5.03593
 20
23.4855
 11
-5.00839
 21
23.4363
  0
LINE
  8
0
 10
-5.00839
 20
23.4363
 11
-5.01501
 21
23.3803
  0
LINE
  8
0
 10
-5.01501
 20
23.3803
 11
-4.98747
 21
23.3311
  0
LINE
  8
0
 10
-4.98747
 20
23.3311
 11
-4.99409
 21
23.2751
  0
LINE
  8
0
 10
-4.99409
 20
23.2751
 11
-4.96655
 21
23.226
  0
LINE
  8
0
 10
-4.96655
 20
23.226
 11
-4.97319
 21
23.17
  0
LINE
  8
0
 10
-4.97319
 20
23.17
 11
-4.94565
 21
23.1208
  0
LINE
  8
0
 10
-4.94565
 20
23.1208
 11
-4.95227
 21
23.0648
  0
LINE
  8
0
 10
-4.95227
 20
23.0648
 11
-4.92473
 21
23.0157
  0
LINE
  8
0
 10
-4.92473
 20
23.0157
 11
-4.93135
 21
22.9597
  0
LINE
  8
0
 10
-4.93135
 20
22.9597
 11
-4.90381
 21
22.9105
  0
LINE
  8
0
 10
-4.90381
 20
22.9105
 11
-4.91043
 21
22.8545
  0
LINE
  8
0
 10
-4.91043
 20
22.8545
 11
-4.88289
 21
22.8053
  0
LINE
  8
0
 10
-4.88289
 20
22.8053
 11
-4.88951
 21
22.7494
  0
LINE
  8
0
 10
-4.88951
 20
22.7494
 11
-4.86197
 21
22.7002
  0
LINE
  8
0
 10
-4.86197
 20
22.7002
 11
-4.86861
 21
22.6442
  0
LINE
  8
0
 10
-4.86861
 20
22.6442
 11
-4.84106
 21
22.595
  0
LINE
  8
0
 10
-4.84106
 20
22.595
 11
-4.84769
 21
22.539
  0
LINE
  8
0
 10
-4.84769
 20
22.539
 11
-4.82014
 21
22.4899
  0
LINE
  8
0
 10
-4.82014
 20
22.4899
 11
-4.82677
 21
22.4339
  0
LINE
  8
0
 10
-4.82677
 20
22.4339
 11
-4.79922
 21
22.3847
  0
LINE
  8
0
 10
-4.79922
 20
22.3847
 11
-4.80392
 21
22.345
  0
LINE
  8
0
 10
-4.80392
 20
22.345
 11
-5.15198
 21
22.2675
  0
LINE
  8
0
 10
-5.15198
 20
22.2675
 11
-5.53981
 21
22.1741
  0
LINE
  8
0
 10
-5.53981
 20
22.1741
 11
-5.92595
 21
22.0741
  0
LINE
  8
0
 10
-5.92595
 20
22.0741
 11
-6.3103
 21
21.9673
  0
LINE
  8
0
 10
-6.3103
 20
21.9673
 11
-6.69272
 21
21.8538
  0
LINE
  8
0
 10
-6.69272
 20
21.8538
 11
-7.0731
 21
21.7337
  0
LINE
  8
0
 10
-7.0731
 20
21.7337
 11
-7.45134
 21
21.6069
  0
LINE
  8
0
 10
-7.45134
 20
21.6069
 11
-7.82729
 21
21.4736
  0
LINE
  8
0
 10
-7.82729
 20
21.4736
 11
-8.20087
 21
21.3337
  0
LINE
  8
0
 10
-8.20087
 20
21.3337
 11
-8.57195
 21
21.1874
  0
LINE
  8
0
 10
-8.57195
 20
21.1874
 11
-8.9404
 21
21.0345
  0
LINE
  8
0
 10
-8.9404
 20
21.0345
 11
-9.30615
 21
20.8753
  0
LINE
  8
0
 10
-9.30615
 20
20.8753
 11
-9.66905
 21
20.7097
  0
LINE
  8
0
 10
-9.66905
 20
20.7097
 11
-10.029
 21
20.5378
  0
LINE
  8
0
 10
-10.029
 20
20.5378
 11
-10.3859
 21
20.3596
  0
LINE
  8
0
 10
-10.3859
 20
20.3596
 11
-10.7397
 21
20.1753
  0
LINE
  8
0
 10
-10.7397
 20
20.1753
 11
-11.0901
 21
19.9848
  0
LINE
  8
0
 10
-11.0901
 20
19.9848
 11
-11.4372
 21
19.7882
  0
LINE
  8
0
 10
-11.4372
 20
19.7882
 11
-11.7808
 21
19.5856
  0
LINE
  8
0
 10
-11.7808
 20
19.5856
 11
-12.1209
 21
19.377
  0
LINE
  8
0
 10
-12.1209
 20
19.377
 11
-12.4572
 21
19.1625
  0
LINE
  8
0
 10
-12.4572
 20
19.1625
 11
-12.7897
 21
18.9422
  0
LINE
  8
0
 10
-12.7897
 20
18.9422
 11
-13.1184
 21
18.7161
  0
LINE
  8
0
 10
-13.1184
 20
18.7161
 11
-13.443
 21
18.4843
  0
LINE
  8
0
 10
-13.443
 20
18.4843
 11
-13.7635
 21
18.2468
  0
LINE
  8
0
 10
-13.7635
 20
18.2468
 11
-14.0799
 21
18.0038
  0
LINE
  8
0
 10
-14.0799
 20
18.0038
 11
-14.392
 21
17.7554
  0
LINE
  8
0
 10
-14.392
 20
17.7554
 11
-14.6997
 21
17.5015
  0
LINE
  8
0
 10
-14.6997
 20
17.5015
 11
-15.0029
 21
17.2423
  0
LINE
  8
0
 10
-15.0029
 20
17.2423
 11
-15.3015
 21
16.9778
  0
LINE
  8
0
 10
-15.3015
 20
16.9778
 11
-15.5955
 21
16.7082
  0
LINE
  8
0
 10
-15.5955
 20
16.7082
 11
-15.8847
 21
16.4335
  0
LINE
  8
0
 10
-15.8847
 20
16.4335
 11
-16.1691
 21
16.1537
  0
LINE
  8
0
 10
-16.1691
 20
16.1537
 11
-16.4485
 21
15.8691
  0
LINE
  8
0
 10
-16.4485
 20
15.8691
 11
-16.723
 21
15.5796
  0
LINE
  8
0
 10
-16.723
 20
15.5796
 11
-16.9923
 21
15.2854
  0
LINE
  8
0
 10
-16.9923
 20
15.2854
 11
-17.2565
 21
14.9865
  0
LINE
  8
0
 10
-17.2565
 20
14.9865
 11
-17.5154
 21
14.683
  0
LINE
  8
0
 10
-17.5154
 20
14.683
 11
-17.769
 21
14.3751
  0
LINE
  8
0
 10
-17.769
 20
14.3751
 11
-18.0172
 21
14.0628
  0
LINE
  8
0
 10
-18.0172
 20
14.0628
 11
-18.2599
 21
13.7462
  0
LINE
  8
0
 10
-18.2599
 20
13.7462
 11
-18.497
 21
13.4255
  0
LINE
  8
0
 10
-18.497
 20
13.4255
 11
-18.7285
 21
13.1006
  0
LINE
  8
0
 10
-18.7285
 20
13.1006
 11
-18.8057
 21
12.9893
  0
LINE
  8
0
 10
-18.8057
 20
12.9893
 11
-18.8442
 21
13.0002
  0
LINE
  8
0
 10
-18.8442
 20
13.0002
 11
-18.8791
 21
13.0444
  0
LINE
  8
0
 10
-18.8791
 20
13.0444
 11
-18.9333
 21
13.0597
  0
LINE
  8
0
 10
-18.9333
 20
13.0597
 11
-18.9682
 21
13.104
  0
LINE
  8
0
 10
-18.9682
 20
13.104
 11
-19.0225
 21
13.1193
  0
LINE
  8
0
 10
-19.0225
 20
13.1193
 11
-19.0574
 21
13.1636
  0
LINE
  8
0
 10
-19.0574
 20
13.1636
 11
-19.1116
 21
13.1789
  0
LINE
  8
0
 10
-19.1116
 20
13.1789
 11
-19.1465
 21
13.2231
  0
LINE
  8
0
 10
-19.1465
 20
13.2231
 11
-19.2008
 21
13.2384
  0
LINE
  8
0
 10
-19.2008
 20
13.2384
 11
-19.2357
 21
13.2827
  0
LINE
  8
0
 10
-19.2357
 20
13.2827
 11
-19.2899
 21
13.298
  0
LINE
  8
0
 10
-19.2899
 20
13.298
 11
-19.3248
 21
13.3423
  0
LINE
  8
0
 10
-19.3248
 20
13.3423
 11
-19.3791
 21
13.3576
  0
LINE
  8
0
 10
-19.3791
 20
13.3576
 11
-19.414
 21
13.4018
  0
LINE
  8
0
 10
-19.414
 20
13.4018
 11
-19.4682
 21
13.4171
  0
LINE
  8
0
 10
-19.4682
 20
13.4171
 11
-19.5031
 21
13.4614
  0
LINE
  8
0
 10
-19.5031
 20
13.4614
 11
-19.5574
 21
13.4767
  0
LINE
  8
0
 10
-19.5574
 20
13.4767
 11
-19.5923
 21
13.521
  0
LINE
  8
0
 10
-19.5923
 20
13.521
 11
-19.6465
 21
13.5363
  0
LINE
  8
0
 10
-19.6465
 20
13.5363
 11
-19.6814
 21
13.5805
  0
LINE
  8
0
 10
-19.6814
 20
13.5805
 11
-19.7357
 21
13.5958
  0
LINE
  8
0
 10
-19.7357
 20
13.5958
 11
-19.7706
 21
13.6401
  0
LINE
  8
0
 10
-19.7706
 20
13.6401
 11
-19.8248
 21
13.6554
  0
LINE
  8
0
 10
-19.8248
 20
13.6554
 11
-19.8597
 21
13.6997
  0
LINE
  8
0
 10
-19.8597
 20
13.6997
 11
-19.914
 21
13.715
  0
LINE
  8
0
 10
-19.914
 20
13.715
 11
-19.9489
 21
13.7592
  0
LINE
  8
0
 10
-19.9489
 20
13.7592
 11
-20.0031
 21
13.7745
  0
LINE
  8
0
 10
-20.0031
 20
13.7745
 11
-20.038
 21
13.8188
  0
LINE
  8
0
 10
-20.038
 20
13.8188
 11
-20.0923
 21
13.8341
  0
LINE
  8
0
 10
-20.0923
 20
13.8341
 11
-20.1272
 21
13.8784
  0
LINE
  8
0
 10
-20.1272
 20
13.8784
 11
-20.1814
 21
13.8937
  0
LINE
  8
0
 10
-20.1814
 20
13.8937
 11
-20.2163
 21
13.9379
  0
LINE
  8
0
 10
-20.2163
 20
13.9379
 11
-20.2706
 21
13.9532
  0
LINE
  8
0
 10
-20.2706
 20
13.9532
 11
-20.3055
 21
13.9975
  0
LINE
  8
0
 10
-20.3055
 20
13.9975
 11
-20.518
 21
14.0574
  0
LINE
  8
0
 10
-20.518
 20
14.0574
 11
-20.7253
 21
13.981
  0
LINE
  8
0
 10
-20.7253
 20
13.981
 11
-20.9676
 21
13.6149
  0
LINE
  8
0
 10
-20.9676
 20
13.6149
 11
-21.202
 21
13.2469
  0
LINE
  8
0
 10
-21.202
 20
13.2469
 11
-21.43
 21
12.8748
  0
LINE
  8
0
 10
-21.43
 20
12.8748
 11
-21.6514
 21
12.4989
  0
LINE
  8
0
 10
-21.6514
 20
12.4989
 11
-21.8662
 21
12.1191
  0
LINE
  8
0
 10
-21.8662
 20
12.1191
 11
-22.0744
 21
11.7356
  0
LINE
  8
0
 10
-22.0744
 20
11.7356
 11
-22.2759
 21
11.3486
  0
LINE
  8
0
 10
-22.2759
 20
11.3486
 11
-22.4705
 21
10.9581
  0
LINE
  8
0
 10
-22.4705
 20
10.9581
 11
-22.6584
 21
10.5643
  0
LINE
  8
0
 10
-22.6584
 20
10.5643
 11
-22.8393
 21
10.1672
  0
LINE
  8
0
 10
-22.8393
 20
10.1672
 11
-23.0132
 21
9.76704
  0
LINE
  8
0
 10
-23.0132
 20
9.76704
 11
-23.1802
 21
9.36392
  0
LINE
  8
0
 10
-23.1802
 20
9.36392
 11
-23.3401
 21
8.95795
  0
LINE
  8
0
 10
-23.3401
 20
8.95795
 11
-23.4929
 21
8.54924
  0
LINE
  8
0
 10
-23.4929
 20
8.54924
 11
-23.6385
 21
8.13794
  0
LINE
  8
0
 10
-23.6385
 20
8.13794
 11
-23.7769
 21
7.72414
  0
LINE
  8
0
 10
-23.7769
 20
7.72414
 11
-23.9081
 21
7.308
  0
LINE
  8
0
 10
-23.9081
 20
7.308
 11
-24.032
 21
6.88963
  0
LINE
  8
0
 10
-24.032
 20
6.88963
 11
-24.1486
 21
6.46916
  0
LINE
  8
0
 10
-24.1486
 20
6.46916
 11
-24.2578
 21
6.04674
  0
LINE
  8
0
 10
-24.2578
 20
6.04674
 11
-24.3596
 21
5.62245
  0
LINE
  8
0
 10
-24.3596
 20
5.62245
 11
-24.4541
 21
5.19646
  0
LINE
  8
0
 10
-24.4541
 20
5.19646
 11
-24.541
 21
4.76889
  0
LINE
  8
0
 10
-24.541
 20
4.76889
 11
-24.6205
 21
4.33986
  0
LINE
  8
0
 10
-24.6205
 20
4.33986
 11
-24.6925
 21
3.90952
  0
LINE
  8
0
 10
-24.6925
 20
3.90952
 11
-24.757
 21
3.47798
  0
LINE
  8
0
 10
-24.757
 20
3.47798
 11
-24.8139
 21
3.04538
  0
LINE
  8
0
 10
-24.8139
 20
3.04538
 11
-24.8633
 21
2.61185
  0
LINE
  8
0
 10
-24.8633
 20
2.61185
 11
-24.9051
 21
2.17752
  0
LINE
  8
0
 10
-24.9051
 20
2.17752
 11
-24.9393
 21
1.74254
  0
LINE
  8
0
 10
-24.9393
 20
1.74254
 11
-24.9659
 21
1.30702
  0
LINE
  8
0
 10
-24.9659
 20
1.30702
 11
-24.9849
 21
0.871109
  0
LINE
  8
0
 10
-24.9849
 20
0.871109
 11
-24.9963
 21
0.434937
  0
LINE
  8
0
 10
-24.9963
 20
0.434937
 11
-25.0001
 21
-0.00135803
  0
LINE
  8
0
 10
-25.0001
 20
-0.00135803
 11
-24.9963
 21
-0.437683
  0
LINE
  8
0
 10
-24.9963
 20
-0.437683
 11
-24.9848
 21
-0.873856
  0
LINE
  8
0
 10
-24.9848
 20
-0.873856
 11
-24.9658
 21
-1.30977
  0
LINE
  8
0
 10
-24.9658
 20
-1.30977
 11
-24.9391
 21
-1.74529
  0
LINE
  8
0
 10
-24.9391
 20
-1.74529
 11
-24.9048
 21
-2.18027
  0
LINE
  8
0
 10
-24.9048
 20
-2.18027
 11
-24.863
 21
-2.61458
  0
LINE
  8
0
 10
-24.863
 20
-2.61458
 11
-24.8136
 21
-3.0481
  0
LINE
  8
0
 10
-24.8136
 20
-3.0481
 11
-24.7566
 21
-3.4807
  0
LINE
  8
0
 10
-24.7566
 20
-3.4807
 11
-24.6921
 21
-3.91223
  0
LINE
  8
0
 10
-24.6921
 20
-3.91223
 11
-24.6201
 21
-4.34258
  0
LINE
  8
0
 10
-24.6201
 20
-4.34258
 11
-24.5405
 21
-4.77159
  0
LINE
  8
0
 10
-24.5405
 20
-4.77159
 11
-24.4535
 21
-5.19914
  0
LINE
  8
0
 10
-24.4535
 20
-5.19914
 11
-24.359
 21
-5.62514
  0
LINE
  8
0
 10
-24.359
 20
-5.62514
 11
-24.2572
 21
-6.04939
  0
LINE
  8
0
 10
-24.2572
 20
-6.04939
 11
-24.1479
 21
-6.47182
  0
LINE
  8
0
 10
-24.1479
 20
-6.47182
 11
-24.0313
 21
-6.89227
  0
LINE
  8
0
 10
-24.0313
 20
-6.89227
 11
-23.9073
 21
-7.31062
  0
LINE
  8
0
 10
-23.9073
 20
-7.31062
 11
-23.7761
 21
-7.72676
  0
LINE
  8
0
 10
-23.7761
 20
-7.72676
 11
-23.6376
 21
-8.14053
  0
LINE
  8
0
 10
-23.6376
 20
-8.14053
 11
-23.4919
 21
-8.55182
  0
LINE
  8
0
 10
-23.4919
 20
-8.55182
 11
-23.3391
 21
-8.96051
  0
LINE
  8
0
 10
-23.3391
 20
-8.96051
 11
-23.1792
 21
-9.36647
  0
LINE
  8
0
 10
-23.1792
 20
-9.36647
 11
-23.0966
 21
-9.56837
  0
LINE
  8
0
 10
-23.0966
 20
-9.56837
 11
-22.9087
 21
-9.6846
  0
LINE
  8
0
 10
-22.9087
 20
-9.6846
 11
-22.8681
 21
-9.68159
  0
LINE
  8
0
 10
-22.8681
 20
-9.68159
 11
-22.7672
 21
-9.74344
  0
LINE
  8
0
 10
-22.7672
 20
-9.74344
 11
-22.547
 21
-9.7261
  0
LINE
  8
0
 10
-22.547
 20
-9.7261
 11
-22.5042
 21
-9.6895
  0
LINE
  8
0
 10
-22.5042
 20
-9.6895
 11
-22.448
 21
-9.68509
  0
LINE
  8
0
 10
-22.448
 20
-9.68509
 11
-22.4051
 21
-9.64847
  0
LINE
  8
0
 10
-22.4051
 20
-9.64847
 11
-22.3489
 21
-9.64406
  0
LINE
  8
0
 10
-22.3489
 20
-9.64406
 11
-22.306
 21
-9.60744
  0
LINE
  8
0
 10
-22.306
 20
-9.60744
 11
-22.2498
 21
-9.60303
  0
LINE
  8
0
 10
-22.2498
 20
-9.60303
 11
-22.207
 21
-9.56641
  0
LINE
  8
0
 10
-22.207
 20
-9.56641
 11
-22.1508
 21
-9.562
  0
LINE
  8
0
 10
-22.1508
 20
-9.562
 11
-22.1079
 21
-9.52538
  0
LINE
  8
0
 10
-22.1079
 20
-9.52538
 11
-22.0517
 21
-9.52097
  0
LINE
  8
0
 10
-22.0517
 20
-9.52097
 11
-22.0089
 21
-9.48436
  0
LINE
  8
0
 10
-22.0089
 20
-9.48436
 11
-21.9527
 21
-9.47993
  0
LINE
  8
0
 10
-21.9527
 20
-9.47993
 11
-21.9098
 21
-9.44333
  0
LINE
  8
0
 10
-21.9098
 20
-9.44333
 11
-21.8536
 21
-9.4389
  0
LINE
  8
0
 10
-21.8536
 20
-9.4389
 11
-21.8108
 21
-9.4023
  0
LINE
  8
0
 10
-21.8108
 20
-9.4023
 11
-21.7546
 21
-9.39787
  0
LINE
  8
0
 10
-21.7546
 20
-9.39787
 11
-21.7117
 21
-9.36127
  0
LINE
  8
0
 10
-21.7117
 20
-9.36127
 11
-21.6555
 21
-9.35684
  0
LINE
  8
0
 10
-21.6555
 20
-9.35684
 11
-21.6127
 21
-9.32024
  0
LINE
  8
0
 10
-21.6127
 20
-9.32024
 11
-21.5565
 21
-9.31581
  0
LINE
  8
0
 10
-21.5565
 20
-9.31581
 11
-21.5136
 21
-9.27921
  0
LINE
  8
0
 10
-21.5136
 20
-9.27921
 11
-21.4574
 21
-9.27478
  0
LINE
  8
0
 10
-21.4574
 20
-9.27478
 11
-21.4145
 21
-9.23817
  0
LINE
  8
0
 10
-21.4145
 20
-9.23817
 11
-21.3583
 21
-9.23375
  0
LINE
  8
0
 10
-21.3583
 20
-9.23375
 11
-21.3155
 21
-9.19714
  0
LINE
  8
0
 10
-21.3155
 20
-9.19714
 11
-21.2593
 21
-9.19272
  0
LINE
  8
0
 10
-21.2593
 20
-9.19272
 11
-21.2164
 21
-9.15611
  0
LINE
  8
0
 10
-21.2164
 20
-9.15611
 11
-21.1602
 21
-9.15169
  0
LINE
  8
0
 10
-21.1602
 20
-9.15169
 11
-21.1174
 21
-9.11508
  0
LINE
  8
0
 10
-21.1174
 20
-9.11508
 11
-21.0612
 21
-9.11066
  0
LINE
  8
0
 10
-21.0612
 20
-9.11066
 11
-21.0183
 21
-9.07405
  0
LINE
  8
0
 10
-21.0183
 20
-9.07405
 11
-20.9621
 21
-9.06963
  0
LINE
  8
0
 10
-20.9621
 20
-9.06963
 11
-20.9193
 21
-9.03302
  0
LINE
  8
0
 10
-20.9193
 20
-9.03302
 11
-20.8631
 21
-9.02859
  0
LINE
  8
0
 10
-20.8631
 20
-9.02859
 11
-20.8202
 21
-8.99199
  0
LINE
  8
0
 10
-20.8202
 20
-8.99199
 11
-20.764
 21
-8.98756
  0
LINE
  8
0
 10
-20.764
 20
-8.98756
 11
-20.7211
 21
-8.95096
  0
LINE
  8
0
 10
-20.7211
 20
-8.95096
 11
-20.6649
 21
-8.94653
  0
LINE
  8
0
 10
-20.6649
 20
-8.94653
 11
-20.6221
 21
-8.90993
  0
LINE
  8
0
 10
-20.6221
 20
-8.90993
 11
-20.5659
 21
-8.9055
  0
LINE
  8
0
 10
-20.5659
 20
-8.9055
 11
-20.523
 21
-8.8689
  0
LINE
  8
0
 10
-20.523
 20
-8.8689
 11
-20.4668
 21
-8.86447
  0
LINE
  8
0
 10
-20.4668
 20
-8.86447
 11
-20.424
 21
-8.82787
  0
LINE
  8
0
 10
-20.424
 20
-8.82787
 11
-20.3678
 21
-8.82344
  0
LINE
  8
0
 10
-20.3678
 20
-8.82344
 11
-20.3249
 21
-8.78683
  0
LINE
  8
0
 10
-20.3249
 20
-8.78683
 11
-20.2687
 21
-8.78241
  0
LINE
  8
0
 10
-20.2687
 20
-8.78241
 11
-20.2259
 21
-8.7458
  0
LINE
  8
0
 10
-20.2259
 20
-8.7458
 11
-20.1697
 21
-8.74138
  0
LINE
  8
0
 10
-20.1697
 20
-8.74138
 11
-20.1268
 21
-8.70477
  0
LINE
  8
0
 10
-20.1268
 20
-8.70477
 11
-20.0706
 21
-8.70035
  0
LINE
  8
0
 10
-20.0706
 20
-8.70035
 11
-20.0278
 21
-8.66374
  0
LINE
  8
0
 10
-20.0278
 20
-8.66374
 11
-19.9716
 21
-8.65932
  0
LINE
  8
0
 10
-19.9716
 20
-8.65932
 11
-19.9287
 21
-8.62271
  0
LINE
  8
0
 10
-19.9287
 20
-8.62271
 11
-19.8725
 21
-8.6183
  0
LINE
  8
0
 10
-19.8725
 20
-8.6183
 11
-19.8297
 21
-8.58168
  0
LINE
  8
0
 10
-19.8297
 20
-8.58168
 11
-19.7735
 21
-8.57727
  0
LINE
  8
0
 10
-19.7735
 20
-8.57727
 11
-19.7306
 21
-8.54065
  0
LINE
  8
0
 10
-19.7306
 20
-8.54065
 11
-19.6744
 21
-8.53624
  0
LINE
  8
0
 10
-19.6744
 20
-8.53624
 11
-19.6315
 21
-8.49962
  0
LINE
  8
0
 10
-19.6315
 20
-8.49962
 11
-19.5753
 21
-8.49521
  0
LINE
  8
0
 10
-19.5753
 20
-8.49521
 11
-19.5325
 21
-8.4586
  0
LINE
  8
0
 10
-19.5325
 20
-8.4586
 11
-19.4763
 21
-8.45418
  0
LINE
  8
0
 10
-19.4763
 20
-8.45418
 11
-19.4334
 21
-8.41757
  0
LINE
  8
0
 10
-19.4334
 20
-8.41757
 11
-19.3772
 21
-8.41315
  0
LINE
  8
0
 10
-19.3772
 20
-8.41315
 11
-19.3344
 21
-8.37654
  0
LINE
  8
0
 10
-19.3344
 20
-8.37654
 11
-19.2782
 21
-8.37212
  0
LINE
  8
0
 10
-19.2782
 20
-8.37212
 11
-19.2353
 21
-8.33551
  0
LINE
  8
0
 10
-19.2353
 20
-8.33551
 11
-19.1791
 21
-8.33109
  0
LINE
  8
0
 10
-19.1791
 20
-8.33109
 11
-19.1363
 21
-8.29448
  0
LINE
  8
0
 10
-19.1363
 20
-8.29448
 11
-19.0801
 21
-8.29005
  0
LINE
  8
0
 10
-19.0801
 20
-8.29005
 11
-19.0372
 21
-8.25345
  0
LINE
  8
0
 10
-19.0372
 20
-8.25345
 11
-18.997
 21
-8.25027
  0
LINE
  8
0
 10
-18.997
 20
-8.25027
 11
-18.8003
 21
-8.68942
  0
LINE
  8
0
 10
-18.8003
 20
-8.68942
 11
-18.6458
 21
-9.0162
  0
LINE
  8
0
 10
-18.6458
 20
-9.0162
 11
-18.4856
 21
-9.34026
  0
LINE
  8
0
 10
-18.4856
 20
-9.34026
 11
-18.3198
 21
-9.66145
  0
LINE
  8
0
 10
-18.3198
 20
-9.66145
 11
-18.1484
 21
-9.97971
  0
LINE
  8
0
 10
-18.1484
 20
-9.97971
 11
-17.9714
 21
-10.2949
  0
LINE
  8
0
 10
-17.9714
 20
-10.2949
 11
-17.789
 21
-10.607
  0
LINE
  8
0
 10
-17.789
 20
-10.607
 11
-17.6012
 21
-10.9158
  0
LINE
  8
0
 10
-17.6012
 20
-10.9158
 11
-17.408
 21
-11.2214
  0
LINE
  8
0
 10
-17.408
 20
-11.2214
 11
-17.2095
 21
-11.5235
  0
LINE
  8
0
 10
-17.2095
 20
-11.5235
 11
-17.0058
 21
-11.8221
  0
LINE
  8
0
 10
-17.0058
 20
-11.8221
 11
-16.7969
 21
-12.1171
  0
LINE
  8
0
 10
-16.7969
 20
-12.1171
 11
-16.5828
 21
-12.4083
  0
LINE
  8
0
 10
-16.5828
 20
-12.4083
 11
-16.3638
 21
-12.6959
  0
LINE
  8
0
 10
-16.3638
 20
-12.6959
 11
-16.1397
 21
-12.9795
  0
LINE
  8
0
 10
-16.1397
 20
-12.9795
 11
-15.9107
 21
-13.2592
  0
LINE
  8
0
 10
-15.9107
 20
-13.2592
 11
-15.6769
 21
-13.5349
  0
LINE
  8
0
 10
-15.6769
 20
-13.5349
 11
-15.4383
 21
-13.8064
  0
LINE
  8
0
 10
-15.4383
 20
-13.8064
 11
-15.195
 21
-14.0737
  0
LINE
  8
0
 10
-15.195
 20
-14.0737
 11
-14.947
 21
-14.3368
  0
LINE
  8
0
 10
-14.947
 20
-14.3368
 11
-14.6945
 21
-14.5955
  0
LINE
  8
0
 10
-14.6945
 20
-14.5955
 11
-14.4376
 21
-14.8497
  0
LINE
  8
0
 10
-14.4376
 20
-14.8497
 11
-14.1762
 21
-15.0994
  0
LINE
  8
0
 10
-14.1762
 20
-15.0994
 11
-13.9105
 21
-15.3445
  0
LINE
  8
0
 10
-13.9105
 20
-15.3445
 11
-13.6406
 21
-15.585
  0
LINE
  8
0
 10
-13.6406
 20
-15.585
 11
-13.3665
 21
-15.8206
  0
LINE
  8
0
 10
-13.3665
 20
-15.8206
 11
-13.0884
 21
-16.0515
  0
LINE
  8
0
 10
-13.0884
 20
-16.0515
 11
-12.8063
 21
-16.2775
  0
LINE
  8
0
 10
-12.8063
 20
-16.2775
 11
-12.5202
 21
-16.4985
  0
LINE
  8
0
 10
-12.5202
 20
-16.4985
 11
-12.2304
 21
-16.7145
  0
LINE
  8
0
 10
-12.2304
 20
-16.7145
 11
-11.9368
 21
-16.9254
  0
LINE
  8
0
 10
-11.9368
 20
-16.9254
 11
-11.6396
 21
-17.1312
  0
LINE
  8
0
 10
-11.6396
 20
-17.1312
 11
-11.3389
 21
-17.3317
  0
LINE
  8
0
 10
-11.3389
 20
-17.3317
 11
-11.0347
 21
-17.5269
  0
LINE
  8
0
 10
-11.0347
 20
-17.5269
 11
-10.7271
 21
-17.7169
  0
LINE
  8
0
 10
-10.7271
 20
-17.7169
 11
-10.4163
 21
-17.9014
  0
LINE
  8
0
 10
-10.4163
 20
-17.9014
 11
-10.1022
 21
-18.0804
  0
LINE
  8
0
 10
-10.1022
 20
-18.0804
 11
-9.78516
 21
-18.254
  0
LINE
  8
0
 10
-9.78516
 20
-18.254
 11
-9.46509
 21
-18.422
  0
LINE
  8
0
 10
-9.46509
 20
-18.422
 11
-9.14214
 21
-18.5844
  0
LINE
  8
0
 10
-9.14214
 20
-18.5844
 11
-8.81641
 21
-18.7411
  0
LINE
  8
0
 10
-8.81641
 20
-18.7411
 11
-8.48799
 21
-18.8921
  0
LINE
  8
0
 10
-8.48799
 20
-18.8921
 11
-8.15698
 21
-19.0374
  0
LINE
  8
0
 10
-8.15698
 20
-19.0374
 11
-7.82349
 21
-19.1768
  0
LINE
  8
0
 10
-7.82349
 20
-19.1768
 11
-7.48763
 21
-19.3104
  0
LINE
  8
0
 10
-7.48763
 20
-19.3104
 11
-7.14946
 21
-19.4382
  0
LINE
  8
0
 10
-7.14946
 20
-19.4382
 11
-6.80913
 21
-19.56
  0
LINE
  8
0
 10
-6.80913
 20
-19.56
 11
-6.46672
 21
-19.6758
  0
LINE
  8
0
 10
-6.46672
 20
-19.6758
 11
-6.12234
 21
-19.7857
  0
LINE
  8
0
 10
-6.12234
 20
-19.7857
 11
-5.77611
 21
-19.8895
  0
LINE
  8
0
 10
-5.77611
 20
-19.8895
 11
-5.42812
 21
-19.9873
  0
LINE
  8
0
 10
-5.42812
 20
-19.9873
 11
-5.03795
 21
-20.0891
  0
LINE
  8
0
 10
-5.03795
 20
-20.0891
 11
-5.03795
 21
-20.1142
  0
LINE
  8
0
 10
-5.03795
 20
-20.1142
 11
-4.97112
 21
-20.3745
  0
LINE
  8
0
 10
-4.97112
 20
-20.3745
 11
-4.84164
 21
-20.6101
  0
LINE
  8
0
 10
-4.84164
 20
-20.6101
 11
-4.65765
 21
-20.806
  0
LINE
  8
0
 10
-4.65765
 20
-20.806
 11
-4.43074
 21
-20.95
  0
LINE
  8
0
 10
-4.43074
 20
-20.95
 11
-4.17514
 21
-21.033
  0
LINE
  8
0
 10
-4.17514
 20
-21.033
 11
-3.90691
 21
-21.0499
  0
LINE
  8
0
 10
-3.90691
 20
-21.0499
 11
-3.64291
 21
-20.9995
  0
LINE
  8
0
 10
-4.0479
 20
-20.366
 11
-4.14162
 21
-20.3356
  0
LINE
  8
0
 10
-4.14162
 20
-20.3356
 11
-4.22482
 21
-20.2828
  0
LINE
  8
0
 10
-4.22482
 20
-20.2828
 11
-4.29228
 21
-20.2109
  0
LINE
  8
0
 10
-4.29228
 20
-20.2109
 11
-4.33975
 21
-20.1246
  0
LINE
  8
0
 10
-4.33975
 20
-20.1246
 11
-4.36426
 21
-20.0291
  0
LINE
  8
0
 10
-4.36426
 20
-20.0291
 11
-4.36426
 21
-19.9306
  0
LINE
  8
0
 10
-4.36426
 20
-19.9306
 11
-4.33975
 21
-19.8351
  0
LINE
  8
0
 10
-4.33975
 20
-19.8351
 11
-4.29228
 21
-19.7488
  0
LINE
  8
0
 10
-4.29228
 20
-19.7488
 11
-4.22482
 21
-19.6769
  0
LINE
  8
0
 10
-4.22482
 20
-19.6769
 11
-4.14162
 21
-19.6241
  0
LINE
  8
0
 10
-4.14162
 20
-19.6241
 11
-4.0479
 21
-19.5937
  0
LINE
  8
0
 10
-4.0479
 20
-19.5937
 11
-3.94955
 21
-19.5875
  0
LINE
  8
0
 10
-3.94955
 20
-19.5875
 11
-3.85275
 21
-19.606
  0
LINE
  8
0
 10
-3.85275
 20
-19.606
 11
-3.76358
 21
-19.6479
  0
LINE
  8
0
 10
-3.76358
 20
-19.6479
 11
-3.68765
 21
-19.7107
  0
LINE
  8
0
 10
-3.68765
 20
-19.7107
 11
-3.62973
 21
-19.7905
  0
LINE
  8
0
 10
-3.62973
 20
-19.7905
 11
-3.59346
 21
-19.8821
  0
LINE
  8
0
 10
-3.59346
 20
-19.8821
 11
-3.5811
 21
-19.9798
  0
LINE
  8
0
 10
-3.5811
 20
-19.9798
 11
-3.59346
 21
-20.0776
  0
LINE
  8
0
 10
-3.59346
 20
-20.0776
 11
-3.62973
 21
-20.1692
  0
LINE
  8
0
 10
-3.62973
 20
-20.1692
 11
-3.68765
 21
-20.249
  0
LINE
  8
0
 10
-3.68765
 20
-20.249
 11
-3.76358
 21
-20.3118
  0
LINE
  8
0
 10
-3.76358
 20
-20.3118
 11
-3.85275
 21
-20.3537
  0
LINE
  8
0
 10
-3.85275
 20
-20.3537
 11
-3.94955
 21
-20.3722
  0
LINE
  8
0
 10
-3.94955
 20
-20.3722
 11
-4.0479
 21
-20.366
  0
LINE
  8
0
 10
18.9574
 20
7.46556
 11
19.0002
 21
7.50217
  0
LINE
  8
0
 10
19.0002
 20
7.50217
 11
19.0564
 21
7.50659
  0
LINE
  8
0
 10
19.0564
 20
7.50659
 11
19.0993
 21
7.5432
  0
LINE
  8
0
 10
19.0993
 20
7.5432
 11
19.1555
 21
7.54762
  0
LINE
  8
0
 10
19.1555
 20
7.54762
 11
19.1983
 21
7.58423
  0
LINE
  8
0
 10
19.1983
 20
7.58423
 11
19.2545
 21
7.58865
  0
LINE
  8
0
 10
19.2545
 20
7.58865
 11
19.2974
 21
7.62526
  0
LINE
  8
0
 10
19.2974
 20
7.62526
 11
19.3536
 21
7.62968
  0
LINE
  8
0
 10
19.3536
 20
7.62968
 11
19.3965
 21
7.66629
  0
LINE
  8
0
 10
19.3965
 20
7.66629
 11
19.4527
 21
7.67072
  0
LINE
  8
0
 10
19.4527
 20
7.67072
 11
19.4955
 21
7.70732
  0
LINE
  8
0
 10
19.4955
 20
7.70732
 11
19.5517
 21
7.71175
  0
LINE
  8
0
 10
19.5517
 20
7.71175
 11
19.5946
 21
7.74835
  0
LINE
  8
0
 10
19.5946
 20
7.74835
 11
19.6508
 21
7.75278
  0
LINE
  8
0
 10
19.6508
 20
7.75278
 11
19.6936
 21
7.78938
  0
LINE
  8
0
 10
19.6936
 20
7.78938
 11
19.7498
 21
7.79381
  0
LINE
  8
0
 10
19.7498
 20
7.79381
 11
19.7927
 21
7.83041
  0
LINE
  8
0
 10
19.7927
 20
7.83041
 11
19.8489
 21
7.83482
  0
LINE
  8
0
 10
19.8489
 20
7.83482
 11
19.8917
 21
7.87144
  0
LINE
  8
0
 10
19.8917
 20
7.87144
 11
19.9479
 21
7.87585
  0
LINE
  8
0
 10
19.9479
 20
7.87585
 11
19.9908
 21
7.91248
  0
LINE
  8
0
 10
19.9908
 20
7.91248
 11
20.047
 21
7.91689
  0
LINE
  8
0
 10
20.047
 20
7.91689
 11
20.0898
 21
7.95351
  0
LINE
  8
0
 10
20.0898
 20
7.95351
 11
20.146
 21
7.95792
  0
LINE
  8
0
 10
20.146
 20
7.95792
 11
20.1889
 21
7.99452
  0
LINE
  8
0
 10
20.1889
 20
7.99452
 11
20.2451
 21
7.99895
  0
LINE
  8
0
 10
20.2451
 20
7.99895
 11
20.288
 21
8.03555
  0
LINE
  8
0
 10
20.288
 20
8.03555
 11
20.3441
 21
8.03998
  0
LINE
  8
0
 10
20.3441
 20
8.03998
 11
20.387
 21
8.07658
  0
LINE
  8
0
 10
20.387
 20
8.07658
 11
20.4432
 21
8.08101
  0
LINE
  8
0
 10
20.4432
 20
8.08101
 11
20.4861
 21
8.11761
  0
LINE
  8
0
 10
20.4861
 20
8.11761
 11
20.5423
 21
8.12204
  0
LINE
  8
0
 10
20.5423
 20
8.12204
 11
20.5851
 21
8.15865
  0
LINE
  8
0
 10
20.5851
 20
8.15865
 11
20.6413
 21
8.16307
  0
LINE
  8
0
 10
20.6413
 20
8.16307
 11
20.6842
 21
8.19968
  0
LINE
  8
0
 10
20.6842
 20
8.19968
 11
20.7404
 21
8.2041
  0
LINE
  8
0
 10
20.7404
 20
8.2041
 11
20.7832
 21
8.24071
  0
LINE
  8
0
 10
20.7832
 20
8.24071
 11
20.8394
 21
8.24513
  0
LINE
  8
0
 10
20.8394
 20
8.24513
 11
20.8823
 21
8.28174
  0
LINE
  8
0
 10
20.8823
 20
8.28174
 11
20.9385
 21
8.28616
  0
LINE
  8
0
 10
20.9385
 20
8.28616
 11
21.1064
 21
8.42961
  0
LINE
  8
0
 10
21.1064
 20
8.42961
 11
21.158
 21
8.64439
  0
LINE
  8
0
 10
21.158
 20
8.64439
 11
20.9953
 21
9.0321
  0
LINE
  8
0
 10
20.9953
 20
9.0321
 11
20.8345
 21
9.39714
  0
LINE
  8
0
 10
20.8345
 20
9.39714
 11
20.6673
 21
9.75932
  0
LINE
  8
0
 10
20.6673
 20
9.75932
 11
20.4939
 21
10.1185
  0
LINE
  8
0
 10
20.4939
 20
10.1185
 11
20.3141
 21
10.4747
  0
LINE
  8
0
 10
20.3141
 20
10.4747
 11
20.1282
 21
10.8276
  0
LINE
  8
0
 10
20.1282
 20
10.8276
 11
19.9362
 21
11.1772
  0
LINE
  8
0
 10
19.9362
 20
11.1772
 11
19.7381
 21
11.5235
  0
LINE
  8
0
 10
19.7381
 20
11.5235
 11
19.534
 21
11.8662
  0
LINE
  8
0
 10
19.534
 20
11.8662
 11
19.3239
 21
12.2053
  0
LINE
  8
0
 10
19.3239
 20
12.2053
 11
19.108
 21
12.5407
  0
LINE
  8
0
 10
19.108
 20
12.5407
 11
18.8862
 21
12.8723
  0
LINE
  8
0
 10
18.8862
 20
12.8723
 11
18.6586
 21
13.1999
  0
LINE
  8
0
 10
18.6586
 20
13.1999
 11
18.4254
 21
13.5235
  0
LINE
  8
0
 10
18.4254
 20
13.5235
 11
18.1866
 21
13.843
  0
LINE
  8
0
 10
18.1866
 20
13.843
 11
17.9422
 21
14.1583
  0
LINE
  8
0
 10
17.9422
 20
14.1583
 11
17.6924
 21
14.4693
  0
LINE
  8
0
 10
17.6924
 20
14.4693
 11
17.4372
 21
14.7759
  0
LINE
  8
0
 10
17.4372
 20
14.7759
 11
17.1767
 21
15.078
  0
LINE
  8
0
 10
17.1767
 20
15.078
 11
16.8677
 21
15.4226
  0
LINE
  8
0
 10
16.8677
 20
15.4226
 11
16.9594
 21
15.6543
  0
LINE
  8
0
 10
16.9594
 20
15.6543
 11
16.9931
 21
15.9209
  0
LINE
  8
0
 10
16.9931
 20
15.9209
 11
16.9594
 21
16.1876
  0
LINE
  8
0
 10
16.9594
 20
16.1876
 11
16.8605
 21
16.4375
  0
LINE
  8
0
 10
16.8605
 20
16.4375
 11
16.7025
 21
16.6549
  0
LINE
  8
0
 10
16.7025
 20
16.6549
 11
16.4954
 21
16.8262
  0
LINE
  8
0
 10
16.4954
 20
16.8262
 11
16.2523
 21
16.9406
  0
LINE
  8
0
 10
16.2523
 20
16.9406
 11
15.9883
 21
16.991
  0
LINE
  8
0
 10
15.9883
 20
16.991
 11
15.72
 21
16.9741
  0
LINE
  8
0
 10
15.72
 20
16.9741
 11
15.4644
 21
16.8911
  0
LINE
  8
0
 10
15.4644
 20
16.8911
 11
15.2375
 21
16.7471
  0
LINE
  8
0
 10
15.2375
 20
16.7471
 11
15.0535
 21
16.5511
  0
LINE
  8
0
 10
15.0535
 20
16.5511
 11
14.9241
 21
16.3156
  0
LINE
  8
0
 10
14.9241
 20
16.3156
 11
14.8572
 21
16.0553
  0
LINE
  8
0
 10
14.8572
 20
16.0553
 11
14.8572
 21
15.7866
  0
LINE
  8
0
 10
14.8572
 20
15.7866
 11
14.9241
 21
15.5263
  0
LINE
  8
0
 10
14.9241
 20
15.5263
 11
15.0535
 21
15.2907
  0
LINE
  8
0
 10
15.0535
 20
15.2907
 11
15.2375
 21
15.0948
  0
LINE
  8
0
 10
15.2375
 20
15.0948
 11
15.4644
 21
14.9508
  0
LINE
  8
0
 10
15.4644
 20
14.9508
 11
15.72
 21
14.8678
  0
LINE
  8
0
 10
15.72
 20
14.8678
 11
15.9883
 21
14.8509
  0
LINE
  8
0
 10
15.9883
 20
14.8509
 11
16.2523
 21
14.9012
  0
LINE
  8
0
 10
16.2523
 20
14.9012
 11
16.3718
 21
14.9575
  0
LINE
  8
0
 10
16.3718
 20
14.9575
 11
16.5445
 21
14.7665
  0
LINE
  8
0
 10
16.5445
 20
14.7665
 11
16.7997
 21
14.4755
  0
LINE
  8
0
 10
16.7997
 20
14.4755
 11
17.0498
 21
14.1801
  0
LINE
  8
0
 10
17.0498
 20
14.1801
 11
17.2947
 21
13.8804
  0
LINE
  8
0
 10
17.2947
 20
13.8804
 11
17.5343
 21
13.5765
  0
LINE
  8
0
 10
17.5343
 20
13.5765
 11
17.7686
 21
13.2684
  0
LINE
  8
0
 10
17.7686
 20
13.2684
 11
17.9974
 21
12.9563
  0
LINE
  8
0
 10
17.9974
 20
12.9563
 11
18.2208
 21
12.6402
  0
LINE
  8
0
 10
18.2208
 20
12.6402
 11
18.4386
 21
12.3203
  0
LINE
  8
0
 10
18.4386
 20
12.3203
 11
18.6508
 21
11.9966
  0
LINE
  8
0
 10
18.6508
 20
11.9966
 11
18.8574
 21
11.6693
  0
LINE
  8
0
 10
18.8574
 20
11.6693
 11
19.0581
 21
11.3384
  0
LINE
  8
0
 10
19.0581
 20
11.3384
 11
19.2531
 21
11.0041
  0
LINE
  8
0
 10
19.2531
 20
11.0041
 11
19.4422
 21
10.6664
  0
LINE
  8
0
 10
19.4422
 20
10.6664
 11
19.6254
 21
10.3255
  0
LINE
  8
0
 10
19.6254
 20
10.3255
 11
19.8026
 21
9.98135
  0
LINE
  8
0
 10
19.8026
 20
9.98135
 11
19.9738
 21
9.63422
  0
LINE
  8
0
 10
19.9738
 20
9.63422
 11
20.1389
 21
9.28412
  0
LINE
  8
0
 10
20.1389
 20
9.28412
 11
20.2979
 21
8.93127
  0
LINE
  8
0
 10
20.2979
 20
8.93127
 11
20.351
 21
8.80911
  0
LINE
  8
0
 10
20.351
 20
8.80911
 11
20.3249
 21
8.78683
  0
LINE
  8
0
 10
20.3249
 20
8.78683
 11
20.2687
 21
8.78241
  0
LINE
  8
0
 10
20.2687
 20
8.78241
 11
20.2259
 21
8.7458
  0
LINE
  8
0
 10
20.2259
 20
8.7458
 11
20.1697
 21
8.74138
  0
LINE
  8
0
 10
20.1697
 20
8.74138
 11
20.1268
 21
8.70477
  0
LINE
  8
0
 10
20.1268
 20
8.70477
 11
20.0706
 21
8.70035
  0
LINE
  8
0
 10
20.0706
 20
8.70035
 11
20.0278
 21
8.66374
  0
LINE
  8
0
 10
20.0278
 20
8.66374
 11
19.9716
 21
8.65932
  0
LINE
  8
0
 10
19.9716
 20
8.65932
 11
19.9287
 21
8.62271
  0
LINE
  8
0
 10
19.9287
 20
8.62271
 11
19.8725
 21
8.6183
  0
LINE
  8
0
 10
19.8725
 20
8.6183
 11
19.8297
 21
8.58168
  0
LINE
  8
0
 10
19.8297
 20
8.58168
 11
19.7735
 21
8.57727
  0
LINE
  8
0
 10
19.7735
 20
8.57727
 11
19.7306
 21
8.54065
  0
LINE
  8
0
 10
19.7306
 20
8.54065
 11
19.6744
 21
8.53624
  0
LINE
  8
0
 10
19.6744
 20
8.53624
 11
19.6315
 21
8.49962
  0
LINE
  8
0
 10
19.6315
 20
8.49962
 11
19.5753
 21
8.49521
  0
LINE
  8
0
 10
19.5753
 20
8.49521
 11
19.5325
 21
8.4586
  0
LINE
  8
0
 10
19.5325
 20
8.4586
 11
19.4763
 21
8.45418
  0
LINE
  8
0
 10
19.4763
 20
8.45418
 11
19.4334
 21
8.41757
  0
LINE
  8
0
 10
19.4334
 20
8.41757
 11
19.3772
 21
8.41315
  0
LINE
  8
0
 10
19.3772
 20
8.41315
 11
19.3344
 21
8.37654
  0
LINE
  8
0
 10
19.3344
 20
8.37654
 11
19.2782
 21
8.37212
  0
LINE
  8
0
 10
19.2782
 20
8.37212
 11
19.2353
 21
8.33551
  0
LINE
  8
0
 10
19.2353
 20
8.33551
 11
19.1791
 21
8.33109
  0
LINE
  8
0
 10
19.1791
 20
8.33109
 11
19.1363
 21
8.29448
  0
LINE
  8
0
 10
19.1363
 20
8.29448
 11
19.0801
 21
8.29005
  0
LINE
  8
0
 10
19.0801
 20
8.29005
 11
19.0372
 21
8.25345
  0
LINE
  8
0
 10
19.0372
 20
8.25345
 11
18.997
 21
8.25027
  0
LINE
  8
0
 10
18.997
 20
8.25027
 11
18.8003
 21
8.68942
  0
LINE
  8
0
 10
18.8003
 20
8.68942
 11
18.6458
 21
9.0162
  0
LINE
  8
0
 10
18.6458
 20
9.0162
 11
18.4856
 21
9.34026
  0
LINE
  8
0
 10
18.4856
 20
9.34026
 11
18.3198
 21
9.66145
  0
LINE
  8
0
 10
18.3198
 20
9.66145
 11
18.1484
 21
9.97971
  0
LINE
  8
0
 10
18.1484
 20
9.97971
 11
17.9714
 21
10.2949
  0
LINE
  8
0
 10
17.9714
 20
10.2949
 11
17.789
 21
10.607
  0
LINE
  8
0
 10
17.789
 20
10.607
 11
17.6012
 21
10.9158
  0
LINE
  8
0
 10
17.6012
 20
10.9158
 11
17.408
 21
11.2214
  0
LINE
  8
0
 10
17.408
 20
11.2214
 11
17.2095
 21
11.5235
  0
LINE
  8
0
 10
17.2095
 20
11.5235
 11
17.0058
 21
11.8221
  0
LINE
  8
0
 10
17.0058
 20
11.8221
 11
16.7969
 21
12.1171
  0
LINE
  8
0
 10
16.7969
 20
12.1171
 11
16.5828
 21
12.4083
  0
LINE
  8
0
 10
16.5828
 20
12.4083
 11
16.3638
 21
12.6959
  0
LINE
  8
0
 10
16.3638
 20
12.6959
 11
16.1397
 21
12.9795
  0
LINE
  8
0
 10
16.1397
 20
12.9795
 11
15.9107
 21
13.2592
  0
LINE
  8
0
 10
15.9107
 20
13.2592
 11
15.6769
 21
13.5349
  0
LINE
  8
0
 10
15.6769
 20
13.5349
 11
15.4383
 21
13.8064
  0
LINE
  8
0
 10
15.4383
 20
13.8064
 11
15.195
 21
14.0737
  0
LINE
  8
0
 10
15.195
 20
14.0737
 11
14.947
 21
14.3368
  0
LINE
  8
0
 10
14.947
 20
14.3368
 11
14.6945
 21
14.5955
  0
LINE
  8
0
 10
14.6945
 20
14.5955
 11
14.4376
 21
14.8497
  0
LINE
  8
0
 10
14.4376
 20
14.8497
 11
14.1762
 21
15.0994
  0
LINE
  8
0
 10
14.1762
 20
15.0994
 11
13.9105
 21
15.3445
  0
LINE
  8
0
 10
13.9105
 20
15.3445
 11
13.6406
 21
15.585
  0
LINE
  8
0
 10
13.6406
 20
15.585
 11
13.3665
 21
15.8206
  0
LINE
  8
0
 10
13.3665
 20
15.8206
 11
13.0884
 21
16.0515
  0
LINE
  8
0
 10
13.0884
 20
16.0515
 11
12.8063
 21
16.2775
  0
LINE
  8
0
 10
12.8063
 20
16.2775
 11
12.5202
 21
16.4985
  0
LINE
  8
0
 10
12.5202
 20
16.4985
 11
12.2304
 21
16.7145
  0
LINE
  8
0
 10
12.2304
 20
16.7145
 11
11.9368
 21
16.9254
  0
LINE
  8
0
 10
11.9368
 20
16.9254
 11
11.6396
 21
17.1312
  0
LINE
  8
0
 10
11.6396
 20
17.1312
 11
11.3389
 21
17.3317
  0
LINE
  8
0
 10
11.3389
 20
17.3317
 11
11.0347
 21
17.5269
  0
LINE
  8
0
 10
11.0347
 20
17.5269
 11
10.7271
 21
17.7169
  0
LINE
  8
0
 10
10.7271
 20
17.7169
 11
10.4163
 21
17.9014
  0
LINE
  8
0
 10
10.4163
 20
17.9014
 11
10.1022
 21
18.0804
  0
LINE
  8
0
 10
10.1022
 20
18.0804
 11
9.78516
 21
18.254
  0
LINE
  8
0
 10
9.78516
 20
18.254
 11
9.46509
 21
18.422
  0
LINE
  8
0
 10
9.46509
 20
18.422
 11
9.14214
 21
18.5844
  0
LINE
  8
0
 10
9.14214
 20
18.5844
 11
8.81641
 21
18.7411
  0
LINE
  8
0
 10
8.81641
 20
18.7411
 11
8.48799
 21
18.8921
  0
LINE
  8
0
 10
8.48799
 20
18.8921
 11
8.15698
 21
19.0374
  0
LINE
  8
0
 10
8.15698
 20
19.0374
 11
7.82349
 21
19.1768
  0
LINE
  8
0
 10
7.82349
 20
19.1768
 11
7.48763
 21
19.3104
  0
LINE
  8
0
 10
7.48763
 20
19.3104
 11
7.14946
 21
19.4382
  0
LINE
  8
0
 10
7.14946
 20
19.4382
 11
6.80913
 21
19.56
  0
LINE
  8
0
 10
6.80913
 20
19.56
 11
6.46672
 21
19.6758
  0
LINE
  8
0
 10
6.46672
 20
19.6758
 11
6.12234
 21
19.7857
  0
LINE
  8
0
 10
6.12234
 20
19.7857
 11
5.77611
 21
19.8895
  0
LINE
  8
0
 10
5.77611
 20
19.8895
 11
5.42812
 21
19.9873
  0
LINE
  8
0
 10
5.42812
 20
19.9873
 11
5.07846
 21
20.079
  0
LINE
  8
0
 10
5.07846
 20
20.079
 11
4.72725
 21
20.1646
  0
LINE
  8
0
 10
4.72725
 20
20.1646
 11
4.37462
 21
20.244
  0
LINE
  8
0
 10
4.37462
 20
20.244
 11
4.02065
 21
20.3173
  0
LINE
  8
0
 10
4.02065
 20
20.3173
 11
3.66544
 21
20.3844
  0
LINE
  8
0
 10
3.66544
 20
20.3844
 11
3.30913
 21
20.4452
  0
LINE
  8
0
 10
3.30913
 20
20.4452
 11
2.9518
 21
20.4999
  0
LINE
  8
0
 10
2.9518
 20
20.4999
 11
2.59358
 21
20.5483
  0
LINE
  8
0
 10
2.59358
 20
20.5483
 11
2.23457
 21
20.5904
  0
LINE
  8
0
 10
2.23457
 20
20.5904
 11
1.87488
 21
20.6263
  0
LINE
  8
0
 10
1.87488
 20
20.6263
 11
1.51462
 21
20.6558
  0
LINE
  8
0
 10
1.51462
 20
20.6558
 11
1.15388
 21
20.6791
  0
LINE
  8
0
 10
1.15388
 20
20.6791
 11
0.792816
 21
20.6961
  0
LINE
  8
0
 10
0.792816
 20
20.6961
 11
0.431503
 21
20.7068
  0
LINE
  8
0
 10
0.431503
 20
20.7068
 11
0.0700531
 21
20.7112
  0
LINE
  8
0
 10
0.0700531
 20
20.7112
 11
-0.291412
 21
20.7092
  0
LINE
  8
0
 10
-0.291412
 20
20.7092
 11
-0.652786
 21
20.701
  0
LINE
  8
0
 10
-0.652786
 20
20.701
 11
-1.01398
 21
20.6865
  0
LINE
  8
0
 10
-1.01398
 20
20.6865
 11
-1.37485
 21
20.6656
  0
LINE
  8
0
 10
-1.37485
 20
20.6656
 11
-1.73531
 21
20.6385
  0
LINE
  8
0
 10
-1.73531
 20
20.6385
 11
-2.09523
 21
20.605
  0
LINE
  8
0
 10
-2.09523
 20
20.605
 11
-2.45451
 21
20.5653
  0
LINE
  8
0
 10
-2.45451
 20
20.5653
 11
-2.81306
 21
20.5194
  0
LINE
  8
0
 10
-2.81306
 20
20.5194
 11
-3.03142
 21
20.4881
  0
LINE
  8
0
 10
-3.03142
 20
20.4881
 11
-3.03468
 21
20.4964
  0
LINE
  8
0
 10
-3.03468
 20
20.4964
 11
-3.19266
 21
20.7138
  0
LINE
  8
0
 10
-3.19266
 20
20.7138
 11
-3.39973
 21
20.8851
  0
LINE
  8
0
 10
-3.39973
 20
20.8851
 11
-3.64291
 21
20.9995
  0
LINE
  8
0
 10
-3.64291
 20
20.9995
 11
-3.90691
 21
21.0499
  0
LINE
  8
0
 10
-3.90691
 20
21.0499
 11
-4.17514
 21
21.033
  0
LINE
  8
0
 10
-4.17514
 20
21.033
 11
-4.43074
 21
20.95
  0
LINE
  8
0
 10
-4.43074
 20
20.95
 11
-4.65765
 21
20.806
  0
LINE
  8
0
 10
-4.65765
 20
20.806
 11
-4.84164
 21
20.6101
  0
LINE
  8
0
 10
-4.84164
 20
20.6101
 11
-4.97112
 21
20.3745
  0
LINE
  8
0
 10
-4.97112
 20
20.3745
 11
-5.03795
 21
20.1142
  0
LINE
  8
0
 10
-5.03795
 20
20.1142
 11
-5.03795
 21
19.8455
  0
LINE
  8
0
 10
-5.03795
 20
19.8455
 11
-4.97112
 21
19.5852
  0
LINE
  8
0
 10
-4.97112
 20
19.5852
 11
-4.84164
 21
19.3496
  0
LINE
  8
0
 10
-4.84164
 20
19.3496
 11
-4.65765
 21
19.1537
  0
LINE
  8
0
 10
-4.65765
 20
19.1537
 11
-4.43074
 21
19.0097
  0
LINE
  8
0
 10
-4.43074
 20
19.0097
 11
-4.17514
 21
18.9267
  0
LINE
  8
0
 10
-4.17514
 20
18.9267
 11
-3.90691
 21
18.9098
  0
LINE
  8
0
 10
-3.90691
 20
18.9098
 11
-3.64291
 21
18.9601
  0
LINE
  8
0
 10
-3.64291
 20
18.9601
 11
-3.39973
 21
19.0746
  0
LINE
  8
0
 10
-3.39973
 20
19.0746
 11
-3.19266
 21
19.2459
  0
LINE
  8
0
 10
-3.19266
 20
19.2459
 11
-3.03468
 21
19.4633
  0
LINE
  8
0
 10
-3.03468
 20
19.4633
 11
-2.93575
 21
19.7132
  0
LINE
  8
0
 10
-2.93575
 20
19.7132
 11
-2.92262
 21
19.8171
  0
LINE
  8
0
 10
-2.92262
 20
19.8171
 11
-2.70128
 21
19.8486
  0
LINE
  8
0
 10
-2.70128
 20
19.8486
 11
-2.35446
 21
19.8927
  0
LINE
  8
0
 10
-2.35446
 20
19.8927
 11
-2.00696
 21
19.9308
  0
LINE
  8
0
 10
-2.00696
 20
19.9308
 11
-1.6588
 21
19.9628
  0
LINE
  8
0
 10
-1.6588
 20
19.9628
 11
-1.31009
 21
19.9887
  0
LINE
  8
0
 10
-1.31009
 20
19.9887
 11
-0.961105
 21
20.0085
  0
LINE
  8
0
 10
-0.961105
 20
20.0085
 11
-0.61174
 21
20.0222
  0
LINE
  8
0
 10
-0.61174
 20
20.0222
 11
-0.262222
 21
20.0298
  0
LINE
  8
0
 10
-0.262222
 20
20.0298
 11
0.0874023
 21
20.0314
  0
LINE
  8
0
 10
0.0874023
 20
20.0314
 11
0.436951
 21
20.0268
  0
LINE
  8
0
 10
0.436951
 20
20.0268
 11
0.786392
 21
20.0161
  0
LINE
  8
0
 10
0.786392
 20
20.0161
 11
1.13559
 21
19.9994
  0
LINE
  8
0
 10
1.13559
 20
19.9994
 11
1.48453
 21
19.9765
  0
LINE
  8
0
 10
1.48453
 20
19.9765
 11
1.83289
 21
19.9475
  0
LINE
  8
0
 10
1.83289
 20
19.9475
 11
2.18077
 21
19.9125
  0
LINE
  8
0
 10
2.18077
 20
19.9125
 11
2.528
 21
19.8714
  0
LINE
  8
0
 10
2.528
 20
19.8714
 11
2.87436
 21
19.8243
  0
LINE
  8
0
 10
2.87436
 20
19.8243
 11
3.21992
 21
19.7711
  0
LINE
  8
0
 10
3.21992
 20
19.7711
 11
3.56451
 21
19.7119
  0
LINE
  8
0
 10
3.56451
 20
19.7119
 11
3.90793
 21
19.6467
  0
LINE
  8
0
 10
3.90793
 20
19.6467
 11
4.25029
 21
19.5755
  0
LINE
  8
0
 10
4.25029
 20
19.5755
 11
4.59125
 21
19.4983
  0
LINE
  8
0
 10
4.59125
 20
19.4983
 11
4.93079
 21
19.4152
  0
LINE
  8
0
 10
4.93079
 20
19.4152
 11
5.26895
 21
19.3262
  0
LINE
  8
0
 10
5.26895
 20
19.3262
 11
5.60544
 21
19.2313
  0
LINE
  8
0
 10
5.60544
 20
19.2313
 11
5.94019
 21
19.1305
  0
LINE
  8
0
 10
5.94019
 20
19.1305
 11
6.27318
 21
19.024
  0
LINE
  8
0
 10
6.27318
 20
19.024
 11
6.60417
 21
18.9116
  0
LINE
  8
0
 10
6.60417
 20
18.9116
 11
6.93329
 21
18.7934
  0
LINE
  8
0
 10
6.93329
 20
18.7934
 11
7.26021
 21
18.6696
  0
LINE
  8
0
 10
7.26021
 20
18.6696
 11
7.58492
 21
18.54
  0
LINE
  8
0
 10
7.58492
 20
18.54
 11
7.90733
 21
18.4048
  0
LINE
  8
0
 10
7.90733
 20
18.4048
 11
8.22734
 21
18.264
  0
LINE
  8
0
 10
8.22734
 20
18.264
 11
8.54488
 21
18.1176
  0
LINE
  8
0
 10
8.54488
 20
18.1176
 11
8.85976
 21
17.9657
  0
LINE
  8
0
 10
8.85976
 20
17.9657
 11
9.17191
 21
17.8084
  0
LINE
  8
0
 10
9.17191
 20
17.8084
 11
9.48134
 21
17.6456
  0
LINE
  8
0
 10
9.48134
 20
17.6456
 11
9.78783
 21
17.4775
  0
LINE
  8
0
 10
9.78783
 20
17.4775
 11
10.0914
 21
17.304
  0
LINE
  8
0
 10
10.0914
 20
17.304
 11
10.3918
 21
17.1252
  0
LINE
  8
0
 10
10.3918
 20
17.1252
 11
10.6891
 21
16.9412
  0
LINE
  8
0
 10
10.6891
 20
16.9412
 11
10.9832
 21
16.7521
  0
LINE
  8
0
 10
10.9832
 20
16.7521
 11
11.2739
 21
16.5579
  0
LINE
  8
0
 10
11.2739
 20
16.5579
 11
11.5611
 21
16.3586
  0
LINE
  8
0
 10
11.5611
 20
16.3586
 11
11.8449
 21
16.1543
  0
LINE
  8
0
 10
11.8449
 20
16.1543
 11
12.125
 21
15.9452
  0
LINE
  8
0
 10
12.125
 20
15.9452
 11
12.4014
 21
15.7311
  0
LINE
  8
0
 10
12.4014
 20
15.7311
 11
12.6741
 21
15.5123
  0
LINE
  8
0
 10
12.6741
 20
15.5123
 11
12.9429
 21
15.2887
  0
LINE
  8
0
 10
12.9429
 20
15.2887
 11
13.2077
 21
15.0605
  0
LINE
  8
0
 10
13.2077
 20
15.0605
 11
13.4685
 21
14.8278
  0
LINE
  8
0
 10
13.4685
 20
14.8278
 11
13.7253
 21
14.5904
  0
LINE
  8
0
 10
13.7253
 20
14.5904
 11
13.9778
 21
14.3486
  0
LINE
  8
0
 10
13.9778
 20
14.3486
 11
14.2261
 21
14.1026
  0
LINE
  8
0
 10
14.2261
 20
14.1026
 11
14.4701
 21
13.8521
  0
LINE
  8
0
 10
14.4701
 20
13.8521
 11
14.7096
 21
13.5975
  0
LINE
  8
0
 10
14.7096
 20
13.5975
 11
14.9447
 21
13.3387
  0
LINE
  8
0
 10
14.9447
 20
13.3387
 11
15.1752
 21
13.0758
  0
LINE
  8
0
 10
15.1752
 20
13.0758
 11
15.4011
 21
12.809
  0
LINE
  8
0
 10
15.4011
 20
12.809
 11
15.6223
 21
12.5383
  0
LINE
  8
0
 10
15.6223
 20
12.5383
 11
15.8387
 21
12.2637
  0
LINE
  8
0
 10
15.8387
 20
12.2637
 11
16.0504
 21
11.9853
  0
LINE
  8
0
 10
16.0504
 20
11.9853
 11
16.2571
 21
11.7034
  0
LINE
  8
0
 10
16.2571
 20
11.7034
 11
16.4589
 21
11.4179
  0
LINE
  8
0
 10
16.4589
 20
11.4179
 11
16.6556
 21
11.1289
  0
LINE
  8
0
 10
16.6556
 20
11.1289
 11
16.8473
 21
10.8366
  0
LINE
  8
0
 10
16.8473
 20
10.8366
 11
17.0339
 21
10.5409
  0
LINE
  8
0
 10
17.0339
 20
10.5409
 11
17.2152
 21
10.242
  0
LINE
  8
0
 10
17.2152
 20
10.242
 11
17.3914
 21
9.94003
  0
LINE
  8
0
 10
17.3914
 20
9.94003
 11
17.5622
 21
9.63496
  0
LINE
  8
0
 10
17.5622
 20
9.63496
 11
17.7277
 21
9.32698
  0
LINE
  8
0
 10
17.7277
 20
9.32698
 11
17.8878
 21
9.0162
  0
LINE
  8
0
 10
17.8878
 20
9.0162
 11
18.0424
 21
8.70258
  0
LINE
  8
0
 10
18.0424
 20
8.70258
 11
18.1915
 21
8.38637
  0
LINE
  8
0
 10
18.1915
 20
8.38637
 11
18.3351
 21
8.06763
  0
LINE
  8
0
 10
18.3351
 20
8.06763
 11
18.4731
 21
7.7464
  0
LINE
  8
0
 10
18.4731
 20
7.7464
 11
18.5488
 21
7.56364
  0
LINE
  8
0
 10
18.5488
 20
7.56364
 11
18.7372
 21
7.44823
  0
LINE
  8
0
 10
18.7372
 20
7.44823
 11
18.9574
 21
7.46556
  0
LINE
  8
0
 10
-4.0479
 20
19.5937
 11
-4.14162
 21
19.6241
  0
LINE
  8
0
 10
-4.14162
 20
19.6241
 11
-4.22482
 21
19.6769
  0
LINE
  8
0
 10
-4.22482
 20
19.6769
 11
-4.29228
 21
19.7488
  0
LINE
  8
0
 10
-4.29228
 20
19.7488
 11
-4.33975
 21
19.8351
  0
LINE
  8
0
 10
-4.33975
 20
19.8351
 11
-4.36426
 21
19.9306
  0
LINE
  8
0
 10
-4.36426
 20
19.9306
 11
-4.36426
 21
20.0291
  0
LINE
  8
0
 10
-4.36426
 20
20.0291
 11
-4.33975
 21
20.1246
  0
LINE
  8
0
 10
-4.33975
 20
20.1246
 11
-4.29228
 21
20.2109
  0
LINE
  8
0
 10
-4.29228
 20
20.2109
 11
-4.22482
 21
20.2828
  0
LINE
  8
0
 10
-4.22482
 20
20.2828
 11
-4.14162
 21
20.3356
  0
LINE
  8
0
 10
-4.14162
 20
20.3356
 11
-4.0479
 21
20.366
  0
LINE
  8
0
 10
-4.0479
 20
20.366
 11
-3.94955
 21
20.3722
  0
LINE
  8
0
 10
-3.94955
 20
20.3722
 11
-3.85275
 21
20.3537
  0
LINE
  8
0
 10
-3.85275
 20
20.3537
 11
-3.76358
 21
20.3118
  0
LINE
  8
0
 10
-3.76358
 20
20.3118
 11
-3.68765
 21
20.249
  0
LINE
  8
0
 10
-3.68765
 20
20.249
 11
-3.62973
 21
20.1692
  0
LINE
  8
0
 10
-3.62973
 20
20.1692
 11
-3.59346
 21
20.0776
  0
LINE
  8
0
 10
-3.59346
 20
20.0776
 11
-3.5811
 21
19.9798
  0
LINE
  8
0
 10
-3.5811
 20
19.9798
 11
-3.59346
 21
19.8821
  0
LINE
  8
0
 10
-3.59346
 20
19.8821
 11
-3.62973
 21
19.7905
  0
LINE
  8
0
 10
-3.62973
 20
19.7905
 11
-3.68765
 21
19.7107
  0
LINE
  8
0
 10
-3.68765
 20
19.7107
 11
-3.76358
 21
19.6479
  0
LINE
  8
0
 10
-3.76358
 20
19.6479
 11
-3.85275
 21
19.606
  0
LINE
  8
0
 10
-3.85275
 20
19.606
 11
-3.94955
 21
19.5875
  0
LINE
  8
0
 10
-3.94955
 20
19.5875
 11
-4.0479
 21
19.5937
  0
LINE
  8
0
 10
15.8473
 20
15.5348
 11
15.7536
 21
15.5652
  0
LINE
  8
0
 10
15.7536
 20
15.5652
 11
15.6703
 21
15.618
  0
LINE
  8
0
 10
15.6703
 20
15.618
 11
15.6029
 21
15.6899
  0
LINE
  8
0
 10
15.6029
 20
15.6899
 11
15.5554
 21
15.7762
  0
LINE
  8
0
 10
15.5554
 20
15.7762
 11
15.5309
 21
15.8717
  0
LINE
  8
0
 10
15.5309
 20
15.8717
 11
15.5309
 21
15.9702
  0
LINE
  8
0
 10
15.5309
 20
15.9702
 11
15.5554
 21
16.0657
  0
LINE
  8
0
 10
15.5554
 20
16.0657
 11
15.6029
 21
16.152
  0
LINE
  8
0
 10
15.6029
 20
16.152
 11
15.6703
 21
16.2239
  0
LINE
  8
0
 10
15.6703
 20
16.2239
 11
15.7536
 21
16.2767
  0
LINE
  8
0
 10
15.7536
 20
16.2767
 11
15.8473
 21
16.3071
  0
LINE
  8
0
 10
15.8473
 20
16.3071
 11
15.9456
 21
16.3133
  0
LINE
  8
0
 10
15.9456
 20
16.3133
 11
16.0424
 21
16.2948
  0
LINE
  8
0
 10
16.0424
 20
16.2948
 11
16.1316
 21
16.2529
  0
LINE
  8
0
 10
16.1316
 20
16.2529
 11
16.2075
 21
16.1901
  0
LINE
  8
0
 10
16.2075
 20
16.1901
 11
16.2654
 21
16.1103
  0
LINE
  8
0
 10
16.2654
 20
16.1103
 11
16.3017
 21
16.0187
  0
LINE
  8
0
 10
16.3017
 20
16.0187
 11
16.3141
 21
15.9209
  0
LINE
  8
0
 10
16.3141
 20
15.9209
 11
16.3017
 21
15.8232
  0
LINE
  8
0
 10
16.3017
 20
15.8232
 11
16.2654
 21
15.7316
  0
LINE
  8
0
 10
16.2654
 20
15.7316
 11
16.2075
 21
15.6518
  0
LINE
  8
0
 10
16.2075
 20
15.6518
 11
16.1316
 21
15.589
  0
LINE
  8
0
 10
16.1316
 20
15.589
 11
16.0424
 21
15.5471
  0
LINE
  8
0
 10
16.0424
 20
15.5471
 11
15.9456
 21
15.5286
  0
LINE
  8
0
 10
15.9456
 20
15.5286
 11
15.8473
 21
15.5348
  0
LINE
  8
0
 10
-19.7174
 20
-4.21683
 11
-19.6249
 21
-4.01624
  0
LINE
  8
0
 10
-19.6249
 20
-4.01624
 11
-19.6961
 21
-3.65048
  0
LINE
  8
0
 10
-19.6961
 20
-3.65048
 11
-19.7569
 21
-3.30615
  0
LINE
  8
0
 10
-19.7569
 20
-3.30615
 11
-19.8115
 21
-2.96085
  0
LINE
  8
0
 10
-19.8115
 20
-2.96085
 11
-19.8602
 21
-2.61465
  0
LINE
  8
0
 10
-19.8602
 20
-2.61465
 11
-19.9028
 21
-2.26764
  0
LINE
  8
0
 10
-19.9028
 20
-2.26764
 11
-19.9393
 21
-1.91994
  0
LINE
  8
0
 10
-19.9393
 20
-1.91994
 11
-19.9698
 21
-1.57167
  0
LINE
  8
0
 10
-19.9698
 20
-1.57167
 11
-19.9942
 21
-1.22289
  0
LINE
  8
0
 10
-19.9942
 20
-1.22289
 11
-20.0125
 21
-0.873749
  0
LINE
  8
0
 10
-20.0125
 20
-0.873749
 11
-20.0247
 21
-0.524353
  0
LINE
  8
0
 10
-20.0247
 20
-0.524353
 11
-20.0308
 21
-0.17482
  0
LINE
  8
0
 10
-20.0308
 20
-0.17482
 11
-20.0308
 21
0.17482
  0
LINE
  8
0
 10
-20.0308
 20
0.17482
 11
-20.0247
 21
0.524353
  0
LINE
  8
0
 10
-20.0247
 20
0.524353
 11
-20.0125
 21
0.873749
  0
LINE
  8
0
 10
-20.0125
 20
0.873749
 11
-19.9942
 21
1.22289
  0
LINE
  8
0
 10
-19.9942
 20
1.22289
 11
-19.9698
 21
1.57167
  0
LINE
  8
0
 10
-19.9698
 20
1.57167
 11
-19.9393
 21
1.91994
  0
LINE
  8
0
 10
-19.9393
 20
1.91994
 11
-19.9028
 21
2.26764
  0
LINE
  8
0
 10
-19.9028
 20
2.26764
 11
-19.8602
 21
2.61465
  0
LINE
  8
0
 10
-19.8602
 20
2.61465
 11
-19.8115
 21
2.96085
  0
LINE
  8
0
 10
-19.8115
 20
2.96085
 11
-19.7569
 21
3.30615
  0
LINE
  8
0
 10
-19.7569
 20
3.30615
 11
-19.6961
 21
3.65048
  0
LINE
  8
0
 10
-19.6961
 20
3.65048
 11
-19.6294
 21
3.99361
  0
LINE
  8
0
 10
-19.6294
 20
3.99361
 11
-19.5567
 21
4.33566
  0
LINE
  8
0
 10
-19.5567
 20
4.33566
 11
-19.4781
 21
4.67628
  0
LINE
  8
0
 10
-19.4781
 20
4.67628
 11
-19.3935
 21
5.01549
  0
LINE
  8
0
 10
-19.3935
 20
5.01549
 11
-19.303
 21
5.35323
  0
LINE
  8
0
 10
-19.303
 20
5.35323
 11
-19.2066
 21
5.6893
  0
LINE
  8
0
 10
-19.2066
 20
5.6893
 11
-19.1044
 21
6.02357
  0
LINE
  8
0
 10
-19.1044
 20
6.02357
 11
-18.9964
 21
6.35616
  0
LINE
  8
0
 10
-18.9964
 20
6.35616
 11
-18.8826
 21
6.68668
  0
LINE
  8
0
 10
-18.8826
 20
6.68668
 11
-18.763
 21
7.0152
  0
LINE
  8
0
 10
-18.763
 20
7.0152
 11
-18.6377
 21
7.34157
  0
LINE
  8
0
 10
-18.6377
 20
7.34157
 11
-18.5067
 21
7.66576
  0
LINE
  8
0
 10
-18.5067
 20
7.66576
 11
-18.3701
 21
7.98755
  0
LINE
  8
0
 10
-18.3701
 20
7.98755
 11
-18.228
 21
8.30692
  0
LINE
  8
0
 10
-18.228
 20
8.30692
 11
-18.0802
 21
8.62381
  0
LINE
  8
0
 10
-18.0802
 20
8.62381
 11
-17.9269
 21
8.93805
  0
LINE
  8
0
 10
-17.9269
 20
8.93805
 11
-17.7682
 21
9.24954
  0
LINE
  8
0
 10
-17.7682
 20
9.24954
 11
-17.6041
 21
9.55821
  0
LINE
  8
0
 10
-17.6041
 20
9.55821
 11
-17.4346
 21
9.86401
  0
LINE
  8
0
 10
-17.4346
 20
9.86401
 11
-17.2598
 21
10.1668
  0
LINE
  8
0
 10
-17.2598
 20
10.1668
 11
-17.0797
 21
10.4665
  0
LINE
  8
0
 10
-17.0797
 20
10.4665
 11
-16.8944
 21
10.763
  0
LINE
  8
0
 10
-16.8944
 20
10.763
 11
-16.704
 21
11.0562
  0
LINE
  8
0
 10
-16.704
 20
11.0562
 11
-16.5085
 21
11.346
  0
LINE
  8
0
 10
-16.5085
 20
11.346
 11
-16.308
 21
11.6324
  0
LINE
  8
0
 10
-16.308
 20
11.6324
 11
-16.1025
 21
11.9152
  0
LINE
  8
0
 10
-16.1025
 20
11.9152
 11
-15.8921
 21
12.1944
  0
LINE
  8
0
 10
-15.8921
 20
12.1944
 11
-15.6769
 21
12.4699
  0
LINE
  8
0
 10
-15.6769
 20
12.4699
 11
-15.4568
 21
12.7416
  0
LINE
  8
0
 10
-15.4568
 20
12.7416
 11
-15.2321
 21
13.0095
  0
LINE
  8
0
 10
-15.2321
 20
13.0095
 11
-15.0027
 21
13.2733
  0
LINE
  8
0
 10
-15.0027
 20
13.2733
 11
-14.7688
 21
13.5331
  0
LINE
  8
0
 10
-14.7688
 20
13.5331
 11
-14.5304
 21
13.7888
  0
LINE
  8
0
 10
-14.5304
 20
13.7888
 11
-14.2875
 21
14.0403
  0
LINE
  8
0
 10
-14.2875
 20
14.0403
 11
-14.0403
 21
14.2875
  0
LINE
  8
0
 10
-14.0403
 20
14.2875
 11
-13.7888
 21
14.5304
  0
LINE
  8
0
 10
-13.7888
 20
14.5304
 11
-13.5331
 21
14.7688
  0
LINE
  8
0
 10
-13.5331
 20
14.7688
 11
-13.2733
 21
15.0027
  0
LINE
  8
0
 10
-13.2733
 20
15.0027
 11
-13.0095
 21
15.2321
  0
LINE
  8
0
 10
-13.0095
 20
15.2321
 11
-12.7416
 21
15.4568
  0
LINE
  8
0
 10
-12.7416
 20
15.4568
 11
-12.4699
 21
15.6769
  0
LINE
  8
0
 10
-12.4699
 20
15.6769
 11
-12.1944
 21
15.8921
  0
LINE
  8
0
 10
-12.1944
 20
15.8921
 11
-11.9478
 21
16.0782
  0
LINE
  8
0
 10
-11.9478
 20
16.0782
 11
-11.7742
 21
15.968
  0
LINE
  8
0
 10
-11.7742
 20
15.968
 11
-11.5186
 21
15.8849
  0
LINE
  8
0
 10
-11.5186
 20
15.8849
 11
-11.2504
 21
15.868
  0
LINE
  8
0
 10
-11.2504
 20
15.868
 11
-10.9864
 21
15.9184
  0
LINE
  8
0
 10
-10.9864
 20
15.9184
 11
-10.7432
 21
16.0328
  0
LINE
  8
0
 10
-10.7432
 20
16.0328
 11
-10.5361
 21
16.2041
  0
LINE
  8
0
 10
-10.5361
 20
16.2041
 11
-10.3781
 21
16.4216
  0
LINE
  8
0
 10
-10.3781
 20
16.4216
 11
-10.2792
 21
16.6715
  0
LINE
  8
0
 10
-10.2792
 20
16.6715
 11
-10.2455
 21
16.9381
  0
LINE
  8
0
 10
-10.2455
 20
16.9381
 11
-10.2792
 21
17.2047
  0
LINE
  8
0
 10
-10.2792
 20
17.2047
 11
-10.3781
 21
17.4546
  0
LINE
  8
0
 10
-10.3781
 20
17.4546
 11
-10.5361
 21
17.672
  0
LINE
  8
0
 10
-10.5361
 20
17.672
 11
-10.7432
 21
17.8434
  0
LINE
  8
0
 10
-10.7432
 20
17.8434
 11
-10.9864
 21
17.9578
  0
LINE
  8
0
 10
-10.9864
 20
17.9578
 11
-11.2504
 21
18.0081
  0
LINE
  8
0
 10
-11.2504
 20
18.0081
 11
-11.5186
 21
17.9913
  0
LINE
  8
0
 10
-11.5186
 20
17.9913
 11
-11.7742
 21
17.9082
  0
LINE
  8
0
 10
-11.7742
 20
17.9082
 11
-12.0011
 21
17.7642
  0
LINE
  8
0
 10
-12.0011
 20
17.7642
 11
-12.1851
 21
17.5683
  0
LINE
  8
0
 10
-12.1851
 20
17.5683
 11
-12.3145
 21
17.3328
  0
LINE
  8
0
 10
-12.3145
 20
17.3328
 11
-12.3814
 21
17.0725
  0
LINE
  8
0
 10
-12.3814
 20
17.0725
 11
-12.3814
 21
16.8037
  0
LINE
  8
0
 10
-12.3814
 20
16.8037
 11
-12.3381
 21
16.6351
  0
LINE
  8
0
 10
-12.3381
 20
16.6351
 11
-12.6243
 21
16.419
  0
LINE
  8
0
 10
-12.6243
 20
16.419
 11
-12.909
 21
16.1962
  0
LINE
  8
0
 10
-12.909
 20
16.1962
 11
-13.1897
 21
15.9684
  0
LINE
  8
0
 10
-13.1897
 20
15.9684
 11
-13.4663
 21
15.7358
  0
LINE
  8
0
 10
-13.4663
 20
15.7358
 11
-13.7389
 21
15.4984
  0
LINE
  8
0
 10
-13.7389
 20
15.4984
 11
-14.0073
 21
15.2562
  0
LINE
  8
0
 10
-14.0073
 20
15.2562
 11
-14.2714
 21
15.0094
  0
LINE
  8
0
 10
-14.2714
 20
15.0094
 11
-14.5312
 21
14.7581
  0
LINE
  8
0
 10
-14.5312
 20
14.7581
 11
-14.7866
 21
14.5022
  0
LINE
  8
0
 10
-14.7866
 20
14.5022
 11
-15.0374
 21
14.242
  0
LINE
  8
0
 10
-15.0374
 20
14.242
 11
-15.2837
 21
13.9774
  0
LINE
  8
0
 10
-15.2837
 20
13.9774
 11
-15.5253
 21
13.7085
  0
LINE
  8
0
 10
-15.5253
 20
13.7085
 11
-15.7622
 21
13.4355
  0
LINE
  8
0
 10
-15.7622
 20
13.4355
 11
-15.9942
 21
13.1583
  0
LINE
  8
0
 10
-15.9942
 20
13.1583
 11
-16.2215
 21
12.8772
  0
LINE
  8
0
 10
-16.2215
 20
12.8772
 11
-16.4437
 21
12.5921
  0
LINE
  8
0
 10
-16.4437
 20
12.5921
 11
-16.661
 21
12.3032
  0
LINE
  8
0
 10
-16.661
 20
12.3032
 11
-16.8732
 21
12.0106
  0
LINE
  8
0
 10
-16.8732
 20
12.0106
 11
-17.0802
 21
11.7142
  0
LINE
  8
0
 10
-17.0802
 20
11.7142
 11
-17.2821
 21
11.4144
  0
LINE
  8
0
 10
-17.2821
 20
11.4144
 11
-17.4786
 21
11.111
  0
LINE
  8
0
 10
-17.4786
 20
11.111
 11
-17.6699
 21
10.8043
  0
LINE
  8
0
 10
-17.6699
 20
10.8043
 11
-17.8558
 21
10.4943
  0
LINE
  8
0
 10
-17.8558
 20
10.4943
 11
-18.0362
 21
10.181
  0
LINE
  8
0
 10
-18.0362
 20
10.181
 11
-18.2111
 21
9.86472
  0
LINE
  8
0
 10
-18.2111
 20
9.86472
 11
-18.3805
 21
9.54538
  0
LINE
  8
0
 10
-18.3805
 20
9.54538
 11
-18.5443
 21
9.22314
  0
LINE
  8
0
 10
-18.5443
 20
9.22314
 11
-18.7024
 21
8.8981
  0
LINE
  8
0
 10
-18.7024
 20
8.8981
 11
-18.8549
 21
8.57034
  0
LINE
  8
0
 10
-18.8549
 20
8.57034
 11
-19.0016
 21
8.23997
  0
LINE
  8
0
 10
-19.0016
 20
8.23997
 11
-19.1425
 21
7.90709
  0
LINE
  8
0
 10
-19.1425
 20
7.90709
 11
-19.2776
 21
7.57181
  0
LINE
  8
0
 10
-19.2776
 20
7.57181
 11
-19.4068
 21
7.23421
  0
LINE
  8
0
 10
-19.4068
 20
7.23421
 11
-19.5301
 21
6.89441
  0
LINE
  8
0
 10
-19.5301
 20
6.89441
 11
-19.6474
 21
6.55252
  0
LINE
  8
0
 10
-19.6474
 20
6.55252
 11
-19.7588
 21
6.20862
  0
LINE
  8
0
 10
-19.7588
 20
6.20862
 11
-19.8642
 21
5.86284
  0
LINE
  8
0
 10
-19.8642
 20
5.86284
 11
-19.9635
 21
5.51527
  0
LINE
  8
0
 10
-19.9635
 20
5.51527
 11
-20.0567
 21
5.16602
  0
LINE
  8
0
 10
-20.0567
 20
5.16602
 11
-20.1438
 21
4.8152
  0
LINE
  8
0
 10
-20.1438
 20
4.8152
 11
-20.2247
 21
4.46291
  0
LINE
  8
0
 10
-20.2247
 20
4.46291
 11
-20.2995
 21
4.10925
  0
LINE
  8
0
 10
-20.2995
 20
4.10925
 11
-20.3682
 21
3.75435
  0
LINE
  8
0
 10
-20.3682
 20
3.75435
 11
-20.4306
 21
3.3983
  0
LINE
  8
0
 10
-20.4306
 20
3.3983
 11
-20.4868
 21
3.04123
  0
LINE
  8
0
 10
-20.4868
 20
3.04123
 11
-20.5367
 21
2.68321
  0
LINE
  8
0
 10
-20.5367
 20
2.68321
 11
-20.5804
 21
2.32439
  0
LINE
  8
0
 10
-20.5804
 20
2.32439
 11
-20.6179
 21
1.96486
  0
LINE
  8
0
 10
-20.6179
 20
1.96486
 11
-20.649
 21
1.60474
  0
LINE
  8
0
 10
-20.649
 20
1.60474
 11
-20.6739
 21
1.24411
  0
LINE
  8
0
 10
-20.6739
 20
1.24411
 11
-20.6925
 21
0.883118
  0
LINE
  8
0
 10
-20.6925
 20
0.883118
 11
-20.7047
 21
0.521835
  0
LINE
  8
0
 10
-20.7047
 20
0.521835
 11
-20.7107
 21
0.160416
  0
LINE
  8
0
 10
-20.7107
 20
0.160416
 11
-20.7103
 21
-0.20105
  0
LINE
  8
0
 10
-20.7103
 20
-0.20105
 11
-20.7037
 21
-0.562454
  0
LINE
  8
0
 10
-20.7037
 20
-0.562454
 11
-20.6907
 21
-0.923706
  0
LINE
  8
0
 10
-20.6907
 20
-0.923706
 11
-20.6714
 21
-1.28467
  0
LINE
  8
0
 10
-20.6714
 20
-1.28467
 11
-20.6458
 21
-1.64523
  0
LINE
  8
0
 10
-20.6458
 20
-1.64523
 11
-20.614
 21
-2.00529
  0
LINE
  8
0
 10
-20.614
 20
-2.00529
 11
-20.5759
 21
-2.36476
  0
LINE
  8
0
 10
-20.5759
 20
-2.36476
 11
-20.5314
 21
-2.7235
  0
LINE
  8
0
 10
-20.5314
 20
-2.7235
 11
-20.4808
 21
-3.08141
  0
LINE
  8
0
 10
-20.4808
 20
-3.08141
 11
-20.4239
 21
-3.43837
  0
LINE
  8
0
 10
-20.4239
 20
-3.43837
 11
-20.3608
 21
-3.7943
  0
LINE
  8
0
 10
-20.3608
 20
-3.7943
 11
-20.2917
 21
-4.14886
  0
LINE
  8
0
 10
-20.2917
 20
-4.14886
 11
-20.1295
 21
-4.2988
  0
LINE
  8
0
 10
-20.1295
 20
-4.2988
 11
-19.9101
 21
-4.32475
  0
LINE
  8
0
 10
-19.9101
 20
-4.32475
 11
-19.7174
 21
-4.21683
  0
LINE
  8
0
 10
-11.3913
 20
16.5519
 11
-11.4851
 21
16.5824
  0
LINE
  8
0
 10
-11.4851
 20
16.5824
 11
-11.5683
 21
16.6352
  0
LINE
  8
0
 10
-11.5683
 20
16.6352
 11
-11.6357
 21
16.707
  0
LINE
  8
0
 10
-11.6357
 20
16.707
 11
-11.6832
 21
16.7934
  0
LINE
  8
0
 10
-11.6832
 20
16.7934
 11
-11.7077
 21
16.8888
  0
LINE
  8
0
 10
-11.7077
 20
16.8888
 11
-11.7077
 21
16.9874
  0
LINE
  8
0
 10
-11.7077
 20
16.9874
 11
-11.6832
 21
17.0828
  0
LINE
  8
0
 10
-11.6832
 20
17.0828
 11
-11.6357
 21
17.1692
  0
LINE
  8
0
 10
-11.6357
 20
17.1692
 11
-11.5683
 21
17.241
  0
LINE
  8
0
 10
-11.5683
 20
17.241
 11
-11.4851
 21
17.2938
  0
LINE
  8
0
 10
-11.4851
 20
17.2938
 11
-11.3913
 21
17.3243
  0
LINE
  8
0
 10
-11.3913
 20
17.3243
 11
-11.293
 21
17.3304
  0
LINE
  8
0
 10
-11.293
 20
17.3304
 11
-11.1962
 21
17.312
  0
LINE
  8
0
 10
-11.1962
 20
17.312
 11
-11.107
 21
17.27
  0
LINE
  8
0
 10
-11.107
 20
17.27
 11
-11.0311
 21
17.2072
  0
LINE
  8
0
 10
-11.0311
 20
17.2072
 11
-10.9732
 21
17.1275
  0
LINE
  8
0
 10
-10.9732
 20
17.1275
 11
-10.9369
 21
17.0359
  0
LINE
  8
0
 10
-10.9369
 20
17.0359
 11
-10.9245
 21
16.9381
  0
LINE
  8
0
 10
-10.9245
 20
16.9381
 11
-10.9369
 21
16.8403
  0
LINE
  8
0
 10
-10.9369
 20
16.8403
 11
-10.9732
 21
16.7487
  0
LINE
  8
0
 10
-10.9732
 20
16.7487
 11
-11.0311
 21
16.669
  0
LINE
  8
0
 10
-11.0311
 20
16.669
 11
-11.107
 21
16.6062
  0
LINE
  8
0
 10
-11.107
 20
16.6062
 11
-11.1962
 21
16.5642
  0
LINE
  8
0
 10
-11.1962
 20
16.5642
 11
-11.293
 21
16.5457
  0
LINE
  8
0
 10
-11.293
 20
16.5457
 11
-11.3913
 21
16.5519
  0
LINE
  8
0
 10
-8.88782
 20
-11.6375
 11
-12.3749
 21
-11.6375
  0
LINE
  8
0
 10
-12.3749
 20
-11.6375
 11
-8.42712
 21
12.4735
  0
LINE
  8
0
 10
-8.42712
 20
12.4735
 11
-5.53667
 21
12.4735
  0
LINE
  8
0
 10
-5.53667
 20
12.4735
 11
-5.90833
 21
13.4543
  0
LINE
  8
0
 10
-5.90833
 20
13.4543
 11
-9.07555
 21
13.4543
  0
LINE
  8
0
 10
-9.07555
 20
13.4543
 11
-13.3263
 21
-12.5087
  0
LINE
  8
0
 10
-13.3263
 20
-12.5087
 11
-9.03407
 21
-12.5087
  0
LINE
  8
0
 10
-9.03407
 20
-12.5087
 11
-8.88782
 21
-11.6375
  0
LINE
  8
0
 10
10.1778
 20
13.4543
 11
6.96915
 21
13.4543
  0
LINE
  8
0
 10
6.96915
 20
13.4543
 11
6.61395
 21
12.4735
  0
LINE
  8
0
 10
6.61395
 20
12.4735
 11
9.45312
 21
12.4735
  0
LINE
  8
0
 10
9.45312
 20
12.4735
 11
12.9749
 21
-11.6375
  0
LINE
  8
0
 10
12.9749
 20
-11.6375
 11
9.55035
 21
-11.6375
  0
LINE
  8
0
 10
9.55035
 20
-11.6375
 11
9.67818
 21
-12.5087
  0
LINE
  8
0
 10
9.67818
 20
-12.5087
 11
13.9704
 21
-12.5087
  0
LINE
  8
0
 10
13.9704
 20
-12.5087
 11
10.1778
 21
13.4543
  0
LINE
  8
0
 10
6.38097
 20
2.35172
 11
8.29884
 21
-10.7217
  0
LINE
  8
0
 10
8.29884
 20
-10.7217
 11
11.9785
 21
-10.7217
  0
LINE
  8
0
 10
11.9785
 20
-10.7217
 11
8.72771
 21
11.5366
  0
LINE
  8
0
 10
8.72771
 20
11.5366
 11
5.97652
 21
11.5366
  0
LINE
  8
0
 10
5.97652
 20
11.5366
 11
0.581345
 21
-3.3616
  0
LINE
  8
0
 10
0.581345
 20
-3.3616
 11
-5.06326
 21
11.5366
  0
LINE
  8
0
 10
-5.06326
 20
11.5366
 11
-7.77872
 21
11.5366
  0
LINE
  8
0
 10
-7.77872
 20
11.5366
 11
-11.4227
 21
-10.7217
  0
LINE
  8
0
 10
-11.4227
 20
-10.7217
 11
-7.74298
 21
-10.7217
  0
LINE
  8
0
 10
-7.74298
 20
-10.7217
 11
-5.49413
 21
2.67288
  0
LINE
  8
0
 10
-5.49413
 20
2.67288
 11
-0.199371
 21
-12.8418
  0
LINE
  8
0
 10
-0.199371
 20
-12.8418
 11
0.842758
 21
-12.8418
  0
LINE
  8
0
 10
0.842758
 20
-12.8418
 11
6.38097
 21
2.35172
  0
LINE
  8
0
 10
-0.183548
 20
-11.947
 11
-5.38841
 21
3.30254
  0
LINE
  8
0
 10
-5.38841
 20
3.30254
 11
-5.27769
 21
3.96202
  0
LINE
  8
0
 10
-5.27769
 20
3.96202
 11
-0.168442
 21
-11.0076
  0
LINE
  8
0
 10
-0.168442
 20
-11.0076
 11
0.724289
 21
-11.0076
  0
LINE
  8
0
 10
0.724289
 20
-11.0076
 11
6.15521
 21
3.89055
  0
LINE
  8
0
 10
6.15521
 20
3.89055
 11
6.27039
 21
3.10547
  0
LINE
  8
0
 10
6.27039
 20
3.10547
 11
0.783524
 21
-11.947
  0
LINE
  8
0
 10
0.783524
 20
-11.947
 11
-0.183548
 21
-11.947
  0
LINE
  8
0
 10
-21.8406
 20
-4.53992
 11
-21.7472
 21
-4.33974
  0
LINE
  8
0
 10
-21.7472
 20
-4.33974
 11
-21.822
 21
-3.946
  0
LINE
  8
0
 10
-21.822
 20
-3.946
 11
-21.8876
 21
-3.56465
  0
LINE
  8
0
 10
-21.8876
 20
-3.56465
 11
-21.9464
 21
-3.18207
  0
LINE
  8
0
 10
-21.9464
 20
-3.18207
 11
-21.9986
 21
-2.79858
  0
LINE
  8
0
 10
-21.9986
 20
-2.79858
 11
-22.0441
 21
-2.4142
  0
LINE
  8
0
 10
-22.0441
 20
-2.4142
 11
-22.0829
 21
-2.02917
  0
LINE
  8
0
 10
-22.0829
 20
-2.02917
 11
-22.1149
 21
-1.64346
  0
LINE
  8
0
 10
-22.1149
 20
-1.64346
 11
-22.1403
 21
-1.25719
  0
LINE
  8
0
 10
-22.1403
 20
-1.25719
 11
-22.1588
 21
-0.870636
  0
LINE
  8
0
 10
-22.1588
 20
-0.870636
 11
-22.1707
 21
-0.483719
  0
LINE
  8
0
 10
-22.1707
 20
-0.483719
 11
-22.1757
 21
-0.0967407
  0
LINE
  8
0
 10
-22.1757
 20
-0.0967407
 11
-22.174
 21
0.290314
  0
LINE
  8
0
 10
-22.174
 20
0.290314
 11
-22.1656
 21
0.677231
  0
LINE
  8
0
 10
-22.1656
 20
0.677231
 11
-22.1504
 21
1.06398
  0
LINE
  8
0
 10
-22.1504
 20
1.06398
 11
-22.1284
 21
1.45036
  0
LINE
  8
0
 10
-22.1284
 20
1.45036
 11
-22.0998
 21
1.8363
  0
LINE
  8
0
 10
-22.0998
 20
1.8363
 11
-22.0644
 21
2.22176
  0
LINE
  8
0
 10
-22.0644
 20
2.22176
 11
-22.0222
 21
2.60655
  0
LINE
  8
0
 10
-22.0222
 20
2.60655
 11
-21.9734
 21
2.99043
  0
LINE
  8
0
 10
-21.9734
 20
2.99043
 11
-21.9178
 21
3.37352
  0
LINE
  8
0
 10
-21.9178
 20
3.37352
 11
-21.8556
 21
3.75551
  0
LINE
  8
0
 10
-21.8556
 20
3.75551
 11
-21.7868
 21
4.13634
  0
LINE
  8
0
 10
-21.7868
 20
4.13634
 11
-21.7112
 21
4.51595
  0
LINE
  8
0
 10
-21.7112
 20
4.51595
 11
-21.6291
 21
4.8942
  0
LINE
  8
0
 10
-21.6291
 20
4.8942
 11
-21.5404
 21
5.27094
  0
LINE
  8
0
 10
-21.5404
 20
5.27094
 11
-21.4451
 21
5.64607
  0
LINE
  8
0
 10
-21.4451
 20
5.64607
 11
-21.3434
 21
6.01942
  0
LINE
  8
0
 10
-21.3434
 20
6.01942
 11
-21.235
 21
6.39105
  0
LINE
  8
0
 10
-21.235
 20
6.39105
 11
-21.1203
 21
6.7606
  0
LINE
  8
0
 10
-21.1203
 20
6.7606
 11
-20.9991
 21
7.12822
  0
LINE
  8
0
 10
-20.9991
 20
7.12822
 11
-20.8496
 21
7.55354
  0
LINE
  8
0
 10
-20.8496
 20
7.55354
 11
-20.7344
 21
7.5463
  0
LINE
  8
0
 10
-20.7344
 20
7.5463
 11
-20.4704
 21
7.59665
  0
LINE
  8
0
 10
-20.4704
 20
7.59665
 11
-20.2272
 21
7.71109
  0
LINE
  8
0
 10
-20.2272
 20
7.71109
 11
-20.0201
 21
7.8824
  0
LINE
  8
0
 10
-20.0201
 20
7.8824
 11
-19.8622
 21
8.09982
  0
LINE
  8
0
 10
-19.8622
 20
8.09982
 11
-19.7632
 21
8.34972
  0
LINE
  8
0
 10
-19.7632
 20
8.34972
 11
-19.7296
 21
8.61635
  0
LINE
  8
0
 10
-19.7296
 20
8.61635
 11
-19.7632
 21
8.883
  0
LINE
  8
0
 10
-19.7632
 20
8.883
 11
-19.8622
 21
9.13287
  0
LINE
  8
0
 10
-19.8622
 20
9.13287
 11
-20.0201
 21
9.3503
  0
LINE
  8
0
 10
-20.0201
 20
9.3503
 11
-20.2272
 21
9.52162
  0
LINE
  8
0
 10
-20.2272
 20
9.52162
 11
-20.4704
 21
9.63605
  0
LINE
  8
0
 10
-20.4704
 20
9.63605
 11
-20.7344
 21
9.6864
  0
LINE
  8
0
 10
-20.7344
 20
9.6864
 11
-21.0026
 21
9.66953
  0
LINE
  8
0
 10
-21.0026
 20
9.66953
 11
-21.2582
 21
9.58649
  0
LINE
  8
0
 10
-21.2582
 20
9.58649
 11
-21.4852
 21
9.44247
  0
LINE
  8
0
 10
-21.4852
 20
9.44247
 11
-21.6691
 21
9.24655
  0
LINE
  8
0
 10
-21.6691
 20
9.24655
 11
-21.7986
 21
9.01105
  0
LINE
  8
0
 10
-21.7986
 20
9.01105
 11
-21.8654
 21
8.75073
  0
LINE
  8
0
 10
-21.8654
 20
8.75073
 11
-21.8654
 21
8.48198
  0
LINE
  8
0
 10
-21.8654
 20
8.48198
 11
-21.7986
 21
8.22166
  0
LINE
  8
0
 10
-21.7986
 20
8.22166
 11
-21.6691
 21
7.98615
  0
LINE
  8
0
 10
-21.6691
 20
7.98615
 11
-21.4864
 21
7.7916
  0
LINE
  8
0
 10
-21.4864
 20
7.7916
 11
-21.5814
 21
7.52507
  0
LINE
  8
0
 10
-21.5814
 20
7.52507
 11
-21.7094
 21
7.14728
  0
LINE
  8
0
 10
-21.7094
 20
7.14728
 11
-21.8309
 21
6.7673
  0
LINE
  8
0
 10
-21.8309
 20
6.7673
 11
-21.9456
 21
6.38527
  0
LINE
  8
0
 10
-21.9456
 20
6.38527
 11
-22.0537
 21
6.0013
  0
LINE
  8
0
 10
-22.0537
 20
6.0013
 11
-22.1551
 21
5.61549
  0
LINE
  8
0
 10
-22.1551
 20
5.61549
 11
-22.2497
 21
5.22797
  0
LINE
  8
0
 10
-22.2497
 20
5.22797
 11
-22.3376
 21
4.83887
  0
LINE
  8
0
 10
-22.3376
 20
4.83887
 11
-22.4186
 21
4.44829
  0
LINE
  8
0
 10
-22.4186
 20
4.44829
 11
-22.4929
 21
4.05635
  0
LINE
  8
0
 10
-22.4929
 20
4.05635
 11
-22.5602
 21
3.66318
  0
LINE
  8
0
 10
-22.5602
 20
3.66318
 11
-22.6207
 21
3.26889
  0
LINE
  8
0
 10
-22.6207
 20
3.26889
 11
-22.6743
 21
2.8736
  0
LINE
  8
0
 10
-22.6743
 20
2.8736
 11
-22.721
 21
2.47745
  0
LINE
  8
0
 10
-22.721
 20
2.47745
 11
-22.7608
 21
2.08052
  0
LINE
  8
0
 10
-22.7608
 20
2.08052
 11
-22.7936
 21
1.68298
  0
LINE
  8
0
 10
-22.7936
 20
1.68298
 11
-22.8195
 21
1.28491
  0
LINE
  8
0
 10
-22.8195
 20
1.28491
 11
-22.8385
 21
0.886459
  0
LINE
  8
0
 10
-22.8385
 20
0.886459
 11
-22.8505
 21
0.487747
  0
LINE
  8
0
 10
-22.8505
 20
0.487747
 11
-22.8555
 21
0.0888824
  0
LINE
  8
0
 10
-22.8555
 20
0.0888824
 11
-22.8536
 21
-0.310013
  0
LINE
  8
0
 10
-22.8536
 20
-0.310013
 11
-22.8447
 21
-0.708817
  0
LINE
  8
0
 10
-22.8447
 20
-0.708817
 11
-22.8288
 21
-1.10739
  0
LINE
  8
0
 10
-22.8288
 20
-1.10739
 11
-22.806
 21
-1.50565
  0
LINE
  8
0
 10
-22.806
 20
-1.50565
 11
-22.7763
 21
-1.90344
  0
LINE
  8
0
 10
-22.7763
 20
-1.90344
 11
-22.7396
 21
-2.30064
  0
LINE
  8
0
 10
-22.7396
 20
-2.30064
 11
-22.696
 21
-2.69716
  0
LINE
  8
0
 10
-22.696
 20
-2.69716
 11
-22.6455
 21
-3.09285
  0
LINE
  8
0
 10
-22.6455
 20
-3.09285
 11
-22.588
 21
-3.48759
  0
LINE
  8
0
 10
-22.588
 20
-3.48759
 11
-22.5237
 21
-3.88129
  0
LINE
  8
0
 10
-22.5237
 20
-3.88129
 11
-22.4526
 21
-4.27379
  0
LINE
  8
0
 10
-22.4526
 20
-4.27379
 11
-22.4145
 21
-4.46944
  0
LINE
  8
0
 10
-22.4145
 20
-4.46944
 11
-22.253
 21
-4.62009
  0
LINE
  8
0
 10
-22.253
 20
-4.62009
 11
-22.0338
 21
-4.647
  0
LINE
  8
0
 10
-22.0338
 20
-4.647
 11
-21.8406
 21
-4.53992
  0
LINE
  8
0
 10
-20.8754
 20
8.23018
 11
-20.9691
 21
8.26064
  0
LINE
  8
0
 10
-20.9691
 20
8.26064
 11
-21.0523
 21
8.31345
  0
LINE
  8
0
 10
-21.0523
 20
8.31345
 11
-21.1198
 21
8.38527
  0
LINE
  8
0
 10
-21.1198
 20
8.38527
 11
-21.1672
 21
8.47163
  0
LINE
  8
0
 10
-21.1672
 20
8.47163
 11
-21.1918
 21
8.56708
  0
LINE
  8
0
 10
-21.1918
 20
8.56708
 11
-21.1918
 21
8.66562
  0
LINE
  8
0
 10
-21.1918
 20
8.66562
 11
-21.1672
 21
8.76108
  0
LINE
  8
0
 10
-21.1672
 20
8.76108
 11
-21.1198
 21
8.84743
  0
LINE
  8
0
 10
-21.1198
 20
8.84743
 11
-21.0523
 21
8.91927
  0
LINE
  8
0
 10
-21.0523
 20
8.91927
 11
-20.9691
 21
8.97206
  0
LINE
  8
0
 10
-20.9691
 20
8.97206
 11
-20.8754
 21
9.00252
  0
LINE
  8
0
 10
-20.8754
 20
9.00252
 11
-20.777
 21
9.0087
  0
LINE
  8
0
 10
-20.777
 20
9.0087
 11
-20.6802
 21
8.99023
  0
LINE
  8
0
 10
-20.6802
 20
8.99023
 11
-20.5911
 21
8.94829
  0
LINE
  8
0
 10
-20.5911
 20
8.94829
 11
-20.5151
 21
8.88547
  0
LINE
  8
0
 10
-20.5151
 20
8.88547
 11
-20.4572
 21
8.80574
  0
LINE
  8
0
 10
-20.4572
 20
8.80574
 11
-20.4209
 21
8.71411
  0
LINE
  8
0
 10
-20.4209
 20
8.71411
 11
-20.4086
 21
8.61635
  0
LINE
  8
0
 10
-20.4086
 20
8.61635
 11
-20.4209
 21
8.51859
  0
LINE
  8
0
 10
-20.4209
 20
8.51859
 11
-20.4572
 21
8.42696
  0
LINE
  8
0
 10
-20.4572
 20
8.42696
 11
-20.5151
 21
8.34723
  0
LINE
  8
0
 10
-20.5151
 20
8.34723
 11
-20.5911
 21
8.28442
  0
LINE
  8
0
 10
-20.5911
 20
8.28442
 11
-20.6802
 21
8.24246
  0
LINE
  8
0
 10
-20.6802
 20
8.24246
 11
-20.777
 21
8.224
  0
LINE
  8
0
 10
-20.777
 20
8.224
 11
-20.8754
 21
8.23018
  0
LINE
  8
0
 10
24.8266
 20
-2.9398
 11
24.8745
 21
-2.50334
  0
LINE
  8
0
 10
24.8745
 20
-2.50334
 11
24.9144
 21
-2.06883
  0
LINE
  8
0
 10
24.9144
 20
-2.06883
 11
24.9467
 21
-1.63371
  0
LINE
  8
0
 10
24.9467
 20
-1.63371
 11
24.9714
 21
-1.19807
  0
LINE
  8
0
 10
24.9714
 20
-1.19807
 11
24.9885
 21
-0.762085
  0
LINE
  8
0
 10
24.9885
 20
-0.762085
 11
24.998
 21
-0.325867
  0
LINE
  8
0
 10
24.998
 20
-0.325867
 11
24.9998
 21
0.110443
  0
LINE
  8
0
 10
24.9998
 20
0.110443
 11
24.9941
 21
0.546738
  0
LINE
  8
0
 10
24.9941
 20
0.546738
 11
24.9808
 21
0.982864
  0
LINE
  8
0
 10
24.9808
 20
0.982864
 11
24.9598
 21
1.41869
  0
LINE
  8
0
 10
24.9598
 20
1.41869
 11
24.9312
 21
1.85408
  0
LINE
  8
0
 10
24.9312
 20
1.85408
 11
24.8951
 21
2.28891
  0
LINE
  8
0
 10
24.8951
 20
2.28891
 11
24.8513
 21
2.72304
  0
LINE
  8
0
 10
24.8513
 20
2.72304
 11
24.8
 21
3.15634
  0
LINE
  8
0
 10
24.8
 20
3.15634
 11
24.7412
 21
3.58868
  0
LINE
  8
0
 10
24.7412
 20
3.58868
 11
24.6748
 21
4.01993
  0
LINE
  8
0
 10
24.6748
 20
4.01993
 11
24.6009
 21
4.44995
  0
LINE
  8
0
 10
24.6009
 20
4.44995
 11
24.5195
 21
4.8786
  0
LINE
  8
0
 10
24.5195
 20
4.8786
 11
24.3579
 21
5.02925
  0
LINE
  8
0
 10
24.3579
 20
5.02925
 11
24.3175
 21
5.03421
  0
LINE
  8
0
 10
24.3175
 20
5.03421
 11
24.2306
 21
5.11456
  0
LINE
  8
0
 10
24.2306
 20
5.11456
 11
24.0112
 21
5.14052
  0
LINE
  8
0
 10
24.0112
 20
5.14052
 11
23.9621
 21
5.11298
  0
LINE
  8
0
 10
23.9621
 20
5.11298
 11
23.9061
 21
5.1196
  0
LINE
  8
0
 10
23.9061
 20
5.1196
 11
23.8569
 21
5.09206
  0
LINE
  8
0
 10
23.8569
 20
5.09206
 11
23.8009
 21
5.09869
  0
LINE
  8
0
 10
23.8009
 20
5.09869
 11
23.7518
 21
5.07115
  0
LINE
  8
0
 10
23.7518
 20
5.07115
 11
23.6958
 21
5.07777
  0
LINE
  8
0
 10
23.6958
 20
5.07777
 11
23.6466
 21
5.05023
  0
LINE
  8
0
 10
23.6466
 20
5.05023
 11
23.5906
 21
5.05685
  0
LINE
  8
0
 10
23.5906
 20
5.05685
 11
23.5414
 21
5.02931
  0
LINE
  8
0
 10
23.5414
 20
5.02931
 11
23.4855
 21
5.03593
  0
LINE
  8
0
 10
23.4855
 20
5.03593
 11
23.4363
 21
5.00839
  0
LINE
  8
0
 10
23.4363
 20
5.00839
 11
23.3803
 21
5.01501
  0
LINE
  8
0
 10
23.3803
 20
5.01501
 11
23.3311
 21
4.98747
  0
LINE
  8
0
 10
23.3311
 20
4.98747
 11
23.2751
 21
4.99409
  0
LINE
  8
0
 10
23.2751
 20
4.99409
 11
23.226
 21
4.96655
  0
LINE
  8
0
 10
23.226
 20
4.96655
 11
23.17
 21
4.97319
  0
LINE
  8
0
 10
23.17
 20
4.97319
 11
23.1208
 21
4.94565
  0
LINE
  8
0
 10
23.1208
 20
4.94565
 11
23.0648
 21
4.95227
  0
LINE
  8
0
 10
23.0648
 20
4.95227
 11
23.0157
 21
4.92473
  0
LINE
  8
0
 10
23.0157
 20
4.92473
 11
22.9597
 21
4.93135
  0
LINE
  8
0
 10
22.9597
 20
4.93135
 11
22.9105
 21
4.90381
  0
LINE
  8
0
 10
22.9105
 20
4.90381
 11
22.8545
 21
4.91043
  0
LINE
  8
0
 10
22.8545
 20
4.91043
 11
22.8053
 21
4.88289
  0
LINE
  8
0
 10
22.8053
 20
4.88289
 11
22.7494
 21
4.88951
  0
LINE
  8
0
 10
22.7494
 20
4.88951
 11
22.7002
 21
4.86197
  0
LINE
  8
0
 10
22.7002
 20
4.86197
 11
22.6442
 21
4.86861
  0
LINE
  8
0
 10
22.6442
 20
4.86861
 11
22.595
 21
4.84106
  0
LINE
  8
0
 10
22.595
 20
4.84106
 11
22.539
 21
4.84769
  0
LINE
  8
0
 10
22.539
 20
4.84769
 11
22.4899
 21
4.82014
  0
LINE
  8
0
 10
22.4899
 20
4.82014
 11
22.4339
 21
4.82677
  0
LINE
  8
0
 10
22.4339
 20
4.82677
 11
22.3847
 21
4.79922
  0
LINE
  8
0
 10
22.3847
 20
4.79922
 11
22.3287
 21
4.80585
  0
LINE
  8
0
 10
22.3287
 20
4.80585
 11
22.2796
 21
4.77831
  0
LINE
  8
0
 10
22.2796
 20
4.77831
 11
22.2236
 21
4.78493
  0
LINE
  8
0
 10
22.2236
 20
4.78493
 11
22.1744
 21
4.75739
  0
LINE
  8
0
 10
22.1744
 20
4.75739
 11
22.1184
 21
4.76401
  0
LINE
  8
0
 10
22.1184
 20
4.76401
 11
22.0692
 21
4.73647
  0
LINE
  8
0
 10
22.0692
 20
4.73647
 11
22.0133
 21
4.7431
  0
LINE
  8
0
 10
22.0133
 20
4.7431
 11
21.8206
 21
4.63518
  0
LINE
  8
0
 10
21.8206
 20
4.63518
 11
21.7281
 21
4.43459
  0
LINE
  8
0
 10
21.7281
 20
4.43459
 11
21.8046
 21
4.04124
  0
LINE
  8
0
 10
21.8046
 20
4.04124
 11
21.8718
 21
3.66006
  0
LINE
  8
0
 10
21.8718
 20
3.66006
 11
21.9324
 21
3.27779
  0
LINE
  8
0
 10
21.9324
 20
3.27779
 11
21.9862
 21
2.89449
  0
LINE
  8
0
 10
21.9862
 20
2.89449
 11
22.0334
 21
2.51035
  0
LINE
  8
0
 10
22.0334
 20
2.51035
 11
22.0738
 21
2.12547
  0
LINE
  8
0
 10
22.0738
 20
2.12547
 11
22.1076
 21
1.7399
  0
LINE
  8
0
 10
22.1076
 20
1.7399
 11
22.1346
 21
1.35379
  0
LINE
  8
0
 10
22.1346
 20
1.35379
 11
22.1548
 21
0.967239
  0
LINE
  8
0
 10
22.1548
 20
0.967239
 11
22.1683
 21
0.580521
  0
LINE
  8
0
 10
22.1683
 20
0.580521
 11
22.1751
 21
0.193573
  0
LINE
  8
0
 10
22.1751
 20
0.193573
 11
22.1751
 21
-0.193573
  0
LINE
  8
0
 10
22.1751
 20
-0.193573
 11
22.1683
 21
-0.580521
  0
LINE
  8
0
 10
22.1683
 20
-0.580521
 11
22.1548
 21
-0.967239
  0
LINE
  8
0
 10
22.1548
 20
-0.967239
 11
22.1346
 21
-1.35379
  0
LINE
  8
0
 10
22.1346
 20
-1.35379
 11
22.1076
 21
-1.7399
  0
LINE
  8
0
 10
22.1076
 20
-1.7399
 11
22.0738
 21
-2.12547
  0
LINE
  8
0
 10
22.0738
 20
-2.12547
 11
22.0334
 21
-2.51035
  0
LINE
  8
0
 10
22.0334
 20
-2.51035
 11
21.9862
 21
-2.89449
  0
LINE
  8
0
 10
21.9862
 20
-2.89449
 11
21.9324
 21
-3.27779
  0
LINE
  8
0
 10
21.9324
 20
-3.27779
 11
21.8718
 21
-3.66006
  0
LINE
  8
0
 10
21.8718
 20
-3.66006
 11
21.8046
 21
-4.04124
  0
LINE
  8
0
 10
21.8046
 20
-4.04124
 11
21.7307
 21
-4.42114
  0
LINE
  8
0
 10
21.7307
 20
-4.42114
 11
21.6503
 21
-4.7997
  0
LINE
  8
0
 10
21.6503
 20
-4.7997
 11
21.5632
 21
-5.17683
  0
LINE
  8
0
 10
21.5632
 20
-5.17683
 11
21.4696
 21
-5.55234
  0
LINE
  8
0
 10
21.4696
 20
-5.55234
 11
21.3694
 21
-5.92622
  0
LINE
  8
0
 10
21.3694
 20
-5.92622
 11
21.2627
 21
-6.29831
  0
LINE
  8
0
 10
21.2627
 20
-6.29831
 11
21.1496
 21
-6.66838
  0
LINE
  8
0
 10
21.1496
 20
-6.66838
 11
21.03
 21
-7.03654
  0
LINE
  8
0
 10
21.03
 20
-7.03654
 11
20.904
 21
-7.40245
  0
LINE
  8
0
 10
20.904
 20
-7.40245
 11
20.7716
 21
-7.76614
  0
LINE
  8
0
 10
20.7716
 20
-7.76614
 11
20.6329
 21
-8.12747
  0
LINE
  8
0
 10
20.6329
 20
-8.12747
 11
20.4879
 21
-8.48636
  0
LINE
  8
0
 10
20.4879
 20
-8.48636
 11
20.3367
 21
-8.84264
  0
LINE
  8
0
 10
20.3367
 20
-8.84264
 11
20.1792
 21
-9.19623
  0
LINE
  8
0
 10
20.1792
 20
-9.19623
 11
20.0157
 21
-9.54695
  0
LINE
  8
0
 10
20.0157
 20
-9.54695
 11
19.846
 21
-9.89485
  0
LINE
  8
0
 10
19.846
 20
-9.89485
 11
19.6703
 21
-10.2397
  0
LINE
  8
0
 10
19.6703
 20
-10.2397
 11
19.4886
 21
-10.5814
  0
LINE
  8
0
 10
19.4886
 20
-10.5814
 11
19.3009
 21
-10.92
  0
LINE
  8
0
 10
19.3009
 20
-10.92
 11
19.1074
 21
-11.2551
  0
LINE
  8
0
 10
19.1074
 20
-11.2551
 11
18.9761
 21
-11.4748
  0
LINE
  8
0
 10
18.9761
 20
-11.4748
 11
18.7884
 21
-11.4389
  0
LINE
  8
0
 10
18.7884
 20
-11.4389
 11
18.5201
 21
-11.4558
  0
LINE
  8
0
 10
18.5201
 20
-11.4558
 11
18.2645
 21
-11.5389
  0
LINE
  8
0
 10
18.2645
 20
-11.5389
 11
18.0376
 21
-11.6829
  0
LINE
  8
0
 10
18.0376
 20
-11.6829
 11
17.8537
 21
-11.8788
  0
LINE
  8
0
 10
17.8537
 20
-11.8788
 11
17.7242
 21
-12.1143
  0
LINE
  8
0
 10
17.7242
 20
-12.1143
 11
17.6573
 21
-12.3746
  0
LINE
  8
0
 10
17.6573
 20
-12.3746
 11
17.6573
 21
-12.6434
  0
LINE
  8
0
 10
17.6573
 20
-12.6434
 11
17.7242
 21
-12.9037
  0
LINE
  8
0
 10
17.7242
 20
-12.9037
 11
17.8537
 21
-13.1392
  0
LINE
  8
0
 10
17.8537
 20
-13.1392
 11
18.0376
 21
-13.3351
  0
LINE
  8
0
 10
18.0376
 20
-13.3351
 11
18.2645
 21
-13.4791
  0
LINE
  8
0
 10
18.2645
 20
-13.4791
 11
18.5201
 21
-13.5622
  0
LINE
  8
0
 10
18.5201
 20
-13.5622
 11
18.7884
 21
-13.5791
  0
LINE
  8
0
 10
18.7884
 20
-13.5791
 11
19.0524
 21
-13.5287
  0
LINE
  8
0
 10
19.0524
 20
-13.5287
 11
19.2955
 21
-13.4143
  0
LINE
  8
0
 10
19.2955
 20
-13.4143
 11
19.5026
 21
-13.243
  0
LINE
  8
0
 10
19.5026
 20
-13.243
 11
19.6606
 21
-13.0255
  0
LINE
  8
0
 10
19.6606
 20
-13.0255
 11
19.7595
 21
-12.7757
  0
LINE
  8
0
 10
19.7595
 20
-12.7757
 11
19.7932
 21
-12.509
  0
LINE
  8
0
 10
19.7932
 20
-12.509
 11
19.7595
 21
-12.2424
  0
LINE
  8
0
 10
19.7595
 20
-12.2424
 11
19.6606
 21
-11.9925
  0
LINE
  8
0
 10
19.6606
 20
-11.9925
 11
19.5497
 21
-11.8399
  0
LINE
  8
0
 10
19.5497
 20
-11.8399
 11
19.6986
 21
-11.5908
  0
LINE
  8
0
 10
19.6986
 20
-11.5908
 11
19.8979
 21
-11.2452
  0
LINE
  8
0
 10
19.8979
 20
-11.2452
 11
20.0911
 21
-10.8963
  0
LINE
  8
0
 10
20.0911
 20
-10.8963
 11
20.2782
 21
-10.544
  0
LINE
  8
0
 10
20.2782
 20
-10.544
 11
20.4592
 21
-10.1884
  0
LINE
  8
0
 10
20.4592
 20
-10.1884
 11
20.6339
 21
-9.82983
  0
LINE
  8
0
 10
20.6339
 20
-9.82983
 11
20.8023
 21
-9.46823
  0
LINE
  8
0
 10
20.8023
 20
-9.46823
 11
20.9644
 21
-9.10373
  0
LINE
  8
0
 10
20.9644
 20
-9.10373
 11
21.1201
 21
-8.73647
  0
LINE
  8
0
 10
21.1201
 20
-8.73647
 11
21.2693
 21
-8.36655
  0
LINE
  8
0
 10
21.2693
 20
-8.36655
 11
21.4121
 21
-7.99406
  0
LINE
  8
0
 10
21.4121
 20
-7.99406
 11
21.5483
 21
-7.61916
  0
LINE
  8
0
 10
21.5483
 20
-7.61916
 11
21.678
 21
-7.24193
  0
LINE
  8
0
 10
21.678
 20
-7.24193
 11
21.8011
 21
-6.86249
  0
LINE
  8
0
 10
21.8011
 20
-6.86249
 11
21.9176
 21
-6.48096
  0
LINE
  8
0
 10
21.9176
 20
-6.48096
 11
22.0273
 21
-6.09746
  0
LINE
  8
0
 10
22.0273
 20
-6.09746
 11
22.1304
 21
-5.7121
  0
LINE
  8
0
 10
22.1304
 20
-5.7121
 11
22.2267
 21
-5.32501
  0
LINE
  8
0
 10
22.2267
 20
-5.32501
 11
22.3163
 21
-4.93628
  0
LINE
  8
0
 10
22.3163
 20
-4.93628
 11
22.399
 21
-4.54607
  0
LINE
  8
0
 10
22.399
 20
-4.54607
 11
22.4749
 21
-4.15445
  0
LINE
  8
0
 10
22.4749
 20
-4.15445
 11
22.544
 21
-3.76158
  0
LINE
  8
0
 10
22.544
 20
-3.76158
 11
22.6062
 21
-3.36755
  0
LINE
  8
0
 10
22.6062
 20
-3.36755
 11
22.6616
 21
-2.9725
  0
LINE
  8
0
 10
22.6616
 20
-2.9725
 11
22.71
 21
-2.57655
  0
LINE
  8
0
 10
22.71
 20
-2.57655
 11
22.7515
 21
-2.17982
  0
LINE
  8
0
 10
22.7515
 20
-2.17982
 11
22.7861
 21
-1.78242
  0
LINE
  8
0
 10
22.7861
 20
-1.78242
 11
22.8137
 21
-1.38448
  0
LINE
  8
0
 10
22.8137
 20
-1.38448
 11
22.8344
 21
-0.986115
  0
LINE
  8
0
 10
22.8344
 20
-0.986115
 11
22.8481
 21
-0.587448
  0
LINE
  8
0
 10
22.8481
 20
-0.587448
 11
22.8549
 21
-0.188599
  0
LINE
  8
0
 10
22.8549
 20
-0.188599
 11
22.8547
 21
0.210281
  0
LINE
  8
0
 10
22.8547
 20
0.210281
 11
22.8476
 21
0.609131
  0
LINE
  8
0
 10
22.8476
 20
0.609131
 11
22.8335
 21
1.00778
  0
LINE
  8
0
 10
22.8335
 20
1.00778
 11
22.8124
 21
1.40613
  0
LINE
  8
0
 10
22.8124
 20
1.40613
 11
22.7844
 21
1.80405
  0
LINE
  8
0
 10
22.7844
 20
1.80405
 11
22.7494
 21
2.2014
  0
LINE
  8
0
 10
22.7494
 20
2.2014
 11
22.7076
 21
2.5981
  0
LINE
  8
0
 10
22.7076
 20
2.5981
 11
22.6587
 21
2.994
  0
LINE
  8
0
 10
22.6587
 20
2.994
 11
22.603
 21
3.38901
  0
LINE
  8
0
 10
22.603
 20
3.38901
 11
22.5405
 21
3.78296
  0
LINE
  8
0
 10
22.5405
 20
3.78296
 11
22.4825
 21
4.11281
  0
LINE
  8
0
 10
22.4825
 20
4.11281
 11
22.5174
 21
4.13234
  0
LINE
  8
0
 10
22.5174
 20
4.13234
 11
22.5733
 21
4.12572
  0
LINE
  8
0
 10
22.5733
 20
4.12572
 11
22.6225
 21
4.15326
  0
LINE
  8
0
 10
22.6225
 20
4.15326
 11
22.6785
 21
4.14664
  0
LINE
  8
0
 10
22.6785
 20
4.14664
 11
22.7277
 21
4.17418
  0
LINE
  8
0
 10
22.7277
 20
4.17418
 11
22.7837
 21
4.16756
  0
LINE
  8
0
 10
22.7837
 20
4.16756
 11
22.8328
 21
4.1951
  0
LINE
  8
0
 10
22.8328
 20
4.1951
 11
22.8888
 21
4.18846
  0
LINE
  8
0
 10
22.8888
 20
4.18846
 11
22.938
 21
4.21602
  0
LINE
  8
0
 10
22.938
 20
4.21602
 11
22.994
 21
4.20938
  0
LINE
  8
0
 10
22.994
 20
4.20938
 11
23.0432
 21
4.23692
  0
LINE
  8
0
 10
23.0432
 20
4.23692
 11
23.0991
 21
4.2303
  0
LINE
  8
0
 10
23.0991
 20
4.2303
 11
23.1483
 21
4.25784
  0
LINE
  8
0
 10
23.1483
 20
4.25784
 11
23.2043
 21
4.25122
  0
LINE
  8
0
 10
23.2043
 20
4.25122
 11
23.2535
 21
4.27876
  0
LINE
  8
0
 10
23.2535
 20
4.27876
 11
23.3094
 21
4.27214
  0
LINE
  8
0
 10
23.3094
 20
4.27214
 11
23.3586
 21
4.29968
  0
LINE
  8
0
 10
23.3586
 20
4.29968
 11
23.4146
 21
4.29306
  0
LINE
  8
0
 10
23.4146
 20
4.29306
 11
23.4638
 21
4.3206
  0
LINE
  8
0
 10
23.4638
 20
4.3206
 11
23.5198
 21
4.31396
  0
LINE
  8
0
 10
23.5198
 20
4.31396
 11
23.5689
 21
4.34151
  0
LINE
  8
0
 10
23.5689
 20
4.34151
 11
23.6249
 21
4.33488
  0
LINE
  8
0
 10
23.6249
 20
4.33488
 11
23.6741
 21
4.36243
  0
LINE
  8
0
 10
23.6741
 20
4.36243
 11
23.7301
 21
4.3558
  0
LINE
  8
0
 10
23.7301
 20
4.3558
 11
23.7793
 21
4.38335
  0
LINE
  8
0
 10
23.7793
 20
4.38335
 11
23.8352
 21
4.37672
  0
LINE
  8
0
 10
23.8352
 20
4.37672
 11
23.8844
 21
4.40427
  0
LINE
  8
0
 10
23.8844
 20
4.40427
 11
23.9187
 21
4.40021
  0
LINE
  8
0
 10
23.9187
 20
4.40021
 11
23.969
 21
4.11864
  0
LINE
  8
0
 10
23.969
 20
4.11864
 11
24.0372
 21
3.69966
  0
LINE
  8
0
 10
24.0372
 20
3.69966
 11
24.0982
 21
3.27959
  0
LINE
  8
0
 10
24.0982
 20
3.27959
 11
24.1517
 21
2.85857
  0
LINE
  8
0
 10
24.1517
 20
2.85857
 11
24.1979
 21
2.43654
  0
LINE
  8
0
 10
24.1979
 20
2.43654
 11
24.2368
 21
2.01398
  0
LINE
  8
0
 10
24.2368
 20
2.01398
 11
24.2682
 21
1.59065
  0
LINE
  8
0
 10
24.2682
 20
1.59065
 11
24.2923
 21
1.16687
  0
LINE
  8
0
 10
24.2923
 20
1.16687
 11
24.309
 21
0.742752
  0
LINE
  8
0
 10
24.309
 20
0.742752
 11
24.3182
 21
0.318329
  0
LINE
  8
0
 10
24.3182
 20
0.318329
 11
24.3201
 21
-0.106079
  0
LINE
  8
0
 10
24.3201
 20
-0.106079
 11
24.3145
 21
-0.530487
  0
LINE
  8
0
 10
24.3145
 20
-0.530487
 11
24.3015
 21
-0.954803
  0
LINE
  8
0
 10
24.3015
 20
-0.954803
 11
24.2812
 21
-1.37877
  0
LINE
  8
0
 10
24.2812
 20
-1.37877
 11
24.2534
 21
-1.80234
  0
LINE
  8
0
 10
24.2534
 20
-1.80234
 11
24.2183
 21
-2.2253
  0
LINE
  8
0
 10
24.2183
 20
-2.2253
 11
24.1758
 21
-2.64769
  0
LINE
  8
0
 10
24.1758
 20
-2.64769
 11
24.1259
 21
-3.06915
  0
LINE
  8
0
 10
24.1259
 20
-3.06915
 11
24.0686
 21
-3.48972
  0
LINE
  8
0
 10
24.0686
 20
-3.48972
 11
24.004
 21
-3.90932
  0
LINE
  8
0
 10
24.004
 20
-3.90932
 11
23.9322
 21
-4.32764
  0
LINE
  8
0
 10
23.9322
 20
-4.32764
 11
23.853
 21
-4.74463
  0
LINE
  8
0
 10
23.853
 20
-4.74463
 11
23.7666
 21
-5.16022
  0
LINE
  8
0
 10
23.7666
 20
-5.16022
 11
23.6729
 21
-5.5742
  0
LINE
  8
0
 10
23.6729
 20
-5.5742
 11
23.572
 21
-5.98651
  0
LINE
  8
0
 10
23.572
 20
-5.98651
 11
23.4639
 21
-6.397
  0
LINE
  8
0
 10
23.4639
 20
-6.397
 11
23.3487
 21
-6.8055
  0
LINE
  8
0
 10
23.3487
 20
-6.8055
 11
23.2264
 21
-7.21196
  0
LINE
  8
0
 10
23.2264
 20
-7.21196
 11
23.097
 21
-7.61624
  0
LINE
  8
0
 10
23.097
 20
-7.61624
 11
22.9605
 21
-8.0182
  0
LINE
  8
0
 10
22.9605
 20
-8.0182
 11
22.8171
 21
-8.41768
  0
LINE
  8
0
 10
22.8171
 20
-8.41768
 11
22.6667
 21
-8.81462
  0
LINE
  8
0
 10
22.6667
 20
-8.81462
 11
22.5094
 21
-9.20883
  0
LINE
  8
0
 10
22.5094
 20
-9.20883
 11
22.3453
 21
-9.60031
  0
LINE
  8
0
 10
22.3453
 20
-9.60031
 11
22.1743
 21
-9.98878
  0
LINE
  8
0
 10
22.1743
 20
-9.98878
 11
21.9966
 21
-10.3743
  0
LINE
  8
0
 10
21.9966
 20
-10.3743
 11
21.8122
 21
-10.7566
  0
LINE
  8
0
 10
21.8122
 20
-10.7566
 11
21.6211
 21
-11.1357
  0
LINE
  8
0
 10
21.6211
 20
-11.1357
 11
21.4235
 21
-11.5113
  0
LINE
  8
0
 10
21.4235
 20
-11.5113
 11
21.2194
 21
-11.8834
  0
LINE
  8
0
 10
21.2194
 20
-11.8834
 11
21.0087
 21
-12.2519
  0
LINE
  8
0
 10
21.0087
 20
-12.2519
 11
20.7917
 21
-12.6167
  0
LINE
  8
0
 10
20.7917
 20
-12.6167
 11
20.5683
 21
-12.9777
  0
LINE
  8
0
 10
20.5683
 20
-12.9777
 11
20.3387
 21
-13.3346
  0
LINE
  8
0
 10
20.3387
 20
-13.3346
 11
20.1029
 21
-13.6876
  0
LINE
  8
0
 10
20.1029
 20
-13.6876
 11
19.8609
 21
-14.0364
  0
LINE
  8
0
 10
19.8609
 20
-14.0364
 11
19.613
 21
-14.3808
  0
LINE
  8
0
 10
19.613
 20
-14.3808
 11
19.359
 21
-14.721
  0
LINE
  8
0
 10
19.359
 20
-14.721
 11
19.0991
 21
-15.0565
  0
LINE
  8
0
 10
19.0991
 20
-15.0565
 11
18.8334
 21
-15.3876
  0
LINE
  8
0
 10
18.8334
 20
-15.3876
 11
18.562
 21
-15.7139
  0
LINE
  8
0
 10
18.562
 20
-15.7139
 11
18.2849
 21
-16.0355
  0
LINE
  8
0
 10
18.2849
 20
-16.0355
 11
18.0024
 21
-16.3521
  0
LINE
  8
0
 10
18.0024
 20
-16.3521
 11
17.7142
 21
-16.6638
  0
LINE
  8
0
 10
17.7142
 20
-16.6638
 11
17.4431
 21
-16.9472
  0
LINE
  8
0
 10
17.4431
 20
-16.9472
 11
17.4123
 21
-16.9315
  0
LINE
  8
0
 10
17.4123
 20
-16.9315
 11
17.3867
 21
-16.8813
  0
LINE
  8
0
 10
17.3867
 20
-16.8813
 11
17.3365
 21
-16.8557
  0
LINE
  8
0
 10
17.3365
 20
-16.8557
 11
17.3109
 21
-16.8055
  0
LINE
  8
0
 10
17.3109
 20
-16.8055
 11
17.2607
 21
-16.7798
  0
LINE
  8
0
 10
17.2607
 20
-16.7798
 11
17.2351
 21
-16.7296
  0
LINE
  8
0
 10
17.2351
 20
-16.7296
 11
17.1848
 21
-16.704
  0
LINE
  8
0
 10
17.1848
 20
-16.704
 11
17.1592
 21
-16.6538
  0
LINE
  8
0
 10
17.1592
 20
-16.6538
 11
17.109
 21
-16.6282
  0
LINE
  8
0
 10
17.109
 20
-16.6282
 11
17.0834
 21
-16.578
  0
LINE
  8
0
 10
17.0834
 20
-16.578
 11
17.0332
 21
-16.5524
  0
LINE
  8
0
 10
17.0332
 20
-16.5524
 11
17.0076
 21
-16.5022
  0
LINE
  8
0
 10
17.0076
 20
-16.5022
 11
16.9574
 21
-16.4766
  0
LINE
  8
0
 10
16.9574
 20
-16.4766
 11
16.9318
 21
-16.4264
  0
LINE
  8
0
 10
16.9318
 20
-16.4264
 11
16.8816
 21
-16.4008
  0
LINE
  8
0
 10
16.8816
 20
-16.4008
 11
16.856
 21
-16.3506
  0
LINE
  8
0
 10
16.856
 20
-16.3506
 11
16.8058
 21
-16.325
  0
LINE
  8
0
 10
16.8058
 20
-16.325
 11
16.7802
 21
-16.2747
  0
LINE
  8
0
 10
16.7802
 20
-16.2747
 11
16.7299
 21
-16.2492
  0
LINE
  8
0
 10
16.7299
 20
-16.2492
 11
16.7044
 21
-16.1989
  0
LINE
  8
0
 10
16.7044
 20
-16.1989
 11
16.6541
 21
-16.1733
  0
LINE
  8
0
 10
16.6541
 20
-16.1733
 11
16.6285
 21
-16.1231
  0
LINE
  8
0
 10
16.6285
 20
-16.1231
 11
16.5783
 21
-16.0975
  0
LINE
  8
0
 10
16.5783
 20
-16.0975
 11
16.5527
 21
-16.0473
  0
LINE
  8
0
 10
16.5527
 20
-16.0473
 11
16.5025
 21
-16.0217
  0
LINE
  8
0
 10
16.5025
 20
-16.0217
 11
16.4769
 21
-15.9715
  0
LINE
  8
0
 10
16.4769
 20
-15.9715
 11
16.4267
 21
-15.9459
  0
LINE
  8
0
 10
16.4267
 20
-15.9459
 11
16.4011
 21
-15.8957
  0
LINE
  8
0
 10
16.4011
 20
-15.8957
 11
16.3509
 21
-15.8701
  0
LINE
  8
0
 10
16.3509
 20
-15.8701
 11
16.3253
 21
-15.8199
  0
LINE
  8
0
 10
16.3253
 20
-15.8199
 11
16.2751
 21
-15.7943
  0
LINE
  8
0
 10
16.2751
 20
-15.7943
 11
16.2495
 21
-15.744
  0
LINE
  8
0
 10
16.2495
 20
-15.744
 11
16.1992
 21
-15.7185
  0
LINE
  8
0
 10
16.1992
 20
-15.7185
 11
16.1737
 21
-15.6682
  0
LINE
  8
0
 10
16.1737
 20
-15.6682
 11
15.9769
 21
-15.5679
  0
LINE
  8
0
 10
15.9769
 20
-15.5679
 11
15.7587
 21
-15.6025
  0
LINE
  8
0
 10
15.7587
 20
-15.6025
 11
15.5433
 21
-15.817
  0
LINE
  8
0
 10
15.5433
 20
-15.817
 11
15.2649
 21
-16.0859
  0
LINE
  8
0
 10
15.2649
 20
-16.0859
 11
14.9818
 21
-16.3498
  0
LINE
  8
0
 10
14.9818
 20
-16.3498
 11
14.6942
 21
-16.6088
  0
LINE
  8
0
 10
14.6942
 20
-16.6088
 11
14.4021
 21
-16.8627
  0
LINE
  8
0
 10
14.4021
 20
-16.8627
 11
14.1056
 21
-17.1115
  0
LINE
  8
0
 10
14.1056
 20
-17.1115
 11
13.8049
 21
-17.3551
  0
LINE
  8
0
 10
13.8049
 20
-17.3551
 11
13.4998
 21
-17.5934
  0
LINE
  8
0
 10
13.4998
 20
-17.5934
 11
13.1908
 21
-17.8263
  0
LINE
  8
0
 10
13.1908
 20
-17.8263
 11
12.8776
 21
-18.0538
  0
LINE
  8
0
 10
12.8776
 20
-18.0538
 11
12.5606
 21
-18.2757
  0
LINE
  8
0
 10
12.5606
 20
-18.2757
 11
12.2397
 21
-18.4922
  0
LINE
  8
0
 10
12.2397
 20
-18.4922
 11
11.9151
 21
-18.703
  0
LINE
  8
0
 10
11.9151
 20
-18.703
 11
11.5869
 21
-18.9081
  0
LINE
  8
0
 10
11.5869
 20
-18.9081
 11
11.2551
 21
-19.1074
  0
LINE
  8
0
 10
11.2551
 20
-19.1074
 11
10.92
 21
-19.3009
  0
LINE
  8
0
 10
10.92
 20
-19.3009
 11
10.5814
 21
-19.4886
  0
LINE
  8
0
 10
10.5814
 20
-19.4886
 11
10.2397
 21
-19.6703
  0
LINE
  8
0
 10
10.2397
 20
-19.6703
 11
9.89485
 21
-19.846
  0
LINE
  8
0
 10
9.89485
 20
-19.846
 11
9.54695
 21
-20.0157
  0
LINE
  8
0
 10
9.54695
 20
-20.0157
 11
9.19623
 21
-20.1792
  0
LINE
  8
0
 10
9.19623
 20
-20.1792
 11
8.84264
 21
-20.3367
  0
LINE
  8
0
 10
8.84264
 20
-20.3367
 11
8.48636
 21
-20.4879
  0
LINE
  8
0
 10
8.48636
 20
-20.4879
 11
8.12747
 21
-20.6329
  0
LINE
  8
0
 10
8.12747
 20
-20.6329
 11
7.76614
 21
-20.7716
  0
LINE
  8
0
 10
7.76614
 20
-20.7716
 11
7.40245
 21
-20.904
  0
LINE
  8
0
 10
7.40245
 20
-20.904
 11
7.03654
 21
-21.03
  0
LINE
  8
0
 10
7.03654
 20
-21.03
 11
6.66838
 21
-21.1496
  0
LINE
  8
0
 10
6.66838
 20
-21.1496
 11
6.29831
 21
-21.2627
  0
LINE
  8
0
 10
6.29831
 20
-21.2627
 11
5.92622
 21
-21.3694
  0
LINE
  8
0
 10
5.92622
 20
-21.3694
 11
5.55234
 21
-21.4696
  0
LINE
  8
0
 10
5.55234
 20
-21.4696
 11
5.30669
 21
-21.5314
  0
LINE
  8
0
 10
5.30669
 20
-21.5314
 11
5.17415
 21
-21.349
  0
LINE
  8
0
 10
5.17415
 20
-21.349
 11
4.96707
 21
-21.1777
  0
LINE
  8
0
 10
4.96707
 20
-21.1777
 11
4.72389
 21
-21.0633
  0
LINE
  8
0
 10
4.72389
 20
-21.0633
 11
4.4599
 21
-21.0129
  0
LINE
  8
0
 10
4.4599
 20
-21.0129
 11
4.19167
 21
-21.0298
  0
LINE
  8
0
 10
4.19167
 20
-21.0298
 11
3.93607
 21
-21.1129
  0
LINE
  8
0
 10
3.93607
 20
-21.1129
 11
3.70915
 21
-21.2569
  0
LINE
  8
0
 10
3.70915
 20
-21.2569
 11
3.52516
 21
-21.4528
  0
LINE
  8
0
 10
3.52516
 20
-21.4528
 11
3.39569
 21
-21.6883
  0
LINE
  8
0
 10
3.39569
 20
-21.6883
 11
3.32886
 21
-21.9486
  0
LINE
  8
0
 10
3.32886
 20
-21.9486
 11
3.32886
 21
-22.2174
  0
LINE
  8
0
 10
3.32886
 20
-22.2174
 11
3.39569
 21
-22.4777
  0
LINE
  8
0
 10
3.39569
 20
-22.4777
 11
3.52516
 21
-22.7132
  0
LINE
  8
0
 10
3.52516
 20
-22.7132
 11
3.70915
 21
-22.9091
  0
LINE
  8
0
 10
3.70915
 20
-22.9091
 11
3.93607
 21
-23.0531
  0
LINE
  8
0
 10
3.93607
 20
-23.0531
 11
4.19167
 21
-23.1362
  0
LINE
  8
0
 10
4.19167
 20
-23.1362
 11
4.4599
 21
-23.153
  0
LINE
  8
0
 10
4.4599
 20
-23.153
 11
4.72389
 21
-23.1027
  0
LINE
  8
0
 10
4.72389
 20
-23.1027
 11
4.96707
 21
-22.9883
  0
LINE
  8
0
 10
4.96707
 20
-22.9883
 11
5.17415
 21
-22.8169
  0
LINE
  8
0
 10
5.17415
 20
-22.8169
 11
5.33212
 21
-22.5995
  0
LINE
  8
0
 10
5.33212
 20
-22.5995
 11
5.43106
 21
-22.3496
  0
LINE
  8
0
 10
5.43106
 20
-22.3496
 11
5.45045
 21
-22.1961
  0
LINE
  8
0
 10
5.45045
 20
-22.1961
 11
5.73309
 21
-22.125
  0
LINE
  8
0
 10
5.73309
 20
-22.125
 11
6.11836
 21
-22.0215
  0
LINE
  8
0
 10
6.11836
 20
-22.0215
 11
6.50175
 21
-21.9114
  0
LINE
  8
0
 10
6.50175
 20
-21.9114
 11
6.88318
 21
-21.7946
  0
LINE
  8
0
 10
6.88318
 20
-21.7946
 11
7.2625
 21
-21.6712
  0
LINE
  8
0
 10
7.2625
 20
-21.6712
 11
7.6396
 21
-21.5411
  0
LINE
  8
0
 10
7.6396
 20
-21.5411
 11
8.01439
 21
-21.4045
  0
LINE
  8
0
 10
8.01439
 20
-21.4045
 11
8.38672
 21
-21.2614
  0
LINE
  8
0
 10
8.38672
 20
-21.2614
 11
8.7565
 21
-21.1118
  0
LINE
  8
0
 10
8.7565
 20
-21.1118
 11
9.12363
 21
-20.9557
  0
LINE
  8
0
 10
9.12363
 20
-20.9557
 11
9.48796
 21
-20.7933
  0
LINE
  8
0
 10
9.48796
 20
-20.7933
 11
9.84941
 21
-20.6245
  0
LINE
  8
0
 10
9.84941
 20
-20.6245
 11
10.2079
 21
-20.4495
  0
LINE
  8
0
 10
10.2079
 20
-20.4495
 11
10.5632
 21
-20.2682
  0
LINE
  8
0
 10
10.5632
 20
-20.2682
 11
10.9153
 21
-20.0808
  0
LINE
  8
0
 10
10.9153
 20
-20.0808
 11
11.2641
 21
-19.8872
  0
LINE
  8
0
 10
11.2641
 20
-19.8872
 11
11.6095
 21
-19.6876
  0
LINE
  8
0
 10
11.6095
 20
-19.6876
 11
11.9513
 21
-19.482
  0
LINE
  8
0
 10
11.9513
 20
-19.482
 11
12.2895
 21
-19.2705
  0
LINE
  8
0
 10
12.2895
 20
-19.2705
 11
12.6239
 21
-19.0531
  0
LINE
  8
0
 10
12.6239
 20
-19.0531
 11
12.9545
 21
-18.8298
  0
LINE
  8
0
 10
12.9545
 20
-18.8298
 11
13.2812
 21
-18.6009
  0
LINE
  8
0
 10
13.2812
 20
-18.6009
 11
13.6038
 21
-18.3663
  0
LINE
  8
0
 10
13.6038
 20
-18.3663
 11
13.9223
 21
-18.126
  0
LINE
  8
0
 10
13.9223
 20
-18.126
 11
14.2365
 21
-17.8803
  0
LINE
  8
0
 10
14.2365
 20
-17.8803
 11
14.5464
 21
-17.6291
  0
LINE
  8
0
 10
14.5464
 20
-17.6291
 11
14.8518
 21
-17.3726
  0
LINE
  8
0
 10
14.8518
 20
-17.3726
 11
15.1528
 21
-17.1107
  0
LINE
  8
0
 10
15.1528
 20
-17.1107
 11
15.4491
 21
-16.8437
  0
LINE
  8
0
 10
15.4491
 20
-16.8437
 11
15.7407
 21
-16.5715
  0
LINE
  8
0
 10
15.7407
 20
-16.5715
 11
15.9103
 21
-16.4085
  0
LINE
  8
0
 10
15.9103
 20
-16.4085
 11
15.9459
 21
-16.4267
  0
LINE
  8
0
 10
15.9459
 20
-16.4267
 11
15.9715
 21
-16.4769
  0
LINE
  8
0
 10
15.9715
 20
-16.4769
 11
16.0217
 21
-16.5025
  0
LINE
  8
0
 10
16.0217
 20
-16.5025
 11
16.0473
 21
-16.5527
  0
LINE
  8
0
 10
16.0473
 20
-16.5527
 11
16.0975
 21
-16.5783
  0
LINE
  8
0
 10
16.0975
 20
-16.5783
 11
16.1231
 21
-16.6285
  0
LINE
  8
0
 10
16.1231
 20
-16.6285
 11
16.1733
 21
-16.6541
  0
LINE
  8
0
 10
16.1733
 20
-16.6541
 11
16.1989
 21
-16.7044
  0
LINE
  8
0
 10
16.1989
 20
-16.7044
 11
16.2492
 21
-16.7299
  0
LINE
  8
0
 10
16.2492
 20
-16.7299
 11
16.2747
 21
-16.7802
  0
LINE
  8
0
 10
16.2747
 20
-16.7802
 11
16.325
 21
-16.8058
  0
LINE
  8
0
 10
16.325
 20
-16.8058
 11
16.3506
 21
-16.856
  0
LINE
  8
0
 10
16.3506
 20
-16.856
 11
16.4008
 21
-16.8816
  0
LINE
  8
0
 10
16.4008
 20
-16.8816
 11
16.4264
 21
-16.9318
  0
LINE
  8
0
 10
16.4264
 20
-16.9318
 11
16.4766
 21
-16.9574
  0
LINE
  8
0
 10
16.4766
 20
-16.9574
 11
16.5022
 21
-17.0076
  0
LINE
  8
0
 10
16.5022
 20
-17.0076
 11
16.5524
 21
-17.0332
  0
LINE
  8
0
 10
16.5524
 20
-17.0332
 11
16.578
 21
-17.0834
  0
LINE
  8
0
 10
16.578
 20
-17.0834
 11
16.6282
 21
-17.109
  0
LINE
  8
0
 10
16.6282
 20
-17.109
 11
16.6538
 21
-17.1592
  0
LINE
  8
0
 10
16.6538
 20
-17.1592
 11
16.704
 21
-17.1848
  0
LINE
  8
0
 10
16.704
 20
-17.1848
 11
16.7296
 21
-17.2351
  0
LINE
  8
0
 10
16.7296
 20
-17.2351
 11
16.7798
 21
-17.2607
  0
LINE
  8
0
 10
16.7798
 20
-17.2607
 11
16.8055
 21
-17.3109
  0
LINE
  8
0
 10
16.8055
 20
-17.3109
 11
16.8557
 21
-17.3365
  0
LINE
  8
0
 10
16.8557
 20
-17.3365
 11
16.8813
 21
-17.3867
  0
LINE
  8
0
 10
16.8813
 20
-17.3867
 11
16.9315
 21
-17.4123
  0
LINE
  8
0
 10
16.9315
 20
-17.4123
 11
16.9571
 21
-17.4625
  0
LINE
  8
0
 10
16.9571
 20
-17.4625
 11
17.0073
 21
-17.4881
  0
LINE
  8
0
 10
17.0073
 20
-17.4881
 11
17.0329
 21
-17.5383
  0
LINE
  8
0
 10
17.0329
 20
-17.5383
 11
17.0831
 21
-17.5639
  0
LINE
  8
0
 10
17.0831
 20
-17.5639
 11
17.1087
 21
-17.6141
  0
LINE
  8
0
 10
17.1087
 20
-17.6141
 11
17.1589
 21
-17.6397
  0
LINE
  8
0
 10
17.1589
 20
-17.6397
 11
17.1845
 21
-17.6899
  0
LINE
  8
0
 10
17.1845
 20
-17.6899
 11
17.3813
 21
-17.7902
  0
LINE
  8
0
 10
17.3813
 20
-17.7902
 11
17.5995
 21
-17.7557
  0
LINE
  8
0
 10
17.5995
 20
-17.7557
 11
17.9086
 21
-17.4438
  0
LINE
  8
0
 10
17.9086
 20
-17.4438
 11
18.2103
 21
-17.1286
  0
LINE
  8
0
 10
18.2103
 20
-17.1286
 11
18.5065
 21
-16.8082
  0
LINE
  8
0
 10
18.5065
 20
-16.8082
 11
18.797
 21
-16.4827
  0
LINE
  8
0
 10
18.797
 20
-16.4827
 11
19.0818
 21
-16.1521
  0
LINE
  8
0
 10
19.0818
 20
-16.1521
 11
19.3608
 21
-15.8166
  0
LINE
  8
0
 10
19.3608
 20
-15.8166
 11
19.6339
 21
-15.4763
  0
LINE
  8
0
 10
19.6339
 20
-15.4763
 11
19.901
 21
-15.1313
  0
LINE
  8
0
 10
19.901
 20
-15.1313
 11
20.162
 21
-14.7817
  0
LINE
  8
0
 10
20.162
 20
-14.7817
 11
20.4169
 21
-14.4276
  0
LINE
  8
0
 10
20.4169
 20
-14.4276
 11
20.6656
 21
-14.069
  0
LINE
  8
0
 10
20.6656
 20
-14.069
 11
20.908
 21
-13.7062
  0
LINE
  8
0
 10
20.908
 20
-13.7062
 11
21.144
 21
-13.3392
  0
LINE
  8
0
 10
21.144
 20
-13.3392
 11
21.3736
 21
-12.9682
  0
LINE
  8
0
 10
21.3736
 20
-12.9682
 11
21.5967
 21
-12.5932
  0
LINE
  8
0
 10
21.5967
 20
-12.5932
 11
21.8132
 21
-12.2144
  0
LINE
  8
0
 10
21.8132
 20
-12.2144
 11
22.023
 21
-11.8318
  0
LINE
  8
0
 10
22.023
 20
-11.8318
 11
22.2262
 21
-11.4457
  0
LINE
  8
0
 10
22.2262
 20
-11.4457
 11
22.4225
 21
-11.056
  0
LINE
  8
0
 10
22.4225
 20
-11.056
 11
22.612
 21
-10.663
  0
LINE
  8
0
 10
22.612
 20
-10.663
 11
22.7947
 21
-10.2668
  0
LINE
  8
0
 10
22.7947
 20
-10.2668
 11
22.9704
 21
-9.86737
  0
LINE
  8
0
 10
22.9704
 20
-9.86737
 11
23.1391
 21
-9.46498
  0
LINE
  8
0
 10
23.1391
 20
-9.46498
 11
23.3008
 21
-9.05971
  0
LINE
  8
0
 10
23.3008
 20
-9.05971
 11
23.4554
 21
-8.65167
  0
LINE
  8
0
 10
23.4554
 20
-8.65167
 11
23.6028
 21
-8.241
  0
LINE
  8
0
 10
23.6028
 20
-8.241
 11
23.743
 21
-7.82782
  0
LINE
  8
0
 10
23.743
 20
-7.82782
 11
23.876
 21
-7.41225
  0
LINE
  8
0
 10
23.876
 20
-7.41225
 11
24.0017
 21
-6.99443
  0
LINE
  8
0
 10
24.0017
 20
-6.99443
 11
24.1201
 21
-6.57448
  0
LINE
  8
0
 10
24.1201
 20
-6.57448
 11
24.2312
 21
-6.15251
  0
LINE
  8
0
 10
24.2312
 20
-6.15251
 11
24.3349
 21
-5.72868
  0
LINE
  8
0
 10
24.3349
 20
-5.72868
 11
24.4312
 21
-5.30312
  0
LINE
  8
0
 10
24.4312
 20
-5.30312
 11
24.52
 21
-4.87593
  0
LINE
  8
0
 10
24.52
 20
-4.87593
 11
24.6014
 21
-4.44725
  0
LINE
  8
0
 10
24.6014
 20
-4.44725
 11
24.6752
 21
-4.01721
  0
LINE
  8
0
 10
24.6752
 20
-4.01721
 11
24.7416
 21
-3.58597
  0
LINE
  8
0
 10
24.7416
 20
-3.58597
 11
24.8004
 21
-3.15361
  0
LINE
  8
0
 10
24.8004
 20
-3.15361
 11
24.8266
 21
-2.9398
  0
LINE
  8
0
 10
18.6474
 20
-12.8952
 11
18.5537
 21
-12.8647
  0
LINE
  8
0
 10
18.5537
 20
-12.8647
 11
18.4705
 21
-12.8119
  0
LINE
  8
0
 10
18.4705
 20
-12.8119
 11
18.403
 21
-12.7401
  0
LINE
  8
0
 10
18.403
 20
-12.7401
 11
18.3555
 21
-12.6537
  0
LINE
  8
0
 10
18.3555
 20
-12.6537
 11
18.331
 21
-12.5583
  0
LINE
  8
0
 10
18.331
 20
-12.5583
 11
18.331
 21
-12.4597
  0
LINE
  8
0
 10
18.331
 20
-12.4597
 11
18.3555
 21
-12.3643
  0
LINE
  8
0
 10
18.3555
 20
-12.3643
 11
18.403
 21
-12.2779
  0
LINE
  8
0
 10
18.403
 20
-12.2779
 11
18.4705
 21
-12.2061
  0
LINE
  8
0
 10
18.4705
 20
-12.2061
 11
18.5537
 21
-12.1533
  0
LINE
  8
0
 10
18.5537
 20
-12.1533
 11
18.6474
 21
-12.1228
  0
LINE
  8
0
 10
18.6474
 20
-12.1228
 11
18.7457
 21
-12.1167
  0
LINE
  8
0
 10
18.7457
 20
-12.1167
 11
18.8425
 21
-12.1351
  0
LINE
  8
0
 10
18.8425
 20
-12.1351
 11
18.9317
 21
-12.1771
  0
LINE
  8
0
 10
18.9317
 20
-12.1771
 11
19.0076
 21
-12.2399
  0
LINE
  8
0
 10
19.0076
 20
-12.2399
 11
19.0656
 21
-12.3196
  0
LINE
  8
0
 10
19.0656
 20
-12.3196
 11
19.1018
 21
-12.4112
  0
LINE
  8
0
 10
19.1018
 20
-12.4112
 11
19.1142
 21
-12.509
  0
LINE
  8
0
 10
19.1142
 20
-12.509
 11
19.1018
 21
-12.6068
  0
LINE
  8
0
 10
19.1018
 20
-12.6068
 11
19.0656
 21
-12.6984
  0
LINE
  8
0
 10
19.0656
 20
-12.6984
 11
19.0076
 21
-12.7781
  0
LINE
  8
0
 10
19.0076
 20
-12.7781
 11
18.9317
 21
-12.8409
  0
LINE
  8
0
 10
18.9317
 20
-12.8409
 11
18.8425
 21
-12.8829
  0
LINE
  8
0
 10
18.8425
 20
-12.8829
 11
18.7457
 21
-12.9014
  0
LINE
  8
0
 10
18.7457
 20
-12.9014
 11
18.6474
 21
-12.8952
  0
LINE
  8
0
 10
4.31891
 20
-22.4692
 11
4.22519
 21
-22.4387
  0
LINE
  8
0
 10
4.22519
 20
-22.4387
 11
4.14198
 21
-22.3859
  0
LINE
  8
0
 10
4.14198
 20
-22.3859
 11
4.07452
 21
-22.3141
  0
LINE
  8
0
 10
4.07452
 20
-22.3141
 11
4.02705
 21
-22.2277
  0
LINE
  8
0
 10
4.02705
 20
-22.2277
 11
4.00255
 21
-22.1323
  0
LINE
  8
0
 10
4.00255
 20
-22.1323
 11
4.00255
 21
-22.0337
  0
LINE
  8
0
 10
4.00255
 20
-22.0337
 11
4.02705
 21
-21.9383
  0
LINE
  8
0
 10
4.02705
 20
-21.9383
 11
4.07452
 21
-21.8519
  0
LINE
  8
0
 10
4.07452
 20
-21.8519
 11
4.14198
 21
-21.7801
  0
LINE
  8
0
 10
4.14198
 20
-21.7801
 11
4.22519
 21
-21.7273
  0
LINE
  8
0
 10
4.22519
 20
-21.7273
 11
4.31891
 21
-21.6968
  0
LINE
  8
0
 10
4.31891
 20
-21.6968
 11
4.41725
 21
-21.6906
  0
LINE
  8
0
 10
4.41725
 20
-21.6906
 11
4.51405
 21
-21.7091
  0
LINE
  8
0
 10
4.51405
 20
-21.7091
 11
4.60323
 21
-21.7511
  0
LINE
  8
0
 10
4.60323
 20
-21.7511
 11
4.67915
 21
-21.8139
  0
LINE
  8
0
 10
4.67915
 20
-21.8139
 11
4.73708
 21
-21.8936
  0
LINE
  8
0
 10
4.73708
 20
-21.8936
 11
4.77335
 21
-21.9852
  0
LINE
  8
0
 10
4.77335
 20
-21.9852
 11
4.78571
 21
-22.083
  0
LINE
  8
0
 10
4.78571
 20
-22.083
 11
4.77335
 21
-22.1808
  0
LINE
  8
0
 10
4.77335
 20
-22.1808
 11
4.73708
 21
-22.2724
  0
LINE
  8
0
 10
4.73708
 20
-22.2724
 11
4.67915
 21
-22.3521
  0
LINE
  8
0
 10
4.67915
 20
-22.3521
 11
4.60323
 21
-22.4149
  0
LINE
  8
0
 10
4.60323
 20
-22.4149
 11
4.51405
 21
-22.4569
  0
LINE
  8
0
 10
4.51405
 20
-22.4569
 11
4.41725
 21
-22.4753
  0
LINE
  8
0
 10
4.41725
 20
-22.4753
 11
4.31891
 21
-22.4692
  0
LINE
  8
0
 10
19.1519
 20
-8.81544
 11
19.3951
 21
-8.701
  0
LINE
  8
0
 10
19.3951
 20
-8.701
 11
19.6022
 21
-8.52969
  0
LINE
  8
0
 10
19.6022
 20
-8.52969
 11
19.7602
 21
-8.31227
  0
LINE
  8
0
 10
19.7602
 20
-8.31227
 11
19.8591
 21
-8.06238
  0
LINE
  8
0
 10
19.8591
 20
-8.06238
 11
19.8928
 21
-7.79575
  0
LINE
  8
0
 10
19.8928
 20
-7.79575
 11
19.8591
 21
-7.52911
  0
LINE
  8
0
 10
19.8591
 20
-7.52911
 11
19.7602
 21
-7.27922
  0
LINE
  8
0
 10
19.7602
 20
-7.27922
 11
19.6022
 21
-7.0618
  0
LINE
  8
0
 10
19.6022
 20
-7.0618
 11
19.5005
 21
-6.97768
  0
LINE
  8
0
 10
19.5005
 20
-6.97768
 11
19.6187
 21
-6.63818
  0
LINE
  8
0
 10
19.6187
 20
-6.63818
 11
19.7315
 21
-6.29478
  0
LINE
  8
0
 10
19.7315
 20
-6.29478
 11
19.8384
 21
-5.94946
  0
LINE
  8
0
 10
19.8384
 20
-5.94946
 11
19.9392
 21
-5.60233
  0
LINE
  8
0
 10
19.9392
 20
-5.60233
 11
20.0339
 21
-5.25348
  0
LINE
  8
0
 10
20.0339
 20
-5.25348
 11
20.1226
 21
-4.90305
  0
LINE
  8
0
 10
20.1226
 20
-4.90305
 11
20.2051
 21
-4.5511
  0
LINE
  8
0
 10
20.2051
 20
-4.5511
 11
20.2814
 21
-4.19778
  0
LINE
  8
0
 10
20.2814
 20
-4.19778
 11
20.3516
 21
-3.84319
  0
LINE
  8
0
 10
20.3516
 20
-3.84319
 11
20.4156
 21
-3.48741
  0
LINE
  8
0
 10
20.4156
 20
-3.48741
 11
20.4733
 21
-3.13058
  0
LINE
  8
0
 10
20.4733
 20
-3.13058
 11
20.5248
 21
-2.7728
  0
LINE
  8
0
 10
20.5248
 20
-2.7728
 11
20.5701
 21
-2.41417
  0
LINE
  8
0
 10
20.5701
 20
-2.41417
 11
20.6091
 21
-2.05481
  0
LINE
  8
0
 10
20.6091
 20
-2.05481
 11
20.6418
 21
-1.69481
  0
LINE
  8
0
 10
20.6418
 20
-1.69481
 11
20.6683
 21
-1.3343
  0
LINE
  8
0
 10
20.6683
 20
-1.3343
 11
20.6884
 21
-0.973389
  0
LINE
  8
0
 10
20.6884
 20
-0.973389
 11
20.7022
 21
-0.612183
  0
LINE
  8
0
 10
20.7022
 20
-0.612183
 11
20.7098
 21
-0.250778
  0
LINE
  8
0
 10
20.7098
 20
-0.250778
 11
20.711
 21
0.110672
  0
LINE
  8
0
 10
20.711
 20
0.110672
 11
20.7059
 21
0.472122
  0
LINE
  8
0
 10
20.7059
 20
0.472122
 11
20.6945
 21
0.833405
  0
LINE
  8
0
 10
20.6945
 20
0.833405
 11
20.6768
 21
1.19446
  0
LINE
  8
0
 10
20.6768
 20
1.19446
 11
20.6528
 21
1.55513
  0
LINE
  8
0
 10
20.6528
 20
1.55513
 11
20.6225
 21
1.91534
  0
LINE
  8
0
 10
20.6225
 20
1.91534
 11
20.586
 21
2.27496
  0
LINE
  8
0
 10
20.586
 20
2.27496
 11
20.5431
 21
2.63388
  0
LINE
  8
0
 10
20.5431
 20
2.63388
 11
20.494
 21
2.99202
  0
LINE
  8
0
 10
20.494
 20
2.99202
 11
20.4387
 21
3.34923
  0
LINE
  8
0
 10
20.4387
 20
3.34923
 11
20.3771
 21
3.70543
  0
LINE
  8
0
 10
20.3771
 20
3.70543
 11
20.3096
 21
4.06029
  0
LINE
  8
0
 10
20.3096
 20
4.06029
 11
20.148
 21
4.21092
  0
LINE
  8
0
 10
20.148
 20
4.21092
 11
19.9288
 21
4.23784
  0
LINE
  8
0
 10
19.9288
 20
4.23784
 11
19.7356
 21
4.13075
  0
LINE
  8
0
 10
19.7356
 20
4.13075
 11
19.6423
 21
3.93057
  0
LINE
  8
0
 10
19.6423
 20
3.93057
 11
19.7119
 21
3.56451
  0
LINE
  8
0
 10
19.7119
 20
3.56451
 11
19.7711
 21
3.21992
  0
LINE
  8
0
 10
19.7711
 20
3.21992
 11
19.8243
 21
2.87436
  0
LINE
  8
0
 10
19.8243
 20
2.87436
 11
19.8714
 21
2.528
  0
LINE
  8
0
 10
19.8714
 20
2.528
 11
19.9125
 21
2.18077
  0
LINE
  8
0
 10
19.9125
 20
2.18077
 11
19.9475
 21
1.83289
  0
LINE
  8
0
 10
19.9475
 20
1.83289
 11
19.9765
 21
1.48453
  0
LINE
  8
0
 10
19.9765
 20
1.48453
 11
19.9994
 21
1.13559
  0
LINE
  8
0
 10
19.9994
 20
1.13559
 11
20.0161
 21
0.786392
  0
LINE
  8
0
 10
20.0161
 20
0.786392
 11
20.0268
 21
0.436951
  0
LINE
  8
0
 10
20.0268
 20
0.436951
 11
20.0314
 21
0.0874023
  0
LINE
  8
0
 10
20.0314
 20
0.0874023
 11
20.0298
 21
-0.262222
  0
LINE
  8
0
 10
20.0298
 20
-0.262222
 11
20.0222
 21
-0.61174
  0
LINE
  8
0
 10
20.0222
 20
-0.61174
 11
20.0085
 21
-0.961105
  0
LINE
  8
0
 10
20.0085
 20
-0.961105
 11
19.9887
 21
-1.31009
  0
LINE
  8
0
 10
19.9887
 20
-1.31009
 11
19.9628
 21
-1.6588
  0
LINE
  8
0
 10
19.9628
 20
-1.6588
 11
19.9308
 21
-2.00696
  0
LINE
  8
0
 10
19.9308
 20
-2.00696
 11
19.8927
 21
-2.35446
  0
LINE
  8
0
 10
19.8927
 20
-2.35446
 11
19.8486
 21
-2.70128
  0
LINE
  8
0
 10
19.8486
 20
-2.70128
 11
19.7984
 21
-3.0473
  0
LINE
  8
0
 10
19.7984
 20
-3.0473
 11
19.7422
 21
-3.39227
  0
LINE
  8
0
 10
19.7422
 20
-3.39227
 11
19.68
 21
-3.73634
  0
LINE
  8
0
 10
19.68
 20
-3.73634
 11
19.6118
 21
-4.0793
  0
LINE
  8
0
 10
19.6118
 20
-4.0793
 11
19.5376
 21
-4.4209
  0
LINE
  8
0
 10
19.5376
 20
-4.4209
 11
19.4575
 21
-4.7612
  0
LINE
  8
0
 10
19.4575
 20
-4.7612
 11
19.3714
 21
-5.1001
  0
LINE
  8
0
 10
19.3714
 20
-5.1001
 11
19.2795
 21
-5.43733
  0
LINE
  8
0
 10
19.2795
 20
-5.43733
 11
19.1817
 21
-5.77303
  0
LINE
  8
0
 10
19.1817
 20
-5.77303
 11
19.078
 21
-6.10686
  0
LINE
  8
0
 10
19.078
 20
-6.10686
 11
18.9685
 21
-6.43893
  0
LINE
  8
0
 10
18.9685
 20
-6.43893
 11
18.8681
 21
-6.72693
  0
LINE
  8
0
 10
18.8681
 20
-6.72693
 11
18.6197
 21
-6.74257
  0
LINE
  8
0
 10
18.6197
 20
-6.74257
 11
18.3641
 21
-6.82561
  0
LINE
  8
0
 10
18.3641
 20
-6.82561
 11
18.1372
 21
-6.96962
  0
LINE
  8
0
 10
18.1372
 20
-6.96962
 11
17.9532
 21
-7.16554
  0
LINE
  8
0
 10
17.9532
 20
-7.16554
 11
17.8237
 21
-7.40105
  0
LINE
  8
0
 10
17.8237
 20
-7.40105
 11
17.7569
 21
-7.66136
  0
LINE
  8
0
 10
17.7569
 20
-7.66136
 11
17.7569
 21
-7.93013
  0
LINE
  8
0
 10
17.7569
 20
-7.93013
 11
17.8237
 21
-8.19044
  0
LINE
  8
0
 10
17.8237
 20
-8.19044
 11
17.9532
 21
-8.42595
  0
LINE
  8
0
 10
17.9532
 20
-8.42595
 11
18.1372
 21
-8.62187
  0
LINE
  8
0
 10
18.1372
 20
-8.62187
 11
18.3641
 21
-8.76587
  0
LINE
  8
0
 10
18.3641
 20
-8.76587
 11
18.6197
 21
-8.84892
  0
LINE
  8
0
 10
18.6197
 20
-8.84892
 11
18.8879
 21
-8.8658
  0
LINE
  8
0
 10
18.8879
 20
-8.8658
 11
19.1519
 21
-8.81544
  0
LINE
  8
0
 10
18.7469
 20
-8.18192
 11
18.6532
 21
-8.15146
  0
LINE
  8
0
 10
18.6532
 20
-8.15146
 11
18.57
 21
-8.09866
  0
LINE
  8
0
 10
18.57
 20
-8.09866
 11
18.5026
 21
-8.02682
  0
LINE
  8
0
 10
18.5026
 20
-8.02682
 11
18.4551
 21
-7.94046
  0
LINE
  8
0
 10
18.4551
 20
-7.94046
 11
18.4306
 21
-7.84502
  0
LINE
  8
0
 10
18.4306
 20
-7.84502
 11
18.4306
 21
-7.74648
  0
LINE
  8
0
 10
18.4306
 20
-7.74648
 11
18.4551
 21
-7.65103
  0
LINE
  8
0
 10
18.4551
 20
-7.65103
 11
18.5026
 21
-7.56467
  0
LINE
  8
0
 10
18.5026
 20
-7.56467
 11
18.57
 21
-7.49283
  0
LINE
  8
0
 10
18.57
 20
-7.49283
 11
18.6532
 21
-7.44003
  0
LINE
  8
0
 10
18.6532
 20
-7.44003
 11
18.7469
 21
-7.40958
  0
LINE
  8
0
 10
18.7469
 20
-7.40958
 11
18.8453
 21
-7.4034
  0
LINE
  8
0
 10
18.8453
 20
-7.4034
 11
18.9421
 21
-7.42186
  0
LINE
  8
0
 10
18.9421
 20
-7.42186
 11
19.0312
 21
-7.46382
  0
LINE
  8
0
 10
19.0312
 20
-7.46382
 11
19.1072
 21
-7.52663
  0
LINE
  8
0
 10
19.1072
 20
-7.52663
 11
19.1651
 21
-7.60635
  0
LINE
  8
0
 10
19.1651
 20
-7.60635
 11
19.2014
 21
-7.69798
  0
LINE
  8
0
 10
19.2014
 20
-7.69798
 11
19.2137
 21
-7.79575
  0
LINE
  8
0
 10
19.2137
 20
-7.79575
 11
19.2014
 21
-7.89351
  0
LINE
  8
0
 10
19.2014
 20
-7.89351
 11
19.1651
 21
-7.98514
  0
LINE
  8
0
 10
19.1651
 20
-7.98514
 11
19.1072
 21
-8.06487
  0
LINE
  8
0
 10
19.1072
 20
-8.06487
 11
19.0312
 21
-8.12767
  0
LINE
  8
0
 10
19.0312
 20
-8.12767
 11
18.9421
 21
-8.16963
  0
LINE
  8
0
 10
18.9421
 20
-8.16963
 11
18.8453
 21
-8.1881
  0
LINE
  8
0
 10
18.8453
 20
-8.1881
 11
18.7469
 21
-8.18192
  0
LINE
  8
0
 10
-0.219528
 20
-24.9991
 11
0.219528
 21
-24.9991
  0
LINE
  8
0
 10
0.219528
 20
-24.9991
 11
0.655792
 21
-24.9915
  0
LINE
  8
0
 10
0.655792
 20
-24.9915
 11
1.09186
 21
-24.9762
  0
LINE
  8
0
 10
1.09186
 20
-24.9762
 11
1.52759
 21
-24.9534
  0
LINE
  8
0
 10
1.52759
 20
-24.9534
 11
1.96284
 21
-24.9229
  0
LINE
  8
0
 10
1.96284
 20
-24.9229
 11
2.39751
 21
-24.8849
  0
LINE
  8
0
 10
2.39751
 20
-24.8849
 11
2.83145
 21
-24.8392
  0
LINE
  8
0
 10
2.83145
 20
-24.8392
 11
3.26453
 21
-24.786
  0
LINE
  8
0
 10
3.26453
 20
-24.786
 11
3.69659
 21
-24.7253
  0
LINE
  8
0
 10
3.69659
 20
-24.7253
 11
4.12755
 21
-24.657
  0
LINE
  8
0
 10
4.12755
 20
-24.657
 11
4.55725
 21
-24.5812
  0
LINE
  8
0
 10
4.55725
 20
-24.5812
 11
4.98555
 21
-24.4979
  0
LINE
  8
0
 10
4.98555
 20
-24.4979
 11
5.41235
 21
-24.4072
  0
LINE
  8
0
 10
5.41235
 20
-24.4072
 11
5.83748
 21
-24.309
  0
LINE
  8
0
 10
5.83748
 20
-24.309
 11
6.26085
 21
-24.2034
  0
LINE
  8
0
 10
6.26085
 20
-24.2034
 11
6.6823
 21
-24.0905
  0
LINE
  8
0
 10
6.6823
 20
-24.0905
 11
7.10172
 21
-23.9702
  0
LINE
  8
0
 10
7.10172
 20
-23.9702
 11
7.51898
 21
-23.8426
  0
LINE
  8
0
 10
7.51898
 20
-23.8426
 11
7.93394
 21
-23.7077
  0
LINE
  8
0
 10
7.93394
 20
-23.7077
 11
8.3465
 21
-23.5657
  0
LINE
  8
0
 10
8.3465
 20
-23.5657
 11
8.7565
 21
-23.4164
  0
LINE
  8
0
 10
8.7565
 20
-23.4164
 11
9.16383
 21
-23.26
  0
LINE
  8
0
 10
9.16383
 20
-23.26
 11
9.56839
 21
-23.0966
  0
LINE
  8
0
 10
9.56839
 20
-23.0966
 11
9.97002
 21
-22.926
  0
LINE
  8
0
 10
9.97002
 20
-22.926
 11
10.3686
 21
-22.7486
  0
LINE
  8
0
 10
10.3686
 20
-22.7486
 11
10.7641
 21
-22.5641
  0
LINE
  8
0
 10
10.7641
 20
-22.5641
 11
11.1562
 21
-22.3728
  0
LINE
  8
0
 10
11.1562
 20
-22.3728
 11
11.545
 21
-22.1747
  0
LINE
  8
0
 10
11.545
 20
-22.1747
 11
11.9302
 21
-21.9699
  0
LINE
  8
0
 10
11.9302
 20
-21.9699
 11
12.3118
 21
-21.7583
  0
LINE
  8
0
 10
12.3118
 20
-21.7583
 11
12.6897
 21
-21.5401
  0
LINE
  8
0
 10
12.6897
 20
-21.5401
 11
13.0637
 21
-21.3154
  0
LINE
  8
0
 10
13.0637
 20
-21.3154
 11
13.4337
 21
-21.0841
  0
LINE
  8
0
 10
13.4337
 20
-21.0841
 11
13.7996
 21
-20.8465
  0
LINE
  8
0
 10
13.7996
 20
-20.8465
 11
13.981
 21
-20.7253
  0
LINE
  8
0
 10
13.981
 20
-20.7253
 11
14.0574
 21
-20.518
  0
LINE
  8
0
 10
14.0574
 20
-20.518
 11
13.9975
 21
-20.3055
  0
LINE
  8
0
 10
13.9975
 20
-20.3055
 11
13.824
 21
-20.1687
  0
LINE
  8
0
 10
13.824
 20
-20.1687
 11
13.6033
 21
-20.16
  0
LINE
  8
0
 10
13.6033
 20
-20.16
 11
13.2457
 21
-20.3967
  0
LINE
  8
0
 10
13.2457
 20
-20.3967
 11
12.8878
 21
-20.6248
  0
LINE
  8
0
 10
12.8878
 20
-20.6248
 11
12.5258
 21
-20.8466
  0
LINE
  8
0
 10
12.5258
 20
-20.8466
 11
12.1601
 21
-21.062
  0
LINE
  8
0
 10
12.1601
 20
-21.062
 11
11.7907
 21
-21.271
  0
LINE
  8
0
 10
11.7907
 20
-21.271
 11
11.4176
 21
-21.4736
  0
LINE
  8
0
 10
11.4176
 20
-21.4736
 11
11.0412
 21
-21.6696
  0
LINE
  8
0
 10
11.0412
 20
-21.6696
 11
10.6612
 21
-21.859
  0
LINE
  8
0
 10
10.6612
 20
-21.859
 11
10.2782
 21
-22.0417
  0
LINE
  8
0
 10
10.2782
 20
-22.0417
 11
9.89197
 21
-22.2177
  0
LINE
  8
0
 10
9.89197
 20
-22.2177
 11
9.50273
 21
-22.3869
  0
LINE
  8
0
 10
9.50273
 20
-22.3869
 11
9.11052
 21
-22.5494
  0
LINE
  8
0
 10
9.11052
 20
-22.5494
 11
8.71561
 21
-22.705
  0
LINE
  8
0
 10
8.71561
 20
-22.705
 11
8.31804
 21
-22.8536
  0
LINE
  8
0
 10
8.31804
 20
-22.8536
 11
7.91789
 21
-22.9953
  0
LINE
  8
0
 10
7.91789
 20
-22.9953
 11
7.51537
 21
-23.13
  0
LINE
  8
0
 10
7.51537
 20
-23.13
 11
7.11055
 21
-23.2576
  0
LINE
  8
0
 10
7.11055
 20
-23.2576
 11
6.70358
 21
-23.3782
  0
LINE
  8
0
 10
6.70358
 20
-23.3782
 11
6.29451
 21
-23.4916
  0
LINE
  8
0
 10
6.29451
 20
-23.4916
 11
5.88359
 21
-23.5979
  0
LINE
  8
0
 10
5.88359
 20
-23.5979
 11
5.47087
 21
-23.697
  0
LINE
  8
0
 10
5.47087
 20
-23.697
 11
5.05647
 21
-23.7888
  0
LINE
  8
0
 10
5.05647
 20
-23.7888
 11
4.64052
 21
-23.8735
  0
LINE
  8
0
 10
4.64052
 20
-23.8735
 11
4.22314
 21
-23.9508
  0
LINE
  8
0
 10
4.22314
 20
-23.9508
 11
3.80452
 21
-24.0209
  0
LINE
  8
0
 10
3.80452
 20
-24.0209
 11
3.38472
 21
-24.0836
  0
LINE
  8
0
 10
3.38472
 20
-24.0836
 11
2.96391
 21
-24.139
  0
LINE
  8
0
 10
2.96391
 20
-24.139
 11
2.5421
 21
-24.1871
  0
LINE
  8
0
 10
2.5421
 20
-24.1871
 11
2.11969
 21
-24.2278
  0
LINE
  8
0
 10
2.11969
 20
-24.2278
 11
1.69652
 21
-24.261
  0
LINE
  8
0
 10
1.69652
 20
-24.261
 11
1.27284
 21
-24.287
  0
LINE
  8
0
 10
1.27284
 20
-24.287
 11
0.848785
 21
-24.3055
  0
LINE
  8
0
 10
0.848785
 20
-24.3055
 11
0.424408
 21
-24.3166
  0
LINE
  8
0
 10
0.424408
 20
-24.3166
 11
0
 21
-24.3203
  0
LINE
  8
0
 10
0
 20
-24.3203
 11
-0.424408
 21
-24.3166
  0
LINE
  8
0
 10
-0.424408
 20
-24.3166
 11
-0.848785
 21
-24.3055
  0
LINE
  8
0
 10
-0.848785
 20
-24.3055
 11
-1.27284
 21
-24.287
  0
LINE
  8
0
 10
-1.27284
 20
-24.287
 11
-1.69652
 21
-24.261
  0
LINE
  8
0
 10
-1.69652
 20
-24.261
 11
-2.11969
 21
-24.2278
  0
LINE
  8
0
 10
-2.11969
 20
-24.2278
 11
-2.5421
 21
-24.1871
  0
LINE
  8
0
 10
-2.5421
 20
-24.1871
 11
-2.96391
 21
-24.139
  0
LINE
  8
0
 10
-2.96391
 20
-24.139
 11
-3.38472
 21
-24.0836
  0
LINE
  8
0
 10
-3.38472
 20
-24.0836
 11
-3.80452
 21
-24.0209
  0
LINE
  8
0
 10
-3.80452
 20
-24.0209
 11
-4.22314
 21
-23.9508
  0
LINE
  8
0
 10
-4.22314
 20
-23.9508
 11
-4.64052
 21
-23.8735
  0
LINE
  8
0
 10
-4.64052
 20
-23.8735
 11
-5.05647
 21
-23.7888
  0
LINE
  8
0
 10
-5.05647
 20
-23.7888
 11
-5.47087
 21
-23.697
  0
LINE
  8
0
 10
-5.47087
 20
-23.697
 11
-5.88359
 21
-23.5979
  0
LINE
  8
0
 10
-5.88359
 20
-23.5979
 11
-6.29451
 21
-23.4916
  0
LINE
  8
0
 10
-6.29451
 20
-23.4916
 11
-6.70358
 21
-23.3782
  0
LINE
  8
0
 10
-6.70358
 20
-23.3782
 11
-7.11055
 21
-23.2576
  0
LINE
  8
0
 10
-7.11055
 20
-23.2576
 11
-7.51537
 21
-23.13
  0
LINE
  8
0
 10
-7.51537
 20
-23.13
 11
-7.91789
 21
-22.9953
  0
LINE
  8
0
 10
-7.91789
 20
-22.9953
 11
-8.31804
 21
-22.8536
  0
LINE
  8
0
 10
-8.31804
 20
-22.8536
 11
-8.71561
 21
-22.705
  0
LINE
  8
0
 10
-8.71561
 20
-22.705
 11
-9.11052
 21
-22.5494
  0
LINE
  8
0
 10
-9.11052
 20
-22.5494
 11
-9.50273
 21
-22.3869
  0
LINE
  8
0
 10
-9.50273
 20
-22.3869
 11
-9.89197
 21
-22.2177
  0
LINE
  8
0
 10
-9.89197
 20
-22.2177
 11
-10.2782
 21
-22.0417
  0
LINE
  8
0
 10
-10.2782
 20
-22.0417
 11
-10.6612
 21
-21.859
  0
LINE
  8
0
 10
-10.6612
 20
-21.859
 11
-11.0412
 21
-21.6696
  0
LINE
  8
0
 10
-11.0412
 20
-21.6696
 11
-11.4176
 21
-21.4736
  0
LINE
  8
0
 10
-11.4176
 20
-21.4736
 11
-11.7907
 21
-21.271
  0
LINE
  8
0
 10
-11.7907
 20
-21.271
 11
-12.1601
 21
-21.062
  0
LINE
  8
0
 10
-12.1601
 20
-21.062
 11
-12.5258
 21
-20.8466
  0
LINE
  8
0
 10
-12.5258
 20
-20.8466
 11
-12.8878
 21
-20.6248
  0
LINE
  8
0
 10
-12.8878
 20
-20.6248
 11
-13.2457
 21
-20.3967
  0
LINE
  8
0
 10
-13.2457
 20
-20.3967
 11
-13.5997
 21
-20.1625
  0
LINE
  8
0
 10
-13.5997
 20
-20.1625
 11
-13.9495
 21
-19.9221
  0
LINE
  8
0
 10
-13.9495
 20
-19.9221
 11
-14.2951
 21
-19.6755
  0
LINE
  8
0
 10
-14.2951
 20
-19.6755
 11
-14.6363
 21
-19.423
  0
LINE
  8
0
 10
-14.6363
 20
-19.423
 11
-14.973
 21
-19.1647
  0
LINE
  8
0
 10
-14.973
 20
-19.1647
 11
-15.3053
 21
-18.9004
  0
LINE
  8
0
 10
-15.3053
 20
-18.9004
 11
-15.6328
 21
-18.6304
  0
LINE
  8
0
 10
-15.6328
 20
-18.6304
 11
-15.9555
 21
-18.3548
  0
LINE
  8
0
 10
-15.9555
 20
-18.3548
 11
-16.2734
 21
-18.0735
  0
LINE
  8
0
 10
-16.2734
 20
-18.0735
 11
-16.5864
 21
-17.7867
  0
LINE
  8
0
 10
-16.5864
 20
-17.7867
 11
-16.8943
 21
-17.4946
  0
LINE
  8
0
 10
-16.8943
 20
-17.4946
 11
-17.1971
 21
-17.1971
  0
LINE
  8
0
 10
-17.1971
 20
-17.1971
 11
-17.4946
 21
-16.8943
  0
LINE
  8
0
 10
-17.4946
 20
-16.8943
 11
-17.7867
 21
-16.5864
  0
LINE
  8
0
 10
-17.7867
 20
-16.5864
 11
-18.0735
 21
-16.2734
  0
LINE
  8
0
 10
-18.0735
 20
-16.2734
 11
-18.3548
 21
-15.9555
  0
LINE
  8
0
 10
-18.3548
 20
-15.9555
 11
-18.6304
 21
-15.6328
  0
LINE
  8
0
 10
-18.6304
 20
-15.6328
 11
-18.9004
 21
-15.3053
  0
LINE
  8
0
 10
-18.9004
 20
-15.3053
 11
-19.1647
 21
-14.973
  0
LINE
  8
0
 10
-19.1647
 20
-14.973
 11
-19.423
 21
-14.6363
  0
LINE
  8
0
 10
-19.423
 20
-14.6363
 11
-19.6755
 21
-14.2951
  0
LINE
  8
0
 10
-19.6755
 20
-14.2951
 11
-19.9221
 21
-13.9495
  0
LINE
  8
0
 10
-19.9221
 20
-13.9495
 11
-20.0246
 21
-13.8017
  0
LINE
  8
0
 10
-20.0246
 20
-13.8017
 11
-20.0031
 21
-13.7745
  0
LINE
  8
0
 10
-20.0031
 20
-13.7745
 11
-19.9489
 21
-13.7592
  0
LINE
  8
0
 10
-19.9489
 20
-13.7592
 11
-19.914
 21
-13.715
  0
LINE
  8
0
 10
-19.914
 20
-13.715
 11
-19.8597
 21
-13.6997
  0
LINE
  8
0
 10
-19.8597
 20
-13.6997
 11
-19.8248
 21
-13.6554
  0
LINE
  8
0
 10
-19.8248
 20
-13.6554
 11
-19.7706
 21
-13.6401
  0
LINE
  8
0
 10
-19.7706
 20
-13.6401
 11
-19.7357
 21
-13.5958
  0
LINE
  8
0
 10
-19.7357
 20
-13.5958
 11
-19.6814
 21
-13.5805
  0
LINE
  8
0
 10
-19.6814
 20
-13.5805
 11
-19.6465
 21
-13.5363
  0
LINE
  8
0
 10
-19.6465
 20
-13.5363
 11
-19.5923
 21
-13.521
  0
LINE
  8
0
 10
-19.5923
 20
-13.521
 11
-19.5574
 21
-13.4767
  0
LINE
  8
0
 10
-19.5574
 20
-13.4767
 11
-19.5031
 21
-13.4614
  0
LINE
  8
0
 10
-19.5031
 20
-13.4614
 11
-19.4682
 21
-13.4171
  0
LINE
  8
0
 10
-19.4682
 20
-13.4171
 11
-19.414
 21
-13.4018
  0
LINE
  8
0
 10
-19.414
 20
-13.4018
 11
-19.3791
 21
-13.3576
  0
LINE
  8
0
 10
-19.3791
 20
-13.3576
 11
-19.3248
 21
-13.3423
  0
LINE
  8
0
 10
-19.3248
 20
-13.3423
 11
-19.2899
 21
-13.298
  0
LINE
  8
0
 10
-19.2899
 20
-13.298
 11
-19.2357
 21
-13.2827
  0
LINE
  8
0
 10
-19.2357
 20
-13.2827
 11
-19.2008
 21
-13.2384
  0
LINE
  8
0
 10
-19.2008
 20
-13.2384
 11
-19.1465
 21
-13.2231
  0
LINE
  8
0
 10
-19.1465
 20
-13.2231
 11
-19.1116
 21
-13.1789
  0
LINE
  8
0
 10
-19.1116
 20
-13.1789
 11
-19.0574
 21
-13.1636
  0
LINE
  8
0
 10
-19.0574
 20
-13.1636
 11
-19.0225
 21
-13.1193
  0
LINE
  8
0
 10
-19.0225
 20
-13.1193
 11
-18.9682
 21
-13.104
  0
LINE
  8
0
 10
-18.9682
 20
-13.104
 11
-18.9333
 21
-13.0597
  0
LINE
  8
0
 10
-18.9333
 20
-13.0597
 11
-18.8791
 21
-13.0444
  0
LINE
  8
0
 10
-18.8791
 20
-13.0444
 11
-18.8442
 21
-13.0002
  0
LINE
  8
0
 10
-18.8442
 20
-13.0002
 11
-18.8057
 21
-12.9893
  0
LINE
  8
0
 10
-18.8057
 20
-12.9893
 11
-18.6009
 21
-13.2812
  0
LINE
  8
0
 10
-18.6009
 20
-13.2812
 11
-18.3663
 21
-13.6038
  0
LINE
  8
0
 10
-18.3663
 20
-13.6038
 11
-18.126
 21
-13.9223
  0
LINE
  8
0
 10
-18.126
 20
-13.9223
 11
-17.8803
 21
-14.2365
  0
LINE
  8
0
 10
-17.8803
 20
-14.2365
 11
-17.6291
 21
-14.5464
  0
LINE
  8
0
 10
-17.6291
 20
-14.5464
 11
-17.3726
 21
-14.8518
  0
LINE
  8
0
 10
-17.3726
 20
-14.8518
 11
-17.1107
 21
-15.1528
  0
LINE
  8
0
 10
-17.1107
 20
-15.1528
 11
-16.8437
 21
-15.4491
  0
LINE
  8
0
 10
-16.8437
 20
-15.4491
 11
-16.5715
 21
-15.7407
  0
LINE
  8
0
 10
-16.5715
 20
-15.7407
 11
-16.2942
 21
-16.0275
  0
LINE
  8
0
 10
-16.2942
 20
-16.0275
 11
-16.012
 21
-16.3094
  0
LINE
  8
0
 10
-16.012
 20
-16.3094
 11
-15.7249
 21
-16.5864
  0
LINE
  8
0
 10
-15.7249
 20
-16.5864
 11
-15.4331
 21
-16.8583
  0
LINE
  8
0
 10
-15.4331
 20
-16.8583
 11
-15.1365
 21
-17.1251
  0
LINE
  8
0
 10
-15.1365
 20
-17.1251
 11
-14.8353
 21
-17.3866
  0
LINE
  8
0
 10
-14.8353
 20
-17.3866
 11
-14.5296
 21
-17.6429
  0
LINE
  8
0
 10
-14.5296
 20
-17.6429
 11
-14.2195
 21
-17.8938
  0
LINE
  8
0
 10
-14.2195
 20
-17.8938
 11
-13.9051
 21
-18.1392
  0
LINE
  8
0
 10
-13.9051
 20
-18.1392
 11
-13.5864
 21
-18.3792
  0
LINE
  8
0
 10
-13.5864
 20
-18.3792
 11
-13.2635
 21
-18.6135
  0
LINE
  8
0
 10
-13.2635
 20
-18.6135
 11
-12.9367
 21
-18.8421
  0
LINE
  8
0
 10
-12.9367
 20
-18.8421
 11
-12.6059
 21
-19.065
  0
LINE
  8
0
 10
-12.6059
 20
-19.065
 11
-12.2712
 21
-19.2821
  0
LINE
  8
0
 10
-12.2712
 20
-19.2821
 11
-11.9328
 21
-19.4933
  0
LINE
  8
0
 10
-11.9328
 20
-19.4933
 11
-11.5908
 21
-19.6986
  0
LINE
  8
0
 10
-11.5908
 20
-19.6986
 11
-11.2452
 21
-19.8979
  0
LINE
  8
0
 10
-11.2452
 20
-19.8979
 11
-10.8963
 21
-20.0911
  0
LINE
  8
0
 10
-10.8963
 20
-20.0911
 11
-10.544
 21
-20.2782
  0
LINE
  8
0
 10
-10.544
 20
-20.2782
 11
-10.1884
 21
-20.4592
  0
LINE
  8
0
 10
-10.1884
 20
-20.4592
 11
-9.82983
 21
-20.6339
  0
LINE
  8
0
 10
-9.82983
 20
-20.6339
 11
-9.46823
 21
-20.8023
  0
LINE
  8
0
 10
-9.46823
 20
-20.8023
 11
-9.10373
 21
-20.9644
  0
LINE
  8
0
 10
-9.10373
 20
-20.9644
 11
-8.73647
 21
-21.1201
  0
LINE
  8
0
 10
-8.73647
 20
-21.1201
 11
-8.36655
 21
-21.2693
  0
LINE
  8
0
 10
-8.36655
 20
-21.2693
 11
-7.99406
 21
-21.4121
  0
LINE
  8
0
 10
-7.99406
 20
-21.4121
 11
-7.61916
 21
-21.5483
  0
LINE
  8
0
 10
-7.61916
 20
-21.5483
 11
-7.24193
 21
-21.678
  0
LINE
  8
0
 10
-7.24193
 20
-21.678
 11
-6.86249
 21
-21.8011
  0
LINE
  8
0
 10
-6.86249
 20
-21.8011
 11
-6.48096
 21
-21.9176
  0
LINE
  8
0
 10
-6.48096
 20
-21.9176
 11
-6.09746
 21
-22.0273
  0
LINE
  8
0
 10
-6.09746
 20
-22.0273
 11
-5.7121
 21
-22.1304
  0
LINE
  8
0
 10
-5.7121
 20
-22.1304
 11
-5.32501
 21
-22.2267
  0
LINE
  8
0
 10
-5.32501
 20
-22.2267
 11
-4.93628
 21
-22.3163
  0
LINE
  8
0
 10
-4.93628
 20
-22.3163
 11
-4.54607
 21
-22.399
  0
LINE
  8
0
 10
-4.54607
 20
-22.399
 11
-4.15445
 21
-22.4749
  0
LINE
  8
0
 10
-4.15445
 20
-22.4749
 11
-3.76158
 21
-22.544
  0
LINE
  8
0
 10
-3.76158
 20
-22.544
 11
-3.36755
 21
-22.6062
  0
LINE
  8
0
 10
-3.36755
 20
-22.6062
 11
-2.9725
 21
-22.6616
  0
LINE
  8
0
 10
-2.9725
 20
-22.6616
 11
-2.57655
 21
-22.71
  0
LINE
  8
0
 10
-2.57655
 20
-22.71
 11
-2.17982
 21
-22.7515
  0
LINE
  8
0
 10
-2.17982
 20
-22.7515
 11
-1.78242
 21
-22.7861
  0
LINE
  8
0
 10
-1.78242
 20
-22.7861
 11
-1.38448
 21
-22.8137
  0
LINE
  8
0
 10
-1.38448
 20
-22.8137
 11
-0.986115
 21
-22.8344
  0
LINE
  8
0
 10
-0.986115
 20
-22.8344
 11
-0.587448
 21
-22.8481
  0
LINE
  8
0
 10
-0.587448
 20
-22.8481
 11
-0.188599
 21
-22.8549
  0
LINE
  8
0
 10
-0.188599
 20
-22.8549
 11
0.0107117
 21
-22.8558
  0
LINE
  8
0
 10
0.0107117
 20
-22.8558
 11
0.189972
 21
-22.7267
  0
LINE
  8
0
 10
0.189972
 20
-22.7267
 11
0.205673
 21
-22.6791
  0
LINE
  8
0
 10
0.205673
 20
-22.6791
 11
0.289124
 21
-22.6185
  0
LINE
  8
0
 10
0.289124
 20
-22.6185
 11
0.357376
 21
-22.4084
  0
LINE
  8
0
 10
0.357376
 20
-22.4084
 11
0.339966
 21
-22.3548
  0
LINE
  8
0
 10
0.339966
 20
-22.3548
 11
0.357376
 21
-22.3012
  0
LINE
  8
0
 10
0.357376
 20
-22.3012
 11
0.339966
 21
-22.2476
  0
LINE
  8
0
 10
0.339966
 20
-22.2476
 11
0.357376
 21
-22.194
  0
LINE
  8
0
 10
0.357376
 20
-22.194
 11
0.339966
 21
-22.1404
  0
LINE
  8
0
 10
0.339966
 20
-22.1404
 11
0.357376
 21
-22.0867
  0
LINE
  8
0
 10
0.357376
 20
-22.0867
 11
0.339966
 21
-22.0331
  0
LINE
  8
0
 10
0.339966
 20
-22.0331
 11
0.357376
 21
-21.9795
  0
LINE
  8
0
 10
0.357376
 20
-21.9795
 11
0.339966
 21
-21.9259
  0
LINE
  8
0
 10
0.339966
 20
-21.9259
 11
0.357376
 21
-21.8723
  0
LINE
  8
0
 10
0.357376
 20
-21.8723
 11
0.339966
 21
-21.8187
  0
LINE
  8
0
 10
0.339966
 20
-21.8187
 11
0.357376
 21
-21.7651
  0
LINE
  8
0
 10
0.357376
 20
-21.7651
 11
0.339966
 21
-21.7115
  0
LINE
  8
0
 10
0.339966
 20
-21.7115
 11
0.357376
 21
-21.6579
  0
LINE
  8
0
 10
0.357376
 20
-21.6579
 11
0.339966
 21
-21.6043
  0
LINE
  8
0
 10
0.339966
 20
-21.6043
 11
0.357376
 21
-21.5507
  0
LINE
  8
0
 10
0.357376
 20
-21.5507
 11
0.339966
 21
-21.4971
  0
LINE
  8
0
 10
0.339966
 20
-21.4971
 11
0.357376
 21
-21.4435
  0
LINE
  8
0
 10
0.357376
 20
-21.4435
 11
0.339966
 21
-21.3898
  0
LINE
  8
0
 10
0.339966
 20
-21.3898
 11
0.357376
 21
-21.3362
  0
LINE
  8
0
 10
0.357376
 20
-21.3362
 11
0.339966
 21
-21.2826
  0
LINE
  8
0
 10
0.339966
 20
-21.2826
 11
0.357376
 21
-21.229
  0
LINE
  8
0
 10
0.357376
 20
-21.229
 11
0.339966
 21
-21.1754
  0
LINE
  8
0
 10
0.339966
 20
-21.1754
 11
0.357376
 21
-21.1218
  0
LINE
  8
0
 10
0.357376
 20
-21.1218
 11
0.339966
 21
-21.0682
  0
LINE
  8
0
 10
0.339966
 20
-21.0682
 11
0.357376
 21
-21.0146
  0
LINE
  8
0
 10
0.357376
 20
-21.0146
 11
0.339966
 21
-20.961
  0
LINE
  8
0
 10
0.339966
 20
-20.961
 11
0.357376
 21
-20.9074
  0
LINE
  8
0
 10
0.357376
 20
-20.9074
 11
0.339966
 21
-20.8538
  0
LINE
  8
0
 10
0.339966
 20
-20.8538
 11
0.357376
 21
-20.8001
  0
LINE
  8
0
 10
0.357376
 20
-20.8001
 11
0.339966
 21
-20.7465
  0
LINE
  8
0
 10
0.339966
 20
-20.7465
 11
0.352432
 21
-20.7082
  0
LINE
  8
0
 10
0.352432
 20
-20.7082
 11
0.833405
 21
-20.6945
  0
LINE
  8
0
 10
0.833405
 20
-20.6945
 11
1.19446
 21
-20.6768
  0
LINE
  8
0
 10
1.19446
 20
-20.6768
 11
1.55513
 21
-20.6528
  0
LINE
  8
0
 10
1.55513
 20
-20.6528
 11
1.91534
 21
-20.6225
  0
LINE
  8
0
 10
1.91534
 20
-20.6225
 11
2.27496
 21
-20.586
  0
LINE
  8
0
 10
2.27496
 20
-20.586
 11
2.63388
 21
-20.5431
  0
LINE
  8
0
 10
2.63388
 20
-20.5431
 11
2.99202
 21
-20.494
  0
LINE
  8
0
 10
2.99202
 20
-20.494
 11
3.34923
 21
-20.4387
  0
LINE
  8
0
 10
3.34923
 20
-20.4387
 11
3.70543
 21
-20.3771
  0
LINE
  8
0
 10
3.70543
 20
-20.3771
 11
4.06049
 21
-20.3094
  0
LINE
  8
0
 10
4.06049
 20
-20.3094
 11
4.41432
 21
-20.2354
  0
LINE
  8
0
 10
4.41432
 20
-20.2354
 11
4.7668
 21
-20.1553
  0
LINE
  8
0
 10
4.7668
 20
-20.1553
 11
5.11783
 21
-20.069
  0
LINE
  8
0
 10
5.11783
 20
-20.069
 11
5.4673
 21
-19.9766
  0
LINE
  8
0
 10
5.4673
 20
-19.9766
 11
5.81511
 21
-19.8782
  0
LINE
  8
0
 10
5.81511
 20
-19.8782
 11
6.16115
 21
-19.7737
  0
LINE
  8
0
 10
6.16115
 20
-19.7737
 11
6.50531
 21
-19.6631
  0
LINE
  8
0
 10
6.50531
 20
-19.6631
 11
6.84749
 21
-19.5466
  0
LINE
  8
0
 10
6.84749
 20
-19.5466
 11
7.18758
 21
-19.4241
  0
LINE
  8
0
 10
7.18758
 20
-19.4241
 11
7.52548
 21
-19.2957
  0
LINE
  8
0
 10
7.52548
 20
-19.2957
 11
7.8611
 21
-19.1614
  0
LINE
  8
0
 10
7.8611
 20
-19.1614
 11
8.19431
 21
-19.0213
  0
LINE
  8
0
 10
8.19431
 20
-19.0213
 11
8.52504
 21
-18.8754
  0
LINE
  8
0
 10
8.52504
 20
-18.8754
 11
8.85315
 21
-18.7238
  0
LINE
  8
0
 10
8.85315
 20
-18.7238
 11
9.17857
 21
-18.5664
  0
LINE
  8
0
 10
9.17857
 20
-18.5664
 11
9.50121
 21
-18.4034
  0
LINE
  8
0
 10
9.50121
 20
-18.4034
 11
9.82095
 21
-18.2348
  0
LINE
  8
0
 10
9.82095
 20
-18.2348
 11
10.1377
 21
-18.0606
  0
LINE
  8
0
 10
10.1377
 20
-18.0606
 11
10.4514
 21
-17.8809
  0
LINE
  8
0
 10
10.4514
 20
-17.8809
 11
10.7618
 21
-17.6958
  0
LINE
  8
0
 10
10.7618
 20
-17.6958
 11
11.069
 21
-17.5053
  0
LINE
  8
0
 10
11.069
 20
-17.5053
 11
11.3728
 21
-17.3094
  0
LINE
  8
0
 10
11.3728
 20
-17.3094
 11
11.6732
 21
-17.1083
  0
LINE
  8
0
 10
11.6732
 20
-17.1083
 11
11.97
 21
-16.902
  0
LINE
  8
0
 10
11.97
 20
-16.902
 11
12.2632
 21
-16.6905
  0
LINE
  8
0
 10
12.2632
 20
-16.6905
 11
12.5526
 21
-16.4739
  0
LINE
  8
0
 10
12.5526
 20
-16.4739
 11
12.8382
 21
-16.2523
  0
LINE
  8
0
 10
12.8382
 20
-16.2523
 11
13.1199
 21
-16.0258
  0
LINE
  8
0
 10
13.1199
 20
-16.0258
 11
13.3976
 21
-15.7944
  0
LINE
  8
0
 10
13.3976
 20
-15.7944
 11
13.6712
 21
-15.5582
  0
LINE
  8
0
 10
13.6712
 20
-15.5582
 11
13.9064
 21
-15.3483
  0
LINE
  8
0
 10
13.9064
 20
-15.3483
 11
13.9482
 21
-15.3748
  0
LINE
  8
0
 10
13.9482
 20
-15.3748
 11
14.2038
 21
-15.4578
  0
LINE
  8
0
 10
14.2038
 20
-15.4578
 11
14.472
 21
-15.4747
  0
LINE
  8
0
 10
14.472
 20
-15.4747
 11
14.736
 21
-15.4244
  0
LINE
  8
0
 10
14.736
 20
-15.4244
 11
14.9792
 21
-15.3099
  0
LINE
  8
0
 10
14.9792
 20
-15.3099
 11
15.1862
 21
-15.1386
  0
LINE
  8
0
 10
15.1862
 20
-15.1386
 11
15.3442
 21
-14.9212
  0
LINE
  8
0
 10
15.3442
 20
-14.9212
 11
15.4431
 21
-14.6713
  0
LINE
  8
0
 10
15.4431
 20
-14.6713
 11
15.4768
 21
-14.4047
  0
LINE
  8
0
 10
15.4768
 20
-14.4047
 11
15.4431
 21
-14.138
  0
LINE
  8
0
 10
15.4431
 20
-14.138
 11
15.3442
 21
-13.8881
  0
LINE
  8
0
 10
15.3442
 20
-13.8881
 11
15.1862
 21
-13.6707
  0
LINE
  8
0
 10
15.1862
 20
-13.6707
 11
14.9792
 21
-13.4994
  0
LINE
  8
0
 10
14.9792
 20
-13.4994
 11
14.736
 21
-13.385
  0
LINE
  8
0
 10
14.736
 20
-13.385
 11
14.472
 21
-13.3346
  0
LINE
  8
0
 10
14.472
 20
-13.3346
 11
14.2038
 21
-13.3515
  0
LINE
  8
0
 10
14.2038
 20
-13.3515
 11
13.9482
 21
-13.4345
  0
LINE
  8
0
 10
13.9482
 20
-13.4345
 11
13.7212
 21
-13.5785
  0
LINE
  8
0
 10
13.7212
 20
-13.5785
 11
13.5373
 21
-13.7745
  0
LINE
  8
0
 10
13.5373
 20
-13.7745
 11
13.4078
 21
-14.01
  0
LINE
  8
0
 10
13.4078
 20
-14.01
 11
13.3409
 21
-14.2703
  0
LINE
  8
0
 10
13.3409
 20
-14.2703
 11
13.3409
 21
-14.539
  0
LINE
  8
0
 10
13.3409
 20
-14.539
 11
13.4078
 21
-14.7994
  0
LINE
  8
0
 10
13.4078
 20
-14.7994
 11
13.4383
 21
-14.8549
  0
LINE
  8
0
 10
13.4383
 20
-14.8549
 11
13.2077
 21
-15.0605
  0
LINE
  8
0
 10
13.2077
 20
-15.0605
 11
12.9429
 21
-15.2887
  0
LINE
  8
0
 10
12.9429
 20
-15.2887
 11
12.6741
 21
-15.5123
  0
LINE
  8
0
 10
12.6741
 20
-15.5123
 11
12.4014
 21
-15.7311
  0
LINE
  8
0
 10
12.4014
 20
-15.7311
 11
12.125
 21
-15.9452
  0
LINE
  8
0
 10
12.125
 20
-15.9452
 11
11.8449
 21
-16.1543
  0
LINE
  8
0
 10
11.8449
 20
-16.1543
 11
11.5611
 21
-16.3586
  0
LINE
  8
0
 10
11.5611
 20
-16.3586
 11
11.2739
 21
-16.5579
  0
LINE
  8
0
 10
11.2739
 20
-16.5579
 11
10.9832
 21
-16.7521
  0
LINE
  8
0
 10
10.9832
 20
-16.7521
 11
10.6891
 21
-16.9412
  0
LINE
  8
0
 10
10.6891
 20
-16.9412
 11
10.3918
 21
-17.1252
  0
LINE
  8
0
 10
10.3918
 20
-17.1252
 11
10.0914
 21
-17.304
  0
LINE
  8
0
 10
10.0914
 20
-17.304
 11
9.78783
 21
-17.4775
  0
LINE
  8
0
 10
9.78783
 20
-17.4775
 11
9.48134
 21
-17.6456
  0
LINE
  8
0
 10
9.48134
 20
-17.6456
 11
9.17191
 21
-17.8084
  0
LINE
  8
0
 10
9.17191
 20
-17.8084
 11
8.85976
 21
-17.9657
  0
LINE
  8
0
 10
8.85976
 20
-17.9657
 11
8.54488
 21
-18.1176
  0
LINE
  8
0
 10
8.54488
 20
-18.1176
 11
8.22734
 21
-18.264
  0
LINE
  8
0
 10
8.22734
 20
-18.264
 11
7.90733
 21
-18.4048
  0
LINE
  8
0
 10
7.90733
 20
-18.4048
 11
7.58492
 21
-18.54
  0
LINE
  8
0
 10
7.58492
 20
-18.54
 11
7.26021
 21
-18.6696
  0
LINE
  8
0
 10
7.26021
 20
-18.6696
 11
6.93329
 21
-18.7934
  0
LINE
  8
0
 10
6.93329
 20
-18.7934
 11
6.60417
 21
-18.9116
  0
LINE
  8
0
 10
6.60417
 20
-18.9116
 11
6.27318
 21
-19.024
  0
LINE
  8
0
 10
6.27318
 20
-19.024
 11
5.94019
 21
-19.1305
  0
LINE
  8
0
 10
5.94019
 20
-19.1305
 11
5.60544
 21
-19.2313
  0
LINE
  8
0
 10
5.60544
 20
-19.2313
 11
5.26895
 21
-19.3262
  0
LINE
  8
0
 10
5.26895
 20
-19.3262
 11
4.93079
 21
-19.4152
  0
LINE
  8
0
 10
4.93079
 20
-19.4152
 11
4.59125
 21
-19.4983
  0
LINE
  8
0
 10
4.59125
 20
-19.4983
 11
4.25029
 21
-19.5755
  0
LINE
  8
0
 10
4.25029
 20
-19.5755
 11
3.90793
 21
-19.6467
  0
LINE
  8
0
 10
3.90793
 20
-19.6467
 11
3.56451
 21
-19.7119
  0
LINE
  8
0
 10
3.56451
 20
-19.7119
 11
3.21992
 21
-19.7711
  0
LINE
  8
0
 10
3.21992
 20
-19.7711
 11
2.87436
 21
-19.8243
  0
LINE
  8
0
 10
2.87436
 20
-19.8243
 11
2.528
 21
-19.8714
  0
LINE
  8
0
 10
2.528
 20
-19.8714
 11
2.18077
 21
-19.9125
  0
LINE
  8
0
 10
2.18077
 20
-19.9125
 11
1.83289
 21
-19.9475
  0
LINE
  8
0
 10
1.83289
 20
-19.9475
 11
1.48453
 21
-19.9765
  0
LINE
  8
0
 10
1.48453
 20
-19.9765
 11
1.13559
 21
-19.9994
  0
LINE
  8
0
 10
1.13559
 20
-19.9994
 11
0.786392
 21
-20.0161
  0
LINE
  8
0
 10
0.786392
 20
-20.0161
 11
0.436951
 21
-20.0268
  0
LINE
  8
0
 10
0.436951
 20
-20.0268
 11
0.0874023
 21
-20.0314
  0
LINE
  8
0
 10
0.0874023
 20
-20.0314
 11
-0.110428
 21
-20.0314
  0
LINE
  8
0
 10
-0.110428
 20
-20.0314
 11
-0.289124
 21
-20.1612
  0
LINE
  8
0
 10
-0.289124
 20
-20.1612
 11
-0.357376
 21
-20.3713
  0
LINE
  8
0
 10
-0.357376
 20
-20.3713
 11
-0.339966
 21
-20.4249
  0
LINE
  8
0
 10
-0.339966
 20
-20.4249
 11
-0.357376
 21
-20.4785
  0
LINE
  8
0
 10
-0.357376
 20
-20.4785
 11
-0.339966
 21
-20.5321
  0
LINE
  8
0
 10
-0.339966
 20
-20.5321
 11
-0.357376
 21
-20.5857
  0
LINE
  8
0
 10
-0.357376
 20
-20.5857
 11
-0.339966
 21
-20.6393
  0
LINE
  8
0
 10
-0.339966
 20
-20.6393
 11
-0.357376
 21
-20.6929
  0
LINE
  8
0
 10
-0.357376
 20
-20.6929
 11
-0.339966
 21
-20.7465
  0
LINE
  8
0
 10
-0.339966
 20
-20.7465
 11
-0.357376
 21
-20.8001
  0
LINE
  8
0
 10
-0.357376
 20
-20.8001
 11
-0.339966
 21
-20.8538
  0
LINE
  8
0
 10
-0.339966
 20
-20.8538
 11
-0.357376
 21
-20.9074
  0
LINE
  8
0
 10
-0.357376
 20
-20.9074
 11
-0.339966
 21
-20.961
  0
LINE
  8
0
 10
-0.339966
 20
-20.961
 11
-0.357376
 21
-21.0146
  0
LINE
  8
0
 10
-0.357376
 20
-21.0146
 11
-0.339966
 21
-21.0682
  0
LINE
  8
0
 10
-0.339966
 20
-21.0682
 11
-0.357376
 21
-21.1218
  0
LINE
  8
0
 10
-0.357376
 20
-21.1218
 11
-0.339966
 21
-21.1754
  0
LINE
  8
0
 10
-0.339966
 20
-21.1754
 11
-0.357376
 21
-21.229
  0
LINE
  8
0
 10
-0.357376
 20
-21.229
 11
-0.339966
 21
-21.2826
  0
LINE
  8
0
 10
-0.339966
 20
-21.2826
 11
-0.357376
 21
-21.3362
  0
LINE
  8
0
 10
-0.357376
 20
-21.3362
 11
-0.339966
 21
-21.3898
  0
LINE
  8
0
 10
-0.339966
 20
-21.3898
 11
-0.357376
 21
-21.4435
  0
LINE
  8
0
 10
-0.357376
 20
-21.4435
 11
-0.339966
 21
-21.4971
  0
LINE
  8
0
 10
-0.339966
 20
-21.4971
 11
-0.357376
 21
-21.5507
  0
LINE
  8
0
 10
-0.357376
 20
-21.5507
 11
-0.339966
 21
-21.6043
  0
LINE
  8
0
 10
-0.339966
 20
-21.6043
 11
-0.357376
 21
-21.6579
  0
LINE
  8
0
 10
-0.357376
 20
-21.6579
 11
-0.339966
 21
-21.7115
  0
LINE
  8
0
 10
-0.339966
 20
-21.7115
 11
-0.357376
 21
-21.7651
  0
LINE
  8
0
 10
-0.357376
 20
-21.7651
 11
-0.339966
 21
-21.8187
  0
LINE
  8
0
 10
-0.339966
 20
-21.8187
 11
-0.357376
 21
-21.8723
  0
LINE
  8
0
 10
-0.357376
 20
-21.8723
 11
-0.339966
 21
-21.9259
  0
LINE
  8
0
 10
-0.339966
 20
-21.9259
 11
-0.357376
 21
-21.9795
  0
LINE
  8
0
 10
-0.357376
 20
-21.9795
 11
-0.339966
 21
-22.0331
  0
LINE
  8
0
 10
-0.339966
 20
-22.0331
 11
-0.357376
 21
-22.0867
  0
LINE
  8
0
 10
-0.357376
 20
-22.0867
 11
-0.339966
 21
-22.1404
  0
LINE
  8
0
 10
-0.339966
 20
-22.1404
 11
-0.350586
 21
-22.173
  0
LINE
  8
0
 10
-0.350586
 20
-22.173
 11
-0.580521
 21
-22.1683
  0
LINE
  8
0
 10
-0.580521
 20
-22.1683
 11
-0.967239
 21
-22.1548
  0
LINE
  8
0
 10
-0.967239
 20
-22.1548
 11
-1.35379
 21
-22.1346
  0
LINE
  8
0
 10
-1.35379
 20
-22.1346
 11
-1.7399
 21
-22.1076
  0
LINE
  8
0
 10
-1.7399
 20
-22.1076
 11
-2.12547
 21
-22.0738
  0
LINE
  8
0
 10
-2.12547
 20
-22.0738
 11
-2.51035
 21
-22.0334
  0
LINE
  8
0
 10
-2.51035
 20
-22.0334
 11
-2.89449
 21
-21.9862
  0
LINE
  8
0
 10
-2.89449
 20
-21.9862
 11
-3.27779
 21
-21.9324
  0
LINE
  8
0
 10
-3.27779
 20
-21.9324
 11
-3.66006
 21
-21.8718
  0
LINE
  8
0
 10
-3.66006
 20
-21.8718
 11
-4.04124
 21
-21.8046
  0
LINE
  8
0
 10
-4.04124
 20
-21.8046
 11
-4.42114
 21
-21.7307
  0
LINE
  8
0
 10
-4.42114
 20
-21.7307
 11
-4.7997
 21
-21.6503
  0
LINE
  8
0
 10
-4.7997
 20
-21.6503
 11
-5.17683
 21
-21.5632
  0
LINE
  8
0
 10
-5.17683
 20
-21.5632
 11
-5.55234
 21
-21.4696
  0
LINE
  8
0
 10
-5.55234
 20
-21.4696
 11
-5.92622
 21
-21.3694
  0
LINE
  8
0
 10
-5.92622
 20
-21.3694
 11
-6.29831
 21
-21.2627
  0
LINE
  8
0
 10
-6.29831
 20
-21.2627
 11
-6.66838
 21
-21.1496
  0
LINE
  8
0
 10
-6.66838
 20
-21.1496
 11
-7.03654
 21
-21.03
  0
LINE
  8
0
 10
-7.03654
 20
-21.03
 11
-7.40245
 21
-20.904
  0
LINE
  8
0
 10
-7.40245
 20
-20.904
 11
-7.76614
 21
-20.7716
  0
LINE
  8
0
 10
-7.76614
 20
-20.7716
 11
-8.12747
 21
-20.6329
  0
LINE
  8
0
 10
-8.12747
 20
-20.6329
 11
-8.48636
 21
-20.4879
  0
LINE
  8
0
 10
-8.48636
 20
-20.4879
 11
-8.84264
 21
-20.3367
  0
LINE
  8
0
 10
-8.84264
 20
-20.3367
 11
-9.19623
 21
-20.1792
  0
LINE
  8
0
 10
-9.19623
 20
-20.1792
 11
-9.54695
 21
-20.0157
  0
LINE
  8
0
 10
-9.54695
 20
-20.0157
 11
-9.89485
 21
-19.846
  0
LINE
  8
0
 10
-9.89485
 20
-19.846
 11
-10.2397
 21
-19.6703
  0
LINE
  8
0
 10
-10.2397
 20
-19.6703
 11
-10.5814
 21
-19.4886
  0
LINE
  8
0
 10
-10.5814
 20
-19.4886
 11
-10.92
 21
-19.3009
  0
LINE
  8
0
 10
-10.92
 20
-19.3009
 11
-11.2551
 21
-19.1074
  0
LINE
  8
0
 10
-11.2551
 20
-19.1074
 11
-11.5869
 21
-18.9081
  0
LINE
  8
0
 10
-11.5869
 20
-18.9081
 11
-11.9151
 21
-18.703
  0
LINE
  8
0
 10
-11.9151
 20
-18.703
 11
-12.2397
 21
-18.4922
  0
LINE
  8
0
 10
-12.2397
 20
-18.4922
 11
-12.5606
 21
-18.2757
  0
LINE
  8
0
 10
-12.5606
 20
-18.2757
 11
-12.8776
 21
-18.0538
  0
LINE
  8
0
 10
-12.8776
 20
-18.0538
 11
-13.1908
 21
-17.8263
  0
LINE
  8
0
 10
-13.1908
 20
-17.8263
 11
-13.4998
 21
-17.5934
  0
LINE
  8
0
 10
-13.4998
 20
-17.5934
 11
-13.8049
 21
-17.3551
  0
LINE
  8
0
 10
-13.8049
 20
-17.3551
 11
-14.1056
 21
-17.1115
  0
LINE
  8
0
 10
-14.1056
 20
-17.1115
 11
-14.4021
 21
-16.8627
  0
LINE
  8
0
 10
-14.4021
 20
-16.8627
 11
-14.6942
 21
-16.6088
  0
LINE
  8
0
 10
-14.6942
 20
-16.6088
 11
-14.9818
 21
-16.3498
  0
LINE
  8
0
 10
-14.9818
 20
-16.3498
 11
-15.2649
 21
-16.0859
  0
LINE
  8
0
 10
-15.2649
 20
-16.0859
 11
-15.5433
 21
-15.817
  0
LINE
  8
0
 10
-15.5433
 20
-15.817
 11
-15.817
 21
-15.5433
  0
LINE
  8
0
 10
-15.817
 20
-15.5433
 11
-16.0859
 21
-15.2649
  0
LINE
  8
0
 10
-16.0859
 20
-15.2649
 11
-16.3498
 21
-14.9818
  0
LINE
  8
0
 10
-16.3498
 20
-14.9818
 11
-16.6088
 21
-14.6942
  0
LINE
  8
0
 10
-16.6088
 20
-14.6942
 11
-16.8627
 21
-14.4021
  0
LINE
  8
0
 10
-16.8627
 20
-14.4021
 11
-17.1115
 21
-14.1056
  0
LINE
  8
0
 10
-17.1115
 20
-14.1056
 11
-17.3551
 21
-13.8049
  0
LINE
  8
0
 10
-17.3551
 20
-13.8049
 11
-17.5934
 21
-13.4998
  0
LINE
  8
0
 10
-17.5934
 20
-13.4998
 11
-17.8263
 21
-13.1908
  0
LINE
  8
0
 10
-17.8263
 20
-13.1908
 11
-18.0538
 21
-12.8776
  0
LINE
  8
0
 10
-18.0538
 20
-12.8776
 11
-18.2757
 21
-12.5606
  0
LINE
  8
0
 10
-18.2757
 20
-12.5606
 11
-18.4998
 21
-12.2283
  0
LINE
  8
0
 10
-18.4998
 20
-12.2283
 11
-18.707
 21
-12.1519
  0
LINE
  8
0
 10
-18.707
 20
-12.1519
 11
-18.9196
 21
-12.2119
  0
LINE
  8
0
 10
-18.9196
 20
-12.2119
 11
-18.9545
 21
-12.2561
  0
LINE
  8
0
 10
-18.9545
 20
-12.2561
 11
-19.0088
 21
-12.2714
  0
LINE
  8
0
 10
-19.0088
 20
-12.2714
 11
-19.0437
 21
-12.3157
  0
LINE
  8
0
 10
-19.0437
 20
-12.3157
 11
-19.0979
 21
-12.331
  0
LINE
  8
0
 10
-19.0979
 20
-12.331
 11
-19.1328
 21
-12.3752
  0
LINE
  8
0
 10
-19.1328
 20
-12.3752
 11
-19.1871
 21
-12.3905
  0
LINE
  8
0
 10
-19.1871
 20
-12.3905
 11
-19.222
 21
-12.4348
  0
LINE
  8
0
 10
-19.222
 20
-12.4348
 11
-19.2762
 21
-12.4501
  0
LINE
  8
0
 10
-19.2762
 20
-12.4501
 11
-19.3111
 21
-12.4944
  0
LINE
  8
0
 10
-19.3111
 20
-12.4944
 11
-19.3654
 21
-12.5097
  0
LINE
  8
0
 10
-19.3654
 20
-12.5097
 11
-19.4003
 21
-12.5539
  0
LINE
  8
0
 10
-19.4003
 20
-12.5539
 11
-19.4545
 21
-12.5692
  0
LINE
  8
0
 10
-19.4545
 20
-12.5692
 11
-19.4894
 21
-12.6135
  0
LINE
  8
0
 10
-19.4894
 20
-12.6135
 11
-19.5436
 21
-12.6288
  0
LINE
  8
0
 10
-19.5436
 20
-12.6288
 11
-19.5785
 21
-12.6731
  0
LINE
  8
0
 10
-19.5785
 20
-12.6731
 11
-19.6328
 21
-12.6884
  0
LINE
  8
0
 10
-19.6328
 20
-12.6884
 11
-19.6677
 21
-12.7327
  0
LINE
  8
0
 10
-19.6677
 20
-12.7327
 11
-19.7219
 21
-12.7479
  0
LINE
  8
0
 10
-19.7219
 20
-12.7479
 11
-19.7568
 21
-12.7922
  0
LINE
  8
0
 10
-19.7568
 20
-12.7922
 11
-19.8111
 21
-12.8075
  0
LINE
  8
0
 10
-19.8111
 20
-12.8075
 11
-19.846
 21
-12.8518
  0
LINE
  8
0
 10
-19.846
 20
-12.8518
 11
-19.9002
 21
-12.8671
  0
LINE
  8
0
 10
-19.9002
 20
-12.8671
 11
-19.9351
 21
-12.9113
  0
LINE
  8
0
 10
-19.9351
 20
-12.9113
 11
-19.9894
 21
-12.9267
  0
LINE
  8
0
 10
-19.9894
 20
-12.9267
 11
-20.0243
 21
-12.9709
  0
LINE
  8
0
 10
-20.0243
 20
-12.9709
 11
-20.0785
 21
-12.9862
  0
LINE
  8
0
 10
-20.0785
 20
-12.9862
 11
-20.1134
 21
-13.0305
  0
LINE
  8
0
 10
-20.1134
 20
-13.0305
 11
-20.1677
 21
-13.0458
  0
LINE
  8
0
 10
-20.1677
 20
-13.0458
 11
-20.2026
 21
-13.09
  0
LINE
  8
0
 10
-20.2026
 20
-13.09
 11
-20.2568
 21
-13.1053
  0
LINE
  8
0
 10
-20.2568
 20
-13.1053
 11
-20.2917
 21
-13.1496
  0
LINE
  8
0
 10
-20.2917
 20
-13.1496
 11
-20.346
 21
-13.1649
  0
LINE
  8
0
 10
-20.346
 20
-13.1649
 11
-20.3809
 21
-13.2092
  0
LINE
  8
0
 10
-20.3809
 20
-13.2092
 11
-20.4351
 21
-13.2245
  0
LINE
  8
0
 10
-20.4351
 20
-13.2245
 11
-20.47
 21
-13.2688
  0
LINE
  8
0
 10
-20.47
 20
-13.2688
 11
-20.5243
 21
-13.284
  0
LINE
  8
0
 10
-20.5243
 20
-13.284
 11
-20.5592
 21
-13.3283
  0
LINE
  8
0
 10
-20.5592
 20
-13.3283
 11
-20.6134
 21
-13.3436
  0
LINE
  8
0
 10
-20.6134
 20
-13.3436
 11
-20.6483
 21
-13.3879
  0
LINE
  8
0
 10
-20.6483
 20
-13.3879
 11
-20.7026
 21
-13.4032
  0
LINE
  8
0
 10
-20.7026
 20
-13.4032
 11
-20.8393
 21
-13.5766
  0
LINE
  8
0
 10
-20.8393
 20
-13.5766
 11
-20.848
 21
-13.7973
  0
LINE
  8
0
 10
-20.848
 20
-13.7973
 11
-20.6025
 21
-14.1613
  0
LINE
  8
0
 10
-20.6025
 20
-14.1613
 11
-20.3522
 21
-14.5187
  0
LINE
  8
0
 10
-20.3522
 20
-14.5187
 11
-20.0957
 21
-14.8717
  0
LINE
  8
0
 10
-20.0957
 20
-14.8717
 11
-19.8331
 21
-15.2202
  0
LINE
  8
0
 10
-19.8331
 20
-15.2202
 11
-19.5644
 21
-15.564
  0
LINE
  8
0
 10
-19.5644
 20
-15.564
 11
-19.2898
 21
-15.9031
  0
LINE
  8
0
 10
-19.2898
 20
-15.9031
 11
-19.0093
 21
-16.2373
  0
LINE
  8
0
 10
-19.0093
 20
-16.2373
 11
-18.7231
 21
-16.5666
  0
LINE
  8
0
 10
-18.7231
 20
-16.5666
 11
-18.4311
 21
-16.8908
  0
LINE
  8
0
 10
-18.4311
 20
-16.8908
 11
-18.1335
 21
-17.2099
  0
LINE
  8
0
 10
-18.1335
 20
-17.2099
 11
-17.8304
 21
-17.5238
  0
LINE
  8
0
 10
-17.8304
 20
-17.5238
 11
-17.5218
 21
-17.8323
  0
LINE
  8
0
 10
-17.5218
 20
-17.8323
 11
-17.2079
 21
-18.1354
  0
LINE
  8
0
 10
-17.2079
 20
-18.1354
 11
-16.8888
 21
-18.4329
  0
LINE
  8
0
 10
-16.8888
 20
-18.4329
 11
-16.5645
 21
-18.7249
  0
LINE
  8
0
 10
-16.5645
 20
-18.7249
 11
-16.2352
 21
-19.0111
  0
LINE
  8
0
 10
-16.2352
 20
-19.0111
 11
-15.901
 21
-19.2916
  0
LINE
  8
0
 10
-15.901
 20
-19.2916
 11
-15.5618
 21
-19.5661
  0
LINE
  8
0
 10
-15.5618
 20
-19.5661
 11
-15.218
 21
-19.8347
  0
LINE
  8
0
 10
-15.218
 20
-19.8347
 11
-14.8695
 21
-20.0973
  0
LINE
  8
0
 10
-14.8695
 20
-20.0973
 11
-14.5165
 21
-20.3538
  0
LINE
  8
0
 10
-14.5165
 20
-20.3538
 11
-14.1591
 21
-20.604
  0
LINE
  8
0
 10
-14.1591
 20
-20.604
 11
-13.7973
 21
-20.848
  0
LINE
  8
0
 10
-13.7973
 20
-20.848
 11
-13.4314
 21
-21.0856
  0
LINE
  8
0
 10
-13.4314
 20
-21.0856
 11
-13.0613
 21
-21.3168
  0
LINE
  8
0
 10
-13.0613
 20
-21.3168
 11
-12.6873
 21
-21.5415
  0
LINE
  8
0
 10
-12.6873
 20
-21.5415
 11
-12.3094
 21
-21.7597
  0
LINE
  8
0
 10
-12.3094
 20
-21.7597
 11
-11.9278
 21
-21.9712
  0
LINE
  8
0
 10
-11.9278
 20
-21.9712
 11
-11.5425
 21
-22.176
  0
LINE
  8
0
 10
-11.5425
 20
-22.176
 11
-11.1538
 21
-22.3741
  0
LINE
  8
0
 10
-11.1538
 20
-22.3741
 11
-10.7616
 21
-22.5653
  0
LINE
  8
0
 10
-10.7616
 20
-22.5653
 11
-10.3661
 21
-22.7497
  0
LINE
  8
0
 10
-10.3661
 20
-22.7497
 11
-9.9675
 21
-22.9271
  0
LINE
  8
0
 10
-9.9675
 20
-22.9271
 11
-9.56586
 21
-23.0976
  0
LINE
  8
0
 10
-9.56586
 20
-23.0976
 11
-9.16129
 21
-23.261
  0
LINE
  8
0
 10
-9.16129
 20
-23.261
 11
-8.75392
 21
-23.4174
  0
LINE
  8
0
 10
-8.75392
 20
-23.4174
 11
-8.3439
 21
-23.5666
  0
LINE
  8
0
 10
-8.3439
 20
-23.5666
 11
-7.93134
 21
-23.7086
  0
LINE
  8
0
 10
-7.93134
 20
-23.7086
 11
-7.51636
 21
-23.8434
  0
LINE
  8
0
 10
-7.51636
 20
-23.8434
 11
-7.09909
 21
-23.971
  0
LINE
  8
0
 10
-7.09909
 20
-23.971
 11
-6.67966
 21
-24.0912
  0
LINE
  8
0
 10
-6.67966
 20
-24.0912
 11
-6.25819
 21
-24.2041
  0
LINE
  8
0
 10
-6.25819
 20
-24.2041
 11
-5.83481
 21
-24.3097
  0
LINE
  8
0
 10
-5.83481
 20
-24.3097
 11
-5.40967
 21
-24.4078
  0
LINE
  8
0
 10
-5.40967
 20
-24.4078
 11
-4.98286
 21
-24.4985
  0
LINE
  8
0
 10
-4.98286
 20
-24.4985
 11
-4.55455
 21
-24.5817
  0
LINE
  8
0
 10
-4.55455
 20
-24.5817
 11
-4.12485
 21
-24.6575
  0
LINE
  8
0
 10
-4.12485
 20
-24.6575
 11
-3.69388
 21
-24.7257
  0
LINE
  8
0
 10
-3.69388
 20
-24.7257
 11
-3.2618
 21
-24.7864
  0
LINE
  8
0
 10
-3.2618
 20
-24.7864
 11
-2.82872
 21
-24.8396
  0
LINE
  8
0
 10
-2.82872
 20
-24.8396
 11
-2.39478
 21
-24.8851
  0
LINE
  8
0
 10
-2.39478
 20
-24.8851
 11
-1.96011
 21
-24.9231
  0
LINE
  8
0
 10
-1.96011
 20
-24.9231
 11
-1.52484
 21
-24.9536
  0
LINE
  8
0
 10
-1.52484
 20
-24.9536
 11
-1.08911
 21
-24.9764
  0
LINE
  8
0
 10
-1.08911
 20
-24.9764
 11
-0.653046
 21
-24.9916
  0
LINE
  8
0
 10
-0.653046
 20
-24.9916
 11
-0.219528
 21
-24.9991
  0
LINE
  8
0
 10
14.331
 20
-14.7908
 11
14.2373
 21
-14.7604
  0
LINE
  8
0
 10
14.2373
 20
-14.7604
 11
14.1541
 21
-14.7076
  0
LINE
  8
0
 10
14.1541
 20
-14.7076
 11
14.0866
 21
-14.6357
  0
LINE
  8
0
 10
14.0866
 20
-14.6357
 11
14.0391
 21
-14.5494
  0
LINE
  8
0
 10
14.0391
 20
-14.5494
 11
14.0146
 21
-14.4539
  0
LINE
  8
0
 10
14.0146
 20
-14.4539
 11
14.0146
 21
-14.3554
  0
LINE
  8
0
 10
14.0146
 20
-14.3554
 11
14.0391
 21
-14.2599
  0
LINE
  8
0
 10
14.0391
 20
-14.2599
 11
14.0866
 21
-14.1736
  0
LINE
  8
0
 10
14.0866
 20
-14.1736
 11
14.1541
 21
-14.1018
  0
LINE
  8
0
 10
14.1541
 20
-14.1018
 11
14.2373
 21
-14.049
  0
LINE
  8
0
 10
14.2373
 20
-14.049
 11
14.331
 21
-14.0185
  0
LINE
  8
0
 10
14.331
 20
-14.0185
 11
14.4294
 21
-14.0123
  0
LINE
  8
0
 10
14.4294
 20
-14.0123
 11
14.5262
 21
-14.0308
  0
LINE
  8
0
 10
14.5262
 20
-14.0308
 11
14.6153
 21
-14.0727
  0
LINE
  8
0
 10
14.6153
 20
-14.0727
 11
14.6912
 21
-14.1355
  0
LINE
  8
0
 10
14.6912
 20
-14.1355
 11
14.7492
 21
-14.2153
  0
LINE
  8
0
 10
14.7492
 20
-14.2153
 11
14.7854
 21
-14.3069
  0
LINE
  8
0
 10
14.7854
 20
-14.3069
 11
14.7978
 21
-14.4047
  0
LINE
  8
0
 10
14.7978
 20
-14.4047
 11
14.7854
 21
-14.5024
  0
LINE
  8
0
 10
14.7854
 20
-14.5024
 11
14.7492
 21
-14.5941
  0
LINE
  8
0
 10
14.7492
 20
-14.5941
 11
14.6912
 21
-14.6738
  0
LINE
  8
0
 10
14.6912
 20
-14.6738
 11
14.6153
 21
-14.7366
  0
LINE
  8
0
 10
14.6153
 20
-14.7366
 11
14.5262
 21
-14.7785
  0
LINE
  8
0
 10
14.5262
 20
-14.7785
 11
14.4294
 21
-14.797
  0
LINE
  8
0
 10
14.4294
 20
-14.797
 11
14.331
 21
-14.7908
  0
ENDSEC
  0
SECTION
  2
OBJECTS
  0
DICTIONARY
  0
ENDSEC
  0
EOF
