<?xml version="1.0" encoding="UTF-8" standalone="no"?>
<svg
   xmlns:svg="http://www.w3.org/2000/svg"
   xmlns="http://www.w3.org/2000/svg"
   id="svg5876"
   version="1.1"
   height="189.97539"
   width="189.97597">
  <g
     transform="translate(94.988548,-1027.5291)"
     id="g_logo">
    <g
       id="g_circtuit">
      <path
         id="p_circuit_07"
         style="fill:none;stroke:#000000"
         d="m 46.645418,1053.1071 -0.314456,-0.1995 -0.254741,-0.2718 -0.179527,-0.3262 -0.0926,-0.3609 v -0.3723 l 0.0926,-0.3609 0.179526,-0.3262 0.254741,-0.2717 0.314456,-0.1996 0.354142,-0.1149 0.371906,-0.023 0.365858,0.07 0.337134,0.1582 0.286866,0.2374 0.218834,0.3016 0.137197,0.3462 0.04649,0.3693 -0.04649,0.3696 -0.137196,0.3462 -0.218834,0.3016 -0.286866,0.2374 -0.337134,0.1583 -0.365858,0.07 -0.371905,-0.023 z m -47.738169,-24.5842 -0.25796,0.7937 0.065801,0.2026 -0.065801,0.203 0.065801,0.2026 -0.065801,0.2025 0.065801,0.2026 -0.065801,0.2026 0.065801,0.2026 -0.065801,0.2026 0.065801,0.2026 -0.065801,0.2025 0.065801,0.2026 -0.065801,0.2026 0.065801,0.2026 -0.065801,0.2029 0.065801,0.2026 -0.065801,0.2026 0.065801,0.2026 -0.065801,0.2026 0.065801,0.2026 -0.065801,0.2025 0.065801,0.2026 -0.065801,0.2026 0.065801,0.2026 -0.065801,0.2026 0.065801,0.2029 -0.065801,0.2026 0.065801,0.2026 -0.065801,0.2026 0.065801,0.2026 -0.065801,0.2026 0.065801,0.2025 -0.065801,0.2026 0.065801,0.2026 -0.065801,0.2026 0.065801,0.2026 -0.065801,0.2025 0.065801,0.2026 -0.065801,0.203 0.065801,0.2026 -0.065801,0.2026 0.25796,0.7937 0.675386,0.4909 1.14898,10e-4 1.462481,0.027 1.461611,0.051 1.460981,0.076 1.459313,0.1022 1.457272,0.1278 1.454665,0.1526 1.451868,0.1784 1.448693,0.2034 1.4448,0.229 1.44068,0.254 1.435842,0.2793 1.430778,0.3039 1.425374,0.3292 1.41925,0.3537 1.41309,0.3787 1.406324,0.4033 1.39869,0.4275 1.391471,0.452 1.382967,0.4762 1.374576,0.5005 1.365657,0.5242 1.356434,0.548 1.346571,0.5715 1.336403,0.5952 1.325556,0.618 1.314897,0.6414 1.30337,0.664 1.291465,0.6868 1.279748,0.7094 1.26652,0.7313 0.835275,0.4993 -0.116409,0.4532 v 1.0155 l 0.252472,0.9839 0.489449,0.89 0.695433,0.7408 0.857575,0.5443 0.966047,0.3137 1.013669,0.064 0.997796,-0.1905 0.919181,-0.4324 0.78274,-0.6475 0.597165,-0.8216 0.373796,-0.9445 0.12737,-1.008 -0.12737,-1.0076 -0.373796,-0.9446 -0.597165,-0.8216 -0.78274,-0.6475 -0.919181,-0.4327 -0.997796,-0.1901 -1.013669,0.064 -0.966047,0.3137 -0.823559,0.5227 -0.921449,-0.5507 -1.306205,-0.7533 -1.318677,-0.7302 -1.331527,-0.7071 -1.344,-0.6841 -1.355226,-0.6603 -1.366677,-0.6365 -1.377638,-0.6126 -1.388069,-0.5885 -1.398123,-0.5639 -1.407836,-0.5397 -1.416945,-0.5148 -1.425751,-0.4902 -1.434104,-0.4653 -1.442003,-0.4403 -1.449449,-0.4146 -1.456479,-0.3897 -1.463017,-0.3639 -1.469216,-0.3387 -1.474809,-0.3126 -1.480139,-0.2868 -1.484863,-0.2612 -1.489247,-0.2351 -1.493102,-0.2094 -1.496504,-0.1829 -1.499452,-0.1568 -1.501984,-0.1308 -1.504026,-0.1043 -1.505631,-0.078 -1.506773,-0.052 -0.888711,-0.018 -0.046654,-0.1437 0.065801,-0.2026 -0.065801,-0.2026 0.065801,-0.2025 -0.065801,-0.2026 0.065801,-0.2026 -0.065801,-0.2026 0.065801,-0.2026 -0.065801,-0.2026 0.065801,-0.2029 -0.065801,-0.2026 0.065801,-0.2026 -0.065801,-0.2026 0.065801,-0.2026 -0.065801,-0.2025 0.065801,-0.2026 -0.065801,-0.2026 0.065801,-0.2026 -0.065801,-0.2026 0.065801,-0.2026 -0.065801,-0.2029 0.065801,-0.2026 -0.065801,-0.2026 0.065801,-0.2026 -0.065801,-0.2025 0.065801,-0.2026 -0.065801,-0.2026 0.040426,-0.1248 1.481915,0.033 1.602965,0.063 1.601689,0.091 1.599987,0.1186 1.597077,0.1471 1.595074,0.1746 1.591257,0.2022 1.587666,0.2305 1.583546,0.2578 1.578369,0.2853 1.573757,0.313 1.567673,0.3405 1.561701,0.3678 1.554784,0.3949 1.547868,0.4218 1.540044,0.449 1.532031,0.4755 1.52349,0.5027 1.51491,0.5287 1.504819,0.5552 1.495446,0.5817 1.484863,0.6074 1.473864,0.6331 1.46264,0.6591 1.45096,0.6841 1.438866,0.7098 1.426394,0.7344 1.413165,0.7593 1.399937,0.7842 1.385575,0.8081 1.371591,0.8322 1.356472,0.8561 1.342111,0.8795 1.325858,0.9029 1.309984,0.926 1.293732,0.9487 1.277103,0.9709 1.259716,0.9933 1.242331,1.0148 1.224567,1.0367 1.206425,1.0579 1.187528,1.0787 1.168252,1.0991 1.149354,1.1195 1.129323,1.1391 1.109291,1.1592 1.08926,1.1781 1.067716,1.1966 1.047308,1.2155 1.025763,1.2332 1.004221,1.2514 0.982299,1.2681 0.96,1.2858 0.936945,1.3016 0.914646,1.3183 0.891212,1.3342 0.86778,1.3489 0.844346,1.3644 0.820158,1.3788 0.796346,1.3927 0.771402,1.4064 0.746834,1.4196 0.722268,1.4328 0.696945,1.4449 0.671622,1.4571 0.646299,1.4682 0.626646,1.4947 0.711685,0.4362 0.832252,-0.065 0.63496,-0.5421 0.194646,-0.8118 -0.641764,-1.5303 -0.664063,-1.5096 -0.690519,-1.4975 -0.716599,-1.4853 -0.742299,-1.4725 -0.768,-1.4593 -0.793323,-1.446 -0.818268,-1.4317 -0.843212,-1.4174 -0.868158,-1.4022 -0.891968,-1.3867 -0.916536,-1.3712 -0.939968,-1.3549 -0.963402,-1.3384 -0.986834,-1.3213 -1.00989,-1.3039 -1.032189,-1.2862 -1.054488,-1.2677 -1.07641,-1.2491 -1.09833,-1.2306 -1.119496,-1.2106 -1.140284,-1.1913 -1.161071,-1.1713 -1.18148,-1.1505 -1.201134,-1.13 -1.220787,-1.1086 -1.240063,-1.0873 -1.258583,-1.0655 -1.277102,-1.0431 -1.295244,-1.0213 -1.31263,-0.9978 -1.330016,-0.9751 -1.347024,-0.9517 -1.362897,-0.9282 -1.37915,-0.9041 -1.395024,-0.8799 -1.409763,-0.8553 -1.424504,-0.8307 -1.438866,-0.8058 -1.452851,-0.7805 -1.466079,-0.7551 -1.479307,-0.7291 -1.491401,-0.7034 -1.503874,-0.6773 -1.515099,-0.6508 -1.526287,-0.6244 -1.537058,-0.5979 -1.547188,-0.5707 -1.556976,-0.5435 -1.566161,-0.5163 -1.575004,-0.489 -1.583245,-0.4612 -1.591067,-0.4338 -1.5984,-0.406 -1.605241,-0.3779 -1.611591,-0.3496 -1.617449,-0.3217 -1.622815,-0.2932 -1.627654,-0.265 -1.632075,-0.2366 -1.635969,-0.2082 -1.639294,-0.1796 -1.642243,-0.1508 -1.644548,-0.1221 -1.646513,-0.093 -1.647818,-0.065 -1.648698,-0.036 -1.648989,-0.01 z"/>
      <path
         id="p_circuit_06"
         style="fill:none;stroke:#000000"
         d="m -14.224554,1196.7794 0.286979,0.2373 0.21891,0.3016 0.137084,0.3462 0.04672,0.3693 -0.04672,0.3696 -0.137081,0.3462 -0.21891,0.3016 -0.286979,0.2374 -0.337021,0.1584 -0.365858,0.07 -0.371715,-0.024 -0.354215,-0.1149 -0.314457,-0.1995 -0.254967,-0.2718 -0.179414,-0.3261 -0.09264,-0.361 v -0.3723 l 0.09264,-0.3609 0.179412,-0.3262 0.254967,-0.2717 0.314457,-0.1996 0.354217,-0.1149 0.371717,-0.023 0.365858,0.07 z m 1.375207,4.6769 0.782627,-0.6474 0.597089,-0.8217 0.373909,-0.9445 0.12737,-1.008 -0.12737,-1.0076 -0.373909,-0.9445 -0.597089,-0.8217 -0.782627,-0.6474 -0.919106,-0.4328 -0.997795,-0.1901 -1.013783,0.064 -0.966047,0.3136 -0.857613,0.5442 -0.695395,0.7404 -0.160441,0.292 -0.816416,-0.21 -1.27457,-0.3473 -1.268787,-0.3697 -1.26172,-0.3919 -1.255067,-0.4138 -1.247433,-0.4358 -1.239685,-0.4573 -1.231711,-0.4789 -1.22279,-0.5004 -1.214098,-0.5216 -1.204687,-0.5427 -1.195124,-0.5636 -1.185335,-0.5843 -1.174602,-0.6051 -1.164019,-0.6255 -1.15302,-0.6455 -1.141304,-0.666 -1.129701,-0.6852 -1.117606,-0.7053 -1.104756,-0.7245 -1.092284,-0.7434 -1.079055,-0.7628 -1.065449,-0.7812 -1.05222,-0.8001 -1.037858,-0.8179 -1.023119,-0.836 -1.008377,-0.8538 -0.993638,-0.8712 -0.978142,-0.8886 -0.962268,-0.9052 -0.946771,-0.9222 -0.929764,-0.9384 -0.91389,-0.9544 -0.89726,-0.9705 -0.879496,-0.9857 -0.862488,-1.0009 -0.845102,-1.0159 -0.826961,-1.0307 -0.809197,-1.0446 -0.790299,-1.0587 -0.772158,-1.0726 -0.753259,-1.0855 -0.733985,-1.0987 -0.714708,-1.1116 -0.695433,-1.1236 -0.67578,-1.1354 -0.655748,-1.1473 -0.635338,-1.1584 -0.615308,-1.1695 -0.594519,-1.1798 -0.574111,-1.1901 -0.553322,-1.2002 -0.532158,-1.2094 -0.544252,-1.299 -0.712063,-0.4362 -0.832252,0.066 -0.161764,0.138 -0.212409,0.017 -0.162142,0.1382 -0.212409,0.017 -0.161764,0.1382 -0.212409,0.017 -0.162142,0.1382 -0.21241,0.017 -0.162141,0.1381 -0.21241,0.017 -0.161764,0.1382 -0.212409,0.017 -0.162142,0.1382 -0.212409,0.017 -0.161764,0.1383 -0.212409,0.017 -0.162142,0.1382 -0.21241,0.017 -0.161763,0.1383 -0.21241,0.017 -0.162142,0.1383 -0.212409,0.017 -0.161764,0.1383 -0.212409,0.017 -0.162142,0.1382 -0.212409,0.017 -0.162142,0.1383 -0.212032,0.017 -0.162141,0.1382 -0.21241,0.017 -0.162142,0.1382 -0.212409,0.017 -0.161764,0.1382 -0.212409,0.017 -0.162142,0.1383 -0.212409,0.017 -0.161764,0.1383 -0.21241,0.017 -0.162141,0.1383 -0.21241,0.017 -0.162142,0.1382 -0.212409,0.017 -0.161764,0.1383 -0.212409,0.017 -0.162142,0.1383 -0.212409,0.017 -0.161764,0.1382 -0.21241,0.017 -0.162141,0.1382 -0.21241,0.017 -0.161764,0.1382 -0.212409,0.017 -0.162142,0.1383 -0.212409,0.017 -0.161764,0.1383 -0.212409,0.017 -0.162142,0.1383 -0.21241,0.017 -0.161763,0.1382 -0.21241,0.017 -0.162142,0.1383 -0.212409,0.017 -0.162142,0.1383 -0.212409,0.017 -0.161764,0.1383 -0.212409,0.017 -0.162142,0.1382 -0.21241,0.017 -0.161763,0.1383 -0.21241,0.017 -0.162142,0.1383 -0.212409,0.017 -0.161764,0.1382 -0.130394,0.01 -0.394204,-1.0065 -0.561638,-1.5027 -0.535559,-1.5123 -0.509102,-1.5214 -0.482268,-1.53 -0.455811,-1.5381 -0.428599,-1.5461 -0.401763,-1.5531 -0.374552,-1.5599 -0.34696,-1.5662 -0.320126,-1.5721 -0.292158,-1.5775 -0.264945,-1.5822 -0.236976,-1.5867 -0.209386,-1.5904 -0.181795,-1.5943 -0.153827,-1.5965 -0.12548,-1.5994 -0.09827,-1.6013 -0.06992,-1.6027 -0.04195,-1.604 -0.01398,-1.604 0.01398,-1.6041 0.04195,-1.6039 0.06992,-1.6027 0.09827,-1.6014 0.125479,-1.5993 0.153827,-1.5966 0.181795,-1.5942 0.209386,-1.5905 0.236976,-1.5866 0.264945,-1.5822 0.292158,-1.5775 0.320126,-1.5721 0.34696,-1.5662 0.374552,-1.5599 0.401763,-1.5531 0.428599,-1.5461 0.455811,-1.5381 0.482268,-1.5301 0.509102,-1.5213 0.535559,-1.5124 0.561638,-1.5026 0.588094,-1.4926 0.614173,-1.4823 0.639497,-1.4712 0.665196,-1.4598 0.69052,-1.4475 0.715843,-1.4362 0.740787,-1.4226 0.765732,-1.4102 0.789922,-1.3961 0.81411,-1.3822 0.838299,-1.3682 0.795969,-1.2503 0.125858,0.036 0.131905,0.1672 0.205229,0.058 0.131905,0.1673 0.204851,0.058 0.131905,0.167 0.205228,0.058 0.131906,0.1674 0.20485,0.058 0.131906,0.167 0.205228,0.058 0.131906,0.1671 0.20485,0.058 0.131906,0.1674 0.205228,0.058 0.131905,0.1673 0.204851,0.057 0.131905,0.1677 0.205229,0.058 0.131905,0.1674 0.204851,0.058 0.131905,0.1673 0.20485,0.058 0.131906,0.167 0.205228,0.058 0.131906,0.1674 0.20485,0.058 0.131906,0.1673 0.205228,0.058 0.131906,0.167 0.20485,0.058 0.131906,0.1674 0.205228,0.058 0.131905,0.167 0.803528,0.2267 0.783118,-0.2887 0.846992,-1.2559 0.838677,-1.1982 0.859843,-1.1837 0.880252,-1.1679 0.900661,-1.1531 0.920693,-1.1365 0.940347,-1.1206 0.959622,-1.104 0.978897,-1.087 0.997418,-1.07 1.016315,-1.0522 1.034456,-1.0345 1.052221,-1.0163 1.069984,-0.9974 1.086992,-0.9789 1.104,-0.9597 1.12063,-0.9403 1.136504,-0.9207 1.153134,-0.9007 1.167874,-0.8802 1.183748,-0.8598 1.19811,-0.8387 1.212851,-0.8183 1.226834,-0.7967 1.240441,-0.7752 1.254047,-0.7533 1.26652,-0.7313 1.279748,-0.7094 1.291465,-0.6868 1.30337,-0.664 1.314897,-0.6414 1.325556,-0.618 1.336403,-0.5952 1.346571,-0.5715 1.356434,-0.548 1.365657,-0.5242 1.374576,-0.5005 1.382967,-0.4762 1.391471,-0.452 1.39869,-0.4275 1.406324,-0.4033 1.41309,-0.3787 1.41925,-0.3537 1.425374,-0.3292 1.430778,-0.3039 0.768,-0.1531 0.566664,-0.613 0.09812,-0.8289 -0.104125,-0.1859 0.02506,-0.2117 -0.10413,-0.1859 0.0251,-0.2113 -0.10409,-0.1859 0.02502,-0.2117 -0.10409,-0.1859 0.02502,-0.2113 -0.10409,-0.186 0.02502,-0.2116 -0.10409,-0.186 0.02502,-0.2116 -0.10409,-0.1856 0.0251,-0.2117 -0.104165,-0.1859 0.0251,-0.2117 -0.10409,-0.1859 0.02502,-0.2113 -0.10409,-0.186 0.02502,-0.2116 -0.10409,-0.186 0.02502,-0.2112 -0.10409,-0.186 0.02502,-0.2116 -0.10409,-0.186 0.0251,-0.2116 -0.10413,-0.1856 0.02506,-0.2117 -0.10413,-0.1859 0.02506,-0.2117 -0.10413,-0.1859 0.02506,-0.2113 -0.10413,-0.186 0.02506,-0.2116 -0.10413,-0.186 0.02506,-0.2112 -0.10413,-0.186 0.0251,-0.2117 -0.10409,-0.1859 0.02502,-0.2117 -0.407887,-0.7283 -0.758173,-0.3495 -1.626066,0.3305 -1.610079,0.3572 -1.603464,0.3847 -1.596586,0.4131 -1.589102,0.4407 -1.581166,0.4687 -1.572812,0.4959 -1.563855,0.5234 -1.554482,0.5507 -1.544655,0.5775 -1.534337,0.6044 -1.523566,0.6311 -1.512264,0.6577 -1.500473,0.6841 -1.488756,0.7101 -1.475527,0.7359 -1.462677,0.7616 -1.449449,0.7869 -1.435087,0.8122 -1.421102,0.8368 -1.405985,0.8617 -1.390866,0.8863 -1.374992,0.9101 -1.359118,0.9343 -1.342488,0.9578 -1.32548,0.9811 -1.308473,1.0039 -1.290331,1.0265 -1.272566,1.0492 -1.254048,1.0711 -1.235149,1.0927 -1.215496,1.1142 -1.196221,1.1354 -1.176189,1.1557 -0.134173,0.824 0.375685,0.7457 0.742299,0.3821 0.825071,-0.127 1.15578,-1.1361 1.163716,-1.104 1.182992,-1.084 1.201512,-1.0632 1.219654,-1.0416 1.237795,-1.0205 1.255937,-0.9989 1.272567,-0.9763 1.289575,-0.9543 1.306204,-0.932 1.322079,-0.9086 1.337953,-0.8852 1.352693,-0.8621 1.368189,-0.8383 1.382173,-0.8141 1.396157,-0.7899 1.410142,-0.7658 1.422614,-0.7408 1.436221,-0.7158 1.447559,-0.6905 1.459767,-0.6652 1.471143,-0.6395 1.482369,-0.6142 1.492573,-0.5881 1.502627,-0.5616 1.512378,-0.5356 1.521335,-0.5091 1.530028,-0.4823 1.538155,-0.4558 1.546091,-0.4286 1.553083,-0.4017 1.559887,-0.3746 1.446803,-0.3212 0.06395,0.1141 -0.02502,0.2117 0.10409,0.1859 -0.02502,0.2117 0.10409,0.1859 -0.02502,0.2113 0.10409,0.1859 -0.02502,0.2117 0.10409,0.186 -0.02502,0.2116 0.10409,0.1856 -0.0251,0.2116 0.10409,0.186 -0.02502,0.2116 0.10409,0.1856 -0.02502,0.2117 0.10409,0.1859 -0.02502,0.2117 0.10409,0.1859 -0.02502,0.2113 0.10409,0.186 -0.0251,0.2116 0.10413,0.186 -0.02506,0.2116 0.10413,0.1856 -0.02506,0.2116 0.10413,0.186 -0.01776,0.15 -1.315504,0.293 -1.465815,0.353 -1.459426,0.3779 -1.452662,0.4037 -1.445367,0.4289 -1.437656,0.454 -1.429569,0.4792 -1.420913,0.5038 -1.411956,0.5288 -1.402507,0.5529 -1.392567,0.5779 -1.382362,0.6017 -1.371591,0.6259 -1.360441,0.6497 -1.348913,0.6735 -1.337197,0.6966 -1.324347,0.72 -1.311874,0.743 -1.298645,0.7658 -1.285418,0.7884 -1.271055,0.8107 -1.256693,0.8326 -1.24233,0.8546 -1.226835,0.8761 -1.211339,0.8976 -1.195842,0.9184 -1.179591,0.9389 -1.16296,0.9596 -1.145953,0.9796 -1.128567,0.9997 -1.111181,1.019 -1.093039,1.0382 -1.074898,1.0575 -1.056,1.0757 -1.03748,1.0942 -1.017827,1.1119 -0.998551,1.1297 -0.97852,1.1471 -0.958488,1.1637 -0.938079,1.1803 -0.917291,1.1966 -0.896126,1.2121 -0.874961,1.228 -0.291779,0.4207 -0.145512,-0.041 -0.131906,-0.1672 -0.20485,-0.058 -0.131906,-0.1673 -0.205228,-0.058 -0.131906,-0.1673 -0.20485,-0.058 -0.131905,-0.167 -0.205229,-0.058 -0.131905,-0.1673 -0.204851,-0.058 -0.131905,-0.1673 -0.205229,-0.058 -0.131905,-0.167 -0.20485,-0.058 -0.131906,-0.1673 -0.205228,-0.058 -0.131906,-0.1673 -0.20485,-0.058 -0.131906,-0.167 -0.205228,-0.058 -0.131906,-0.1673 -0.20485,-0.058 -0.131905,-0.1673 -0.205229,-0.058 -0.131905,-0.167 -0.204851,-0.058 -0.131905,-0.1673 -0.205229,-0.058 -0.131905,-0.1673 -0.20485,-0.058 -0.131906,-0.167 -0.205228,-0.058 -0.131906,-0.1674 -0.803149,-0.2265 -0.783497,0.2885 -0.915779,1.3837 -0.885921,1.3909 -0.861733,1.4063 -0.836787,1.4207 -0.811843,1.4355 -0.786897,1.4495 -0.761575,1.4626 -0.735496,1.4759 -0.710173,1.4884 -0.683717,1.5009 -0.65726,1.5124 -0.631181,1.5236 -0.604346,1.5344 -0.577512,1.5447 -0.550299,1.5545 -0.523087,1.564 -0.495874,1.5728 -0.468283,1.5812 -0.440693,1.5892 -0.412725,1.5966 -0.384756,1.6036 -0.357165,1.61 -0.328441,1.616 -0.300472,1.6216 -0.272126,1.6264 -0.24378,1.6311 -0.215055,1.635 -0.186709,1.6385 -0.157984,1.6416 -0.12926,1.644 -0.100535,1.6461 -0.07181,1.6475 -0.04309,1.6485 -0.01436,1.649 0.01436,1.6491 0.04346,1.6485 0.07181,1.6476 0.100913,1.6461 0.129638,1.644 0.157984,1.6415 0.186709,1.6385 0.215433,1.635 0.24378,1.631 0.272126,1.6265 0.30085,1.6214 0.328819,1.616 0.357165,1.6101 0.384756,1.6034 0.413102,1.5966 0.440693,1.5891 0.468662,1.5812 0.495874,1.5728 0.523464,1.5638 0.550678,1.5545 0.577511,1.5447 0.604347,1.5343 0.312189,0.7631 0.710173,0.4393 0.153449,-0.011 0.381354,0.2336 0.832252,-0.066 0.161764,-0.1381 0.212409,-0.017 0.162142,-0.1383 0.21241,-0.017 0.162141,-0.1382 0.21241,-0.017 0.161763,-0.1382 0.21241,-0.017 0.162142,-0.1382 0.212409,-0.017 0.161764,-0.1382 0.212409,-0.017 0.162142,-0.1382 0.21241,-0.017 0.161763,-0.1382 0.21241,-0.017 0.162141,-0.1381 0.21241,-0.017 0.161764,-0.1382 0.212409,-0.017 0.162142,-0.1382 0.212409,-0.017 0.162142,-0.1382 0.21241,-0.017 0.161763,-0.1382 0.21241,-0.017 0.162141,-0.1381 0.21241,-0.017 0.161764,-0.1382 0.212409,-0.017 0.162142,-0.1382 0.212409,-0.017 0.161764,-0.1382 0.21241,-0.017 0.162141,-0.1381 0.21241,-0.017 0.162141,-0.1382 0.21241,-0.017 0.161764,-0.1382 0.212409,-0.017 0.162142,-0.1382 0.212409,-0.017 0.161764,-0.1381 0.21241,-0.017 0.162141,-0.1382 0.21241,-0.017 0.161764,-0.1382 0.212409,-0.017 0.162142,-0.1383 0.212409,-0.017 0.161764,-0.1383 0.212409,-0.017 0.162142,-0.1382 0.21241,-0.017 0.161763,-0.1383 0.21241,-0.017 0.162142,-0.1383 0.212409,-0.017 0.162142,-0.1383 0.212409,-0.017 0.161764,-0.1382 0.212409,-0.017 0.162142,-0.1383 0.21241,-0.017 0.161763,-0.1383 0.21241,-0.017 0.162142,-0.1382 0.212409,-0.017 0.161764,-0.1383 0.212409,-0.017 0.162142,-0.1383 0.151937,-0.012 0.743433,1.6598 0.583937,1.2351 0.60548,1.2248 0.626646,1.2139 0.647811,1.2029 0.668976,1.1912 0.689386,1.1796 0.709796,1.1672 0.730204,1.155 0.750236,1.1418 0.76989,1.1285 0.789544,1.115 0.809196,1.1006 0.827717,1.087 0.846992,1.0719 0.865512,1.0571 0.883653,1.042 0.901796,1.0262 0.919559,1.0102 0.937323,0.9944 0.95433,0.9778 0.970961,0.9607 0.987968,0.9438 1.004221,0.9263 1.020094,0.909 1.035969,0.8905 1.051086,0.8727 1.066205,0.8541 1.081323,0.8353 1.095307,0.8164 1.109669,0.7971 1.123276,0.7778 1.136504,0.7578 1.149732,0.7378 1.162583,0.7181 1.174677,0.6973 1.18715,0.6766 1.198261,0.6561 1.209713,0.6349 1.220599,0.6138 1.231105,0.5923 1.241273,0.5707 1.251061,0.5492 1.260435,0.5268 1.269392,0.505 1.278123,0.483 1.286287,0.4603 1.294148,0.4377 1.301593,0.4154 1.308586,0.3923 1.315238,0.3696 1.474658,0.3848 v 0.095 l 0.252586,0.9837 0.489373,0.8904 0.695395,0.7404 0.857613,0.5443 0.966047,0.3137 1.013783,0.064 0.997806,-0.1899 z"/>
      <path
         id="p_circuit_05"
         style="fill:none;stroke:#000000"
         d="m 60.969827,1061.0913 0.286866,0.2374 0.218835,0.3016 0.137196,0.3462 0.04687,0.3696 -0.04687,0.3693 -0.137195,0.3462 -0.218835,0.3016 -0.286866,0.2373 -0.337134,0.1584 -0.365858,0.07 -0.371527,-0.023 -0.354141,-0.1149 -0.314834,-0.1996 -0.25474,-0.2717 -0.179528,-0.3262 -0.0926,-0.3609 v -0.3723 l 0.0926,-0.361 0.179527,-0.3261 0.25474,-0.2718 0.314834,-0.1996 0.354142,-0.1148 0.371528,-0.024 0.365858,0.07 z m -76.623188,-12.7415 -0.314457,-0.1996 -0.254967,-0.2717 -0.179414,-0.3262 -0.09264,-0.361 v -0.3722 l 0.09264,-0.361 0.179412,-0.3262 0.254967,-0.2717 0.314457,-0.1996 0.354217,-0.1149 0.371717,-0.023 0.365858,0.07 0.337021,0.1583 0.286979,0.2373 0.21891,0.3016 0.137084,0.3462 0.04672,0.3697 -0.04672,0.3692 -0.137082,0.3462 -0.21891,0.3017 -0.286979,0.2373 -0.337021,0.1584 -0.365858,0.07 -0.371715,-0.023 z m 17.304835,-1.5221 1.320722,0.041 1.319804,0.063 1.318828,0.087 1.316636,0.1092 1.314822,0.1322 1.312366,0.1554 1.309077,0.178 1.306053,0.2011 1.302388,0.2237 1.297965,0.2464 1.293959,0.2691 1.288668,0.2918 1.283301,0.3141 1.278085,0.3364 1.271773,0.3587 1.265197,0.3809 1.258545,0.4026 1.250986,0.4248 1.243918,0.4467 1.235603,0.4679 1.22725,0.4898 1.218558,0.511 1.209486,0.5322 1.200151,0.5533 1.190098,0.5741 1.17978,0.5945 1.169499,0.6154 1.158387,0.6353 1.147351,0.6557 1.13537,0.6758 1.123654,0.6955 1.111559,0.7147 1.098709,0.7339 1.08548,0.7533 1.07263,0.7722 1.058646,0.7903 1.044661,0.8092 1.030677,0.8269 1.015937,0.8451 1.000819,0.8625 0.985701,0.8795 0.970583,0.8973 0.95433,0.9139 0.938457,0.9297 0.922205,0.9468 0.905197,0.9623 0.888567,0.9781 0.871181,0.9936 0.853795,1.0084 0.836031,1.0231 0.81789,1.0379 0.800126,1.0522 0.781228,1.0655 0.762709,1.079 0.743433,1.0923 0.724536,1.1048 0.705259,1.1176 0.685229,1.1297 0.665953,1.1413 0.645543,1.153 0.625512,1.164 0.605102,1.1746 0.584315,1.1853 0.563528,1.1952 0.54274,1.2047 0.521575,1.2141 0.28611,0.6907 0.712063,0.4362 0.832252,-0.063 0.161764,-0.1368 0.212409,-0.017 0.162142,-0.1382 0.212409,-0.017 0.161764,-0.1382 0.212409,-0.017 0.162142,-0.1383 0.21241,-0.017 0.162141,-0.1383 0.21241,-0.017 0.161764,-0.1382 0.212409,-0.017 0.162142,-0.1382 0.212409,-0.017 0.161764,-0.1382 0.212409,-0.017 0.162142,-0.1383 0.21241,-0.017 0.161763,-0.1382 0.21241,-0.017 0.162142,-0.1384 0.212409,-0.017 0.161764,-0.1382 0.212409,-0.017 0.162142,-0.1382 0.212409,-0.017 0.162142,-0.1382 0.212032,-0.017 0.162141,-0.1383 0.21241,-0.017 0.162142,-0.1382 0.212409,-0.017 0.161764,-0.1383 0.212409,-0.017 0.162142,-0.1382 0.212409,-0.017 0.161764,-0.1383 0.21241,-0.017 0.162141,-0.1383 0.21241,-0.017 0.634582,-0.5421 0.195024,-0.8117 -0.614929,-1.4654 -0.607748,-1.3797 -0.631937,-1.3688 -0.65537,-1.3576 -0.679559,-1.3462 -0.702614,-1.3338 -0.72567,-1.3213 -0.748724,-1.3089 -0.771402,-1.2952 -0.794078,-1.2817 -0.816,-1.2676 -0.8383,-1.2533 -0.86022,-1.2382 -0.881386,-1.2231 -0.902551,-1.2075 -0.923717,-1.1917 -0.944126,-1.1754 -0.964535,-1.1588 -0.984567,-1.1418 -1.167874,-1.3025 0.346583,-0.8757 0.12737,-1.0076 -0.12737,-1.008 -0.373796,-0.9445 -0.597165,-0.8217 -0.78274,-0.6474 -0.918803,-0.4324 -0.997796,-0.1905 -1.014047,0.064 -0.966047,0.3136 -0.857575,0.5443 -0.695433,0.7407 -0.489071,0.8901 -0.25285,0.9838 v 1.0156 l 0.25285,0.9838 0.489071,0.8905 0.695433,0.7404 0.857575,0.5442 0.966047,0.3137 1.014047,0.064 0.997796,-0.1902 0.451653,-0.2128 0.652725,0.7219 0.964535,1.0998 0.94526,1.1165 0.925606,1.1327 0.905575,1.1486 0.885543,1.1645 0.864756,1.1796 0.844347,1.1947 0.823181,1.2091 0.802016,1.2234 0.78085,1.237 0.758551,1.2507 0.737008,1.2635 0.714709,1.2763 0.692409,1.2885 0.669732,1.3007 0.647056,1.312 0.624,1.3232 0.600944,1.3336 0.200693,0.4617 -0.09864,0.084 -0.212412,0.017 -0.161764,0.1382 -0.212409,0.017 -0.162142,0.1382 -0.212409,0.017 -0.161764,0.1381 -0.212409,0.017 -0.162142,0.1382 -0.21241,0.017 -0.161763,0.1382 -0.21241,0.017 -0.162142,0.1382 -0.212409,0.017 -0.162142,0.1382 -0.212409,0.017 -0.161764,0.1382 -0.212409,0.017 -0.162142,0.1381 -0.21241,0.017 -0.161763,0.1382 -0.21241,0.017 -0.162142,0.1382 -0.212409,0.017 -0.161764,0.1382 -0.212409,0.017 -0.162142,0.1381 -0.151937,0.012 -0.743433,-1.6598 -0.583937,-1.2351 -0.60548,-1.2248 -0.626646,-1.2139 -0.647811,-1.2029 -0.668976,-1.1913 -0.689386,-1.1796 -0.709796,-1.1671 -0.730204,-1.155 -0.750236,-1.1418 -0.76989,-1.1286 -0.789544,-1.1149 -0.809196,-1.1006 -0.827717,-1.087 -0.846992,-1.0719 -0.865512,-1.0571 -0.883653,-1.042 -0.901796,-1.0262 -0.919559,-1.0103 -0.937323,-0.9943 -0.95433,-0.9778 -0.970961,-0.9608 -0.987968,-0.9437 -1.004221,-0.9264 -1.020094,-0.909 -1.035969,-0.8904 -1.051086,-0.8727 -1.066205,-0.8542 -1.081323,-0.8352 -1.095307,-0.8164 -1.109669,-0.7971 -1.123276,-0.7779 -1.136504,-0.7578 -1.149732,-0.7377 -1.162583,-0.7181 -1.174677,-0.6973 -1.18715,-0.6766 -1.198261,-0.6561 -1.209713,-0.635 -1.220599,-0.6138 -1.231105,-0.5922 -1.241273,-0.5707 -1.251061,-0.5492 -1.260435,-0.5269 -1.269392,-0.5049 -1.278123,-0.483 -1.286287,-0.4604 -1.294148,-0.4376 -1.301593,-0.4154 -1.308586,-0.3923 -1.315238,-0.3697 -1.321549,-0.3465 -1.327408,-0.3236 -1.332775,-0.3001 -1.33784,-0.277 -1.342526,-0.2536 -1.346683,-0.2298 -1.350539,-0.2068 -1.353902,-0.1829 -1.356888,-0.1591 -1.359458,-0.1357 -1.361613,-0.1115 -1.363427,-0.088 -1.364651,-0.064 -1.365593,-0.04 -1.366109,-0.019 -1.366168,0.01 -1.365823,0.03 -1.365142,0.055 -1.363918,0.079 -1.362369,0.1024 -1.360328,0.1266 -1.357908,0.1501 -1.35515,0.1734 -0.825297,0.1182 -0.01232,-0.031 -0.59709,-0.8219 -0.782627,-0.6474 -0.919106,-0.4324 -0.997795,-0.1905 -1.013783,0.064 -0.966047,0.3136 -0.857613,0.5442 -0.695395,0.7404 -0.489373,0.8905 -0.252586,0.9838 v 1.0156 l 0.252586,0.9838 0.489373,0.8904 0.695395,0.7404 0.857613,0.5443 0.966047,0.3137 1.013783,0.064 0.997795,-0.1902 0.919106,-0.4328 0.782627,-0.6474 0.597089,-0.8217 0.373909,-0.9445 0.04963,-0.3927 0.836558,-0.119 1.310816,-0.1667 1.313385,-0.144 1.315881,-0.121 1.317959,-0.098 1.318998,-0.075 1.320435,-0.052 1.321013,-0.029 1.321414,-0.01 z"/>
      <path
         id="p_circuit_04"
         style="fill:none;stroke:#000000"
         d="m -43.408251,1059.846 -0.314457,-0.1995 -0.25474,-0.2714 -0.179527,-0.3265 -0.0926,-0.3606 v -0.3727 l 0.0926,-0.3605 0.179527,-0.3266 0.25474,-0.2714 0.314457,-0.1995 0.35452,-0.1153 0.371527,-0.023 0.365859,0.07 0.337133,0.1585 0.286867,0.2374 0.218834,0.3012 0.137197,0.3462 0.04687,0.3697 -0.04687,0.3696 -0.137195,0.3462 -0.218834,0.3012 -0.286867,0.2374 -0.337133,0.1587 -0.365859,0.07 -0.371527,-0.024 z m -1.092652,-5.0108 -0.857575,0.5442 -0.695433,0.7404 -0.489071,0.8901 -0.252851,0.9838 v 1.0159 l 0.163654,0.6373 -1.081701,0.8167 -1.076031,0.8421 -1.060914,0.861 -1.045417,0.8791 -1.030299,0.8973 -1.014425,0.9154 -0.998174,0.9327 -0.981921,0.9498 -0.965291,0.9672 -0.947906,0.9835 -0.930897,1 -0.913134,1.0163 -0.89537,1.0318 -0.876851,1.0477 -0.859086,1.0625 -0.839811,1.0775 -0.821292,1.0919 -0.802015,1.1059 -0.782363,1.1202 -0.763086,1.1331 -0.742677,1.1468 -0.723024,1.1591 -0.702614,1.1717 -0.681827,1.1841 -0.661039,1.1954 -0.640252,1.207 -0.619087,1.2179 -0.597543,1.2285 -0.576378,1.2387 -0.554457,1.2487 -0.532535,1.2581 -0.510614,1.2672 -0.488315,1.276 -0.466016,1.2843 -0.443339,1.2922 -0.421039,1.2997 -0.398362,1.3069 -0.375307,1.3137 -0.352252,1.32 -0.329197,1.3259 -0.305764,1.3315 -0.282709,1.3367 -0.259653,1.3413 -0.235843,1.3457 -0.212409,1.3496 -0.188599,1.3531 -0.165165,1.3562 -0.141732,1.3588 -0.117544,1.3611 -0.09411,1.363 -0.0703,1.3644 -0.04611,1.3655 -0.02268,1.366 0.0015,1.3662 0.02495,1.3659 0.04913,1.3654 0.07295,1.3642 0.09676,1.3628 0.120187,1.3608 0.144,1.3587 0.168189,1.3558 0.191244,1.3528 0.215055,1.3491 0.238488,1.3452 0.261166,1.3401 0.613039,0.5667 0.829228,0.098 0.728316,-0.4079 0.349606,-0.7581 -0.269105,-1.3824 -0.229795,-1.3014 -0.206362,-1.3051 -0.184063,-1.3085 -0.161008,-1.3115 -0.137953,-1.3141 -0.115275,-1.3163 -0.09222,-1.3183 -0.06916,-1.3196 -0.04611,-1.3205 -0.02306,-1.3211 v -1.3215 l 0.02306,-1.321 0.04611,-1.3206 0.06916,-1.3196 0.09222,-1.3182 0.115276,-1.3163 0.137953,-1.3141 0.161008,-1.3116 0.184063,-1.3084 0.206362,-1.3051 0.229795,-1.3014 0.252095,-1.2969 0.274771,-1.2928 0.297071,-1.2873 0.319748,-1.2821 0.342048,-1.2765 0.364346,-1.2702 0.386268,-1.2634 0.408189,-1.257 0.43011,-1.2492 0.452031,-1.2417 0.473575,-1.2335 0.495118,-1.2253 0.516284,-1.2162 0.537071,-1.207 0.558614,-1.1977 0.579401,-1.1877 0.599811,-1.1773 0.620221,-1.1666 0.64063,-1.1558 0.660661,-1.1444 0.680693,-1.1327 0.700347,-1.1207 0.719622,-1.1081 0.738897,-1.0953 0.757796,-1.0825 0.776692,-1.0688 0.795213,-1.0553 0.813354,-1.0412 0.831874,-1.0269 0.84926,-1.0126 0.867024,-0.997 0.884031,-0.9819 0.90104,-0.9665 0.918047,-0.9505 0.934304,-0.9343 0.950556,-0.9181 0.966426,-0.901 0.981921,-0.884 0.997039,-0.8671 1.012536,-0.8492 1.026897,-0.8319 1.04126,-0.8133 0.932032,-0.7034 0.656126,0.4165 0.966047,0.3141 1.013669,0.064 0.997795,-0.1905 0.919182,-0.4324 0.78274,-0.6475 0.597165,-0.822 0.373795,-0.9445 0.12737,-1.0076 -0.12737,-1.0077 -0.373795,-0.9445 -0.597165,-0.8216 -0.78274,-0.6478 -0.919182,-0.4324 -0.997795,-0.1901 -1.013669,0.063 z"/>
      <path
         id="p_circuit_03"
         style="fill:none;stroke:#000000"
         d="m -79.253287,1091.2979 -0.314457,-0.1996 -0.255118,-0.2715 -0.17915,-0.3264 -0.09298,-0.3607 v -0.3725 l 0.09298,-0.3608 0.179148,-0.3263 0.255118,-0.2715 0.314457,-0.1996 0.354141,-0.1151 0.371906,-0.023 0.365858,0.07 0.336756,0.1584 0.287244,0.2374 0.218835,0.3013 0.137197,0.3464 0.04649,0.3695 -0.04649,0.3694 -0.137196,0.3464 -0.218835,0.3013 -0.287244,0.2374 -0.336756,0.1586 -0.365858,0.07 -0.371904,-0.023 z m -1.092665,-5.0111 -0.857953,0.5443 -0.695055,0.7405 -0.489448,0.8901 -0.252473,0.9839 v 1.0157 l 0.252473,0.9839 0.489448,0.8901 0.69052,0.7353 -0.359055,1.0074 -0.48378,1.4278 -0.459212,1.4362 -0.433512,1.4439 -0.408567,1.4512 -0.383244,1.4582 -0.357543,1.4646 -0.332221,1.4706 -0.306142,1.4763 -0.280818,1.4813 -0.254363,1.486 -0.228661,1.4902 -0.202583,1.494 -0.176504,1.4973 -0.150425,1.5002 -0.123968,1.5025 -0.09789,1.5045 -0.07181,1.506 -0.04535,1.5069 -0.0189,1.5076 0.0072,1.5076 0.03363,1.5073 0.06009,1.5064 0.08617,1.5052 0.112253,1.5035 0.138709,1.5012 0.164788,1.4987 0.190866,1.4955 0.217322,1.4919 0.243024,1.488 0.268725,1.4835 0.144,0.7395 0.610393,0.5693 0.828473,0.1018 0.730202,-0.4048 0.353006,-0.7565 -0.282708,-1.4882 -0.247937,-1.4413 -0.222237,-1.446 -0.197291,-1.4494 -0.171968,-1.4528 -0.146646,-1.4552 -0.120945,-1.4578 -0.096,-1.4599 -0.06992,-1.461 -0.04498,-1.4624 -0.0189,-1.4626 0.0064,-1.4629 0.03176,-1.4623 0.05745,-1.4618 0.08315,-1.4603 0.108094,-1.4587 0.133795,-1.4568 0.159496,-1.4543 0.184441,-1.4509 0.210142,-1.4479 0.235086,-1.4438 0.260032,-1.4393 0.285732,-1.4348 0.310299,-1.4296 0.335245,-1.4239 0.360189,-1.4178 0.384377,-1.4111 0.409701,-1.4046 0.433512,-1.3967 0.458079,-1.3894 0.565039,-1.6075 0.435402,0.027 0.997795,-0.1902 0.919181,-0.4325 0.78274,-0.6475 0.596788,-0.8217 0.374173,-0.9445 0.126992,-1.0077 -0.126992,-1.0079 -0.374173,-0.9443 -0.596788,-0.8218 -0.78274,-0.6475 -0.919181,-0.4325 -0.997795,-0.1903 -1.01367,0.064 z"/>
      <path
         id="p_circuit_02"
         style="fill:none;stroke:#000000"
         d="m 15.969224,1207.3265 -0.314494,-0.1996 -0.254967,-0.2714 -0.179415,-0.3265 -0.0926,-0.3606 v -0.3726 l 0.0926,-0.3606 0.179414,-0.3266 0.254967,-0.2713 0.314494,-0.1996 0.354217,-0.1153 0.371679,-0.023 0.365858,0.07 0.337059,0.1588 0.286941,0.2373 0.218948,0.3013 0.137084,0.3462 0.04671,0.3696 -0.04671,0.3696 -0.137086,0.3462 -0.218948,0.3013 -0.286941,0.2373 -0.337059,0.1588 -0.365858,0.07 -0.371678,-0.024 z m 55.58366,-38.7841 0.286866,0.2373 0.219213,0.3013 0.136819,0.3462 0.04687,0.3696 -0.04687,0.3696 -0.136817,0.3462 -0.219213,0.3013 -0.286866,0.2373 -0.337134,0.1588 -0.365858,0.07 -0.371527,-0.024 -0.354141,-0.115 -0.314456,-0.1996 -0.255118,-0.2714 -0.179528,-0.3265 -0.0926,-0.3606 v -0.3726 l 0.0926,-0.3606 0.179527,-0.3266 0.255118,-0.2713 0.314456,-0.1996 0.354142,-0.1153 0.371528,-0.023 0.365858,0.07 z m 19.012553,-65.347 -0.211653,-0.025 -0.185953,0.104 -0.211654,-0.025 -0.185574,0.104 -0.211654,-0.025 -0.185953,0.104 -0.211653,-0.025 -0.185953,0.104 -0.211276,-0.025 -0.185952,0.104 -0.211654,-0.025 -0.185953,0.104 -0.211653,-0.025 -0.185575,0.104 -0.211653,-0.025 -0.185953,0.104 -0.211654,-0.025 -0.185575,0.104 -0.211653,-0.025 -0.185953,0.104 -0.211653,-0.025 -0.185953,0.104 -0.211276,-0.025 -0.185953,0.104 -0.211653,-0.025 -0.185953,0.104 -0.211653,-0.025 -0.185575,0.104 -0.211654,-0.025 -0.185952,0.104 -0.211654,-0.025 -0.185575,0.104 -0.211653,-0.025 -0.185953,0.104 -0.211654,-0.025 -0.185952,0.104 -0.211276,-0.025 -0.728315,0.4078 -0.349605,0.7581 0.289135,1.4867 0.253984,1.4407 0.229039,1.4448 0.203339,1.4487 0.178394,1.4518 0.152692,1.4547 0.127748,1.4573 0.102048,1.4593 0.07635,1.461 0.05102,1.4616 0.0257,1.4625 v 1.4632 l -0.0257,1.4625 -0.05102,1.4616 -0.07635,1.461 -0.102046,1.4593 -0.127748,1.4573 -0.152692,1.4546 -0.178394,1.4519 -0.203339,1.4487 -0.229039,1.4448 -0.253984,1.4407 -0.279307,1.4358 -0.303874,1.4308 -0.329197,1.4254 -0.353764,1.4192 -0.378709,1.4131 -0.403275,1.4063 -0.427465,1.3987 -0.452031,1.3915 -0.476221,1.3829 -0.500409,1.3746 -0.524221,1.3657 -0.548031,1.3564 -0.571465,1.3466 -0.595275,1.3364 -0.617953,1.3255 -0.641386,1.3149 -0.664063,1.3034 -0.68674,1.2915 -0.709418,1.2797 -0.731338,1.2665 -0.496252,0.8304 -0.709417,-0.1358 -1.014048,0.064 -0.966047,0.314 -0.857575,0.5442 -0.695055,0.7404 -0.489449,0.8901 -0.25285,0.9838 v 1.016 l 0.25285,0.9838 0.489449,0.8901 0.695055,0.7404 0.857575,0.5442 0.966047,0.3141 1.014048,0.064 0.997795,-0.1906 0.918803,-0.4324 0.78274,-0.6474 0.597166,-0.8221 0.373795,-0.9441 0.12737,-1.008 -0.12737,-1.0076 -0.373795,-0.9445 -0.41915,-0.5768 0.562772,-0.9415 0.753259,-1.3062 0.730205,-1.3186 0.70715,-1.3316 0.684094,-1.344 0.660284,-1.3552 0.636472,-1.3667 0.612662,-1.3776 0.588472,-1.3881 0.563906,-1.3981 0.539716,-1.4078 0.514772,-1.417 0.490204,-1.4257 0.46526,-1.4341 0.440315,-1.442 0.414614,-1.4495 0.38967,-1.4565 0.363968,-1.463 0.338646,-1.4692 0.312567,-1.4748 0.286866,-1.4802 0.261165,-1.4848 0.235087,-1.4893 0.209386,-1.4931 0.182929,-1.4965 0.15685,-1.4994 0.130772,-1.502 0.104315,-1.504 0.07824,-1.5057 0.05178,-1.5067 0.0257,-1.5075 -7.55e-4,-1.5076 -0.02684,-1.5074 -0.05329,-1.5067 -0.07975,-1.5056 -0.105825,-1.504 -0.132284,-1.5018 -0.157984,-1.4993 -0.184819,-1.4963 -0.21052,-1.493 -0.23622,-1.4889 -0.219214,-1.2467 0.131904,-0.074 0.211275,0.025 0.185953,-0.104 0.211654,0.025 0.185953,-0.104 0.211653,0.025 0.185575,-0.104 0.211653,0.025 0.185953,-0.104 0.211654,0.025 0.185952,-0.104 0.211276,0.025 0.185953,-0.104 0.211653,0.025 0.185953,-0.104 0.211276,0.025 0.185952,-0.104 0.211654,0.025 0.185953,-0.104 0.211653,0.025 0.185575,-0.104 0.211654,0.025 0.185952,-0.104 0.211654,0.025 0.185953,-0.104 0.211275,0.025 0.185953,-0.104 0.129638,0.015 0.19011,1.0644 0.257764,1.5835 0.230551,1.5877 0.202205,1.5912 0.174614,1.5951 0.147024,1.5971 0.118677,1.6 0.09109,1.6017 0.06312,1.6029 0.03477,1.6042 0.0072,1.604 -0.02117,1.6041 -0.04914,1.6037 -0.07672,1.6024 -0.105073,1.6009 -0.132662,1.5986 -0.16063,1.5964 -0.188598,1.5929 -0.216567,1.5896 -0.244157,1.5859 -0.271371,1.581 -0.299338,1.576 -0.326551,1.5708 -0.354142,1.5646 -0.381354,1.5584 -0.408567,1.5514 -0.435402,1.544 -0.462236,1.5362 -0.489071,1.528 -0.515905,1.5192 -0.541985,1.5098 -0.568441,1.5003 -0.594519,1.4899 -0.620221,1.4796 -0.646299,1.4683 -0.671622,1.457 -0.696945,1.445 -0.722268,1.4328 -0.746834,1.4196 -0.771402,1.4063 -0.796346,1.3928 -0.820158,1.3788 -0.844346,1.3644 -0.86778,1.3489 -0.891212,1.3341 -0.914646,1.3183 -0.936945,1.3017 -0.96,1.2858 -0.982299,1.268 -1.004221,1.2514 -1.025763,1.2333 -1.047308,1.2155 -1.067716,1.1966 -1.08926,1.1781 -1.02463,1.0711 -0.116409,-0.059 -0.09676,-0.19 -0.18973,-0.097 -0.09676,-0.1897 -0.189731,-0.097 -0.09676,-0.1898 -0.190108,-0.097 -0.09676,-0.1896 -0.18973,-0.097 -0.09676,-0.1896 -0.18973,-0.097 -0.09676,-0.1896 -0.18973,-0.097 -0.09676,-0.1896 -0.189731,-0.097 -0.09675,-0.1897 -0.189736,-0.097 -0.09676,-0.19 -0.190108,-0.096 -0.09638,-0.1903 -0.190109,-0.097 -0.09676,-0.1896 -0.18973,-0.097 -0.09676,-0.1896 -0.18973,-0.097 -0.09676,-0.1896 -0.189731,-0.097 -0.09676,-0.1897 -0.18973,-0.097 -0.09676,-0.1897 -0.18973,-0.097 -0.09676,-0.19 -0.190108,-0.096 -0.09638,-0.1903 -0.74381,-0.3791 -0.824693,0.1308 -0.81411,0.8107 -1.052221,1.0163 -1.069984,0.9974 -1.086992,0.9789 -1.104,0.9596 -1.12063,0.9404 -1.136504,0.9207 -1.153134,0.9006 -1.167874,0.8803 -1.183748,0.8598 -1.19811,0.8387 -1.212851,0.8183 -1.226834,0.7967 -1.240441,0.7752 -1.254047,0.7532 -1.26652,0.7314 -1.279748,0.7094 -1.291465,0.6867 -1.30337,0.6641 -1.314897,0.6414 -1.325556,0.6179 -1.336403,0.5953 -1.346571,0.5715 -1.356434,0.548 -1.365657,0.5242 -1.374576,0.5004 -1.382967,0.4763 -1.391471,0.452 -1.39869,0.4274 -1.406324,0.4033 -1.41309,0.3787 -0.928441,0.2336 -0.500938,-0.6894 -0.782665,-0.6474 -0.919106,-0.4324 -0.997757,-0.1905 -1.013783,0.064 -0.966047,0.314 -0.85765,0.5442 -0.695396,0.7404 -0.489335,0.8901 -0.252586,0.9838 v 1.016 l 0.252586,0.9838 0.489335,0.8901 0.695396,0.7404 0.85765,0.5442 0.966047,0.3141 1.013783,0.063 0.997757,-0.1899 0.919106,-0.4324 0.782665,-0.6478 0.597051,-0.8217 0.373947,-0.9445 0.07328,-0.5801 1.068248,-0.2688 1.456138,-0.3911 1.449033,-0.4162 1.441626,-0.4414 1.43365,-0.4664 1.42526,-0.4917 1.416529,-0.5163 1.407231,-0.5409 1.397594,-0.5654 1.387578,-0.59 1.376995,-0.6138 1.366111,-0.6379 1.354922,-0.6615 1.342867,-0.6852 1.330771,-0.7083 1.318299,-0.7317 1.305449,-0.7544 1.291843,-0.7771 1.278236,-0.7993 1.263874,-0.8217 1.249512,-0.844 1.234771,-0.8651 1.219276,-0.8867 1.20378,-0.9082 1.187527,-0.9286 1.171276,-0.9494 1.154267,-0.9695 1.137638,-0.9899 1.119874,-1.0091 1.10211,-1.0288 0.641008,-0.616 0.134552,0.069 0.09676,0.1896 0.18973,0.097 0.09676,0.1897 0.18973,0.097 0.09676,0.1897 0.18973,0.097 0.09676,0.19 0.190108,0.096 0.09638,0.1903 0.190109,0.097 0.09676,0.1896 0.189731,0.097 0.09676,0.1896 0.18973,0.097 0.09676,0.1896 0.18973,0.097 0.09676,0.1896 0.18973,0.097 0.09676,0.1896 0.18973,0.097 0.09676,0.1899 0.189731,0.097 0.09713,0.1896 0.189734,0.097 0.09676,0.1896 0.18973,0.097 0.09676,0.1896 0.18973,0.097 0.09676,0.1896 0.18973,0.097 0.09676,0.1896 0.18973,0.097 0.09676,0.1896 0.743809,0.379 0.824693,-0.1304 1.168252,-1.1788 1.140284,-1.1913 1.119496,-1.211 1.097953,-1.2302 1.076409,-1.2495 1.054488,-1.268 1.032189,-1.2862 1.009512,-1.3039 0.986457,-1.3214 0.963401,-1.3383 0.939969,-1.3553 0.916157,-1.3713 0.891969,-1.387 0.867779,-1.4022 0.843213,-1.4174 0.818268,-1.4317 0.792944,-1.446 0.768,-1.4593 0.741922,-1.4729 0.71622,-1.4853 0.69052,-1.4975 0.664063,-1.5096 0.637606,-1.5209 0.61115,-1.5317 0.584315,-1.5422 0.557102,-1.5521 0.52989,-1.5617 0.502677,-1.5706 0.475087,-1.5792 0.447496,-1.5872 0.419905,-1.5948 0.391937,-1.6019 0.363969,-1.6084 0.335622,-1.6146 0.307653,-1.6202 0.278929,-1.6254 0.250961,-1.6298 0.222236,-1.6342 0.09903,-0.8094 0.181047,-1.651 0.150803,-1.6422 0.122079,-1.6446 0.09335,-1.6465 0.06463,-1.6478 0.03591,-1.6487 0.0068,-1.649 -0.02154,-1.649 -0.05027,-1.6484 -0.07937,-1.6472 -0.108095,-1.6456 -0.13644,-1.6434 -0.165544,-1.6408 -0.19389,-1.6377 -0.222236,-1.634 -0.25096,-1.63 -0.279307,-1.6252 -0.307654,-1.6201 -0.610772,-0.5694 -0.152693,-0.019 -0.328441,-0.3035 -0.829228,-0.096 z"/>
      <path
         id="p_circuit_01"
         style="fill:none;stroke:#000000"
         d="m 70.500285,1153.3278 -0.314456,-0.1996 -0.25474,-0.2715 -0.179528,-0.3264 -0.0926,-0.3607 v -0.3725 l 0.0926,-0.3607 0.179527,-0.3264 0.25474,-0.2716 0.314456,-0.1995 0.354142,-0.1151 0.371906,-0.023 0.365858,0.07 0.336756,0.1585 0.287244,0.2374 0.218835,0.3013 0.137196,0.3463 0.04649,0.3695 -0.04649,0.3695 -0.137196,0.3463 -0.218835,0.3014 -0.287244,0.2373 -0.336756,0.1586 -0.365858,0.07 -0.371905,-0.023 z m 1.884843,2.5095 0.919173,-0.4325 0.78274,-0.6475 0.597165,-0.8218 0.373796,-0.9444 0.12737,-1.0078 -0.12737,-1.0077 -0.373796,-0.9445 -0.597165,-0.8217 -0.384379,-0.318 0.446739,-1.2831 0.426331,-1.2979 0.404032,-1.3052 0.380976,-1.312 0.357921,-1.3184 0.335244,-1.3245 0.311811,-1.3302 0.288378,-1.3354 0.265323,-1.3402 0.24189,-1.3447 0.218079,-1.3486 0.194645,-1.3522 0.171213,-1.3555 0.147401,-1.3582 0.123591,-1.3606 0.100157,-1.3626 0.07597,-1.3641 0.05216,-1.3652 0.02872,-1.3659 0.0045,-1.3661 -0.01925,-1.3661 -0.04309,-1.3655 -0.0669,-1.3646 -0.09071,-1.3632 -0.114519,-1.3614 -0.137953,-1.3592 -0.162141,-1.3565 -0.185575,-1.3536 -0.209008,-1.3501 -0.232819,-1.3463 -0.255118,-1.3412 -0.610772,-0.5693 -0.828472,-0.1017 -0.730205,0.4047 -0.352628,0.7566 0.263058,1.3835 0.223748,1.3024 0.201071,1.3061 0.178016,1.309 0.155339,1.3124 0.132283,1.3148 0.109606,1.3167 0.08655,1.3188 0.06312,1.3198 0.04044,1.3207 0.01738,1.3211 -0.006,1.3215 -0.02875,1.321 -0.05178,1.3204 -0.07483,1.319 -0.09789,1.318 -0.120945,1.3158 -0.144,1.3134 -0.166677,1.3108 -0.189733,1.3078 -0.212409,1.3039 -0.235087,1.3004 -0.257763,1.2962 -0.280441,1.2911 -0.302741,1.2862 -0.325417,1.2809 -0.347338,1.2745 -0.369638,1.2688 -0.391937,1.2617 -0.413858,1.2551 -0.379465,1.0885 -0.938835,0.059 -0.966047,0.3139 -0.857575,0.5443 -0.695433,0.7404 -0.489449,0.8902 -0.252472,0.9838 v 1.0158 l 0.252472,0.9839 0.489449,0.8901 0.695433,0.7405 0.857575,0.5442 0.966047,0.3139 1.01367,0.064 z"/>
      <path
         id="p_circtuit_00"
         style="fill:none;stroke:#000000"
         d="m 53.81027,1178.3066 -0.314457,-0.1995 -0.255118,-0.2718 -0.179528,-0.3262 -0.0926,-0.3609 v -0.3723 l 0.0926,-0.3609 0.179527,-0.3262 0.255118,-0.2714 0.314457,-0.1995 0.354141,-0.1153 0.371906,-0.023 0.365858,0.07 0.336756,0.1582 0.286866,0.2374 0.219213,0.3016 0.136819,0.3462 0.04687,0.3696 -0.04687,0.3693 -0.136817,0.3466 -0.219213,0.3012 -0.286866,0.2374 -0.336756,0.1583 -0.365858,0.07 -0.371905,-0.024 z m -53.092264,30.1103 0.059343,-0.1799 0.315405,-0.2291 0.25796,-0.7941 -0.065801,-0.2025 0.065801,-0.2026 -0.065801,-0.2026 0.065801,-0.2026 -0.065801,-0.2026 0.065801,-0.2029 -0.065801,-0.2026 0.065801,-0.2026 -0.065801,-0.2026 0.065801,-0.2026 -0.065801,-0.2025 0.065801,-0.2026 -0.065801,-0.2026 0.065801,-0.2026 -0.065801,-0.2026 0.065801,-0.2025 -0.065801,-0.2026 0.065801,-0.2026 -0.065801,-0.203 0.065801,-0.2026 -0.065801,-0.2025 0.065801,-0.2026 -0.065801,-0.2026 0.065801,-0.2026 -0.065801,-0.2026 0.065801,-0.2026 -0.065801,-0.2025 0.065801,-0.2026 -0.065801,-0.2026 0.065801,-0.203 -0.065801,-0.2025 0.047115,-0.1448 1.817851,-0.052 1.364617,-0.067 1.363163,-0.091 1.361423,-0.1144 1.359194,-0.138 1.356548,-0.1621 1.3536,-0.1856 1.350085,-0.209 1.346268,-0.2328 1.341959,-0.2559 1.33731,-0.2797 1.332208,-0.3027 1.326728,-0.3262 1.320831,-0.3492 1.314558,-0.3719 1.307867,-0.395 1.300762,-0.418 1.293279,-0.4403 1.28538,-0.463 1.277102,-0.4853 1.268485,-0.5076 1.259376,-0.5295 1.250004,-0.5514 1.2401,-0.573 1.229934,-0.5949 1.219427,-0.6161 1.208466,-0.6372 1.197166,-0.6584 1.185637,-0.6792 1.173166,-0.6996 1.161071,-0.72 1.14822,-0.7404 1.13537,-0.76 1.121764,-0.7797 1.108157,-0.7994 1.093796,-0.8187 1.079433,-0.8375 1.064693,-0.8561 1.049574,-0.8745 1.034079,-0.8928 0.888945,-0.7933 0.157984,0.1002 0.966048,0.3137 1.013669,0.064 0.997795,-0.1902 0.919181,-0.4327 0.782362,-0.6475 0.597166,-0.8216 0.373795,-0.9445 0.12737,-1.0077 -0.12737,-1.008 -0.373795,-0.9445 -0.597166,-0.8216 -0.782362,-0.6475 -0.919181,-0.4323 -0.997795,-0.1905 -1.013669,0.064 -0.966048,0.3136 -0.857952,0.5443 -0.695056,0.7408 -0.489448,0.8901 -0.252851,0.9838 v 1.0155 l 0.252851,0.9842 0.115275,0.2098 -0.871559,0.7771 -1.000819,0.8624 -1.015937,0.8452 -1.030677,0.8269 -1.044661,0.8092 -1.058646,0.7903 -1.07263,0.7722 -1.08548,0.7532 -1.098709,0.734 -1.111559,0.7147 -1.123654,0.6955 -1.13537,0.6757 -1.147351,0.6558 -1.158387,0.6353 -1.169499,0.6153 -1.17978,0.5945 -1.190098,0.5742 -1.200151,0.5533 -1.209486,0.5321 -1.218558,0.511 -1.22725,0.4899 -1.235603,0.4679 -1.243918,0.4467 -1.250986,0.4248 -1.258545,0.4025 -1.265197,0.381 -1.271773,0.3587 -1.278085,0.3364 -1.283301,0.314 -1.288668,0.2918 -1.293959,0.2691 -1.297965,0.2465 -1.302388,0.2237 -1.306053,0.2011 -1.309077,0.178 -1.312366,0.1553 -1.314822,0.1323 -1.316636,0.1096 -1.318828,0.087 -1.319804,0.063 -1.320722,0.04 -1.321129,0.017 h -0.747705 l -0.675386,0.4906 -0.25796,0.7941 0.065801,0.2026 -0.065801,0.2025 0.065801,0.2026 -0.065801,0.2026 0.065801,0.2026 -0.065801,0.2026 0.065801,0.2026 -0.065801,0.2025 0.065801,0.203 -0.065801,0.2026 0.065801,0.2026 -0.065801,0.2025 0.065801,0.2026 -0.065801,0.2026 0.065801,0.2026 -0.065801,0.2026 0.065801,0.2026 -0.065801,0.2025 0.065801,0.2026 -0.065801,0.203 0.065801,0.2026 -0.065801,0.2026 0.065801,0.2025 -0.065801,0.2026 0.065801,0.2026 -0.065801,0.2026 0.065801,0.2026 -0.065801,0.2025 0.065801,0.2026 -0.065801,0.2026 0.065801,0.2026 -0.065801,0.2026 0.065801,0.2029 -0.040138,0.1233 -0.869046,-0.018 -1.461611,-0.051 -1.460981,-0.076 -1.459313,-0.1022 -1.457272,-0.1278 -1.454665,-0.1527 -1.451868,-0.1784 -1.448693,-0.2033 -1.4448,-0.229 -1.44068,-0.254 -1.435842,-0.2793 -1.430778,-0.3039 -1.425374,-0.3292 -1.41925,-0.3538 -1.41309,-0.3787 -1.406324,-0.4033 -1.39869,-0.4274 -1.391471,-0.452 -1.382967,-0.4763 -1.374576,-0.5004 -1.365657,-0.5242 -1.356434,-0.548 -1.346571,-0.5715 -1.336403,-0.5953 -1.325556,-0.6179 -1.314897,-0.6414 -1.30337,-0.6641 -1.291465,-0.6867 -1.279748,-0.7094 -1.26652,-0.7314 -1.254047,-0.7532 -1.240441,-0.7752 -1.226834,-0.7967 -1.212851,-0.8183 -1.19811,-0.8387 -1.183748,-0.8598 -1.167874,-0.8803 -1.153134,-0.9006 -1.136504,-0.9207 -1.12063,-0.9404 -1.104,-0.9596 -1.086992,-0.9789 -1.069984,-0.9974 -1.052221,-1.0163 -1.034456,-1.0345 -1.016315,-1.0522 -0.997418,-1.07 -0.978897,-1.087 -0.959622,-1.104 -0.940347,-1.1206 -0.920693,-1.1365 -0.900661,-1.1531 -0.880252,-1.1679 -0.859843,-1.1838 -0.838677,-1.1981 -0.846992,-1.2559 -0.783118,-0.2888 -0.803528,0.2268 -0.131905,0.1671 -0.205228,0.058 -0.131906,0.1673 -0.20485,0.058 -0.131906,0.167 -0.205228,0.058 -0.131906,0.1674 -0.20485,0.058 -0.131906,0.1673 -0.205228,0.058 -0.131906,0.167 -0.20485,0.058 -0.131905,0.1674 -0.204851,0.058 -0.131905,0.1673 -0.205229,0.058 -0.131905,0.1674 -0.204851,0.057 -0.131905,0.1677 -0.205228,0.058 -0.131906,0.1673 -0.20485,0.058 -0.131906,0.167 -0.205228,0.058 -0.131906,0.1672 -0.20485,0.058 -0.131906,0.1673 -0.205228,0.058 -0.131905,0.167 -0.204851,0.058 -0.131905,0.1674 -0.205229,0.058 -0.131905,0.1673 -0.204851,0.058 -0.131905,0.1674 -0.205228,0.057 -0.131906,0.1677 -0.20485,0.058 -0.131906,0.1673 -0.205228,0.058 -0.516662,0.6553 -0.03288,0.8342 0.927873,1.3757 0.946016,1.3508 0.969449,1.3342 0.992504,1.3172 1.015559,1.2994 1.037858,1.2816 1.060158,1.2631 1.081701,1.2446 1.103622,1.2253 1.124787,1.2061 1.145575,1.1864 1.166362,1.166 1.186394,1.1455 1.206047,1.1244 1.225701,1.1037 1.244598,1.0817 1.263118,1.0601 1.282016,1.0375 1.299402,1.0152 1.317165,0.9925 1.334173,0.9694 1.350803,0.9457 1.367433,0.9222 1.38293,0.898 1.398803,0.8738 1.413543,0.8493 1.428283,0.8247 1.442268,0.7993 1.456252,0.7741 1.469103,0.7487 1.48233,0.7227 1.494803,0.6969 1.50652,0.6705 1.51801,0.6444 1.529083,0.6176 1.539666,0.5911 1.549682,0.5639 1.559282,0.5367 1.568428,0.5095 1.577084,0.4822 1.585247,0.4543 1.592957,0.4267 1.600177,0.3992 1.606828,0.3707 1.61314,0.3428 1.61881,0.3145 1.624063,0.2865 1.628863,0.2578 1.633058,0.2294 1.636838,0.201 1.640088,0.172 1.642847,0.1436 1.645115,0.1153 1.646854,0.086 1.648116,0.057 1.638493,0.029 1.659424,4e-4 1.648872,-0.029 1.648131,-0.058 1.646854,-0.086 1.645039,-0.1153 1.642847,-0.1436 1.640088,-0.1728 1.636838,-0.201 1.632983,-0.2295 1.628825,-0.2581 1.624063,-0.2865 1.618772,-0.3148 1.613102,-0.3428 1.606791,-0.3712 1.600138,-0.3991 1.592882,-0.4267 1.585209,-0.4547 1.577046,-0.4823 1.568353,-0.5098 1.559282,-0.5367 1.549606,-0.5643 1.539515,-0.5911 1.529046,-0.6176 1.517971,-0.6448 1.506444,-0.6705 1.494804,-0.6973 1.481952,-0.723 1.469481,-0.7487 1.455874,-0.7741 1.442267,-0.7997 1.428284,-0.8247 1.413543,-0.8493 1.398425,-0.8742 1.38293,-0.898 0.685606,-0.4581 0.288755,-0.7835 -0.226395,-0.8031 -0.655748,-0.5171 -0.834142,-0.033 -1.351559,0.8947 -1.352693,0.8621 -1.368189,0.8383 -1.382173,0.8141 -1.396157,0.7899 -1.410142,0.7657 -1.422614,0.7408 -1.436221,0.7159 -1.447559,0.6905 -1.459767,0.6652 -1.471143,0.6395 -1.482369,0.6142 -1.492573,0.5881 -1.502627,0.5616 -1.512378,0.5356 -1.521335,0.5091 -1.530028,0.4822 -1.538155,0.4558 -1.546091,0.4286 -1.553083,0.4018 -1.559887,0.3746 -1.566236,0.3469 -1.572095,0.3201 -1.577499,0.2922 -1.582186,0.2649 -1.586645,0.237 -1.590463,0.2094 -1.594243,0.1818 -1.59651,0.1538 -1.599383,0.1255 -1.60131,0.098 -1.602728,0.07 -1.603944,0.042 L 9.9999991e-7,1214.4402 -1.60406,1214.4262 l -1.603943,-0.042 -1.602728,-0.07 -1.60131,-0.098 -1.599383,-0.1256 -1.59651,-0.1538 -1.594243,-0.1818 -1.590463,-0.2094 -1.586645,-0.237 -1.582186,-0.2649 -1.577499,-0.2922 -1.572095,-0.3201 -1.566236,-0.3469 -1.559887,-0.3746 -1.553083,-0.4018 -1.546091,-0.4286 -1.538155,-0.4558 -1.530028,-0.4822 -1.521335,-0.5091 -1.512378,-0.5356 -1.502627,-0.5616 -1.492573,-0.5881 -1.482369,-0.6142 -1.471143,-0.6395 -1.459767,-0.6652 -1.447559,-0.6905 -1.436221,-0.7159 -1.422614,-0.7408 -1.410142,-0.7657 -1.396157,-0.7899 -1.382173,-0.8141 -1.368189,-0.8383 -1.352693,-0.8621 -1.337953,-0.8852 -1.322079,-0.9086 -1.306204,-0.932 -1.289575,-0.9544 -1.272567,-0.9762 -1.255937,-0.9989 -1.237795,-1.0205 -1.219654,-1.0416 -1.201512,-1.0632 -1.182992,-1.084 -1.163716,-1.104 -1.144441,-1.1244 -1.12441,-1.1444 -1.104,-1.1638 -1.083968,-1.183 -1.063181,-1.2015 -1.041638,-1.2196 -1.020473,-1.2378 -0.998929,-1.2559 -0.976252,-1.2726 -0.95433,-1.2896 -0.932032,-1.3062 -0.387402,-0.5586 0.08126,-0.1028 0.204851,-0.058 0.131905,-0.167 0.205229,-0.058 0.131905,-0.1674 0.20485,-0.058 0.131906,-0.1673 0.205228,-0.058 0.131906,-0.167 0.20485,-0.058 0.131906,-0.1674 0.205228,-0.058 0.131906,-0.1673 0.20485,-0.058 0.131905,-0.167 0.205229,-0.058 0.131905,-0.1674 0.204851,-0.058 0.131905,-0.1673 0.205229,-0.058 0.131905,-0.167 0.20485,-0.058 0.131906,-0.1674 0.205228,-0.058 0.131906,-0.1673 0.20485,-0.058 0.131906,-0.167 0.145512,-0.041 0.774047,1.1031 0.886677,1.2193 0.90822,1.2038 0.92863,1.1875 0.949418,1.1713 0.969449,1.1543 0.989858,1.1376 1.009134,1.1199 1.028787,1.1021 1.048063,1.084 1.066583,1.0654 1.085102,1.0469 1.102866,1.0277 1.121008,1.0084 1.138394,0.9883 1.155401,0.9687 1.172032,0.9483 1.188283,0.9275 1.204536,0.9071 1.220409,0.8855 1.23515,0.864 1.250268,0.8425 1.265007,0.8205 1.278993,0.7983 1.292598,0.7759 1.306205,0.7532 1.318677,0.7303 1.331527,0.7071 1.344,0.6841 1.355226,0.6603 1.366677,0.6365 1.377638,0.6126 1.388069,0.5885 1.398123,0.5639 1.407836,0.5397 1.416945,0.5148 1.425751,0.4902 1.434104,0.4652 1.442003,0.4404 1.449449,0.4146 1.456479,0.3896 1.463017,0.364 1.469216,0.3387 1.474809,0.3125 1.480139,0.2869 1.484863,0.2612 1.489247,0.235 1.493102,0.2094 1.496504,0.183 1.499452,0.1568 1.501984,0.1308 1.504026,0.1043 1.505631,0.078 1.506773,0.052 1.507461,0.026 h 0.7533 z"/>
    </g>
    <path
       id="p_letter_M"
       style="fill:none;stroke:#000000"
       d="m -0.693725,1167.6737 -19.671919,-57.6361 0.418469,-2.4925 19.310544,56.5781 H 2.73747 l 20.526316,-56.308 0.435326,2.9673 -20.737761,56.8912 z m 32.059419,-4.6311 H 45.273071 L 32.98662,1078.9168 H 22.588422 l -20.391213,56.3081 -21.33394,-56.3081 h -10.263156 l -13.772522,84.1258 h 13.907603 l 8.49959,-50.6251 20.011688,58.6381 h 3.938755 l 20.931825,-57.4243 z m -5.0256,-91.3738 -1.342488,3.7069 h 10.730722 l 13.310664,91.1282 H 36.095811 l 0.483137,3.2928 h 16.222564 l -14.334236,-98.1279 z m -47.266091,3.7069 -1.404699,-3.7069 h -11.970595 l -16.065827,98.1279 h 16.222601 l 0.552756,-3.2928 h -13.179515 l 14.920744,-91.1282 z"/>
  </g>
</svg>
