<?xml version="1.0" encoding="UTF-8" standalone="no"?>
<svg
   xmlns:svg="http://www.w3.org/2000/svg"
   xmlns="http://www.w3.org/2000/svg"
   width="189.97603"
   height="189.98036"
   version="1.1"
   id="SimpleLogo">
  <g
     id="g_simple_logo"
     transform="translate(94.988217,-1027.5275)">
    <g
       id="g_circuit">
      <path
         d="m 41.287181,1058.7723 0.908221,0.4274 0.773669,0.6399 0.589984,0.8122 0.36926,0.9336 0.125858,0.9959 -0.125858,0.9959 -0.36926,0.9335 -0.589984,0.8123 -0.773669,0.6398 -0.908221,0.4271 -0.986079,0.1882 -1.001952,-0.063 -0.954709,-0.31 -0.84771,-0.5382 -0.687232,-0.7317 -0.483628,-0.8795 -0.249638,-0.9725 v -1.0038 l 0.249638,-0.9725 0.483628,-0.8795 0.687232,-0.7321 0.84771,-0.5378 0.954709,-0.3103 1.001952,-0.063 z m 45.907651,30.839 0.525354,-2.1879 -0.312189,-0.7538 0.0026,-0.01 -0.318592,-0.7527 0.0019,-0.01 -0.234713,-0.5527 -0.0079,-0 -0.08241,-0.194 0.0019,-0.01 -0.239627,-0.5505 -0.0076,-0 -0.08426,-0.1933 0.0019,-0.01 -0.244541,-0.5483 -0.0076,-0 -0.08578,-0.1925 0.0019,-0.01 -0.249454,-0.5463 -0.0079,-0 -0.08733,-0.1916 0.0015,-0.01 -0.253979,-0.5441 -0.0079,-0 -0.08884,-0.1909 0.0015,-0.01 -0.258891,-0.5419 -0.0079,-0 -0.09035,-0.1901 0.0015,-0.01 -0.263805,-0.5396 -0.0079,-0 -0.09224,-0.1894 0.0015,-0.01 -0.26834,-0.5374 -0.0079,-0 -0.09375,-0.1884 0.0011,-0.01 -0.272865,-0.5351 -0.0079,-0 -0.09564,-0.1876 0.0011,-0.01 -0.2774,-0.5325 -0.0079,-0 -0.09753,-0.1869 0.0015,-0.01 -0.282325,-0.5302 -0.0083,-0 -0.09865,-0.1857 0.0011,-0.01 -0.286849,-0.5276 -0.0079,-0 -0.100551,-0.185 0.0011,-0.01 -0.291385,-0.5253 -0.0083,-0 -0.102054,-0.1841 0.0011,-0.01 -0.29592,-0.5226 -0.0083,-0 -0.103566,-0.1829 7.56e-4,-0.01 -0.300473,-0.52 -0.0083,-0 -0.105078,-0.182 7.56e-4,-0.01 -0.305008,-0.5177 -0.0083,-0 -0.106589,-0.1813 7.56e-4,-0.01 -0.309544,-0.5147 -0.0083,-0 -0.108479,-0.1799 7.56e-4,-0.01 -0.314079,-0.5119 -0.0083,-0 -0.109991,-0.1792 7.56e-4,-0.01 -0.318614,-0.5094 -0.0083,-0 -0.111504,-0.1782 7.56e-4,-0.01 -0.32315,-0.5064 -0.0083,-0 -0.113016,-0.1775 3.78e-4,-0.01 -0.327307,-0.5033 -0.0083,-0 -0.114528,-0.1763 3.78e-4,-0.01 -0.331842,-0.5006 -0.0087,-0 -0.115651,-0.1752 3.78e-4,-0.01 -0.336378,-0.4976 -0.0083,-0 -0.117551,-0.1741 v -0.01 l -0.340157,-0.495 -0.0087,-0 -0.119053,-0.1731 3.78e-4,-0.01 -0.34507,-0.4916 -0.0083,-0 -0.120575,-0.172 v -0.01 l -0.348851,-0.4889 -0.0087,-0 -0.122075,-0.1709 v -0.01 l -0.353386,-0.486 -0.0087,-0 -0.12321,-0.1695 v -0.01 l -0.357543,-0.4829 -0.0087,-0 -0.125099,-0.1684 v -0.01 l -0.361701,-0.4797 -0.0087,-0 -0.126233,-0.1672 -3.78e-4,-0.01 -0.365858,-0.4764 -0.0087,-0 -0.127745,-0.1664 -3.78e-4,-0.01 -0.370016,-0.4731 -0.0091,-0 -0.128868,-0.165 -3.78e-4,-0.01 -0.374173,-0.47 -0.0091,-0 -0.13038,-0.164 -7.55e-4,-0.01 -0.377953,-0.4667 -0.0091,-0 -0.131892,-0.1628 -7.56e-4,-0.01 -0.38211,-0.4632 -0.0087,-0 -0.133414,-0.1617 -7.56e-4,-0.01 -0.386268,-0.4599 -0.0091,-0 -0.134537,-0.1602 -0.0011,-0.01 -0.390064,-0.4568 -0.0091,-10e-4 -0.136049,-0.1593 -7.56e-4,-0.01 -0.394582,-0.453 -0.0087,-0 -0.137572,-0.1577 -0.0011,-0.01 -0.398001,-0.4497 -0.0091,-0 -0.139073,-0.1568 -7.55e-4,-0.01 -0.402142,-0.4463 -0.0091,-9e-4 -0.140206,-0.1551 -0.0011,-0.01 -0.405939,-0.443 -0.0091,-9e-4 -0.141718,-0.154 -0.0011,-0.01 -0.409717,-0.439 -0.0091,-10e-4 -0.142852,-0.1529 -0.0015,-0.01 -0.413487,-0.4353 -0.0091,-10e-4 -0.144363,-0.1517 -0.0011,-0.01 -0.417655,-0.4317 -0.0091,-10e-4 -0.145498,-0.1502 -0.0015,-0.01 -0.421045,-0.4281 -0.0091,-8e-4 -0.146631,-0.1489 -0.0019,-0.01 -0.424814,-0.4247 -0.0091,-8e-4 -0.148143,-0.1473 -0.0015,-0.01 -0.428605,-0.4209 -0.0091,-8e-4 -0.149277,-0.1462 -0.0019,-0.01 -0.432373,-0.4168 -0.0091,-8e-4 -0.150411,-0.1447 -0.0019,-0.01 -0.436153,-0.4133 -0.0091,-6e-4 -0.151545,-0.1434 -0.0019,-0.01 -0.439554,-0.4096 -0.0091,-6e-4 -0.153434,-0.1419 -0.0019,-0.01 -0.442956,-0.4054 -0.0091,-6e-4 -0.154568,-0.1408 -0.0019,-0.01 -0.446735,-0.4016 -0.0091,-6e-4 -0.155703,-0.1393 -0.0019,-0.01 -0.450137,-0.3979 -0.0091,-7e-4 -0.156836,-0.1376 -0.0023,-0.01 -0.453527,-0.3937 -0.0091,-8e-4 -0.15797,-0.1364 -0.0023,-0.01 -0.456929,-0.3897 -0.0091,-8e-4 -0.159104,-0.1349 -0.0023,-0.01 -0.460708,-0.3856 -0.0091,-7e-4 -0.160238,-0.1334 -0.0023,-0.01 -0.463732,-0.3818 -0.0091,-8e-4 -0.161749,-0.1319 -0.0023,-0.01 -0.467134,-0.3776 -0.0091,-4e-4 -0.162883,-0.1307 -0.0026,-0.01 -0.470196,-0.3735 -0.0091,-4e-4 -0.164017,-0.1293 -0.0026,-0.01 -0.473598,-0.3694 -0.0091,-3e-4 -0.164773,-0.1278 -0.0026,-0.01 -0.476999,-0.3651 -0.0091,-4e-4 -0.165907,-0.1263 -0.003,-0.01 -0.480012,-0.361 -0.0091,-4e-4 -0.167041,-0.1247 -0.003,-0.01 -0.483035,-0.3569 -0.0091,-4e-4 -0.168175,-0.1232 -0.003,-0.01 -0.486059,-0.3527 h -0.0091 l -0.169309,-0.1217 -0.003,-0.01 -0.489461,-0.3482 h -0.0091 l -0.170443,-0.1206 -0.003,-0.01 -0.492485,-0.3439 h -0.0091 l -0.171198,-0.1187 -0.0034,-0.01 -0.495119,-0.3399 -0.0091,4e-4 -0.172332,-0.1175 -0.0034,-0.01 -0.498142,-0.3353 -0.0091,4e-4 -0.173467,-0.1161 -0.0034,-0.01 -0.501167,-0.3307 -0.0091,4e-4 -0.1746,-0.1146 -0.0034,-0.01 -0.503812,-0.3268 -0.0094,4e-4 -0.175395,-0.1126 -0.0034,-0.01 -0.506835,-0.3221 -0.0091,4e-4 -0.17649,-0.1111 -0.0034,-0.01 -0.509859,-0.3176 -0.0091,4e-4 -0.177246,-0.1096 -0.0038,-0.01 -0.512494,-0.3132 -0.0091,4e-4 -0.17838,-0.1081 -0.0034,-0.01 -0.51515,-0.3086 -0.0094,7e-4 -0.179174,-0.107 -0.0038,-0.01 -0.517785,-0.3042 -0.0091,8e-4 -0.180269,-0.1051 -0.0038,-0.01 -0.520431,-0.2996 -0.0091,8e-4 -0.181024,-0.1032 -0.0038,-0.01 -0.523454,-0.2951 -0.0091,8e-4 -0.18178,-0.102 -0.0042,-0.01 -0.525333,-0.2904 -0.0091,10e-4 -0.182914,-0.1 -0.0042,-0.01 -0.527979,-0.2861 -0.0091,5e-4 -0.184048,-0.098 -0.0038,-0.01 -0.531013,-0.2812 -0.0087,5e-4 -0.184815,-0.096 -0.0042,-0.01 -0.532891,-0.2768 -0.0091,10e-4 -0.18556,-0.095 -0.0042,-0.01 -0.535538,-0.2716 -0.0091,5e-4 -0.186316,-0.093 -0.0042,-0.01 -0.537805,-0.2671 -0.0091,0 -0.187072,-0.092 -0.0045,-0.01 -0.540112,-0.2624 -0.0091,5e-4 -0.187827,-0.09 -0.0045,-0.01 -0.54238,-0.2579 -0.0091,10e-4 -0.188583,-0.088 -0.0045,-0.01 -0.544648,-0.2529 -0.0091,10e-4 -0.18934,-0.086 -0.0045,-0.01 -0.546915,-0.2482 -0.0091,0 -0.190473,-0.085 -0.0045,-0.01 -0.549183,-0.2435 -0.0087,10e-4 -0.190862,-0.083 -0.0049,-0.01 -0.551137,-0.2386 -0.0089,10e-4 -0.191669,-0.081 -0.0048,-0.01 -0.553303,-0.2336 -0.0089,10e-4 -0.192369,-0.08 -0.0048,-0.01 -0.555345,-0.2288 -0.0089,10e-4 -0.193049,-0.078 -0.0049,-0.01 -0.557298,-0.224 -0.0089,10e-4 -0.193767,-0.077 -0.005,-0.01 -0.559156,-0.2191 -0.0089,10e-4 -0.19441,-0.075 -0.0051,-0.01 -0.561128,-0.2142 -0.0088,10e-4 -0.195064,-0.073 -0.0051,-0.01 -0.563,-0.2093 -0.0088,0 -0.195688,-0.071 -0.0052,-0.01 -0.564839,-0.2044 -0.0088,10e-4 -0.19633,-0.069 -0.0053,-0.01 -0.566528,-0.1995 -0.0088,0 -0.196936,-0.067 -0.0053,-0.01 -0.568285,-0.1942 -0.0088,10e-4 -0.19754,-0.066 -0.0053,-0.01 -0.570005,-0.1893 -0.0088,0 -0.198069,-0.063 -0.0054,-0.01 -0.571656,-0.1845 -0.0087,0 -0.198685,-0.062 -0.0055,-0.01 -0.573231,-0.1792 -0.0087,0 -0.199196,-0.061 -0.0056,-0.01 -0.57475,-0.1745 -0.0087,0 -0.199725,-0.058 -0.0056,-0.01 -0.576337,-0.1694 -0.0086,0 -0.200323,-0.057 -0.0056,-0.01 -0.577792,-0.1645 -0.0087,0 -0.200708,-0.055 -0.0058,-0.01 -0.579128,-0.1592 -0.0086,0 -0.201249,-0.053 -0.0058,-0.01 -0.580584,-0.1539 -0.0085,0 -0.201772,-0.052 -0.0059,-0.01 -0.581875,-0.149 -0.0085,0 -0.202188,-0.05 -0.0059,-0.01 -0.583235,-0.1439 -0.0085,0 -0.202642,-0.049 -0.006,-0.01 -0.584395,-0.1388 -0.0085,0 -0.203019,-0.046 -0.0061,-0.01 -0.58563,-0.1333 -0.0084,0 -0.203466,-0.044 -0.0061,-0.01 -0.58682,-0.1285 -0.0084,0 -0.203863,-0.043 -0.0062,-0.01 -0.587867,-0.1233 -0.0084,0 -0.204203,-0.041 -0.0063,-0.01 -0.588913,-0.1183 -0.0084,0 -0.204543,-0.038 -0.0064,-0.01 -0.589959,-0.1129 -0.0083,0 -0.204952,-0.037 -0.0063,-0.01 -0.590991,-0.108 -0.0083,0 -0.205236,-0.036 -0.0064,-0.01 -0.591924,-0.1025 -0.0082,0 -0.205625,-0.034 -0.0065,-0.01 -0.5928,-0.097 -0.0082,0 -0.205891,-0.032 -0.0065,-0.01 -0.593651,-0.092 -0.0082,0 -0.206155,-0.03 -0.0066,-0.01 -0.594432,-0.087 -0.0081,0 -0.206489,-0.028 -0.0067,-0.01 -0.595138,-0.082 -0.0081,0 -0.206715,-0.026 -0.0067,-0.01 -0.595838,-0.077 -0.0081,0 -0.206885,-0.024 -0.0068,-0.01 -0.596543,-0.071 -0.0081,0 -0.20713,-0.023 -0.0068,-0.01 -0.597148,-0.066 -0.008,0 -0.207351,-0.021 -0.0068,-0.01 -0.59779,-0.061 -0.00797,0 -0.207536,-0.018 -0.00688,-0.01 -0.5982605,-0.055 -0.0079,0 -0.20776,-0.016 -0.00695,-0.01 -0.5987545,-0.051 -0.0079,0 -0.207836,-0.015 -0.00703,-0.01 -0.599168,-0.045 -0.00782,0 -0.208027,-0.013 -0.00711,-0.01 -0.599544,-0.04 -0.00779,0 -0.208136,-0.012 -0.00714,-0.01 -0.599888,-0.035 -0.00775,10e-4 -0.208289,-0.011 -0.00714,-0.01 -0.6001905,-0.029 h -0.00775 l -0.208365,-0.01 -0.00718,-0.01 -0.6004915,-0.025 -0.00767,0.01 -0.2084155,-0.01 -0.00726,-0.01 -0.600645,-0.019 h -0.00762 l -0.208533,-0.01 -0.00727,-0.01 -0.600816,-0.013 h -0.00761 l -0.20854,-0 -0.00732,-0.01 -0.600993,-0.01 -0.00749,0.01 -0.208598,-0 -0.00739,-0.011 H 0.523997 0.516503 l -0.816969,-0.01 -0.008766,0.01 h -0.815812 l -1.820387,1.3229 -0.695282,2.1399 0.153751,0.4732 -0.153751,0.4732 0.153751,0.4736 -0.153751,0.4732 0.153751,0.4732 -0.153751,0.4736 0.153751,0.4732 -0.153751,0.4732 0.153751,0.4732 -0.153751,0.4735 0.153751,0.4732 -0.153751,0.4732 0.153751,0.4732 -0.153751,0.4736 0.153751,0.4732 -0.153751,0.4732 0.153751,0.4736 -0.153751,0.4732 0.153751,0.4732 -0.153751,0.4732 0.153751,0.4735 -0.153751,0.4732 0.153751,0.4732 -0.153751,0.4732 0.153751,0.4736 -0.153751,0.4732 0.153751,0.4732 -0.153751,0.4736 0.153751,0.4732 -0.153751,0.4732 0.153751,0.4736 -0.153751,0.4731 0.153751,0.4732 -0.153751,0.4732 0.153751,0.4736 -0.153751,0.4732 0.153751,0.4732 -0.153751,0.4732 0.153751,0.4736 -0.153751,0.4732 0.695282,2.1399 1.820387,1.3225 1.723899,10e-4 1.197539,0.022 1.196905,0.042 1.196081,0.063 1.194859,0.083 1.193197,0.1049 1.191005,0.1251 1.188888,0.1459 1.186016,0.1667 1.183143,0.1874 1.179364,0.2079 1.175962,0.2287 1.171465,0.249 1.166967,0.2691 1.162015,0.2899 1.156952,0.3099 1.151697,0.3304 1.145159,0.35 1.138999,0.3704 1.132535,0.3896 1.125392,0.4097 1.118211,0.4294 1.110501,0.4486 1.10245,0.4679 1.094136,0.4872 0.93566,0.4354 -0.180662,0.7037 v 2.7379 l 0.680882,2.6518 1.31898,2.3992 1.874192,1.996 2.311635,1.4668 2.603792,0.8462 2.732598,0.172 2.689134,-0.5133 2.47748,-1.1656 2.109355,-1.7453 1.609322,-2.2148 1.008,-2.5456 0.343182,-2.7163 -0.343182,-2.7164 -1.008,-2.5455 -1.609322,-2.2151 -2.109355,-1.7451 -2.47748,-1.1656 -2.689134,-0.5132 -2.732598,0.1719 -2.603792,0.8463 -2.311635,1.4668 -0.278589,0.2967 -1.952277,-0.9127 -2.425814,-1.0349 -2.460473,-0.9498 -2.492107,-0.8632 -2.520718,-0.7756 -2.54623,-0.6871 -2.56868,-0.5979 -2.587994,-0.508 -2.604132,-0.4172 -2.617096,-0.3262 -2.626848,-0.2343 -1.896068,-0.1078 0.130394,-0.4014 -0.153751,-0.4731 0.153751,-0.4736 -0.153751,-0.4732 0.153751,-0.4732 -0.153751,-0.4736 0.153751,-0.4732 -0.153751,-0.4732 0.153751,-0.4736 -0.153751,-0.4732 0.153751,-0.4732 -0.153751,-0.4732 0.153751,-0.4735 -0.153751,-0.4732 0.153751,-0.4732 -0.153751,-0.4732 0.153751,-0.4736 -0.153751,-0.4732 0.153751,-0.4732 -0.153751,-0.4736 0.153751,-0.4732 -0.153751,-0.4732 0.153751,-0.4732 -0.153751,-0.4735 0.153751,-0.4732 -0.081778,-0.2517 1.40487,0.068 1.524888,0.1 1.522923,0.1265 1.520579,0.1531 1.517518,0.1795 1.514193,0.2063 1.510185,0.2325 1.506142,0.2585 1.501455,0.2854 1.495975,0.311 1.490797,0.3372 1.483956,0.3632 1.477871,0.3893 1.470841,0.4146 1.463244,0.4403 1.455534,0.466 1.44684,0.4913 1.438337,0.5163 1.429078,0.5413 1.419401,0.5665 1.409235,0.5907 1.398727,0.6157 1.387616,0.6395 1.376655,0.6641 1.364788,0.6879 1.351937,0.7113 1.339842,0.7351 1.326614,0.7582 1.313764,0.7816 1.299024,0.8039 1.285417,0.8269 1.270677,0.8489 1.255559,0.8712 1.240063,0.8927 1.224567,0.9143 1.208315,0.9354 1.191685,0.9566 1.175055,0.9774 1.15767,0.9974 1.139905,1.0175 1.122142,1.0371 1.104,1.0567 1.085102,1.0761 1.066583,1.0945 1.046929,1.1131 1.027654,1.1312 1.007244,1.149 0.98759,1.1663 0.966803,1.1834 0.946016,1.2 0.924851,1.2163 0.903685,1.2325 0.881763,1.248 0.860221,1.2631 0.837921,1.2778 0.815622,1.2926 0.792567,1.3062 0.76989,1.3202 0.746834,1.3334 0.723024,1.3459 0.699969,1.3592 0.675779,1.37 0.651969,1.3822 0.627401,1.3934 0.603213,1.4041 0.576756,1.3923 1.918488,1.1757 2.243148,-0.1661 z"
         style="fill:none;stroke:#000000"
         id="p_circuit_05"/>
        <path
         d="m -66.065386,1061.7831 -0.847748,-0.5379 -0.687118,-0.7321 -0.483779,-0.8795 -0.249449,-0.9724 v -1.0039 l 0.249449,-0.9724 0.483779,-0.8795 0.687118,-0.7318 0.847748,-0.5382 0.954709,-0.3099 1.001953,-0.063 0.986078,0.1881 0.908221,0.4271 0.773669,0.6403 0.589984,0.8118 0.369638,0.9335 0.125858,0.9959 -0.125858,0.996 -0.369638,0.9335 -0.589984,0.8122 -0.773669,0.6399 -0.908221,0.4275 -0.986078,0.1878 -1.001953,-0.063 z m -21.807273,26.0024 0.0019,0.01 -0.07636,0.1936 -0.0076,0.01 -0.218058,0.5577 0.0023,0.01 -0.07447,0.1942 -0.0079,0.01 -0.212807,0.5596 0.0023,0.01 -0.07296,0.1948 -0.0076,0.01 -0.207854,0.5615 0.0023,0.01 -0.07144,0.1954 -0.0076,0.01 -0.202941,0.5633 0.0023,0.01 -0.06955,0.196 -0.0076,0.01 -0.198027,0.5652 0.0026,0.01 -0.068,0.1967 -0.0072,0.01 -0.193503,0.5668 0.0026,0.01 -0.06612,0.1972 -0.0072,0.01 -0.188211,0.5686 0.0026,0.01 -0.06461,0.1977 -0.0072,0.01 -0.183298,0.5703 0.003,0.01 -0.06273,0.1983 -0.0076,0.01 -0.177996,0.5718 0.0026,0.01 -0.06082,0.1989 -0.0072,0.01 -0.173093,0.5734 0.0026,0.01 -0.05893,0.1993 -0.0072,0.01 -0.16818,0.5749 0.003,0.01 -0.05782,0.1999 -0.0068,0.01 -0.163277,0.5764 0.003,0.01 -0.05555,0.2003 -0.0072,0.01 -0.157975,0.5778 0.003,0.01 -0.05404,0.2008 -0.0068,0.01 -0.153073,0.5791 0.003,0.01 -0.05215,0.2013 -0.0068,0.01 -0.148159,0.5805 0.0034,0.01 -0.05065,0.2017 -0.0068,0.01 -0.142869,0.5818 0.0034,0.01 -0.04876,0.2021 -0.0068,0.01 -0.137577,0.5831 0.0034,0.01 -0.04724,0.2025 -0.0068,0.01 -0.132285,0.5843 0.0034,0.01 -0.04536,0.2029 -0.0064,0.01 -0.127761,0.5855 0.0038,0.01 -0.04347,0.2032 -0.0068,0.01 -0.122459,0.5866 0.0038,0.01 -0.04158,0.2036 -0.0068,0.01 -0.117168,0.5876 0.0038,0.01 -0.0397,0.2039 -0.0068,0.01 -0.111876,0.5886 0.0038,0.01 -0.03818,0.2043 -0.0064,0.01 -0.106974,0.5897 0.0038,0.01 -0.03629,0.2046 -0.0064,0.01 -0.101682,0.5906 0.0038,0.01 -0.0344,0.2048 -0.0064,0.01 -0.09639,0.5915 0.0038,0.01 -0.03251,0.2052 -0.0064,0.01 -0.09148,0.5924 0.0042,0.01 -0.03063,0.2055 -0.0064,0.01 -0.08619,0.5932 0.0042,0.01 -0.02912,0.2057 -0.0064,0.01 -0.0809,0.5939 0.0042,0.01 -0.02723,0.2058 -0.006,0.01 -0.076,0.5946 0.0045,0.01 -0.02568,0.2061 -0.006,0.01 -0.0707,0.5953 0.0045,0.01 -0.02379,0.2063 -0.006,0.01 -0.06542,0.5959 0.0045,0.01 -0.0219,0.2065 -0.006,0.01 -0.06012,0.5964 0.0045,0.01 -0.02001,0.2066 -0.006,0.01 -0.05483,0.597 0.0045,0.01 -0.01813,0.2069 -0.006,0.01 -0.04991,0.5974 0.0049,0.01 -0.01662,0.2069 -0.0057,0.01 -0.04458,0.5979 0.0049,0.01 -0.01472,0.207 -0.0057,0.01 -0.03929,0.5984 0.0049,0.01 -0.01282,0.2072 -0.0057,0.01 -0.03401,0.5987 0.0045,0.01 -0.01054,0.2072 -0.0057,0.01 -0.02908,0.5989 0.0053,0.01 -0.0094,0.2073 -0.0053,0.01 -0.02381,0.5992 0.0049,0.01 -0.0072,0.2074 -0.0057,0.01 -0.01812,0.5994 0.0049,0.01 -0.0053,0.2073 -0.0053,0.01 -0.01321,0.5996 0.0049,0.01 -0.0034,0.2073 -0.0053,0.01 -0.0079,0.5997 0.0049,0.01 -0.0015,0.2074 -0.0057,0.01 -0.0023,0.5998 0.0049,0.01 v 0.2073 l -0.0049,0.01 0.0023,0.5997 0.0057,0.01 0.0015,0.2074 -0.0049,0.01 0.0079,0.5998 0.0053,0.01 0.0034,0.2073 -0.0049,0.01 0.01322,0.5998 0.0053,0.01 0.0053,0.2072 -0.0049,0.01 0.01814,0.5995 0.0057,0.01 0.0072,0.2072 -0.0049,0.01 0.0238,0.5994 0.0053,0.01 0.0094,0.2071 -0.0053,0.01 0.02911,0.5992 0.0057,0.01 0.01058,0.2069 -0.0045,0.01 0.034,0.599 0.0057,0.01 0.01286,0.2068 -0.0049,0.01 0.0393,0.5987 0.0057,0.01 0.01471,0.2067 -0.0049,0.01 0.04459,0.5983 0.0057,0.01 0.01661,0.2065 -0.0049,0.01 0.04989,0.5979 0.006,0.01 0.01816,0.2063 -0.0045,0.01 0.05479,0.5975 0.006,0.01 0.02005,0.2061 -0.0045,0.01 0.06007,0.597 0.006,0.01 0.02195,0.206 -0.0045,0.01 0.06538,0.5965 0.006,0.01 0.02383,0.2057 -0.0045,0.01 0.07066,0.5959 0.006,0.01 0.02573,0.2054 -0.0045,0.01 0.07595,0.5953 0.006,0.01 0.02723,0.2052 -0.0042,0.01 0.0809,0.5947 0.0064,0.01 0.02911,0.2049 -0.0042,0.01 0.08619,0.5939 0.0064,0.01 0.03063,0.2047 -0.0042,0.01 0.09148,0.5932 0.0064,0.01 0.03251,0.2043 -0.0038,0.01 0.09639,0.5923 0.0064,0.01 0.03441,0.204 -0.0038,0.01 0.101679,0.5915 0.0064,0.01 0.03629,0.2037 -0.0038,0.01 0.106971,0.5906 0.0064,0.01 0.03818,0.2033 -0.0038,0.01 0.111884,0.5897 0.0068,0.01 0.03969,0.2029 -0.0038,0.01 0.117176,0.5886 0.0068,0.01 0.04157,0.2026 -0.0038,0.01 0.122467,0.5877 0.0068,0.01 0.04346,0.2021 -0.0038,0.01 0.127758,0.5866 0.0064,0.01 0.04537,0.2017 -0.0034,0.01 0.132282,0.5855 0.0068,0.01 0.04724,0.2013 -0.0034,0.01 0.137574,0.5843 0.0068,0.01 0.04876,0.2009 -0.0034,0.01 0.142866,0.5831 0.0068,0.01 0.05065,0.2005 -0.0034,0.01 0.148156,0.5818 0.0068,0.01 0.05216,0.2 -0.003,0.01 0.153059,0.5806 0.0068,0.01 0.05405,0.1994 -0.003,0.01 0.157972,0.5792 0.0072,0.01 0.05555,0.1989 -0.003,0.01 0.163263,0.5778 0.0068,0.01 0.05783,0.1985 -0.003,0.01 0.168177,0.5763 0.0072,0.01 0.05895,0.1978 -0.0026,0.01 0.173079,0.575 0.0072,0.01 0.06084,0.1973 -0.0026,0.01 0.177993,0.5733 0.0076,0.01 0.06272,0.1967 -0.003,0.01 0.183295,0.5719 0.0072,0.01 0.06462,0.1961 -0.0026,0.01 0.188197,0.5702 0.0072,0.01 0.06613,0.1956 -0.0026,0.01 0.193489,0.5686 0.0072,0.01 0.06802,0.1949 -0.0026,0.01 0.198024,0.5668 0.0076,0.01 0.06952,0.1942 -0.0023,0.01 0.202977,0.5652 0.0076,0.01 0.07141,0.1937 -0.0023,0.01 0.20789,0.5633 0.0076,0.01 0.07292,0.193 -0.0023,0.01 0.212804,0.5615 0.0079,0.01 0.07448,0.1924 -0.0023,0.01 0.218094,0.5596 0.0076,0 0.07633,0.1966 -0.0019,0.01 0.222619,0.5577 0.0076,0 0.07822,0.1958 -0.0023,0.01 0.227543,0.5557 0.0079,0 0.07977,0.1953 -0.0019,0.01 0.232446,0.5537 0.0076,0 0.08162,0.1944 -0.0019,0.01 0.237359,0.5517 0.0076,0 0.08313,0.1937 -0.0015,0.01 0.241884,0.5495 0.0079,0 0.08468,0.193 -0.0015,0.01 0.246797,0.5476 0.0079,0 0.08619,0.1921 -0.0015,0.01 0.25171,0.5453 0.0079,0 0.08808,0.1913 -0.0015,0.01 0.256245,0.5431 0.0079,0 0.08997,0.1905 -0.0015,0.01 0.26116,0.5408 0.0079,0 0.09148,0.1897 -0.0015,0.01 0.265694,0.5386 0.0079,0 0.09337,0.189 -0.0015,0.01 0.270608,0.5363 0.0079,0 0.09489,0.1881 -0.0015,0.01 0.275144,0.5336 0.0083,0 0.09639,0.1872 -0.0015,0.01 0.280057,0.5314 0.0083,0 0.0979,0.1861 -0.0011,0.01 0.284203,0.5291 0.0083,0 0.09941,0.1854 -0.0011,0.01 0.289117,0.5264 0.0083,0 0.101298,0.1842 -0.0011,0.01 0.293653,0.5242 0.0083,0 0.10281,0.1837 -0.0011,0.01 0.298188,0.5211 0.0083,0 0.104322,0.1829 -7.56e-4,0.01 0.30274,0.5185 0.0083,0 0.105834,0.1818 -7.56e-4,0.01 0.307275,0.5159 0.0087,0 0.107335,0.1806 -7.56e-4,0.01 0.311811,0.5134 0.0083,0 0.109235,0.1795 -7.56e-4,0.01 0.316347,0.511 0.0083,0 0.110747,0.1786 -7.56e-4,0.01 0.320882,0.5079 0.0083,0 0.112259,0.1778 -3.78e-4,0.01 0.325039,0.5049 0.0083,0 0.113771,0.1767 -3.78e-4,0.01 0.329575,0.5022 0.0083,0 0.449015,0.6847 0.0098,0 0.453557,0.6799 2.110866,0.779 2.165621,-0.611 0.307984,-0.3909 0.478866,-0.1349 0.308409,-0.3912 0.478866,-0.1349 0.308032,-0.3908 0.478866,-0.135 0.308031,-0.3908 0.479245,-0.1353 0.308031,-0.3908 0.478866,-0.1349 0.308032,-0.3908 0.479244,-0.1353 0.308031,-0.3908 0.478866,-0.1349 0.308032,-0.3908 0.479244,-0.1353 0.308032,-0.3909 0.478866,-0.1349 0.308031,-0.3908 0.479244,-0.1353 0.308032,-0.3908 0.478866,-0.1349 0.308031,-0.3908 0.478867,-0.135 0.308409,-0.3908 0.478866,-0.1353 0.308032,-0.3908 0.478866,-0.1349 0.308031,-0.3908 0.479244,-0.1353 0.308032,-0.3908 0.478866,-0.1349 0.308031,-0.3908 0.479245,-0.1354 0.308031,-0.3908 0.478866,-0.1349 0.308032,-0.3908 0.479244,-0.1353 0.308031,-0.3908 0.478866,-0.1349 1.393134,-1.767 0.08844,-2.2484 -1.250267,-1.871 -2.110867,-0.7788 -2.165669,0.6107 -0.308409,0.3909 -0.478866,0.1351 -0.308032,0.391 -0.478866,0.1349 -0.308032,0.3908 -0.479244,0.1349 -0.308031,0.3908 -0.478866,0.1353 -0.308032,0.3908 -0.479244,0.135 -0.308031,0.3908 -0.478867,0.1353 -0.308031,0.3908 -0.479244,0.1349 -0.308032,0.3908 -0.478866,0.1353 -0.308031,0.3908 -0.479244,0.135 -0.308032,0.3908 -0.478866,0.1353 -0.308032,0.3908 -0.478866,0.1349 -0.308409,0.3908 -0.478866,0.1349 -0.308032,0.3908 -0.478866,0.1353 -0.308409,0.3908 -0.478866,0.135 -0.308032,0.3908 -0.478866,0.1353 -0.308032,0.3908 -0.479244,0.1349 -0.163653,0.2079 -0.724158,-1.2057 -0.76422,-1.3236 -0.740788,-1.3364 -0.717354,-1.3493 -0.693921,-1.3618 -0.669732,-1.3731 -0.645922,-1.3852 -0.621354,-1.3958 -0.597165,-1.407 -0.572599,-1.4167 -0.547653,-1.4269 -0.522331,-1.4357 -0.497764,-1.4449 -0.472063,-1.4534 -0.44674,-1.4612 -0.421417,-1.4692 -0.395339,-1.4761 -0.370016,-1.4827 -0.343559,-1.4891 -0.317858,-1.4947 -0.291402,-1.4999 -0.265322,-1.5051 -0.239245,-1.5093 -0.212409,-1.5132 -0.186331,-1.5169 -0.159874,-1.5197 -0.133039,-1.5222 -0.106583,-1.5246 -0.08013,-1.526 -0.05329,-1.5273 -0.02646,-1.5278 v -1.5282 l 0.02646,-1.5279 0.05329,-1.5272 0.08013,-1.526 0.106581,-1.5246 0.133039,-1.5223 0.159874,-1.5196 0.186331,-1.5169 0.212409,-1.5132 0.239245,-1.5094 0.265322,-1.505 0.291402,-1.4999 0.317858,-1.4947 0.343559,-1.4892 0.370016,-1.4827 0.395339,-1.476 0.421417,-1.4692 0.44674,-1.4612 0.472063,-1.4534 0.497764,-1.4449 0.522331,-1.4358 0.547653,-1.4269 0.572599,-1.4167 0.597165,-1.4069 0.621354,-1.3958 0.645922,-1.3852 0.669732,-1.3732 0.693921,-1.3617 0.717354,-1.3493 0.740788,-1.3365 0.76422,-1.3235 0.724158,-1.2057 0.163653,0.2079 0.479244,0.1349 0.308032,0.3908 0.478866,0.1353 0.308032,0.3908 0.478866,0.1349 0.308409,0.3908 0.478866,0.1353 0.308032,0.3908 0.478866,0.135 0.308409,0.3908 0.478866,0.1349 0.308032,0.3908 0.478866,0.1353 0.308032,0.3908 0.479244,0.135 0.308031,0.3908 0.478866,0.1353 0.308032,0.3908 0.479244,0.1349 0.308031,0.3908 0.478867,0.1353 0.308031,0.3908 0.479244,0.1349 0.308032,0.3908 0.478866,0.1353 0.308031,0.3908 0.479244,0.135 0.308032,0.3908 0.478866,0.1349 0.308032,0.391 0.478866,0.1351 0.308409,0.3908 2.165669,0.6108 2.110867,-0.7789 1.128566,-1.6793 0.686741,-0.9812 0.704126,-0.9687 0.720756,-0.9569 0.737385,-0.9438 0.753638,-0.9305 0.770268,-0.9177 0.785386,-0.9037 0.801637,-0.8904 0.816756,-0.8757 0.831874,-0.8618 0.846993,-0.847 0.861732,-0.8322 0.875716,-0.8164 0.890457,-0.8016 0.903685,-0.7858 0.917669,-0.7699 0.93052,-0.7536 0.944126,-0.7374 0.956598,-0.7211 0.968693,-0.7038 0.981166,-0.6871 0.992882,-0.6697 1.004485,-0.6524 1.015748,-0.6346 1.026633,-0.6168 1.037253,-0.5987 1.047723,-0.5809 1.05755,-0.5624 1.067263,-0.5438 1.076371,-0.525 1.085594,-0.5061 1.094136,-0.4872 1.10245,-0.4679 1.110501,-0.4486 1.118211,-0.4294 1.125392,-0.4097 1.132535,-0.3896 1.138999,-0.3704 1.145159,-0.35 1.151697,-0.3304 1.156952,-0.3099 1.162015,-0.2899 1.166967,-0.2691 1.171465,-0.249 1.397329,-0.2778 1.527345,-1.6524 0.264492,-2.2345 -0.243212,-0.4343 0.05854,-0.4943 -0.24321,-0.4343 0.05855,-0.494 -0.243216,-0.4342 0.05847,-0.4944 -0.243138,-0.4343 0.05851,-0.494 -0.243138,-0.4342 0.05847,-0.4944 -0.243138,-0.4339 0.05847,-0.4943 -0.243214,-0.4343 0.05855,-0.494 -0.243215,-0.4343 0.05851,-0.4943 -0.243139,-0.4343 0.05847,-0.494 -0.243138,-0.4342 0.05847,-0.4944 -0.243138,-0.4343 0.05847,-0.494 -0.243137,-0.4342 0.05847,-0.4944 -0.243176,-0.4339 0.05851,-0.4943 -0.243177,-0.4343 0.05847,-0.494 -0.243137,-0.4343 0.05847,-0.4943 -0.243138,-0.4343 0.05847,-0.494 -0.243138,-0.4342 0.05847,-0.4944 -0.243137,-0.4343 0.05847,-0.494 -0.243176,-0.4342 0.05855,-0.4944 -0.243216,-0.4339 0.05847,-0.4943 -1.099427,-1.9631 -2.043402,-0.9423 -0.800201,0.1592 -0.0098,-0 -0.80014,0.1634 -0.0084,-0 -0.588412,0.1206 -0.0062,0.01 -0.204037,0.041 -0.0084,-0 -0.587372,0.1257 -0.0061,0.01 -0.203709,0.043 -0.0084,-0 -0.586219,0.1309 -0.006,0.01 -0.203324,0.046 -0.0084,-0 -0.585086,0.1359 -0.006,0.01 -0.202814,0.048 -0.0085,-0 -0.583807,0.1412 -0.006,0.01 -0.202379,0.049 -0.0085,-0 -0.58256,0.1463 -0.0059,0.01 -0.201938,0.052 -0.0085,-0 -0.581312,0.1514 -0.0058,0.01 -0.201497,0.053 -0.0086,-0 -0.579845,0.1565 -0.0058,0.01 -0.200968,0.054 -0.0086,-0 -0.578503,0.1616 -0.0057,0.01 -0.200507,0.055 -0.0087,-0 -0.576998,0.1667 -0.0056,0.01 -0.200028,0.057 -0.0087,-0 -0.575525,0.1716 -0.0056,0.01 -0.199481,0.06 -0.0087,-0 -0.574012,0.1769 -0.0055,0.01 -0.198926,0.062 -0.0087,-0 -0.572444,0.1821 -0.0055,0.01 -0.198378,0.063 -0.0087,-0 -0.570838,0.1868 -0.0054,0.01 -0.197823,0.064 -0.0087,-0 -0.569156,0.1919 -0.0054,0.01 -0.197237,0.067 -0.0088,-0 -0.567405,0.1969 -0.0053,0.01 -0.196607,0.069 -0.0088,-0 -0.565647,0.202 -0.0053,0.01 -0.195983,0.07 -0.0088,-0 -0.563852,0.2068 -0.0052,0.01 -0.195372,0.072 -0.0088,-0 -0.562075,0.2117 -0.0051,0.01 -0.194704,0.073 -0.0089,-0 -0.560155,0.2166 -0.005,0.01 -0.194111,0.075 -0.0089,-0 -0.558189,0.2215 -0.005,0.01 -0.193394,0.077 -0.0089,-10e-4 -0.556299,0.2267 -0.0049,0.01 -0.192687,0.079 -0.0089,-0 -0.554278,0.2313 -0.0048,0.01 -0.192037,0.081 -0.009,-0 -0.552168,0.2363 -0.0047,0.01 -0.191294,0.082 -0.009,-10e-4 -0.550071,0.241 -0.0049,0.01 -0.190495,0.084 -0.0087,-10e-4 -0.548029,0.2459 -0.0049,0.01 -0.189739,0.086 -0.0091,-10e-4 -0.54575,0.2509 -0.0045,0.01 -0.188994,0.087 -0.0091,-8e-4 -0.543482,0.2555 -0.0045,0.01 -0.188239,0.089 -0.0091,-8e-4 -0.541214,0.2604 -0.0045,0.01 -0.187483,0.09 -0.0091,-8e-4 -0.538946,0.2654 -0.0042,0.01 -0.186688,0.092 -0.0091,-8e-4 -0.536678,0.2699 -0.0045,0.01 -0.185593,0.093 -0.0091,-6e-4 -0.534411,0.2746 -0.0042,0.01 -0.185176,0.095 -0.0091,-6e-4 -0.531765,0.2791 -0.0042,0.01 -0.184042,0.097 -0.0091,-6e-4 -0.529498,0.2841 -0.0042,0.01 -0.183286,0.099 -0.0091,-6e-4 -0.526852,0.2886 -0.0038,0.01 -0.182541,0.1001 -0.0091,-7e-4 -0.524584,0.2936 -0.0038,0.01 -0.181407,0.1016 -0.0091,-8e-4 -0.521939,0.2982 -0.0038,0.01 -0.180652,0.1036 -0.0091,-8e-4 -0.519292,0.3027 -0.0038,0.01 -0.179518,0.105 -0.0094,-8e-4 -0.516308,0.3073 -0.0038,0.01 -0.178762,0.1066 -0.0091,-4e-4 -0.514002,0.3118 -0.0034,0.01 -0.178017,0.1081 -0.0091,-4e-4 -0.510978,0.3159 -0.0038,0.01 -0.176872,0.1098 -0.0091,-4e-4 -0.508333,0.3205 -0.0034,0.01 -0.175749,0.1113 -0.0094,-4e-4 -0.505348,0.3251 -0.0034,0.01 -0.174993,0.1127 h -0.0091 l -0.502662,0.3292 -0.0034,0.01 -0.17386,0.1147 -0.0091,-4e-4 -0.499639,0.3338 -0.0034,0.01 -0.172725,0.1161 -0.0094,-3e-4 -0.496654,0.3382 -0.003,0.01 -0.17198,0.1173 h -0.0094 l -0.49363,0.3428 -0.003,0.01 -0.170871,0.119 h -0.0094 l -0.490607,0.3469 -0.003,0.01 -0.169712,0.1206 h -0.0094 l -0.487583,0.3511 -0.003,0.01 -0.168956,0.1218 -0.0091,4e-4 -0.484521,0.3553 -0.003,0.01 -0.167822,0.1234 -0.0091,3e-4 -0.481497,0.3595 -0.0026,0.01 -0.1667,0.1252 h -0.0091 l -0.478473,0.364 -0.0026,0.01 -0.165566,0.1264 -0.0091,3e-4 -0.475449,0.3678 -0.0026,0.01 -0.164055,0.1277 -0.0094,7e-4 -0.471709,0.372 -0.0026,0.01 -0.163299,0.1294 -0.0091,10e-5 -0.08351,0.068 -1.993699,-0.938 -2.689512,-0.5133 -2.732598,0.172 -2.603717,0.8462 -2.311559,1.4669 -1.874267,1.9959 -1.319056,2.3993 -0.680692,2.6517 v 2.7379 l 0.680692,2.6517 1.319056,2.3993 1.874267,1.9959 2.311559,1.4669 2.603717,0.8462 2.732598,0.172 2.689512,-0.5133 2.477102,-1.1656 2.109733,-1.745 1.609323,-2.2152 1.007622,-2.5455 0.343181,-2.7164 -0.343181,-2.7163 -0.608882,-1.5379 1.088504,-0.8496 1.220409,-0.9196 1.236284,-0.898 1.251779,-0.8769 1.266898,-0.8545 1.281638,-0.8323 1.295622,-0.8095 1.310362,-0.7873 1.323212,-0.7639 1.336441,-0.7407 1.349292,-0.7178 1.361763,-0.6935 1.373216,-0.6697 1.385197,-0.646 1.395742,-0.6213 1.407005,-0.5976 1.41668,-0.5722 1.426885,-0.5476 1.435729,-0.5227 1.444951,-0.4974 1.45338,-0.4725 1.461203,-0.4467 1.469178,-0.4211 1.476094,-0.3957 1.364637,-0.341 -0.03114,0.263 0.243211,0.4342 -0.05854,0.4944 0.243211,0.4343 -0.05847,0.494 0.243137,0.4342 -0.05847,0.494 0.243138,0.4343 -0.05851,0.4943 0.243177,0.4343 -0.05851,0.494 0.243214,0.4343 -0.05854,0.4943 0.243211,0.4343 -0.05855,0.494 0.243216,0.4342 -0.05851,0.4944 0.243176,0.4343 -0.05851,0.494 0.243139,0.4342 -0.05847,0.494 0.243138,0.4343 -0.05847,0.4943 0.243213,0.4343 -0.05854,0.494 0.204206,0.3647 -2.52703,0.6724 -2.523439,0.7665 -2.495206,0.8541 -2.463874,0.9408 -2.429556,1.0261 -2.392252,1.1101 -2.352076,1.1932 -2.308951,1.2744 -2.263105,1.3542 -2.214426,1.4325 -2.163023,1.5087 -2.109355,1.5837 -2.052283,1.6558 -1.993701,1.7268 -1.932094,1.7953 -1.868221,1.8614 -1.802079,1.9257 -1.734047,1.9873 -1.66337,2.0466 -1.348157,1.7734 -0.258898,-0.3285 -0.478866,-0.1349 -0.308032,-0.3908 -0.479244,-0.1353 -0.308031,-0.3908 -0.478866,-0.135 -0.308032,-0.3908 -0.478866,-0.1353 -0.308409,-0.3908 -0.478867,-0.1349 -0.308031,-0.3908 -0.478866,-0.1349 -0.308032,-0.3908 -0.479244,-0.1353 -0.308031,-0.3908 -0.478866,-0.135 -0.308032,-0.3908 -0.479244,-0.1353 -0.308032,-0.3908 -0.478866,-0.1349 -0.308031,-0.3908 -0.479244,-0.1353 -0.308032,-0.3908 -0.478866,-0.135 -0.308031,-0.3908 -0.479245,-0.1353 -0.308031,-0.3908 -0.478866,-0.1349 -0.308032,-0.3908 -0.478866,-0.1349 -0.308409,-0.3912 -0.478866,-0.1349 -0.308032,-0.3908 -2.165669,-0.6108 -2.110866,0.7789 -0.453544,0.6781 -0.0098,0 -0.449021,0.6848 -0.0083,0 -0.329582,0.5044 3.78e-4,0.01 -0.113764,0.1746 -0.0083,0 -0.325047,0.507 3.78e-4,0.01 -0.112252,0.1757 -0.0083,0 -0.32089,0.51 7.56e-4,0.01 -0.11074,0.1765 -0.0083,0 -0.316355,0.5131 7.56e-4,0.01 -0.109228,0.1772 -0.0083,0 -0.311819,0.5155 7.56e-4,0.01 -0.107339,0.1785 -0.0087,0 -0.307272,0.5182 7.56e-4,0.01 -0.105827,0.1794 -0.0083,0 -0.302748,0.5209 7.56e-4,0.01 -0.104315,0.1806 -0.0083,0 -0.298213,0.5235 0.0011,0.01 -0.102786,0.1814 -0.0083,0 -0.293678,0.5265 0.0011,0.01 -0.101274,0.1817 -0.0083,0 -0.289142,0.5289 0.0011,0.01 -0.09939,0.1829 -0.0083,0 -0.284228,0.5316 0.0011,0.01 -0.09788,0.1836 -0.0083,0 -0.280071,0.5339 0.0015,0.01 -0.09637,0.1847 -0.0083,0 -0.275158,0.5361 0.0015,0.01 -0.09486,0.1855 -0.0079,0 -0.270633,0.5388 0.0015,0.01 -0.09335,0.1863 -0.0079,0 -0.265719,0.5413 0.0015,0.01 -0.09145,0.187 -0.0079,0 -0.261185,0.5436 0.0015,0.01 -0.08995,0.1878 -0.0079,0 -0.25627,0.5458 0.0015,0.01 -0.08805,0.1885 -0.0079,0 -0.251735,0.548 0.0015,0.01 -0.08616,0.1893 -0.0079,0 -0.246822,0.5503 0.0015,0.01 -0.08465,0.1901 -0.0079,0 -0.241909,0.5525 0.0015,0.01 -0.08315,0.1908 -0.0076,0 -0.237334,0.5547 0.0019,0.01 -0.08165,0.1915 -0.0076,0 -0.232421,0.5567 0.0019,0.01 -0.07976,0.1923 -0.0079,0 -0.227546,0.5587 0.0023,0.01 -0.07825,0.1929 -0.0076,0.01 z"
         style="fill:none;stroke:#000000"
         id="p_circuit_04"/>
      <path
         d="m 61.175811,1078.6613 0.90822,0.4275 0.77367,0.6398 0.589984,0.8123 0.369638,0.9331 0.125858,0.9959 -0.125858,0.9963 -0.369638,0.9332 -0.589984,0.8122 -0.77367,0.6399 -0.90822,0.4275 -0.986079,0.188 -1.001952,-0.063 -0.954709,-0.3102 -0.847748,-0.5379 -0.687118,-0.7318 -0.483402,-0.8798 -0.249827,-0.9721 v -1.0038 l 0.249827,-0.9725 0.483402,-0.8799 0.687118,-0.7317 0.847748,-0.5378 0.954709,-0.3103 1.001952,-0.063 z m 3.177074,83.4534 1.342488,-2.2701 1.26274,-2.3155 1.180725,-2.3581 1.09833,-2.3979 1.013292,-2.4348 0.928252,-2.4687 0.841322,-2.4995 0.753638,-2.5274 0.664819,-2.5522 0.575622,-2.5737 0.485292,-2.5923 0.394582,-2.6078 0.303118,-2.6198 0.211654,-2.6289 0.119811,-2.6345 0.02759,-2.6372 -0.06425,-2.6366 -0.156095,-2.6327 -0.247937,-2.6257 -0.33978,-2.6153 -0.430488,-2.602 -0.521197,-2.5854 -0.611149,-2.5655 -0.699969,-2.5427 -0.788787,-2.5167 -0.875717,-2.4877 -0.962267,-2.4556 -1.047307,-2.4205 -0.747969,-1.5872 1.446425,-1.9908 1.007622,-2.5456 0.343181,-2.7165 -0.343181,-2.7159 -1.007622,-2.5456 -1.609323,-2.2151 -2.109732,-1.745 -2.477102,-1.166 -2.689512,-0.5129 -2.73222,0.172 -2.604095,0.8458 -2.311559,1.4672 -1.874268,1.9956 -1.318677,2.3993 -0.681071,2.6521 v 2.7375 l 0.681071,2.652 1.318677,2.3992 1.874268,1.9958 2.311559,1.4671 2.604095,0.846 2.73222,0.1719 1.378394,-0.2629 0.444094,0.9535 0.487181,1.0941 0.467906,1.1024 0.44863,1.1105 0.428976,1.1182 0.409701,1.1254 0.390047,1.1325 0.370016,1.1391 0.350362,1.1451 0.329953,1.1518 0.310299,1.1568 0.289512,1.1621 0.26948,1.1669 0.249071,1.1715 0.228661,1.176 0.207874,1.1794 0.187465,1.1831 0.166677,1.186 0.14589,1.1889 0.125102,1.191 0.104315,1.1932 0.08353,1.1949 0.06274,1.1961 0.04195,1.1969 0.02079,1.1975 v 1.1977 l -0.02079,1.1976 -0.04195,1.1969 -0.06274,1.1961 -0.08353,1.1949 -0.104314,1.1931 -0.125102,1.1911 -0.14589,1.1889 -0.166677,1.1859 -0.187465,1.1832 -0.207874,1.1794 -0.228661,1.176 -0.249071,1.1714 -0.26948,1.167 -0.289512,1.162 -0.310299,1.1569 -0.329953,1.1517 -0.350362,1.1452 -0.370016,1.139 -0.390047,1.1326 -0.409701,1.1254 -0.428976,1.1181 -0.44863,1.1106 -0.467906,1.1024 -0.487181,1.0941 -0.506457,1.0857 -0.524976,1.0763 -0.543496,1.0672 -0.562394,1.0576 -0.580913,1.0477 -0.598677,1.0373 -0.616819,1.0266 -0.634961,1.0158 -0.652346,1.0044 -0.791433,1.1845 0.08844,2.2484 1.393135,1.767 2.165669,0.6107 2.110867,-0.779 0.360947,-0.5401 0.01134,-0 0.356031,-0.5452 0.01134,-0 z"
         style="fill:none;stroke:#000000"
         id="p_circuit_03"/>
      <path
         d="m -72.407055,1140.2069 -0.847748,-0.5379 -0.687118,-0.7318 -0.48378,-0.8797 -0.249449,-0.9723 v -1.0039 l 0.249449,-0.9724 0.48378,-0.8797 0.687118,-0.7318 0.847748,-0.5379 0.954709,-0.3102 1.001952,-0.063 0.986079,0.188 0.908221,0.4275 0.773291,0.6399 0.590362,0.8121 0.36926,0.9335 0.125858,0.9959 -0.125858,0.9959 -0.36926,0.9335 -0.590362,0.8121 -0.773291,0.6399 -0.908221,0.4275 -0.986079,0.1881 -1.001952,-0.063 z m 2.536815,-46.4295 -0.0102,0.01 -0.96038,2.4545 -0.873827,2.4883 -0.786897,2.5173 -0.698079,2.5433 -0.60926,2.566 -0.518929,2.5858 -0.428598,2.6022 -0.33789,2.6157 -0.24567,2.6258 -0.154582,2.6329 -0.06198,2.6366 0.02948,2.6371 0.08882,2.0636 -2.225764,1.4127 -1.874268,1.9958 -1.319055,2.3992 -0.681071,2.6519 v 2.7379 l 0.681071,2.6518 1.319055,2.3992 1.874268,1.9958 2.311559,1.467 2.603717,0.8461 2.732598,0.1719 2.689131,-0.5131 2.477478,-1.1657 2.109355,-1.7452 1.609322,-2.2149 1.008,-2.5456 0.343181,-2.7163 -0.343181,-2.7163 -1.008,-2.5456 -1.609322,-2.215 -2.109355,-1.7451 -2.47748,-1.1657 -1.211339,-0.2311 -0.0548,-1.349 -0.02608,-1.1974 -0.0053,-1.1977 0.01551,-1.1976 0.03666,-1.1973 0.05745,-1.1961 0.07824,-1.1953 0.0994,-1.1936 0.119812,-1.1916 0.140977,-1.1894 0.161385,-1.1868 0.182174,-1.1839 0.20296,-1.1804 0.22337,-1.1769 0.24378,-1.1724 0.264189,-1.168 0.284976,-1.1638 0.305008,-1.1581 0.325039,-1.1527 0.345071,-1.1469 0.365103,-1.1408 0.385134,-1.1343 0.404787,-1.1272 0.424441,-1.1201 0.443716,-1.1122 0.545006,-1.3161 -0.525356,-2.188 -1.710992,-1.4614 -2.24315,-0.1765 -1.918488,1.1757 -0.248693,0.6001 -0.0098,0.01 z"
         style="fill:none;stroke:#000000"
         id="p_circuit_02"/>
      <path
         d="m 28.824076,1185.3109 0.908371,0.4274 0.773518,0.6399 0.59006,0.8122 0.369562,0.9332 0.125783,0.9959 -0.125783,0.9963 -0.369562,0.9331 -0.59006,0.8123 -0.773518,0.6398 -0.908371,0.4275 -0.986041,0.1882 -1.001915,-0.063 -0.954747,-0.3103 -0.847597,-0.5378 -0.687193,-0.7317 -0.483629,-0.8799 -0.249675,-0.9721 v -1.0042 l 0.249675,-0.9721 0.483629,-0.8799 0.687193,-0.7317 0.847597,-0.5378 0.954747,-0.3103 1.001915,-0.063 z m 59.199087,-28.4408 -0.0023,-0.01 0.07561,-0.1938 0.0079,-0.01 0.215452,-0.5586 -0.0026,-0.01 0.07406,-0.1945 0.0076,-0.01 0.2105,-0.5606 -0.0023,-0.01 0.0722,-0.1951 0.0076,-0.01 0.205586,-0.5624 -0.0026,-0.01 0.07066,-0.1957 0.0072,-0.01 0.200684,-0.5642 -0.0023,-0.01 0.06843,-0.1964 0.0076,-0.01 0.195759,-0.5659 -0.0026,-0.01 0.06688,-0.1969 0.0076,-0.01 0.190846,-0.5676 -0.0026,-0.01 0.06498,-0.1976 0.0076,-0.01 0.185554,-0.5693 -0.0026,-0.01 0.06347,-0.1981 0.0076,-0.01 0.180641,-0.571 -0.003,-0.01 0.06197,-0.1985 0.0072,-0.01 0.175739,-0.5725 -0.003,-0.01 0.06008,-0.1991 0.0072,-0.01 0.170826,-0.5741 -0.003,-0.01 0.05857,-0.1996 0.0072,-0.01 0.165534,-0.5755 -0.003,-0.01 0.05668,-0.2 0.0072,-0.01 0.160621,-0.5771 -0.0034,-0.01 0.0548,-0.2005 0.0072,-0.01 0.155708,-0.5785 -0.0034,-0.01 0.05329,-0.201 0.0068,-0.01 0.150427,-0.5797 -0.003,-0.01 0.05139,-0.2015 0.0068,-0.01 0.145514,-0.5811 -0.0034,-0.01 0.04951,-0.2018 0.0068,-0.01 0.140223,-0.5825 -0.0034,-0.01 0.048,-0.2022 0.0068,-0.01 0.135309,-0.5836 -0.0034,-0.01 0.04573,-0.2026 0.0068,-0.01 0.130018,-0.5848 -0.0034,-0.01 0.04422,-0.203 0.0068,-0.01 0.125104,-0.586 -0.0038,-0.01 0.04234,-0.2034 0.0068,-0.01 0.119813,-0.587 -0.0038,-0.01 0.04083,-0.2038 0.0068,-0.01 0.114522,-0.5881 -0.0038,-0.01 0.03894,-0.2041 0.0064,-0.01 0.109619,-0.5891 -0.0038,-0.01 0.03705,-0.2045 0.0064,-0.01 0.104328,-0.5901 -0.0038,-0.01 0.03516,-0.2048 0.0068,-0.01 0.09902,-0.591 -0.0042,-0.01 0.03366,-0.205 0.0064,-0.01 0.09412,-0.5919 -0.0042,-0.01 0.03177,-0.2052 0.0064,-0.01 0.08884,-0.5927 -0.0042,-0.01 0.02988,-0.2055 0.0064,-0.01 0.08355,-0.5936 -0.0042,-0.01 0.02799,-0.2057 0.0064,-0.01 0.07825,-0.5942 -0.0042,-0.01 0.02648,-0.2059 0.006,-0.01 0.07335,-0.5949 -0.0045,-0.01 0.02455,-0.2062 0.006,-0.01 0.06806,-0.5956 -0.0042,-0.01 0.0227,-0.2063 0.006,-0.01 0.06276,-0.5961 -0.0045,-0.01 0.02077,-0.2065 0.006,-0.01 0.05786,-0.5967 -0.0045,-0.01 0.01888,-0.2066 0.006,-0.01 0.05218,-0.5973 -0.0045,-0.01 0.01737,-0.2068 0.0057,-0.01 0.04722,-0.5977 -0.0045,-0.01 0.01548,-0.2069 0.0057,-0.01 0.04194,-0.5981 -0.0049,-0.01 0.0136,-0.207 0.006,-0.01 0.03668,-0.5984 -0.0049,-0.01 0.01171,-0.2071 0.0057,-0.01 0.03135,-0.5988 -0.0049,-0.01 0.0102,-0.2072 0.0057,-0.01 0.02606,-0.599 -0.0049,-0.01 0.0083,-0.2073 0.0053,-0.01 0.02115,-0.5993 -0.0053,-0.01 0.0064,-0.2073 0.0057,-0.01 0.01586,-0.5994 -0.0053,-0.01 0.0045,-0.2074 0.0057,-0.01 0.01018,-0.5996 -0.0049,-0.01 0.0026,-0.2073 0.0053,-0.01 0.0053,-0.5997 -0.0053,-0.01 8e-4,-0.2073 0.0053,-0.01 v -0.5997 l -0.0053,-0.01 -7.5e-4,-0.2073 0.0053,-0.01 -0.0053,-0.5998 -0.0053,-0.01 -0.0026,-0.2072 0.0049,-0.01 -0.0102,-0.5997 -0.0057,-0.01 -0.0045,-0.2072 0.0053,-0.01 -0.01588,-0.5996 -0.0057,-0.01 -0.0064,-0.2071 0.0053,-0.01 -0.02117,-0.5995 -0.0053,-0.01 -0.0083,-0.2071 0.0049,-0.01 -0.02608,-0.5992 -0.0057,-0.01 -0.01019,-0.207 0.0049,-0.01 -0.03137,-0.599 -0.0057,-0.01 -0.01169,-0.2068 0.0049,-0.01 -0.03665,-0.5988 -0.006,-0.01 -0.01363,-0.2067 0.0049,-0.01 -0.04194,-0.5985 -0.0057,-0.01 -0.01548,-0.2065 0.0045,-0.01 -0.04722,-0.5981 -0.0057,-0.01 -0.01737,-0.2065 0.0045,-0.01 -0.05214,-0.5977 -0.006,-0.01 -0.01893,-0.2061 0.0045,-0.01 -0.05781,-0.5972 -0.006,-0.01 -0.02081,-0.206 0.0045,-0.01 -0.06272,-0.5967 -0.006,-0.01 -0.02271,-0.2058 0.0042,-0.01 -0.06805,-0.5961 -0.006,-0.01 -0.0246,-0.2056 0.0045,-0.01 -0.0733,-0.5956 -0.006,-0.01 -0.02648,-0.2052 0.0042,-0.01 -0.07826,-0.5949 -0.0064,-0.01 -0.02798,-0.205 0.0042,-0.01 -0.08355,-0.5942 -0.0064,-0.01 -0.02988,-0.2048 0.0042,-0.01 -0.08884,-0.5934 -0.0064,-0.01 -0.03176,-0.2045 0.0042,-0.01 -0.09413,-0.5927 -0.0064,-0.01 -0.03366,-0.2041 0.0042,-0.01 -0.09904,-0.592 -0.0068,-0.01 -0.03515,-0.2038 0.0038,-0.01 -0.104325,-0.591 -0.0064,-0.01 -0.03705,-0.2034 0.0038,-0.01 -0.109616,-0.5901 -0.0064,-0.01 -0.149682,-0.8014 -0.0079,-0.01 -0.155734,-0.7995 -1.645607,-1.5345 -2.233323,-0.2743 -1.968,1.0909 -0.950929,2.0393 0.287622,1.4793 0.271748,1.5038 0.24567,1.5083 0.219212,1.5125 0.193134,1.5158 0.166299,1.519 0.139843,1.5218 0.113008,1.524 0.08693,1.5256 0.05972,1.5273 0.03326,1.5275 0.0068,1.528 -0.02003,1.5282 -0.04649,1.5275 -0.07332,1.5262 -0.100159,1.5249 -0.126614,1.5229 -0.153071,1.5206 -0.179527,1.5175 -0.205984,1.5142 -0.232441,1.5103 -0.258898,1.506 -0.284976,1.5015 -0.311055,1.496 -0.337512,1.4908 -0.363213,1.4839 -0.388913,1.4779 -0.414992,1.4709 -0.440315,1.4632 -0.466016,1.4556 -0.490961,1.4468 -0.516283,1.4383 -0.541607,1.4291 -0.566173,1.4195 -0.591118,1.4092 -0.615307,1.3986 -0.639874,1.3877 -0.663685,1.3766 -0.687874,1.3648 -0.711685,1.3523 -0.735118,1.3394 -0.758173,1.327 -0.781229,1.3134 -0.804283,1.299 -0.826583,1.2855 -0.848882,1.2706 -0.871181,1.2556 -0.892724,1.2401 -0.914268,1.2245 -0.935811,1.2083 -0.956598,1.1921 -0.977008,1.1747 -0.997418,1.1577 -1.017826,1.1402 -0.43389,0.4736 -0.120189,-0.2362 -0.443339,-0.2256 -0.226015,-0.4434 -0.443339,-0.226 -0.226016,-0.4437 -0.443338,-0.2257 -0.226016,-0.4437 -0.443339,-0.2256 -0.226015,-0.4433 -0.443339,-0.2261 -0.226016,-0.4437 -0.443338,-0.2256 -0.226016,-0.4434 -0.443339,-0.226 -0.226015,-0.4433 -0.443339,-0.226 -0.226016,-0.4434 -0.443338,-0.226 -0.226016,-0.4433 -0.443339,-0.226 -0.226015,-0.4434 -0.443339,-0.226 -0.226016,-0.4433 -0.443338,-0.226 -0.226016,-0.4434 -0.443339,-0.226 -0.226015,-0.4433 -0.443339,-0.226 -0.226016,-0.4434 -0.443338,-0.226 -0.226016,-0.4433 -0.443339,-0.2261 -0.226015,-0.4433 -2.004662,-1.0216 -2.222362,0.3519 -1.434709,1.4271 -0.865134,0.8281 -0.879496,0.813 -0.89348,0.7979 -0.907465,0.7816 -0.920692,0.7657 -0.933922,0.7498 -0.947149,0.7333 -0.959622,0.7166 -0.972095,0.6999 -0.984189,0.6826 -0.995868,0.6656 -1.007281,0.6478 -1.018394,0.6301 -0.348737,0.2097 -1.813304,-1.5001 -2.477291,-1.166 -2.689399,-0.5128 -2.732447,0.1719 -2.60383,0.8459 -2.311635,1.4672 -1.874192,1.9956 -1.319017,2.3992 -0.680844,2.6518 v 2.7378 l 0.680844,2.6521 1.319017,2.3993 1.874192,1.9956 2.311635,1.4672 2.60383,0.8458 2.732447,0.172 2.689323,-0.5129 2.477215,-1.166 2.109543,-1.745 1.609247,-2.2148 1.007849,-2.5459 0.343181,-2.7163 -0.187842,-1.4865 1.882961,-1.1391 2.208,-1.4419 2.156598,-1.5183 2.102173,-1.5927 2.045103,-1.6648 1.986141,-1.7356 0.184441,-0.1678 0.189732,0.3723 0.443717,0.2256 0.225638,0.4437 0.443338,0.2257 0.226016,0.4437 0.443717,0.2256 0.225637,0.4437 0.443717,0.2257 0.225638,0.4437 0.443338,0.2256 0.226016,0.4434 0.443717,0.226 0.225637,0.4437 0.443339,0.2256 0.226016,0.4438 0.443338,0.2256 0.226016,0.4433 0.443339,0.226 0.226015,0.4438 0.443339,0.2256 0.226016,0.4433 0.443338,0.2261 0.226016,0.4433 0.443339,0.226 0.226015,0.4433 0.443339,0.2261 0.226016,0.4433 0.443338,0.226 0.226016,0.4434 0.443339,0.226 0.226015,0.4433 0.443339,0.226 0.226016,0.4434 2.005039,1.0216 2.222362,-0.3519 0.576756,-0.5768 0.01058,-9e-4 0.573356,-0.5834 0.0091,-7e-4 0.421025,-0.4294 0.0015,-0.01 0.145518,-0.1488 0.0091,-9e-4 0.417624,-0.4334 0.0011,-0.01 0.144395,-0.1502 0.0091,-10e-4 0.413466,-0.4367 0.0015,-0.01 0.142872,-0.1515 0.0091,-10e-4 0.409686,-0.4404 0.0011,-0.01 0.14175,-0.1527 0.0091,-9e-4 0.405907,-0.4443 0.0011,-0.01 0.140237,-0.1538 0.0091,-9e-4 0.402128,-0.4477 7.55e-4,-0.01 0.139087,-0.1553 0.0091,-0 0.39797,-0.4513 0.0011,-0.01 0.137592,-0.1564 0.0087,-9e-4 0.394579,-0.4546 7.56e-4,-0.01 0.136063,-0.1579 0.0091,-9e-4 0.390033,-0.4583 0.0011,-0.01 0.134569,-0.1587 0.0091,-0 0.386253,-0.4615 7.56e-4,-0.01 0.133417,-0.1602 0.0087,-0 0.382107,-0.4649 7.56e-4,-0.01 0.131906,-0.1614 0.0091,-0 0.377939,-0.4683 7.55e-4,-0.01 0.130394,-0.1625 0.0091,-0 0.374159,-0.4717 3.78e-4,-0.01 0.128882,-0.1632 0.0091,-0 0.370002,-0.4749 3.78e-4,-0.01 0.127748,-0.1648 0.0087,-0 0.365855,-0.4783 3.78e-4,-0.01 0.126236,-0.1655 0.0087,-0 0.361698,-0.4813 v -0.01 l 0.125102,-0.1668 0.0087,-0 0.35754,-0.4848 v -0.01 l 0.123213,-0.1677 0.0087,-0 0.353383,-0.4878 v -0.01 l 0.122078,-0.1689 0.0087,-0 0.348848,-0.491 v -0.01 l 0.120567,-0.17 0.0083,-0 0.345078,-0.4936 -3.78e-4,-0.01 0.119056,-0.1711 0.0087,-0 0.340154,-0.497 v -0.01 l 0.117543,-0.1719 0.0083,-0 0.336386,-0.4998 -3.78e-4,-0.01 0.115654,-0.1731 0.0087,-0 0.331839,-0.5029 -3.78e-4,-0.01 0.11452,-0.1741 0.0083,-0 0.327315,-0.5056 -3.78e-4,-0.01 0.113008,-0.1753 0.0083,-0 0.323158,-0.5085 -7.56e-4,-0.01 0.111496,-0.1761 0.0083,-0 0.318622,-0.5116 -7.56e-4,-0.01 0.109984,-0.1768 0.0083,-0 0.314087,-0.514 -7.56e-4,-0.01 0.108472,-0.1778 0.0083,-0 0.309552,-0.517 -7.56e-4,-0.01 0.106582,-0.179 0.0083,-0 0.305016,-0.5199 -7.56e-4,-0.01 0.105071,-0.1794 0.0083,-0 0.300481,-0.5225 -7.56e-4,-0.01 0.103559,-0.1805 0.0083,-0 0.295945,-0.525 -0.0011,-0.01 0.10203,-0.1816 0.0083,-0 0.29141,-0.5277 -0.0011,-0.01 0.100518,-0.1825 0.0079,-0 0.286885,-0.53 -0.0011,-0.01 0.09863,-0.1832 0.0083,-0 0.282339,-0.5327 -0.0015,-0.01 0.09751,-0.1844 0.0079,-0 0.277436,-0.5349 -0.0011,-0.01 0.09561,-0.1851 0.0079,-0 0.272901,-0.5376 -0.0011,-0.01 0.09372,-0.1858 0.0079,-0 0.268365,-0.5399 -0.0015,-0.01 0.09221,-0.1865 0.0079,-0 0.26383,-0.5424 -0.0015,-0.01 0.09032,-0.1874 0.0079,-0 0.258916,-0.5446 -0.0015,-0.01 0.08881,-0.1881 0.0079,-0 0.254004,-0.5468 -0.0015,-0.01 0.0873,-0.1888 0.0079,-0 0.249468,-0.5492 -0.0019,-0.01 0.0858,-0.1897 0.0076,-0 0.244516,-0.5512 -0.0019,-0.01 0.08428,-0.1904 0.0076,-0 0.239602,-0.5535 -0.0019,-0.01 0.0824,-0.191 0.0079,-0 0.234727,-0.5557 -0.0019,-0.01 0.08088,-0.1918 0.0076,-0 0.230154,-0.5576 -0.0023,-0.01 0.079,-0.1925 0.0076,-0 0.22524,-0.5597 -0.0019,-0.01 0.07711,-0.1931 0.0076,-0 z"
         style="fill:none;stroke:#000000"
         id="p_circuit_01"/>
      <path
         d="m -1.70516,1198.2308 -0.84759,-0.5378 -0.687208,-0.7321 -0.483629,-0.8795 -0.249641,-0.9725 v -1.0038 l 0.249641,-0.9725 0.483629,-0.8795 0.687208,-0.7317 0.84759,-0.5382 0.954746,-0.3099 1.00186,-0.063 0.986115,0.1882 0.908319,0.427 0.773484,0.6399 0.59009,0.8122 0.369551,0.9336 0.125782,0.9959 -0.125782,0.9959 -0.369551,0.9335 -0.59009,0.8123 -0.773484,0.6398 -0.908319,0.4275 -0.986115,0.1878 -1.00186,-0.063 z m 3.654671,18.7482 0.00732,-0.01 h 0.208541 0.00761 l 0.600818,-0.014 0.00727,-0.01 0.208534,-0.01 h 0.00762 l 0.600641,-0.019 0.00726,-0.01 0.208416,-0.01 0.00767,0.01 0.6004925,-0.028 0.00718,-0.01 0.2083665,-0.01 H 4.645 l 0.600188,-0.029 0.00714,-0.01 0.2082915,-0.01 h 0.00775 l 0.599885,-0.034 0.00714,-0.01 0.20814,-0.012 h 0.00779 l 0.599544,-0.04 0.00711,-0.01 0.208023,-0.013 h 0.00782 l 0.59917,-0.045 0.00703,-0.01 0.207836,-0.015 h 0.0079 l 0.598752,-0.051 0.00695,-0.01 0.2077625,-0.017 h 0.0079 l 0.598261,-0.054 0.00688,-0.01 0.2075335,-0.019 h 0.00797 l 0.5977725,-0.061 0.0068,-0.01 0.207366,-0.021 h 0.008 l 0.597172,-0.065 0.0068,-0.01 0.207138,-0.022 h 0.0081 l 0.596537,-0.071 0.0068,-0.01 0.206874,-0.024 h 0.0081 l 0.595837,-0.077 0.0067,-0.01 0.206697,-0.026 h 0.0081 l 0.595175,-0.082 0.0067,-0.01 0.206452,-0.028 h 0.0081 l 0.594457,-0.087 0.0066,-0.01 0.206161,-0.03 h 0.0082 l 0.593633,-0.092 0.0065,-0.01 0.205909,-0.032 h 0.0082 l 0.592801,-0.097 0.0065,-0.01 0.205588,-0.034 h 0.0082 l 0.591932,-0.1022 0.0064,-0.01 0.205242,-0.035 h 0.0083 l 0.590975,-0.1075 0.0063,-0.01 0.204989,-0.037 h 0.0083 l 0.589973,-0.1126 0.0064,-0.01 0.204523,-0.038 h 0.0084 l 0.588922,-0.1179 0.0063,-0.01 0.204195,-0.04 h 0.0084 l 0.587863,-0.1234 0.0062,-0.01 0.203867,-0.042 h 0.0084 l 0.586805,-0.1283 0.0061,-0.01 0.203464,-0.044 h 0.0084 l 0.585652,-0.1332 0.0061,-0.01 0.203029,-0.046 h 0.0085 l 0.584374,-0.1385 0.006,-0.01 0.202664,-0.047 h 0.0085 l 0.583202,-0.1438 0.0059,-0.01 0.202184,-0.05 h 0.0085 l 0.581917,-0.1487 0.0059,-0.01 0.201731,-0.051 h 0.0085 l 0.580595,-0.1538 0.0058,-0.01 0.20127,-0.053 h 0.0086 l 0.579127,-0.1591 0.0058,-0.01 0.200723,-0.056 h 0.0087 l 0.577754,-0.1643 0.0056,-0.01 0.200331,-0.056 h 0.0086 l 0.576349,-0.1693 0.0056,-0.01 0.199745,-0.058 h 0.0087 l 0.574731,-0.1743 0.0056,-0.01 0.199178,-0.061 h 0.0087 l 0.573256,-0.1793 0.0055,-0.01 0.19868,-0.062 h 0.0087 l 0.571651,-0.1844 0.0054,-0.01 0.198088,-0.064 h 0.0088 l 0.569975,-0.1891 0.0053,-0.01 0.197571,-0.066 h 0.0088 l 0.568274,-0.1942 0.0053,-0.01 0.196948,-0.068 h 0.0088 l 0.566535,-0.1993 0.0053,-0.01 0.196323,-0.069 h 0.0088 l 0.564835,-0.2044 0.0052,-0.01 0.195655,-0.071 h 0.0088 l 0.563021,-0.2093 0.0051,-0.01 0.195062,-0.073 h 0.0088 l 0.56115,-0.2142 0.0051,-0.01 0.194402,-0.075 h 0.0089 l 0.559172,-0.2192 0.005,-0.01 0.193752,-0.076 h 0.0089 l 0.557282,-0.2241 0.0049,-0.01 0.193065,-0.078 0.0089,9e-4 0.555317,-0.2288 0.0048,-0.01 0.192397,-0.08 0.0089,9e-4 0.553313,-0.2337 0.0048,-0.01 0.191642,-0.081 0.0089,9e-4 0.551141,-0.2386 0.0049,-0.01 0.190873,-0.083 0.0087,9e-4 0.549163,-0.2436 0.0045,-0.01 0.190506,-0.085 0.0091,9e-4 0.546884,-0.2485 0.0045,-0.01 0.189373,-0.086 0.0091,7e-4 0.544615,-0.2532 0.0045,-0.01 0.188616,-0.088 0.0091,9e-4 0.542348,-0.2579 0.0045,-0.01 0.18786,-0.09 0.0091,7e-4 0.540081,-0.2626 0.0045,-0.01 0.187105,-0.092 0.0091,8e-4 0.537812,-0.2672 0.0042,-0.01 0.18631,-0.093 0.0091,6e-4 0.535544,-0.2719 0.0042,-0.01 0.185554,-0.095 0.0091,8e-4 0.532899,-0.277 0.0042,-0.01 0.184799,-0.096 0.0087,5e-4 0.531022,-0.2817 0.0038,-0.01 0.184053,-0.098 0.0091,5e-4 0.527986,-0.2862 0.0042,-0.01 0.182908,-0.099 0.0091,10e-4 0.52534,-0.2914 0.0042,-0.01 0.181774,-0.101 0.0091,7e-4 0.52345,-0.2959 0.0038,-0.01 0.181029,-0.1023 0.0091,8e-4 0.520427,-0.3005 0.0038,-0.01 0.180273,-0.1042 0.0091,7e-4 0.517781,-0.305 0.0038,-0.01 0.179139,-0.106 0.0094,7e-4 0.515175,-0.3095 0.0034,-0.01 0.178395,-0.1072 0.0091,3e-4 0.51249,-0.314 0.0038,-0.01 0.17725,-0.1088 0.0091,4e-4 0.509844,-0.3182 0.0034,-0.01 0.176505,-0.1104 0.0091,4e-4 0.50682,-0.3228 0.0034,-0.01 0.175371,-0.1119 0.0094,3e-4 0.503836,-0.3276 0.0034,-0.01 0.684852,-0.4448 0.0038,-0.01 0.680305,-0.4502 0.788032,-2.1079 -0.601323,-2.1683 -1.760882,-1.4007 -2.248063,-0.098 -1.256693,0.8317 -1.285417,0.827 -1.299024,0.8039 -1.313764,0.7816 -1.326614,0.7582 -1.339842,0.7351 -1.351937,0.7113 -1.364788,0.6879 -1.376655,0.664 -1.387616,0.6395 -1.398727,0.6157 -1.409235,0.5908 -1.419401,0.5665 -1.429078,0.5412 -1.438337,0.5163 -1.44684,0.4914 -1.455534,0.466 -1.463244,0.4403 -1.470841,0.4146 -1.477871,0.3893 -1.483956,0.3632 -1.490797,0.3372 -1.495975,0.311 -1.501455,0.2854 -1.506142,0.2585 -1.510185,0.2324 -1.514193,0.2064 -1.5175175,0.1795 -1.520579,0.1531 -1.522923,0.1266 -1.524888,0.1 -1.526208,0.073 -1.527477,0.047 -1.528221,0.02 -1.527995,-0.01 -1.52753,-0.032 -1.527243,-0.06 -1.525644,-0.087 -1.523868,-0.1131 -1.521902,-0.1398 -1.5188795,-0.1663 -1.515893,-0.1928 -1.512454,-0.2192 -1.508409,-0.2457 -1.503723,-0.2721 -1.498431,-0.2978 -1.493594,-0.3243 -1.487282,-0.3504 -1.481424,-0.3764 -1.474242,-0.4018 -1.466986,-0.4274 -1.459616,-0.4532 -1.451263,-0.4789 -1.442645,-0.5038 -1.433651,-0.5287 -1.424239,-0.5537 -1.414262,-0.5787 -1.404132,-0.6032 -1.393323,-0.6278 -1.382324,-0.6519 -1.370079,-0.6758 -1.359118,-0.6996 -1.34589,-0.7234 -1.333417,-0.7469 -1.319811,-0.7695 -1.306583,-0.7929 -1.29222,-0.8156 -1.278236,-0.838 -1.263119,-0.8598 -1.247622,-0.8818 -1.232504,-0.9036 -1.216629,-0.9253 -1.2,-0.946 -1.183371,-0.9668 -1.166362,-0.9872 -1.148598,-1.0076 -1.041638,-0.9457 0.235843,-0.1202 0.226015,-0.4433 0.443339,-0.226 0.226016,-0.4433 0.443338,-0.2261 0.226016,-0.4433 0.443339,-0.2256 0.226015,-0.4438 0.443339,-0.226 0.226016,-0.4433 0.443338,-0.2256 0.226016,-0.4438 0.443339,-0.2256 0.225637,-0.4437 0.443717,-0.226 0.226016,-0.4434 0.443338,-0.2256 0.225638,-0.4437 0.443717,-0.2257 0.225637,-0.4437 0.443717,-0.2256 0.226016,-0.4437 0.443338,-0.2257 0.225638,-0.4437 0.443717,-0.2256 0.189732,-0.3723 1.962708,1.7272 2.039434,1.6725 2.096503,1.6002 2.15093,1.5262 2.203086,1.4498 2.252221,1.3724 2.298633,1.2926 2.342475,1.2117 2.383333,1.1293 2.421241,1.0454 2.456352,0.9604 2.488328,0.8742 2.517279,0.7865 2.543206,0.6981 2.566035,0.6093 2.585726,0.5193 2.60228,0.4286 0.491149,0.065 0.330218,1.2862 1.3189795,2.3992 1.874192,1.996 2.311635,1.4668 2.603853,0.8462 2.732394,0.172 2.689372,-0.5133 2.47731,-1.1656 2.109544,-1.745 1.609247,-2.2151 1.0078855,-2.5456 0.343144,-2.7163 -0.343144,-2.7164 -1.0078855,-2.5455 -1.609247,-2.2148 -2.109544,-1.7454 -2.47731,-1.1656 -2.689372,-0.5132 -2.732394,0.1719 -2.603853,0.8463 -2.311635,1.4668 -1.874192,1.996 -1.2187085,2.2167 -0.975988,-0.1512 -1.180422,-0.2026 -1.176831,-0.2237 -1.172448,-0.2438 -1.168025,-0.2642 -1.163678,-0.285 -1.158085,-0.3046 -1.152756,-0.325 -1.146898,-0.3455 -1.140775,-0.3651 -1.134274,-0.3851 -1.127168,-0.4044 -1.120177,-0.4245 -1.112239,-0.4437 -1.104567,-0.4634 -1.096441,-0.4822 -1.087597,-0.5016 -1.078753,-0.5204 -1.069568,-0.539 -1.059893,-0.5575 -1.050104,-0.5763 -1.039861,-0.5942 -1.029506,-0.6126 -1.018394,-0.6301 -1.007281,-0.6478 -0.995868,-0.6656 -0.984189,-0.6826 -0.972095,-0.6999 -0.959622,-0.7166 -0.947149,-0.7333 -0.933922,-0.7498 -0.920692,-0.7657 -0.907465,-0.7816 -0.89348,-0.7979 -0.879496,-0.813 -0.865134,-0.8281 -1.434709,-1.4271 -2.222362,-0.3519 -2.004662,1.0216 -0.226015,0.4433 -0.443339,0.2261 -0.226016,0.4433 -0.443338,0.226 -0.226016,0.4434 -0.443339,0.226 -0.226015,0.4433 -0.443339,0.226 -0.226016,0.4434 -0.443338,0.226 -0.226016,0.4433 -0.443339,0.226 -0.226015,0.4434 -0.443339,0.226 -0.226016,0.4433 -0.443338,0.226 -0.226016,0.4434 -0.443339,0.226 -0.226015,0.4433 -0.443339,0.226 -0.226016,0.4434 -0.443338,0.2256 -0.226016,0.4437 -0.443339,0.2261 -0.226015,0.4433 -0.443339,0.2256 -0.226016,0.4437 -0.443338,0.2257 -0.226016,0.4437 -0.443339,0.226 -0.226015,0.4434 -0.443339,0.2256 -0.226016,0.4437 -0.443338,0.2256 -0.226016,0.4438 -0.443339,0.2256 -0.226015,0.4437 -0.443339,0.2257 -0.226016,0.4437 -0.443338,0.2256 -1.021606,2.0051 0.352252,2.2223 0.576755,0.5768 0.0019,0.011 0.582042,0.5731 0.0015,0.01 0.428605,0.421 0.0091,7e-4 0.149277,0.1463 0.0019,0.01 0.432373,0.4168 0.0091,8e-4 0.150411,0.1448 0.0019,0.01 0.436153,0.4134 0.0091,5e-4 0.151545,0.1435 0.0019,0.01 0.439554,0.4096 0.0091,6e-4 0.153434,0.1419 0.0019,0.01 0.442956,0.4055 0.0091,6e-4 0.154568,0.1408 0.0019,0.01 0.446735,0.4017 0.0091,5e-4 0.155703,0.1393 0.0019,0.01 0.450137,0.398 0.0091,7e-4 0.156836,0.1376 0.0023,0.01 0.453527,0.3938 0.0091,7e-4 0.15797,0.1365 0.0023,0.01 0.456929,0.3898 0.0091,7e-4 0.159104,0.135 0.0023,0.01 0.460708,0.3856 0.0091,8e-4 0.160238,0.1334 0.0023,0.01 0.463732,0.3819 0.0091,7e-4 0.161749,0.1319 0.0023,0.01 0.467134,0.3778 0.0091,3e-4 0.162883,0.1308 0.0026,0.01 0.470196,0.3736 0.0091,4e-4 0.164017,0.1292 0.0026,0.01 0.473598,0.3694 0.0091,4e-4 0.164773,0.1278 0.0026,0.01 0.476999,0.3651 0.0091,4e-4 0.165907,0.1262 0.003,0.01 0.480012,0.361 0.0091,4e-4 0.167041,0.1247 0.003,0.01 0.483035,0.3569 0.0091,3e-4 0.168175,0.1232 0.003,0.01 0.486059,0.3527 h 0.0091 l 0.169309,0.1217 0.003,0.01 0.489461,0.3482 h 0.0091 l 0.170443,0.1205 0.003,0.01 0.492485,0.344 h 0.0091 l 0.171198,0.1187 0.0034,0.01 0.495119,0.3398 0.0091,-4e-4 0.172332,0.1176 0.0034,0.01 0.498142,0.3353 0.0091,-4e-4 0.173467,0.116 0.0034,0.01 0.501167,0.3308 0.0091,-4e-4 0.1746,0.1145 0.0034,0.01 0.503812,0.3268 0.0094,-3e-4 0.175395,0.1126 0.0034,0.01 0.506835,0.3221 0.0091,-4e-4 0.17649,0.1111 0.0034,0.01 0.509859,0.3175 0.0091,-4e-4 0.177246,0.1097 0.0038,0.01 0.512494,0.3131 0.0091,-3e-4 0.17838,0.1081 0.0034,0.01 0.515151,0.3087 0.0094,-7e-4 0.179174,0.1069 0.0038,0.01 0.517785,0.3042 0.0091,-7e-4 0.180269,0.1051 0.0038,0.01 0.520431,0.2997 0.0091,-8e-4 0.181025,0.1032 0.0038,0.01 0.523454,0.2951 0.0091,-7e-4 0.181781,0.102 0.0042,0.01 0.525333,0.2904 0.0091,-10e-4 0.182915,0.1 0.0042,0.01 0.527979,0.2859 0.0091,-5e-4 0.184048,0.098 0.0038,0.01 0.531013,0.2813 0.0087,-5e-4 0.184815,0.096 0.0042,0.01 0.532891,0.2768 h 0.0091 l 0.18556,0.095 0.0042,0.01 0.535538,0.2716 0.0091,-5e-4 0.186316,0.093 0.0042,0.01 0.537805,0.2671 0.0091,-10e-4 0.187072,0.092 0.0045,0.01 0.540112,0.2624 0.0091,-5e-4 0.187827,0.09 0.0045,0.01 0.54238,0.2579 0.0091,-10e-4 0.188583,0.088 0.0045,0.01 0.544648,0.2529 0.0091,-5e-4 0.18934,0.086 0.0045,0.01 0.546915,0.2482 0.0091,-10e-4 0.190473,0.085 0.0045,0.01 0.549183,0.2435 0.0087,-10e-4 0.190862,0.083 0.0049,0.01 0.551137,0.2385 0.0089,-10e-4 0.191669,0.081 0.0048,0.01 0.553303,0.2337 h 0.0089 l 0.192369,0.08 0.0048,0.01 0.555345,0.2287 0.0089,-0 0.193049,0.078 0.0049,0.01 0.557298,0.2241 h 0.0089 l 0.193767,0.076 0.005,0.01 0.559156,0.2191 0.0089,-10e-4 0.19441,0.075 0.0051,0.01 0.561128,0.2142 0.0088,-10e-4 0.195064,0.073 0.0051,0.01 0.563,0.2093 0.0088,-10e-4 0.195688,0.071 0.0052,0.01 0.564839,0.2044 0.0088,-10e-4 0.19633,0.069 0.0053,0.01 0.566528,0.1995 h 0.0088 l 0.196936,0.068 0.0053,0.01 0.568285,0.1942 0.0088,-10e-4 0.19754,0.066 0.0053,0.01 0.570005,0.1892 h 0.0088 l 0.198069,0.064 0.0054,0.01 0.571656,0.1845 h 0.0087 l 0.198685,0.062 0.0055,0.01 0.573231,0.1792 h 0.0087 l 0.199196,0.061 0.0056,0.01 0.57475,0.1745 h 0.0087 l 0.199725,0.059 0.0056,0.01 0.576337,0.1694 h 0.0086 l 0.200323,0.056 0.0056,0.01 0.577792,0.1646 h 0.0087 l 0.200708,0.055 0.0058,0.01 0.579128,0.1593 h 0.0086 l 0.201249,0.053 0.0058,0.01 0.580584,0.154 h 0.0085 l 0.201772,0.051 0.0059,0.01 0.581875,0.149 h 0.0085 l 0.202188,0.049 0.0059,0.01 0.583235,0.1439 h 0.0085 l 0.202642,0.047 0.006,0.01 0.584395,0.1388 h 0.0085 l 0.203019,0.047 0.0061,0.01 0.58563,0.1333 h 0.0084 l 0.203466,0.044 0.0061,0.01 0.58682,0.1284 h 0.0084 l 0.203863,0.043 0.0062,0.01 0.587867,0.1233 h 0.0084 l 0.204203,0.04 0.0063,0.01 0.588913,0.1182 h 0.0084 l 0.204543,0.038 0.0064,0.01 0.589959,0.1129 h 0.0083 l 0.204952,0.037 0.0063,0.01 0.590991,0.108 h 0.0083 l 0.205236,0.035 0.0064,0.01 0.591924,0.1025 h 0.0082 l 0.205625,0.033 0.0065,0.01 0.5928,0.097 h 0.0082 l 0.205891,0.032 0.0065,0.01 0.593651,0.092 h 0.0082 l 0.206155,0.03 0.0066,0.01 0.594432,0.087 h 0.0081 l 0.206489,0.028 0.0067,0.01 0.595138,0.082 h 0.0081 l 0.206715,0.026 0.0067,0.01 0.595838,0.077 h 0.0081 l 0.206885,0.024 0.0068,0.01 0.596543,0.071 h 0.0081 l 0.20713,0.022 0.0068,0.01 0.597148,0.066 h 0.008 l 0.207352,0.021 0.0068,0.01 0.5977905,0.061 h 0.00797 l 0.207536,0.018 0.00688,0.01 0.5982605,0.055 h 0.0079 l 0.20776,0.016 0.00695,0.01 0.5987545,0.051 h 0.0079 l 0.207836,0.014 0.00703,0.01 0.599168,0.045 h 0.00782 l 0.208027,0.012 0.00711,0.01 0.599544,0.04 h 0.00779 l 0.208136,0.012 0.00714,0.01 0.599888,0.035 0.00775,-10e-4 0.208289,0.011 0.00714,0.01 0.6001905,0.029 h 0.00775 l 0.208365,0.01 0.00718,0.01 0.6004915,0.024 0.00767,-0.01 0.2084155,0.01 0.00726,0.01 0.600645,0.019 h 0.00762 l 0.208533,0.01 0.00727,0.01 0.600816,0.014 h 0.00761 0.20854 l 0.00732,0.01 0.600993,0.01 0.00749,-0.01 h 0.208598 l 0.00739,0.011 h 0.601045 l 0.007494,-4e-4 0.208597,5e-4 0.00744,0.01 h 0.600932 l 0.00744,-0.01 H 0.51778 0.525274 1.126321 l 0.00739,-0.013 h 0.208594 l 0.00749,0.01 z"
         style="fill:none;stroke:#000000"
         id="p_circuit_00"/>
    </g>
    <path
       id="p_letter_M"
       style="fill:none;stroke:#000000"
       d="m 30.034885,1161.3849 h 13.325367 l -11.772926,-80.595 h -9.961172 l -19.532005,53.9445 -20.44058,-53.9445 h -9.833008 l -13.194293,80.595 h 13.325367 l 8.924258,-53.1697 18.500916,54.2038 H 2.60973 l 19.663064,-53.9446 z"/>
  </g>
</svg>
