<?xml version="1.0" encoding="UTF-8" standalone="no"?>
<!-- Created with Inkscape (http://www.inkscape.org/) -->

<svg
   xmlns:dc="http://purl.org/dc/elements/1.1/"
   xmlns:cc="http://creativecommons.org/ns#"
   xmlns:rdf="http://www.w3.org/1999/02/22-rdf-syntax-ns#"
   xmlns:svg="http://www.w3.org/2000/svg"
   xmlns="http://www.w3.org/2000/svg"
   xmlns:sodipodi="http://sodipodi.sourceforge.net/DTD/sodipodi-0.dtd"
   xmlns:inkscape="http://www.inkscape.org/namespaces/inkscape"
   width="76.862816mm"
   height="76.142555mm"
   viewBox="0 0 272.34856 269.79645"
   id="svg4295"
   version="1.1"
   inkscape:version="0.91 r13725"
   sodipodi:docname="Logo.svg">
  <defs
     id="defs4297" />
  <sodipodi:namedview
     id="base"
     pagecolor="#ffffff"
     bordercolor="#666666"
     borderopacity="1.0"
     inkscape:pageopacity="0.0"
     inkscape:pageshadow="2"
     inkscape:zoom="0.7"
     inkscape:cx="413.74272"
     inkscape:cy="-76.251664"
     inkscape:document-units="px"
     inkscape:current-layer="layer1"
     showgrid="false"
     fit-margin-top="0"
     fit-margin-left="0"
     fit-margin-right="0"
     fit-margin-bottom="0"
     inkscape:window-width="1920"
     inkscape:window-height="1031"
     inkscape:window-x="0"
     inkscape:window-y="25"
     inkscape:window-maximized="1" />
  <metadata
     id="metadata4300">
    <rdf:RDF>
      <cc:Work
         rdf:about="">
        <dc:format>image/svg+xml</dc:format>
        <dc:type
           rdf:resource="http://purl.org/dc/dcmitype/StillImage" />
        <dc:title></dc:title>
      </cc:Work>
    </rdf:RDF>
  </metadata>
  <g
     inkscape:label="Layer 1"
     inkscape:groupmode="layer"
     id="layer1"
     transform="translate(-83.825721,-171.74965)">
    <path
       inkscape:connector-curvature="0"
       id="path68"
       style="fill:#000000;fill-opacity:1;fill-rule:nonzero;stroke:none"
       d="m 251.87,286.88498 -29.4525,81.835 -4.84375,0 -27.69625,-82.22625 -13.37875,80.66375 -19.96,0 19.765,-122.265 14.72625,0 30.60625,81.83625 29.2575,-81.83625 14.92125,0 17.6375,122.265 -19.96125,0 -11.62125,-80.2725 z" />
    <g
       transform="matrix(1.25,0,0,1.2383037,-343.95,-1301.2356)"
       id="g70">
      <path
         inkscape:connector-curvature="0"
         id="path72"
         style="fill:none;stroke:#000000;stroke-width:4.01884699;stroke-linecap:round;stroke-linejoin:round;stroke-miterlimit:4;stroke-dasharray:none;stroke-opacity:1"
         d="m 549.684,1256.835 c -2.704,-6.396 -6.016,-12.476 -9.86,-18.162 -3.84,-5.69 -8.219,-10.99 -13.054,-15.828 -4.84,-4.838 -10.137,-9.211 -15.825,-13.056 -5.691,-3.844 -11.769,-7.153 -18.164,-9.858 -6.398,-2.705 -13.113,-4.806 -20.074,-6.23 -6.961,-1.427 -14.168,-2.173 -21.547,-2.173 l 0,10.69 c 6.641,0 13.129,0.675 19.395,1.956 6.261,1.282 12.308,3.174 18.062,5.607 5.758,2.437 11.227,5.414 16.348,8.876 m -148.086,99.194 c -1.285,-6.266 -1.957,-12.752 -1.957,-19.396 0,-6.64 0.672,-13.127 1.957,-19.393 m 0,0 c 1.281,-6.265 3.172,-12.31 5.605,-18.067" />
    </g>
    <g
       transform="matrix(1.25,0,0,1.2383037,-343.95,-1301.2356)"
       id="g74">
      <path
         inkscape:connector-curvature="0"
         id="path76"
         style="fill:none;stroke:#000000;stroke-width:4.01884699;stroke-linecap:round;stroke-linejoin:round;stroke-miterlimit:4;stroke-dasharray:none;stroke-opacity:1"
         d="m 433.918,1214.651 c 5.57,-1.139 11.336,-1.739 17.242,-1.739 5.906,0 11.672,0.6 17.238,1.739 5.571,1.14 10.942,2.819 16.059,4.984 5.117,2.165 9.981,4.811 14.531,7.887 4.551,3.075 8.789,6.577 12.66,10.445 3.872,3.872 7.372,8.111 10.446,12.661 3.074,4.551 5.722,9.413 7.886,14.531 l 9.852,-4.164 c -2.434,-5.753 -5.414,-11.226 -8.871,-16.344 -3.461,-5.123 -7.399,-9.89 -11.754,-14.243 m 15.758,50.807 c 1.14,5.572 1.738,11.337 1.738,17.24 0,5.907 -0.598,11.672 -1.738,17.243 -1.141,5.568 -2.82,10.938 -4.985,16.057 m -18.332,27.192 c -3.871,3.868 -8.109,7.369 -12.66,10.445 -4.55,3.072 -9.414,5.722 -14.531,7.886 -5.117,2.165 -10.488,3.845 -16.059,4.984 -5.566,1.14 -11.332,1.739 -17.238,1.739 l 0,10.69 c -6.644,0 -13.133,-0.67 -19.394,-1.952 -6.266,-1.281 -12.309,-3.174 -18.067,-5.607 -5.758,-2.437 -11.226,-5.418 -16.347,-8.876 -5.122,-3.458 -9.887,-7.397 -14.243,-11.75 -4.355,-4.354 -8.293,-9.125 -11.75,-14.243 l -8.867,5.978 c 3.844,5.69 8.219,10.989 13.055,15.828 4.84,4.834 10.137,9.211 15.828,13.055 5.687,3.845 11.766,7.153 18.16,9.858 6.399,2.705 13.113,4.807 20.074,6.23 6.961,1.428 14.168,2.173 21.551,2.173 7.379,0 14.586,-0.745 21.547,-2.173 6.961,-1.423 13.676,-3.525 20.074,-6.23 6.395,-2.705 12.473,-6.013 18.164,-9.858 m 20.016,-34.861 c 3.457,-5.118 6.437,-10.591 8.871,-16.348 2.438,-5.757 4.328,-11.798 5.609,-18.064 1.282,-6.266 1.954,-12.752 1.954,-19.396 0,-6.64 -0.672,-13.127 -1.954,-19.393 l 10.473,-2.157 c 1.426,6.964 2.176,14.168 2.176,21.55 0,7.385 -0.75,14.589 -2.176,21.553 -1.422,6.96 -3.523,13.675 -6.23,20.071 -2.704,6.395 -6.016,12.476 -9.86,18.162 -3.84,5.69 -8.219,10.989 -13.054,15.828 l -7.563,-7.563 c -4.352,4.353 -9.121,8.292 -14.242,11.75 -5.117,3.458 -10.59,6.439 -16.348,8.876 -5.754,2.433 -11.797,4.326 -18.062,5.607 m -36.637,-10.477 c -5.566,-1.139 -10.938,-2.819 -16.055,-4.984 -5.117,-2.164 -9.98,-4.814 -14.531,-7.886 -4.551,-3.076 -8.793,-6.577 -12.66,-10.445 -3.871,-3.873 -7.371,-8.111 -10.445,-12.662 -3.079,-4.55 -5.723,-9.412 -7.891,-14.53 l -19.703,8.324 c -2.707,-6.396 -4.805,-13.111 -6.231,-20.071 -1.425,-6.964 -2.172,-14.168 -2.172,-21.553 0,-7.382 0.747,-14.586 2.172,-21.55 1.426,-6.959 3.524,-13.674 6.231,-20.07 2.707,-6.396 6.015,-12.476 9.859,-18.162 l 8.867,5.978 c 3.457,-5.123 7.395,-9.89 11.75,-14.243 4.356,-4.353 9.121,-8.293 14.243,-11.751 5.121,-3.462 10.589,-6.439 16.347,-8.876 5.758,-2.433 11.801,-4.325 18.067,-5.607 l -2.157,-10.473 c -6.961,1.424 -13.675,3.525 -20.07,6.23 -6.398,2.705 -12.477,6.014 -18.164,9.858 -5.691,3.845 -10.988,8.218 -15.828,13.056 m -8.195,92.853 c -1.137,-5.571 -1.735,-11.336 -1.735,-17.243 0,-5.903 0.598,-11.668 1.735,-17.24 1.14,-5.567 2.82,-10.938 4.984,-16.056 2.168,-5.118 4.812,-9.98 7.891,-14.531 3.074,-4.55 6.574,-8.789 10.445,-12.661 3.867,-3.868 8.109,-7.37 12.66,-10.445" />
    </g>
    <g
       transform="matrix(1.25,0,0,1.25,-343.95,-1301.2356)"
       id="g78">
      <path
         inkscape:connector-curvature="0"
         id="path80"
         style="fill:#ffffff;fill-opacity:1;fill-rule:nonzero;stroke:#000000;stroke-width:4;stroke-linecap:round;stroke-linejoin:round;stroke-miterlimit:4;stroke-dasharray:none;stroke-opacity:1"
         d="m 507.016,1206.246 c 0,2.168 -1.762,3.93 -3.93,3.93 -2.172,0 -3.93,-1.762 -3.93,-3.93 0,-2.172 1.758,-3.93 3.93,-3.93 2.168,0 3.93,1.758 3.93,3.93 z" />
    </g>
    <g
       transform="matrix(1.25,0,0,1.25,-343.95,-1301.2356)"
       id="g82">
      <path
         inkscape:connector-curvature="0"
         id="path84"
         style="fill:#ffffff;fill-opacity:1;fill-rule:nonzero;stroke:#000000;stroke-width:4;stroke-linecap:round;stroke-linejoin:round;stroke-miterlimit:4;stroke-dasharray:none;stroke-opacity:1"
         d="m 523.441,1220.176 c 0,2.168 -1.757,3.926 -3.925,3.926 -2.172,0 -3.93,-1.758 -3.93,-3.926 0,-2.172 1.758,-3.93 3.93,-3.93 2.168,0 3.925,1.758 3.925,3.93 z" />
    </g>
    <g
       transform="matrix(1.25,0,0,1.25,-343.95,-1301.2356)"
       id="g86">
      <path
         inkscape:connector-curvature="0"
         id="path88"
         style="fill:#ffffff;fill-opacity:1;fill-rule:nonzero;stroke:#000000;stroke-width:4;stroke-linecap:round;stroke-linejoin:round;stroke-miterlimit:4;stroke-dasharray:none;stroke-opacity:1"
         d="m 436.656,1204.102 c 0,2.171 -1.758,3.929 -3.929,3.929 -2.168,0 -3.926,-1.758 -3.926,-3.929 0,-2.168 1.758,-3.926 3.926,-3.926 2.171,0 3.929,1.758 3.929,3.926 z" />
    </g>
    <g
       transform="matrix(1.25,0,0,1.25,-343.95,-1301.2356)"
       id="g90">
      <path
         inkscape:connector-curvature="0"
         id="path92"
         style="fill:#ffffff;fill-opacity:1;fill-rule:nonzero;stroke:#000000;stroke-width:4;stroke-linecap:round;stroke-linejoin:round;stroke-miterlimit:4;stroke-dasharray:none;stroke-opacity:1"
         d="m 408.441,1215.176 c 0,2.168 -1.757,3.926 -3.925,3.926 -2.172,0 -3.93,-1.758 -3.93,-3.926 0,-2.172 1.758,-3.93 3.93,-3.93 2.168,0 3.925,1.758 3.925,3.93 z" />
    </g>
    <g
       transform="matrix(1.25,0,0,1.25,-343.95,-1301.2356)"
       id="g94">
      <path
         inkscape:connector-curvature="0"
         id="path96"
         style="fill:#ffffff;fill-opacity:1;fill-rule:nonzero;stroke:#000000;stroke-width:4;stroke-linecap:round;stroke-linejoin:round;stroke-miterlimit:4;stroke-dasharray:none;stroke-opacity:1"
         d="m 365.586,1250.887 c 0,2.172 -1.758,3.929 -3.93,3.929 -2.168,0 -3.929,-1.757 -3.929,-3.929 0,-2.168 1.761,-3.926 3.929,-3.926 2.172,0 3.93,1.758 3.93,3.926 z" />
    </g>
    <g
       transform="matrix(1.25,0,0,1.25,-343.95,-1301.2356)"
       id="g98">
      <path
         inkscape:connector-curvature="0"
         id="path100"
         style="fill:#ffffff;fill-opacity:1;fill-rule:nonzero;stroke:#000000;stroke-width:4;stroke-linecap:round;stroke-linejoin:round;stroke-miterlimit:4;stroke-dasharray:none;stroke-opacity:1"
         d="m 533.441,1319.102 c 0,2.171 -1.757,3.929 -3.925,3.929 -2.172,0 -3.93,-1.758 -3.93,-3.929 0,-2.168 1.758,-3.926 3.93,-3.926 2.168,0 3.925,1.758 3.925,3.926 z" />
    </g>
    <g
       transform="matrix(1.25,0,0,1.25,-343.95,-1301.2356)"
       id="g102">
      <path
         inkscape:connector-curvature="0"
         id="path104"
         style="fill:#ffffff;fill-opacity:1;fill-rule:nonzero;stroke:#000000;stroke-width:4;stroke-linecap:round;stroke-linejoin:round;stroke-miterlimit:4;stroke-dasharray:none;stroke-opacity:1"
         d="m 514.516,1347.316 c 0,2.172 -1.762,3.93 -3.93,3.93 -2.172,0 -3.93,-1.758 -3.93,-3.93 0,-2.168 1.758,-3.929 3.93,-3.929 2.168,0 3.93,1.761 3.93,3.929 z" />
    </g>
    <g
       transform="matrix(1.25,0,0,1.25,-343.95,-1301.2356)"
       id="g106">
      <path
         inkscape:connector-curvature="0"
         id="path108"
         style="fill:#ffffff;fill-opacity:1;fill-rule:nonzero;stroke:#000000;stroke-width:4;stroke-linecap:round;stroke-linejoin:round;stroke-miterlimit:4;stroke-dasharray:none;stroke-opacity:1"
         d="m 535.586,1336.961 c 0,2.168 -1.758,3.926 -3.93,3.926 -2.168,0 -3.929,-1.758 -3.929,-3.926 0,-2.172 1.761,-3.93 3.929,-3.93 2.172,0 3.93,1.758 3.93,3.93 z" />
    </g>
    <g
       transform="matrix(1.25,0,0,1.25,-343.95,-1301.2356)"
       id="g110">
      <path
         inkscape:connector-curvature="0"
         id="path112"
         style="fill:#ffffff;fill-opacity:1;fill-rule:nonzero;stroke:#000000;stroke-width:4;stroke-linecap:round;stroke-linejoin:round;stroke-miterlimit:4;stroke-dasharray:none;stroke-opacity:1"
         d="m 436.301,1368.746 c 0,2.168 -1.762,3.93 -3.93,3.93 -2.168,0 -3.93,-1.762 -3.93,-3.93 0,-2.172 1.762,-3.93 3.93,-3.93 2.168,0 3.93,1.758 3.93,3.93 z" />
    </g>
    <g
       transform="matrix(1.25,0,0,1.25,-343.95,-1301.2356)"
       id="g114">
      <path
         inkscape:connector-curvature="0"
         id="path116"
         style="fill:#ffffff;fill-opacity:1;fill-rule:nonzero;stroke:#000000;stroke-width:4;stroke-linecap:round;stroke-linejoin:round;stroke-miterlimit:4;stroke-dasharray:none;stroke-opacity:1"
         d="m 475.941,1379.102 c 0,2.171 -1.757,3.929 -3.925,3.929 -2.172,0 -3.93,-1.758 -3.93,-3.929 0,-2.168 1.758,-3.926 3.93,-3.926 2.168,0 3.925,1.758 3.925,3.926 z" />
    </g>
  </g>
</svg>
