<?xml version="1.0" encoding="UTF-8" standalone="no"?>
<!-- Created with Inkscape (http://www.inkscape.org/) -->

<svg
   xmlns:dc="http://purl.org/dc/elements/1.1/"
   xmlns:cc="http://creativecommons.org/ns#"
   xmlns:rdf="http://www.w3.org/1999/02/22-rdf-syntax-ns#"
   xmlns:svg="http://www.w3.org/2000/svg"
   xmlns="http://www.w3.org/2000/svg"
   xmlns:sodipodi="http://sodipodi.sourceforge.net/DTD/sodipodi-0.dtd"
   xmlns:inkscape="http://www.inkscape.org/namespaces/inkscape"
   width="76.862816mm"
   height="76.142555mm"
   viewBox="0 0 272.34856 269.79645"
   id="svg4295"
   version="1.1"
   inkscape:version="0.91 r13725"
   sodipodi:docname="Logo.inkscape.svg">
  <defs
     id="defs4297" />
  <sodipodi:namedview
     id="base"
     pagecolor="#ffffff"
     bordercolor="#666666"
     borderopacity="1.0"
     inkscape:pageopacity="0.0"
     inkscape:pageshadow="2"
     inkscape:zoom="2.8"
     inkscape:cx="64.36202"
     inkscape:cy="126.7095"
     inkscape:document-units="px"
     inkscape:current-layer="layer1"
     showgrid="false"
     fit-margin-top="0"
     fit-margin-left="0"
     fit-margin-right="0"
     fit-margin-bottom="0"
     inkscape:window-width="1920"
     inkscape:window-height="1031"
     inkscape:window-x="0"
     inkscape:window-y="25"
     inkscape:window-maximized="1" />
  <metadata
     id="metadata4300">
    <rdf:RDF>
      <cc:Work
         rdf:about="">
        <dc:format>image/svg+xml</dc:format>
        <dc:type
           rdf:resource="http://purl.org/dc/dcmitype/StillImage" />
        <dc:title></dc:title>
      </cc:Work>
    </rdf:RDF>
  </metadata>
  <g
     inkscape:label="Layer 1"
     inkscape:groupmode="layer"
     id="layer1"
     transform="translate(-83.825721,-171.74965)">
    <path
       inkscape:connector-curvature="0"
       id="path68"
       style="fill:#000000;fill-opacity:1;fill-rule:nonzero;stroke:none"
       d="m 251.87,286.88498 -29.4525,81.835 -4.84375,0 -27.69625,-82.22625 -13.37875,80.66375 -19.96,0 19.765,-122.265 14.72625,0 30.60625,81.83625 29.2575,-81.83625 14.92125,0 17.6375,122.265 -19.96125,0 -11.62125,-80.2725 z" />
    <g
       id="g3643">
      <path
         style="fill:none;stroke:#000000;stroke-width:5.00000048;stroke-linecap:round;stroke-linejoin:round;stroke-miterlimit:4;stroke-dasharray:none;stroke-opacity:1"
         d="m 343.155,255.10783 c -3.38,-7.92019 -7.52,-15.44908 -12.325,-22.49007 -4.8,-7.04595 -10.27375,-13.60896 -16.3175,-19.59987 -6.05,-5.99092 -12.67125,-11.40602 -19.78125,-16.1673 -7.11375,-4.76003 -14.71125,-8.85758 -22.705,-12.20719 -7.9975,-3.34961 -16.39125,-5.95129 -25.0925,-7.71464 -8.70125,-1.76705 -17.71,-2.69083 -26.93375,-2.69083 l 0,13.23747 c 8.30125,0 16.41125,0.83585 24.24375,2.42212 7.82625,1.5875 15.385,3.93038 22.5775,6.94317 7.1975,3.01774 14.03375,6.70417 20.435,10.99118"
         id="path3610"
         inkscape:connector-curvature="0" />
      <g
         id="g78"
         transform="matrix(1.25,0,0,1.25,-343.95,-1301.2356)">
        <path
           d="m 507.016,1206.246 c 0,2.168 -1.762,3.93 -3.93,3.93 -2.172,0 -3.93,-1.762 -3.93,-3.93 0,-2.172 1.758,-3.93 3.93,-3.93 2.168,0 3.93,1.758 3.93,3.93 z"
           style="fill:#ffffff;fill-opacity:1;fill-rule:nonzero;stroke:#000000;stroke-width:4;stroke-linecap:round;stroke-linejoin:round;stroke-miterlimit:4;stroke-dasharray:none;stroke-opacity:1"
           id="path80"
           inkscape:connector-curvature="0" />
      </g>
    </g>
    <g
       id="g3636">
      <path
         style="fill:none;stroke:#000000;stroke-width:5.00000048;stroke-linecap:round;stroke-linejoin:round;stroke-miterlimit:4;stroke-dasharray:none;stroke-opacity:1"
         d="m 198.4475,202.87123 c 6.9625,-1.41043 14.17,-2.15341 21.5525,-2.15341 7.3825,0 14.59,0.74298 21.5475,2.15341 6.96375,1.41166 13.6775,3.49078 20.07375,6.1717 6.39625,2.68093 12.47625,5.95748 18.16375,9.7665 5.68875,3.80779 10.98625,8.14433 15.825,12.93409 4.84,4.79471 9.215,10.04388 13.0575,15.67816 3.8425,5.63552 7.1525,11.65615 9.8575,17.99379 l 12.315,-5.1563 c -3.0425,-7.12396 -6.7675,-13.90119 -11.08875,-20.23883 -4.32625,-6.34383 -9.24875,-12.24683 -14.6925,-17.63716"
         id="path3604"
         inkscape:connector-curvature="0" />
      <g
         id="g82"
         transform="matrix(1.25,0,0,1.25,-343.95,-1301.2356)">
        <path
           d="m 523.441,1220.176 c 0,2.168 -1.757,3.926 -3.925,3.926 -2.172,0 -3.93,-1.758 -3.93,-3.926 0,-2.172 1.758,-3.93 3.93,-3.93 2.168,0 3.925,1.758 3.925,3.93 z"
           style="fill:#ffffff;fill-opacity:1;fill-rule:nonzero;stroke:#000000;stroke-width:4;stroke-linecap:round;stroke-linejoin:round;stroke-miterlimit:4;stroke-dasharray:none;stroke-opacity:1"
           id="path84"
           inkscape:connector-curvature="0" />
      </g>
      <g
         id="g86"
         transform="matrix(1.25,0,0,1.25,-343.95,-1301.2356)">
        <path
           d="m 436.656,1204.102 c 0,2.171 -1.758,3.929 -3.929,3.929 -2.168,0 -3.926,-1.758 -3.926,-3.929 0,-2.168 1.758,-3.926 3.926,-3.926 2.171,0 3.929,1.758 3.929,3.926 z"
           style="fill:#ffffff;fill-opacity:1;fill-rule:nonzero;stroke:#000000;stroke-width:4;stroke-linecap:round;stroke-linejoin:round;stroke-miterlimit:4;stroke-dasharray:none;stroke-opacity:1"
           id="path88"
           inkscape:connector-curvature="0" />
      </g>
    </g>
    <g
       id="g3624">
      <path
         style="fill:none;stroke:#000000;stroke-width:5.00000048;stroke-linecap:round;stroke-linejoin:round;stroke-miterlimit:4;stroke-dasharray:none;stroke-opacity:1"
         d="m 115.24,327.9981 c -1.42125,-6.89859 -2.16875,-14.03741 -2.16875,-21.35207 0,-7.30971 0.7475,-14.44853 2.16875,-21.34836 1.425,-6.89363 3.525,-13.54456 6.23,-19.8822 2.71,-6.33764 6.015,-12.35827 9.86375,-17.99379 3.8425,-5.63428 8.2175,-10.88345 13.05625,-15.67816 4.83375,-4.78976 10.13625,-9.1263 15.825,-12.93409"
         id="path76"
         inkscape:connector-curvature="0" />
      <g
         id="g90"
         transform="matrix(1.25,0,0,1.25,-343.95,-1301.2356)">
        <path
           d="m 408.441,1215.176 c 0,2.168 -1.757,3.926 -3.925,3.926 -2.172,0 -3.93,-1.758 -3.93,-3.926 0,-2.172 1.758,-3.93 3.93,-3.93 2.168,0 3.925,1.758 3.925,3.93 z"
           style="fill:#ffffff;fill-opacity:1;fill-rule:nonzero;stroke:#000000;stroke-width:4;stroke-linecap:round;stroke-linejoin:round;stroke-miterlimit:4;stroke-dasharray:none;stroke-opacity:1"
           id="path92"
           inkscape:connector-curvature="0" />
      </g>
    </g>
    <g
       id="g3631">
      <path
         id="path72"
         style="fill:none;stroke:#000000;stroke-width:5.00000048;stroke-linecap:round;stroke-linejoin:round;stroke-miterlimit:4;stroke-dasharray:none;stroke-opacity:1"
         d="m 102.14875,282.63161 c 1.60125,-7.75798 3.965,-15.24352 7.00625,-22.37244 m -7.00625,70.405 c -1.60625,-7.75921 -2.44625,-15.79085 -2.44625,-24.01814 0,-8.22234 0.84,-16.25521 2.44625,-24.01442"
         inkscape:connector-curvature="0" />
      <g
         id="g94"
         transform="matrix(1.25,0,0,1.25,-343.95,-1301.2356)">
        <path
           d="m 365.586,1250.887 c 0,2.172 -1.758,3.929 -3.93,3.929 -2.168,0 -3.929,-1.757 -3.929,-3.929 0,-2.168 1.761,-3.926 3.929,-3.926 2.172,0 3.93,1.758 3.93,3.926 z"
           style="fill:#ffffff;fill-opacity:1;fill-rule:nonzero;stroke:#000000;stroke-width:4;stroke-linecap:round;stroke-linejoin:round;stroke-miterlimit:4;stroke-dasharray:none;stroke-opacity:1"
           id="path96"
           inkscape:connector-curvature="0" />
      </g>
    </g>
    <g
       id="g3648">
      <path
         style="fill:none;stroke:#000000;stroke-width:5.00000048;stroke-linecap:round;stroke-linejoin:round;stroke-miterlimit:4;stroke-dasharray:none;stroke-opacity:1"
         d="m 324.75625,285.29767 c 1.425,6.89983 2.1725,14.03865 2.1725,21.34836 0,7.31466 -0.7475,14.45348 -2.1725,21.35207 -1.42625,6.89488 -3.525,13.54457 -6.23125,19.88344"
         id="path3602"
         inkscape:connector-curvature="0" />
      <g
         id="g98"
         transform="matrix(1.25,0,0,1.25,-343.95,-1301.2356)">
        <path
           d="m 533.441,1319.102 c 0,2.171 -1.757,3.929 -3.925,3.929 -2.172,0 -3.93,-1.758 -3.93,-3.929 0,-2.168 1.758,-3.926 3.93,-3.926 2.168,0 3.925,1.758 3.925,3.926 z"
           style="fill:#ffffff;fill-opacity:1;fill-rule:nonzero;stroke:#000000;stroke-width:4;stroke-linecap:round;stroke-linejoin:round;stroke-miterlimit:4;stroke-dasharray:none;stroke-opacity:1"
           id="path100"
           inkscape:connector-curvature="0" />
      </g>
    </g>
    <g
       id="g3660">
      <path
         style="fill:none;stroke:#000000;stroke-width:5.00000048;stroke-linecap:round;stroke-linejoin:round;stroke-miterlimit:4;stroke-dasharray:none;stroke-opacity:1"
         d="m 295.61,381.5535 c -4.83875,4.78976 -10.13625,9.12506 -15.825,12.93408 -5.6875,3.80407 -11.7675,7.08557 -18.16375,9.76526 -6.39625,2.68093 -13.11,4.76128 -20.07375,6.17171 -6.9575,1.41167 -14.165,2.15341 -21.5475,2.15341 l 0,13.23747 c -8.305,0 -16.41625,-0.82967 -24.2425,-2.41717 -7.8325,-1.58627 -15.38625,-3.93038 -22.58375,-6.94317 -7.1975,-3.01775 -14.0325,-6.70913 -20.43375,-10.99119 -6.4025,-4.28205 -12.35875,-9.15973 -17.80375,-14.55006 -5.44375,-5.39158 -10.36625,-11.29953 -14.6875,-17.63716 l -11.08375,7.40258 c 4.805,7.04594 10.27375,13.60772 16.31875,19.59987 6.05,5.98596 12.67125,11.40601 19.785,16.16605 7.10875,4.76128 14.7075,8.85759 22.7,12.2072 7.99875,3.34961 16.39125,5.95253 25.0925,7.71463 8.70125,1.7683 17.71,2.69084 26.93875,2.69084 9.22375,0 18.2325,-0.92254 26.93375,-2.69084 8.70125,-1.7621 17.095,-4.36502 25.0925,-7.71463 7.99375,-3.34961 15.59125,-7.44592 22.705,-12.2072"
         id="path3600"
         inkscape:connector-curvature="0" />
      <g
         id="g102"
         transform="matrix(1.25,0,0,1.25,-343.95,-1301.2356)">
        <path
           d="m 514.516,1347.316 c 0,2.172 -1.762,3.93 -3.93,3.93 -2.172,0 -3.93,-1.758 -3.93,-3.93 0,-2.168 1.758,-3.929 3.93,-3.929 2.168,0 3.93,1.761 3.93,3.929 z"
           style="fill:#ffffff;fill-opacity:1;fill-rule:nonzero;stroke:#000000;stroke-width:4;stroke-linecap:round;stroke-linejoin:round;stroke-miterlimit:4;stroke-dasharray:none;stroke-opacity:1"
           id="path104"
           inkscape:connector-curvature="0" />
      </g>
    </g>
    <g
       id="g3619">
      <path
         style="fill:none;stroke:#000000;stroke-width:5.00000048;stroke-linecap:round;stroke-linejoin:round;stroke-miterlimit:4;stroke-dasharray:none;stroke-opacity:1"
         d="m 198.4475,410.42455 c -6.9575,-1.41043 -13.6725,-3.49078 -20.06875,-6.17171 -6.39625,-2.67969 -12.475,-5.96119 -18.16375,-9.76526 -5.68875,-3.80902 -10.99125,-8.14432 -15.825,-12.93408 -4.83875,-4.79595 -9.21375,-10.04388 -13.05625,-15.6794 C 127.485,360.23981 124.18,354.21918 121.47,347.88154 l -24.62875,10.30764 c -3.38375,-7.92019 -6.00625,-16.2354 -7.78875,-24.85399 -1.78125,-8.62355 -2.715,-17.54429 -2.715,-26.68916 0,-9.14116 0.93375,-18.0619 2.715,-26.68544 1.7825,-8.61736 4.405,-16.93257 7.78875,-24.85276 3.38375,-7.92019 7.51875,-15.44908 12.32375,-22.49007 l 11.08375,7.40258 c 4.32125,-6.34383 9.24375,-12.24683 14.6875,-17.63716 5.445,-5.39034 11.40125,-10.26925 17.80375,-14.55131 6.40125,-4.28701 13.23625,-7.97344 20.43375,-10.99118 7.1975,-3.01279 14.75125,-5.35567 22.58375,-6.94317 l -2.69625,-12.96876 c -8.70125,1.76335 -17.09375,4.36503 -25.0875,7.71464 -7.9975,3.34961 -15.59625,7.44716 -22.705,12.20719 -7.11375,4.76128 -13.735,10.17638 -19.785,16.1673"
         id="path3596"
         inkscape:connector-curvature="0" />
      <g
         id="g110"
         transform="matrix(1.25,0,0,1.25,-343.95,-1301.2356)">
        <path
           d="m 436.301,1368.746 c 0,2.168 -1.762,3.93 -3.93,3.93 -2.168,0 -3.93,-1.762 -3.93,-3.93 0,-2.172 1.762,-3.93 3.93,-3.93 2.168,0 3.93,1.758 3.93,3.93 z"
           style="fill:#ffffff;fill-opacity:1;fill-rule:nonzero;stroke:#000000;stroke-width:4;stroke-linecap:round;stroke-linejoin:round;stroke-miterlimit:4;stroke-dasharray:none;stroke-opacity:1"
           id="path112"
           inkscape:connector-curvature="0" />
      </g>
    </g>
    <g
       id="g3653">
      <path
         style="fill:none;stroke:#000000;stroke-width:5.00000048;stroke-linecap:round;stroke-linejoin:round;stroke-miterlimit:4;stroke-dasharray:none;stroke-opacity:1"
         d="m 319.75125,373.27668 c 4.32125,-6.33764 8.04625,-13.11488 11.08875,-20.24379 3.0475,-7.12892 5.41,-14.60951 7.01125,-22.36872 1.6025,-7.75921 2.4425,-15.79085 2.4425,-24.01814 0,-8.22234 -0.84,-16.25521 -2.4425,-24.01442 l 13.09125,-2.67102 c 1.7825,8.62354 2.72,17.54428 2.72,26.68544 0,9.14487 -0.9375,18.06561 -2.72,26.68916 -1.7775,8.61859 -4.40375,16.9338 -7.7875,24.85399 -3.38,7.91896 -7.52,15.44908 -12.325,22.49008 -4.8,7.04594 -10.27375,13.60772 -16.3175,19.59987 l -9.45375,-9.36529 c -5.44,5.39033 -11.40125,10.26801 -17.8025,14.55006 -6.39625,4.28206 -13.2375,7.97344 -20.435,10.99119 -7.1925,3.01279 -14.74625,5.3569 -22.5775,6.94317"
         id="path3598"
         inkscape:connector-curvature="0" />
      <g
         id="g106"
         transform="matrix(1.25,0,0,1.25,-343.95,-1301.2356)">
        <path
           d="m 535.586,1336.961 c 0,2.168 -1.758,3.926 -3.93,3.926 -2.168,0 -3.929,-1.758 -3.929,-3.926 0,-2.172 1.761,-3.93 3.929,-3.93 2.172,0 3.93,1.758 3.93,3.93 z"
           style="fill:#ffffff;fill-opacity:1;fill-rule:nonzero;stroke:#000000;stroke-width:4;stroke-linecap:round;stroke-linejoin:round;stroke-miterlimit:4;stroke-dasharray:none;stroke-opacity:1"
           id="path108"
           inkscape:connector-curvature="0" />
      </g>
      <g
         id="g114"
         transform="matrix(1.25,0,0,1.25,-343.95,-1301.2356)">
        <path
           d="m 475.941,1379.102 c 0,2.171 -1.757,3.929 -3.925,3.929 -2.172,0 -3.93,-1.758 -3.93,-3.929 0,-2.168 1.758,-3.926 3.93,-3.926 2.168,0 3.925,1.758 3.925,3.926 z"
           style="fill:#ffffff;fill-opacity:1;fill-rule:nonzero;stroke:#000000;stroke-width:4;stroke-linecap:round;stroke-linejoin:round;stroke-miterlimit:4;stroke-dasharray:none;stroke-opacity:1"
           id="path116"
           inkscape:connector-curvature="0" />
      </g>
    </g>
  </g>
</svg>
