<?xml version="1.0" encoding="UTF-8" standalone="no"?>
<svg
   xmlns:dc="http://purl.org/dc/elements/1.1/"
   xmlns:cc="http://creativecommons.org/ns#"
   xmlns:rdf="http://www.w3.org/1999/02/22-rdf-syntax-ns#"
   xmlns:svg="http://www.w3.org/2000/svg"
   xmlns="http://www.w3.org/2000/svg"
   version="1.1"
   id="svg4295"
   viewBox="0 0 736.60156 828.84099"
   height="233.91736mm"
   width="207.88533mm">
  <defs
     id="defs4297" />
  <metadata
     id="metadata4300">
    <rdf:RDF>
      <cc:Work
         rdf:about="">
        <dc:format>image/svg+xml</dc:format>
        <dc:type
           rdf:resource="http://purl.org/dc/dcmitype/StillImage" />
        <dc:title></dc:title>
      </cc:Work>
    </rdf:RDF>
  </metadata>
  <g
     transform="translate(148.30078,189.67892)"
     id="layer1">
    <g
       transform="matrix(2.3396342,0,0,2.3396342,-294.71952,-591.51029)"
       id="g4240">
      <path
         id="path68"
         style="fill:#000000;fill-opacity:1;fill-rule:nonzero;stroke:none"
         d="m 251.87,286.88498 -29.4525,81.835 -4.84375,0 -27.69625,-82.22625 -13.37875,80.66375 -19.96,0 19.765,-122.265 14.72625,0 30.60625,81.83625 29.2575,-81.83625 14.92125,0 17.6375,122.265 -19.96125,0 -11.62125,-80.2725 z" />
      <g
         transform="matrix(1.25,0,0,1.2383037,-343.95,-1301.2356)"
         id="g70">
        <path
           id="path72"
           style="fill:none;stroke:#000000;stroke-width:4.01884699;stroke-linecap:round;stroke-linejoin:round;stroke-miterlimit:4;stroke-dasharray:none;stroke-opacity:1"
           d="m 549.684,1256.835 c -2.704,-6.396 -6.016,-12.476 -9.86,-18.162 -3.84,-5.69 -8.219,-10.99 -13.054,-15.828 -4.84,-4.838 -10.137,-9.211 -15.825,-13.056 -5.691,-3.844 -11.769,-7.153 -18.164,-9.858 -6.398,-2.705 -13.113,-4.806 -20.074,-6.23 -6.961,-1.427 -14.168,-2.173 -21.547,-2.173 l 0,10.69 c 6.641,0 13.129,0.675 19.395,1.956 6.261,1.282 12.308,3.174 18.062,5.607 5.758,2.437 11.227,5.414 16.348,8.876 m -148.086,99.194 c -1.285,-6.266 -1.957,-12.752 -1.957,-19.396 0,-6.64 0.672,-13.127 1.957,-19.393 m 0,0 c 1.281,-6.265 3.172,-12.31 5.605,-18.067" />
      </g>
      <g
         transform="matrix(1.25,0,0,1.2383037,-343.95,-1301.2356)"
         id="g74">
        <path
           id="path76"
           style="fill:none;stroke:#000000;stroke-width:4.01884699;stroke-linecap:round;stroke-linejoin:round;stroke-miterlimit:4;stroke-dasharray:none;stroke-opacity:1"
           d="m 433.918,1214.651 c 5.57,-1.139 11.336,-1.739 17.242,-1.739 5.906,0 11.672,0.6 17.238,1.739 5.571,1.14 10.942,2.819 16.059,4.984 5.117,2.165 9.981,4.811 14.531,7.887 4.551,3.075 8.789,6.577 12.66,10.445 3.872,3.872 7.372,8.111 10.446,12.661 3.074,4.551 5.722,9.413 7.886,14.531 l 9.852,-4.164 c -2.434,-5.753 -5.414,-11.226 -8.871,-16.344 -3.461,-5.123 -7.399,-9.89 -11.754,-14.243 m 15.758,50.807 c 1.14,5.572 1.738,11.337 1.738,17.24 0,5.907 -0.598,11.672 -1.738,17.243 -1.141,5.568 -2.82,10.938 -4.985,16.057 m -18.332,27.192 c -3.871,3.868 -8.109,7.369 -12.66,10.445 -4.55,3.072 -9.414,5.722 -14.531,7.886 -5.117,2.165 -10.488,3.845 -16.059,4.984 -5.566,1.14 -11.332,1.739 -17.238,1.739 l 0,10.69 c -6.644,0 -13.133,-0.67 -19.394,-1.952 -6.266,-1.281 -12.309,-3.174 -18.067,-5.607 -5.758,-2.437 -11.226,-5.418 -16.347,-8.876 -5.122,-3.458 -9.887,-7.397 -14.243,-11.75 -4.355,-4.354 -8.293,-9.125 -11.75,-14.243 l -8.867,5.978 c 3.844,5.69 8.219,10.989 13.055,15.828 4.84,4.834 10.137,9.211 15.828,13.055 5.687,3.845 11.766,7.153 18.16,9.858 6.399,2.705 13.113,4.807 20.074,6.23 6.961,1.428 14.168,2.173 21.551,2.173 7.379,0 14.586,-0.745 21.547,-2.173 6.961,-1.423 13.676,-3.525 20.074,-6.23 6.395,-2.705 12.473,-6.013 18.164,-9.858 m 20.016,-34.861 c 3.457,-5.118 6.437,-10.591 8.871,-16.348 2.438,-5.757 4.328,-11.798 5.609,-18.064 1.282,-6.266 1.954,-12.752 1.954,-19.396 0,-6.64 -0.672,-13.127 -1.954,-19.393 l 10.473,-2.157 c 1.426,6.964 2.176,14.168 2.176,21.55 0,7.385 -0.75,14.589 -2.176,21.553 -1.422,6.96 -3.523,13.675 -6.23,20.071 -2.704,6.395 -6.016,12.476 -9.86,18.162 -3.84,5.69 -8.219,10.989 -13.054,15.828 l -7.563,-7.563 c -4.352,4.353 -9.121,8.292 -14.242,11.75 -5.117,3.458 -10.59,6.439 -16.348,8.876 -5.754,2.433 -11.797,4.326 -18.062,5.607 m -36.637,-10.477 c -5.566,-1.139 -10.938,-2.819 -16.055,-4.984 -5.117,-2.164 -9.98,-4.814 -14.531,-7.886 -4.551,-3.076 -8.793,-6.577 -12.66,-10.445 -3.871,-3.873 -7.371,-8.111 -10.445,-12.662 -3.079,-4.55 -5.723,-9.412 -7.891,-14.53 l -19.703,8.324 c -2.707,-6.396 -4.805,-13.111 -6.231,-20.071 -1.425,-6.964 -2.172,-14.168 -2.172,-21.553 0,-7.382 0.747,-14.586 2.172,-21.55 1.426,-6.959 3.524,-13.674 6.231,-20.07 2.707,-6.396 6.015,-12.476 9.859,-18.162 l 8.867,5.978 c 3.457,-5.123 7.395,-9.89 11.75,-14.243 4.356,-4.353 9.121,-8.293 14.243,-11.751 5.121,-3.462 10.589,-6.439 16.347,-8.876 5.758,-2.433 11.801,-4.325 18.067,-5.607 l -2.157,-10.473 c -6.961,1.424 -13.675,3.525 -20.07,6.23 -6.398,2.705 -12.477,6.014 -18.164,9.858 -5.691,3.845 -10.988,8.218 -15.828,13.056 m -8.195,92.853 c -1.137,-5.571 -1.735,-11.336 -1.735,-17.243 0,-5.903 0.598,-11.668 1.735,-17.24 1.14,-5.567 2.82,-10.938 4.984,-16.056 2.168,-5.118 4.812,-9.98 7.891,-14.531 3.074,-4.55 6.574,-8.789 10.445,-12.661 3.867,-3.868 8.109,-7.37 12.66,-10.445" />
      </g>
      <g
         transform="matrix(1.25,0,0,1.25,-343.95,-1301.2356)"
         id="g78">
        <path
           id="path80"
           style="fill:#ffffff;fill-opacity:1;fill-rule:nonzero;stroke:#000000;stroke-width:4;stroke-linecap:round;stroke-linejoin:round;stroke-miterlimit:4;stroke-dasharray:none;stroke-opacity:1"
           d="m 507.016,1206.246 c 0,2.168 -1.762,3.93 -3.93,3.93 -2.172,0 -3.93,-1.762 -3.93,-3.93 0,-2.172 1.758,-3.93 3.93,-3.93 2.168,0 3.93,1.758 3.93,3.93 z" />
      </g>
      <g
         transform="matrix(1.25,0,0,1.25,-343.95,-1301.2356)"
         id="g82">
        <path
           id="path84"
           style="fill:#ffffff;fill-opacity:1;fill-rule:nonzero;stroke:#000000;stroke-width:4;stroke-linecap:round;stroke-linejoin:round;stroke-miterlimit:4;stroke-dasharray:none;stroke-opacity:1"
           d="m 523.441,1220.176 c 0,2.168 -1.757,3.926 -3.925,3.926 -2.172,0 -3.93,-1.758 -3.93,-3.926 0,-2.172 1.758,-3.93 3.93,-3.93 2.168,0 3.925,1.758 3.925,3.93 z" />
      </g>
      <g
         transform="matrix(1.25,0,0,1.25,-343.95,-1301.2356)"
         id="g86">
        <path
           id="path88"
           style="fill:#ffffff;fill-opacity:1;fill-rule:nonzero;stroke:#000000;stroke-width:4;stroke-linecap:round;stroke-linejoin:round;stroke-miterlimit:4;stroke-dasharray:none;stroke-opacity:1"
           d="m 436.656,1204.102 c 0,2.171 -1.758,3.929 -3.929,3.929 -2.168,0 -3.926,-1.758 -3.926,-3.929 0,-2.168 1.758,-3.926 3.926,-3.926 2.171,0 3.929,1.758 3.929,3.926 z" />
      </g>
      <g
         transform="matrix(1.25,0,0,1.25,-343.95,-1301.2356)"
         id="g90">
        <path
           id="path92"
           style="fill:#ffffff;fill-opacity:1;fill-rule:nonzero;stroke:#000000;stroke-width:4;stroke-linecap:round;stroke-linejoin:round;stroke-miterlimit:4;stroke-dasharray:none;stroke-opacity:1"
           d="m 408.441,1215.176 c 0,2.168 -1.757,3.926 -3.925,3.926 -2.172,0 -3.93,-1.758 -3.93,-3.926 0,-2.172 1.758,-3.93 3.93,-3.93 2.168,0 3.925,1.758 3.925,3.93 z" />
      </g>
      <g
         transform="matrix(1.25,0,0,1.25,-343.95,-1301.2356)"
         id="g94">
        <path
           id="path96"
           style="fill:#ffffff;fill-opacity:1;fill-rule:nonzero;stroke:#000000;stroke-width:4;stroke-linecap:round;stroke-linejoin:round;stroke-miterlimit:4;stroke-dasharray:none;stroke-opacity:1"
           d="m 365.586,1250.887 c 0,2.172 -1.758,3.929 -3.93,3.929 -2.168,0 -3.929,-1.757 -3.929,-3.929 0,-2.168 1.761,-3.926 3.929,-3.926 2.172,0 3.93,1.758 3.93,3.926 z" />
      </g>
      <g
         transform="matrix(1.25,0,0,1.25,-343.95,-1301.2356)"
         id="g98">
        <path
           id="path100"
           style="fill:#ffffff;fill-opacity:1;fill-rule:nonzero;stroke:#000000;stroke-width:4;stroke-linecap:round;stroke-linejoin:round;stroke-miterlimit:4;stroke-dasharray:none;stroke-opacity:1"
           d="m 533.441,1319.102 c 0,2.171 -1.757,3.929 -3.925,3.929 -2.172,0 -3.93,-1.758 -3.93,-3.929 0,-2.168 1.758,-3.926 3.93,-3.926 2.168,0 3.925,1.758 3.925,3.926 z" />
      </g>
      <g
         transform="matrix(1.25,0,0,1.25,-343.95,-1301.2356)"
         id="g102">
        <path
           id="path104"
           style="fill:#ffffff;fill-opacity:1;fill-rule:nonzero;stroke:#000000;stroke-width:4;stroke-linecap:round;stroke-linejoin:round;stroke-miterlimit:4;stroke-dasharray:none;stroke-opacity:1"
           d="m 514.516,1347.316 c 0,2.172 -1.762,3.93 -3.93,3.93 -2.172,0 -3.93,-1.758 -3.93,-3.93 0,-2.168 1.758,-3.929 3.93,-3.929 2.168,0 3.93,1.761 3.93,3.929 z" />
      </g>
      <g
         transform="matrix(1.25,0,0,1.25,-343.95,-1301.2356)"
         id="g106">
        <path
           id="path108"
           style="fill:#ffffff;fill-opacity:1;fill-rule:nonzero;stroke:#000000;stroke-width:4;stroke-linecap:round;stroke-linejoin:round;stroke-miterlimit:4;stroke-dasharray:none;stroke-opacity:1"
           d="m 535.586,1336.961 c 0,2.168 -1.758,3.926 -3.93,3.926 -2.168,0 -3.929,-1.758 -3.929,-3.926 0,-2.172 1.761,-3.93 3.929,-3.93 2.172,0 3.93,1.758 3.93,3.93 z" />
      </g>
      <g
         transform="matrix(1.25,0,0,1.25,-343.95,-1301.2356)"
         id="g110">
        <path
           id="path112"
           style="fill:#ffffff;fill-opacity:1;fill-rule:nonzero;stroke:#000000;stroke-width:4;stroke-linecap:round;stroke-linejoin:round;stroke-miterlimit:4;stroke-dasharray:none;stroke-opacity:1"
           d="m 436.301,1368.746 c 0,2.168 -1.762,3.93 -3.93,3.93 -2.168,0 -3.93,-1.762 -3.93,-3.93 0,-2.172 1.762,-3.93 3.93,-3.93 2.168,0 3.93,1.758 3.93,3.93 z" />
      </g>
      <g
         transform="matrix(1.25,0,0,1.25,-343.95,-1301.2356)"
         id="g114">
        <path
           id="path116"
           style="fill:#ffffff;fill-opacity:1;fill-rule:nonzero;stroke:#000000;stroke-width:4;stroke-linecap:round;stroke-linejoin:round;stroke-miterlimit:4;stroke-dasharray:none;stroke-opacity:1"
           d="m 475.941,1379.102 c 0,2.171 -1.757,3.929 -3.925,3.929 -2.172,0 -3.93,-1.758 -3.93,-3.929 0,-2.168 1.758,-3.926 3.93,-3.926 2.168,0 3.925,1.758 3.925,3.926 z" />
      </g>
    </g>
    <g
       id="text4234"
       style="font-style:normal;font-variant:normal;font-weight:normal;font-stretch:normal;font-size:17.5px;line-height:125%;font-family:Sans;-inkscape-font-specification:'Sans, Normal';text-align:start;letter-spacing:0px;word-spacing:0px;writing-mode:lr-tb;text-anchor:start;fill:#000000;fill-opacity:1;stroke:none;stroke-width:1px;stroke-linecap:butt;stroke-linejoin:miter;stroke-opacity:1">
      <path
         id="path4397"
         style="font-style:normal;font-variant:normal;font-weight:bold;font-stretch:normal;font-size:80px;line-height:125%;font-family:'Liberation Sans';-inkscape-font-specification:'Liberation Sans, Bold';text-align:start;writing-mode:lr-tb;text-anchor:start"
         d="m -102.59766,550.68896 0,-33.35937 q 0,-1.99219 0.0391,-4.10156 0.0781,-2.10938 0.15625,-3.86719 0.11718,-2.07031 0.19531,-4.02344 -0.82031,3.08594 -1.5625,5.85938 -0.3125,1.17187 -0.66406,2.42187 -0.35157,1.25 -0.70313,2.42188 -0.3125,1.17187 -0.625,2.1875 -0.3125,1.01562 -0.54687,1.75781 l -9.92188,30.70312 -8.20312,0 -9.92188,-30.70312 q -0.23437,-0.74219 -0.54687,-1.75781 -0.27344,-1.01563 -0.625,-2.1875 -0.3125,-1.17188 -0.66407,-2.42188 -0.35156,-1.25 -0.70312,-2.42187 -0.78125,-2.77344 -1.64063,-5.85938 0.11719,2.26563 0.23438,4.45313 0.0781,1.875 0.15625,3.94531 0.0781,2.07031 0.0781,3.59375 l 0,33.35937 -10.23437,0 0,-55.03906 15.42969,0 9.84375,30.78125 q 0.39062,1.21094 0.82031,2.96875 0.46875,1.75781 0.89844,3.39844 0.46875,1.91406 1.01562,3.98437 0.54688,-2.03125 1.05469,-3.90625 0.23437,-0.82031 0.46875,-1.67968 0.23437,-0.85938 0.46875,-1.67969 0.23437,-0.82031 0.46875,-1.5625 0.23437,-0.74219 0.42969,-1.32813 l 9.6875,-30.97656 15.351559,0 0,55.03906 -10.234379,0 z" />
      <path
         id="path4399"
         style="font-style:normal;font-variant:normal;font-weight:bold;font-stretch:normal;font-size:80px;line-height:125%;font-family:'Liberation Sans';-inkscape-font-specification:'Liberation Sans, Bold';text-align:start;writing-mode:lr-tb;text-anchor:start"
         d="m -71.582031,551.47021 q -3.046875,0 -5.46875,-0.82031 -2.382813,-0.85937 -4.0625,-2.46094 -1.679688,-1.64062 -2.578125,-4.02343 -0.898438,-2.38282 -0.898438,-5.42969 0,-3.75 1.289063,-6.28906 1.328125,-2.57813 3.59375,-4.14063 2.265625,-1.60156 5.3125,-2.30469 3.046875,-0.74218 6.484375,-0.78125 l 9.101562,-0.15625 0,-2.14843 q 0,-2.30469 -0.429687,-3.82813 -0.390625,-1.5625 -1.171875,-2.53906 -0.78125,-0.97656 -1.953125,-1.36719 -1.132813,-0.42969 -2.617188,-0.42969 -1.367187,0 -2.460937,0.27344 -1.054688,0.27344 -1.835938,0.97656 -0.78125,0.66407 -1.289062,1.83594 -0.46875,1.13281 -0.664063,2.89063 l -11.445312,-0.54688 q 0.46875,-2.77344 1.71875,-5.03906 1.25,-2.30469 3.4375,-3.98438 2.226562,-1.67968 5.429687,-2.57812 3.242188,-0.9375 7.578125,-0.9375 3.945313,0 7.03125,0.97656 3.085938,0.97656 5.234375,2.92969 2.148438,1.91406 3.28125,4.72656 1.132813,2.8125 1.132813,6.52344 l 0,15.39062 q 0,1.48438 0.117187,2.65625 0.15625,1.17188 0.507813,1.99219 0.390625,0.78125 1.054687,1.21094 0.703125,0.39062 1.796875,0.39062 1.25,0 2.421875,-0.23437 l 0,5.9375 q -0.976562,0.23437 -1.757812,0.42969 -0.78125,0.19531 -1.5625,0.3125 -0.78125,0.11718 -1.679688,0.19531 -0.859375,0.0781 -2.03125,0.0781 -4.140625,0 -6.132812,-2.03125 -1.953125,-2.03125 -2.34375,-5.97656 l -0.234375,0 q -2.1875,3.94531 -5.625,6.13281 -3.398438,2.1875 -8.28125,2.1875 z m 12.773437,-20.35156 -5.625,0.0781 q -1.757812,0.0781 -3.359375,0.3125 -1.5625,0.19531 -2.773437,0.89843 -1.171875,0.66407 -1.875,1.95313 -0.703125,1.28906 -0.703125,3.51562 0,3.00782 1.367187,4.49219 1.40625,1.44531 3.710938,1.44531 2.109375,0 3.828125,-0.89843 1.71875,-0.89844 2.890625,-2.34375 1.210937,-1.48438 1.875,-3.39844 0.664062,-1.91406 0.664062,-3.90625 l 0,-2.14844 z" />
      <path
         id="path4401"
         style="font-style:normal;font-variant:normal;font-weight:bold;font-stretch:normal;font-size:80px;line-height:125%;font-family:'Liberation Sans';-inkscape-font-specification:'Liberation Sans, Bold';text-align:start;writing-mode:lr-tb;text-anchor:start"
         d="m -1.1914062,538.34521 q 0,3.04688 -1.2890626,5.46875 -1.25,2.42188 -3.6718749,4.14063 -2.4218751,1.67969 -5.9375003,2.61719 -3.515625,0.89843 -8.007812,0.89843 -4.023438,0 -7.265625,-0.58593 -3.242188,-0.58594 -5.703125,-1.91407 -2.421875,-1.36718 -4.0625,-3.51562 -1.640625,-2.14844 -2.460938,-5.3125 l 9.648438,-1.44531 q 0.46875,1.75781 1.289062,2.85156 0.820313,1.09375 2.03125,1.67969 1.210938,0.58593 2.8125,0.78125 1.640625,0.19531 3.710938,0.19531 1.875,0 3.476562,-0.19531 1.640625,-0.23438 2.8125,-0.74219 1.210938,-0.54688 1.875,-1.48438 0.664063,-0.97656 0.664063,-2.42187 0,-1.64063 -0.976563,-2.57813 -0.9375,-0.97656 -2.617187,-1.5625 -1.640625,-0.625 -3.90625,-1.05468 -2.226563,-0.46875 -4.765625,-1.05469 -2.65625,-0.58594 -5.234375,-1.40625 -2.578125,-0.82031 -4.609375,-2.22656 -2.03125,-1.40625 -3.28125,-3.55469 -1.25,-2.1875 -1.25,-5.50781 0,-3.00782 1.171875,-5.35157 1.171875,-2.38281 3.4375,-4.02343 2.265625,-1.67969 5.585937,-2.53907 3.359375,-0.89843 7.695313,-0.89843 3.4375,0 6.40625,0.66406 2.96875,0.625 5.3124997,2.03125 2.3437501,1.36719 3.9062501,3.51562 1.6015624,2.14844 2.2265624,5.19532 l -9.7265622,1.01562 q -0.273438,-1.52344 -0.976563,-2.5 -0.703125,-1.01562 -1.757812,-1.60156 -1.015625,-0.58594 -2.382813,-0.78125 -1.367187,-0.23438 -3.007812,-0.23438 -3.90625,0 -5.859375,1.01563 -1.953125,0.97656 -1.953125,3.32031 0,1.44531 0.78125,2.30469 0.820312,0.85937 2.265625,1.44531 1.484375,0.54688 3.476562,0.97656 2.03125,0.39063 4.414063,0.97657 2.929687,0.625 5.742187,1.48437 2.8515627,0.82031 5.0390628,2.30469 2.2265624,1.44531 3.5546874,3.75 1.3671876,2.30469 1.3671876,5.85937 z" />
      <path
         id="path4403"
         style="font-style:normal;font-variant:normal;font-weight:bold;font-stretch:normal;font-size:80px;line-height:125%;font-family:'Liberation Sans';-inkscape-font-specification:'Liberation Sans, Bold';text-align:start;writing-mode:lr-tb;text-anchor:start"
         d="m 25.332031,551.47021 q -5.039062,0 -8.828125,-1.5625 -3.75,-1.5625 -6.25,-4.41406 -2.4999998,-2.85156 -3.7499998,-6.83594 -1.25,-4.02343 -1.25,-8.86718 0,-5.27344 1.3671875,-9.375 1.3671875,-4.14063 3.9453123,-6.95313 2.578125,-2.85156 6.328125,-4.33594 3.789063,-1.48437 8.59375,-1.48437 4.101563,0 7.265625,1.09375 3.203125,1.09375 5.507813,3.00781 2.304687,1.875 3.710937,4.45313 1.445313,2.57812 1.992188,5.54687 l -11.054688,0.54688 q -0.46875,-3.24219 -2.34375,-5.15625 -1.875,-1.95313 -5.3125,-1.95313 -4.414062,0 -6.445312,3.63281 -2.03125,3.63282 -2.03125,10.54688 0,14.60937 8.632812,14.60937 3.125,0 5.234375,-1.95312 2.109375,-1.99219 2.617188,-5.89844 l 11.015625,0.50781 q -0.390625,2.92969 -1.796875,5.625 -1.367188,2.65625 -3.75,4.72657 -2.34375,2.03125 -5.703125,3.28125 -3.359375,1.21093 -7.695313,1.21093 z" />
      <path
         id="path4405"
         style="font-style:normal;font-variant:normal;font-weight:bold;font-stretch:normal;font-size:80px;line-height:125%;font-family:'Liberation Sans';-inkscape-font-specification:'Liberation Sans, Bold';text-align:start;writing-mode:lr-tb;text-anchor:start"
         d="m 63.066406,516.86084 q 2.226563,-4.84375 5.585938,-7.03125 3.359375,-2.1875 8.007812,-2.1875 3.828125,0 6.445313,1.25 2.65625,1.25 4.296875,3.4375 1.679687,2.1875 2.421875,5.15625 0.742187,2.96875 0.742187,6.40625 l 0,26.79687 -10.9375,0 0,-23.67187 q 0,-2.46094 -0.390625,-4.49219 -0.390625,-2.07031 -1.289062,-3.51562 -0.898438,-1.48438 -2.34375,-2.30469 -1.445313,-0.82031 -3.515625,-0.82031 -1.992188,0 -3.632813,0.89843 -1.601562,0.85938 -2.773437,2.5 -1.171875,1.60157 -1.835938,3.86719 -0.625,2.22656 -0.625,4.92188 l 0,22.61718 -10.976562,0 0,-57.96875 10.976562,0 0,15.82032 q 0,1.25 -0.03906,2.53906 -0.03906,1.25 -0.117188,2.38281 -0.03906,1.09375 -0.07813,1.99219 -0.03906,0.89844 -0.07813,1.40625 l 0.15625,0 z" />
      <path
         id="path4407"
         style="font-style:normal;font-variant:normal;font-weight:bold;font-stretch:normal;font-size:80px;line-height:125%;font-family:'Liberation Sans';-inkscape-font-specification:'Liberation Sans, Bold';text-align:start;writing-mode:lr-tb;text-anchor:start"
         d="m 101.15234,500.80615 0,-8.08594 10.97657,0 0,8.08594 -10.97657,0 z m 0,49.88281 0,-42.26562 10.97657,0 0,42.26562 -10.97657,0 z" />
      <path
         id="path4409"
         style="font-style:normal;font-variant:normal;font-weight:bold;font-stretch:normal;font-size:80px;line-height:125%;font-family:'Liberation Sans';-inkscape-font-specification:'Liberation Sans, Bold';text-align:start;writing-mode:lr-tb;text-anchor:start"
         d="m 150.72266,550.68896 0,-23.71093 q 0,-2.46094 -0.39063,-4.49219 -0.39062,-2.07031 -1.28906,-3.51563 -0.89844,-1.48437 -2.34375,-2.30468 -1.44531,-0.82032 -3.51563,-0.82032 -1.99218,0 -3.63281,0.89844 -1.60156,0.85938 -2.77344,2.5 -1.17187,1.60156 -1.83593,3.86719 -0.625,2.22656 -0.625,4.92187 l 0,22.65625 -10.97657,0 0,-32.8125 q 0,-1.36718 -0.0391,-2.8125 0,-1.44531 -0.0781,-2.73437 -0.0391,-1.32813 -0.0781,-2.34375 -0.0391,-1.05469 -0.11719,-1.5625 l 10.46875,0 q 0.0781,0.46875 0.15625,1.52344 0.0781,1.01562 0.15625,2.26562 0.0781,1.25 0.11719,2.5 0.0781,1.25 0.0781,2.10938 l 0.15625,0 q 2.22656,-4.84375 5.58593,-7.03125 3.35938,-2.1875 8.00782,-2.1875 3.82812,0 6.44531,1.25 2.65625,1.25 4.29687,3.4375 1.67969,2.1875 2.42188,5.15625 0.74219,2.96875 0.74219,6.40625 l 0,26.83593 -10.9375,0 z" />
      <path
         id="path4411"
         style="font-style:normal;font-variant:normal;font-weight:bold;font-stretch:normal;font-size:80px;line-height:125%;font-family:'Liberation Sans';-inkscape-font-specification:'Liberation Sans, Bold';text-align:start;writing-mode:lr-tb;text-anchor:start"
         d="m 189.55078,551.47021 q -4.57031,0 -8.24219,-1.32812 -3.63281,-1.36719 -6.21093,-4.10156 -2.57813,-2.77344 -3.94532,-6.91407 -1.36718,-4.17968 -1.36718,-9.76562 0,-6.05469 1.60156,-10.19531 1.64062,-4.14063 4.375,-6.67969 2.77344,-2.57813 6.36719,-3.71094 3.59375,-1.13281 7.57812,-1.13281 5,0 8.51563,1.75781 3.55468,1.71875 5.82031,4.84375 2.26562,3.125 3.32031,7.5 1.05469,4.33594 1.05469,9.60938 l 0,0.3125 -27.10938,0 q 0,2.65625 0.46875,4.96093 0.46875,2.26563 1.52344,3.94532 1.05469,1.64062 2.73438,2.61718 1.67968,0.9375 4.0625,0.9375 2.89062,0 4.72656,-1.21093 1.83594,-1.25 2.61719,-3.82813 l 10.35156,0.89844 q -0.70313,1.79687 -1.99219,3.82812 -1.25,2.03125 -3.35937,3.75 -2.10938,1.67969 -5.27344,2.8125 -3.125,1.09375 -7.61719,1.09375 z m 0,-36.91406 q -1.67969,0 -3.16406,0.58594 -1.44531,0.54687 -2.53906,1.79687 -1.05469,1.21094 -1.71875,3.16407 -0.66407,1.95312 -0.74219,4.6875 l 16.40625,0 q -0.3125,-5.11719 -2.46094,-7.65625 -2.14844,-2.57813 -5.78125,-2.57813 z" />
      <path
         id="path4413"
         style="font-style:normal;font-variant:normal;font-weight:bold;font-stretch:normal;font-size:80px;line-height:125%;font-family:'Liberation Sans';-inkscape-font-specification:'Liberation Sans, Bold';text-align:start;writing-mode:lr-tb;text-anchor:start"
         d="m 244.16016,550.68896 0,-23.71093 q 0,-2.46094 -0.39063,-4.49219 -0.39062,-2.07031 -1.28906,-3.51563 -0.89844,-1.48437 -2.34375,-2.30468 -1.44531,-0.82032 -3.51563,-0.82032 -1.99218,0 -3.63281,0.89844 -1.60156,0.85938 -2.77344,2.5 -1.17187,1.60156 -1.83593,3.86719 -0.625,2.22656 -0.625,4.92187 l 0,22.65625 -10.97657,0 0,-32.8125 q 0,-1.36718 -0.0391,-2.8125 0,-1.44531 -0.0781,-2.73437 -0.0391,-1.32813 -0.0781,-2.34375 -0.0391,-1.05469 -0.11719,-1.5625 l 10.46875,0 q 0.0781,0.46875 0.15625,1.52344 0.0781,1.01562 0.15625,2.26562 0.0781,1.25 0.11719,2.5 0.0781,1.25 0.0781,2.10938 l 0.15625,0 q 2.22656,-4.84375 5.58593,-7.03125 3.35938,-2.1875 8.00782,-2.1875 3.82812,0 6.44531,1.25 2.65625,1.25 4.29687,3.4375 1.67969,2.1875 2.42188,5.15625 0.74219,2.96875 0.74219,6.40625 l 0,26.83593 -10.9375,0 z" />
      <path
         id="path4415"
         style="font-style:normal;font-variant:normal;font-weight:bold;font-stretch:normal;font-size:80px;line-height:125%;font-family:'Liberation Sans';-inkscape-font-specification:'Liberation Sans, Bold';text-align:start;writing-mode:lr-tb;text-anchor:start"
         d="m 293.06641,550.68896 q -0.0781,-0.3125 -0.19532,-1.09375 -0.0781,-0.82031 -0.19531,-1.83593 -0.0781,-1.01563 -0.15625,-2.07032 -0.0391,-1.05468 -0.0391,-1.875 l -0.15625,0 q -1.91406,4.10157 -5.35156,5.89844 -3.39844,1.75781 -8.16407,1.75781 -3.98437,0 -6.91406,-1.64062 -2.89062,-1.64063 -4.80469,-4.57031 -1.875,-2.92969 -2.8125,-6.91407 -0.89843,-4.02343 -0.89843,-8.75 0,-4.80468 0.9375,-8.82812 0.97656,-4.02344 2.96875,-6.91406 1.99218,-2.92969 5.03906,-4.57032 3.08594,-1.64062 7.30469,-1.64062 2.07031,0 3.98437,0.42969 1.91406,0.42968 3.55469,1.32812 1.64062,0.89844 2.96875,2.30469 1.32812,1.40625 2.26562,3.39844 l 0.0781,0 q 0,-0.39063 -0.0391,-1.13282 0,-0.78125 0,-1.75781 0,-0.97656 -0.0391,-2.03125 0,-1.05469 0,-2.03125 l 0,-15.42969 10.97657,0 0,48.75 q 0,3.08594 0.11718,5.50782 0.11719,2.38281 0.19532,3.71093 l -10.625,0 z m -0.50782,-21.36718 q 0,-4.17969 -0.78125,-6.91407 -0.78125,-2.77343 -2.07031,-4.375 -1.25,-1.64062 -2.89062,-2.26562 -1.60157,-0.66406 -3.28125,-0.66406 -2.10938,0 -3.75,0.82031 -1.60157,0.82031 -2.73438,2.57812 -1.09375,1.75782 -1.67969,4.49219 -0.54687,2.73438 -0.54687,6.60156 0,14.375 8.63281,14.375 1.64063,0 3.28125,-0.70312 1.64063,-0.70313 2.92969,-2.38281 1.28906,-1.67969 2.07031,-4.49219 0.82031,-2.85156 0.82031,-7.07031 z" />
      <path
         id="path4417"
         style="font-style:normal;font-variant:normal;font-weight:bold;font-stretch:normal;font-size:80px;line-height:125%;font-family:'Liberation Sans';-inkscape-font-specification:'Liberation Sans, Bold';text-align:start;writing-mode:lr-tb;text-anchor:start"
         d="m 331.89453,551.47021 q -4.57031,0 -8.24219,-1.32812 -3.63281,-1.36719 -6.21093,-4.10156 -2.57813,-2.77344 -3.94532,-6.91407 -1.36718,-4.17968 -1.36718,-9.76562 0,-6.05469 1.60156,-10.19531 1.64062,-4.14063 4.375,-6.67969 2.77344,-2.57813 6.36719,-3.71094 3.59375,-1.13281 7.57812,-1.13281 5,0 8.51563,1.75781 3.55468,1.71875 5.82031,4.84375 2.26562,3.125 3.32031,7.5 1.05469,4.33594 1.05469,9.60938 l 0,0.3125 -27.10938,0 q 0,2.65625 0.46875,4.96093 0.46875,2.26563 1.52344,3.94532 1.05469,1.64062 2.73438,2.61718 1.67968,0.9375 4.0625,0.9375 2.89062,0 4.72656,-1.21093 1.83594,-1.25 2.61719,-3.82813 l 10.35156,0.89844 q -0.70313,1.79687 -1.99219,3.82812 -1.25,2.03125 -3.35937,3.75 -2.10938,1.67969 -5.27344,2.8125 -3.125,1.09375 -7.61719,1.09375 z m 0,-36.91406 q -1.67969,0 -3.16406,0.58594 -1.44531,0.54687 -2.53906,1.79687 -1.05469,1.21094 -1.71875,3.16407 -0.66407,1.95312 -0.74219,4.6875 l 16.40625,0 q -0.3125,-5.11719 -2.46094,-7.65625 -2.14844,-2.57813 -5.78125,-2.57813 z" />
      <path
         id="path4419"
         style="font-style:normal;font-variant:normal;font-weight:bold;font-stretch:normal;font-size:80px;line-height:125%;font-family:'Liberation Sans';-inkscape-font-specification:'Liberation Sans, Bold';text-align:start;writing-mode:lr-tb;text-anchor:start"
         d="m 376.73828,551.47021 q -5.03906,0 -8.82812,-1.5625 -3.75,-1.5625 -6.25,-4.41406 -2.5,-2.85156 -3.75,-6.83594 -1.25,-4.02343 -1.25,-8.86718 0,-5.27344 1.36718,-9.375 1.36719,-4.14063 3.94532,-6.95313 2.57812,-2.85156 6.32812,-4.33594 3.78906,-1.48437 8.59375,-1.48437 4.10156,0 7.26563,1.09375 3.20312,1.09375 5.50781,3.00781 2.30469,1.875 3.71094,4.45313 1.44531,2.57812 1.99218,5.54687 l -11.05468,0.54688 q -0.46875,-3.24219 -2.34375,-5.15625 -1.875,-1.95313 -5.3125,-1.95313 -4.41407,0 -6.44532,3.63281 -2.03125,3.63282 -2.03125,10.54688 0,14.60937 8.63282,14.60937 3.125,0 5.23437,-1.95312 2.10938,-1.99219 2.61719,-5.89844 l 11.01562,0.50781 q -0.39062,2.92969 -1.79687,5.625 -1.36719,2.65625 -3.75,4.72657 -2.34375,2.03125 -5.70313,3.28125 -3.35937,1.21093 -7.69531,1.21093 z" />
      <path
         id="path4421"
         style="font-style:normal;font-variant:normal;font-weight:bold;font-stretch:normal;font-size:80px;line-height:125%;font-family:'Liberation Sans';-inkscape-font-specification:'Liberation Sans, Bold';text-align:start;writing-mode:lr-tb;text-anchor:start"
         d="m 430.64453,550.68896 -11.28906,-19.14062 -4.72656,3.28125 0,15.85937 -10.97657,0 0,-57.96875 10.97657,0 0,33.20313 15.07812,-17.5 11.79688,0 -14.84375,16.48437 15.97656,25.78125 -11.99219,0 z" />
      <path
         id="path4423"
         style="font-style:normal;font-variant:normal;font-weight:bold;font-stretch:normal;font-size:80px;line-height:125%;font-family:'Liberation Sans';-inkscape-font-specification:'Liberation Sans, Bold';text-align:start;writing-mode:lr-tb;text-anchor:start"
         d="m 448.02734,550.68896 0,-11.91406 11.28907,0 0,11.91406 -11.28907,0 z" />
      <path
         id="path4425"
         style="font-style:normal;font-variant:normal;font-weight:bold;font-stretch:normal;font-size:80px;line-height:125%;font-family:'Liberation Sans';-inkscape-font-specification:'Liberation Sans, Bold';text-align:start;writing-mode:lr-tb;text-anchor:start"
         d="m 510.52734,529.51709 q 0,4.84375 -1.36718,8.86719 -1.32813,4.02343 -4.02344,6.95312 -2.69531,2.89063 -6.71875,4.53125 -4.02344,1.60156 -9.375,1.60156 -5.15625,0 -9.10156,-1.60156 -3.94532,-1.60156 -6.64063,-4.49219 -2.65625,-2.89062 -4.02344,-6.91406 -1.36718,-4.0625 -1.36718,-8.94531 0,-4.72656 1.28906,-8.71094 1.32812,-4.02344 3.98437,-6.95312 2.65625,-2.92969 6.67969,-4.57032 4.02344,-1.64062 9.41406,-1.64062 5.70313,0 9.72657,1.64062 4.02343,1.64063 6.5625,4.57032 2.57812,2.89062 3.75,6.91406 1.21093,3.98437 1.21093,8.75 z m -11.48437,0 q 0,-7.53906 -2.46094,-10.9375 -2.46094,-3.39844 -7.14844,-3.39844 -4.84375,0 -7.42187,3.4375 -2.57813,3.4375 -2.57813,10.89844 0,3.78906 0.66407,6.52344 0.70312,2.73437 1.95312,4.49218 1.25,1.75782 3.00781,2.61719 1.75782,0.82031 3.86719,0.82031 2.42188,0 4.29688,-0.82031 1.91406,-0.85937 3.20312,-2.61719 1.28906,-1.75781 1.95313,-4.49218 0.66406,-2.73438 0.66406,-6.52344 z" />
      <path
         id="path4427"
         style="font-style:normal;font-variant:normal;font-weight:bold;font-stretch:normal;font-size:80px;line-height:125%;font-family:'Liberation Sans';-inkscape-font-specification:'Liberation Sans, Bold';text-align:start;writing-mode:lr-tb;text-anchor:start"
         d="m 519.27734,550.68896 0,-32.34375 q 0,-1.36718 -0.0391,-2.89062 0,-1.52344 -0.0781,-2.89063 -0.0391,-1.40625 -0.0781,-2.5 -0.0391,-1.13281 -0.11719,-1.64062 l 10.46875,0 q 0.0781,0.46875 0.15625,1.64062 0.0781,1.13282 0.15625,2.5 0.0781,1.36719 0.11719,2.73438 0.0781,1.32812 0.0781,2.14844 l 0.15625,0 q 0.82031,-2.30469 1.64062,-4.10157 0.82031,-1.83593 1.91406,-3.08593 1.13282,-1.28907 2.69532,-1.95313 1.5625,-0.70312 3.86718,-0.70312 0.97657,0 1.91407,0.19531 0.97656,0.15625 1.48437,0.39062 l 0,9.17969 q -1.05469,-0.23437 -2.14844,-0.39062 -1.05468,-0.19532 -2.53906,-0.19532 -4.10156,0 -6.40625,3.32032 -2.26562,3.32031 -2.26562,9.84375 l 0,20.74218 -10.97657,0 z" />
      <path
         id="path4429"
         style="font-style:normal;font-variant:normal;font-weight:bold;font-stretch:normal;font-size:80px;line-height:125%;font-family:'Liberation Sans';-inkscape-font-specification:'Liberation Sans, Bold';text-align:start;writing-mode:lr-tb;text-anchor:start"
         d="m 568.06641,567.64209 q -4.17969,0 -7.38282,-0.85938 -3.16406,-0.82031 -5.42968,-2.34375 -2.22657,-1.48437 -3.59375,-3.59375 -1.32813,-2.07031 -1.83594,-4.57031 l 10.97656,-1.28906 q 0.58594,2.53906 2.5,3.98437 1.95313,1.44532 5.07813,1.44532 1.95312,0 3.55468,-0.54688 1.64063,-0.54687 2.77344,-1.875 1.17188,-1.28906 1.79688,-3.4375 0.66406,-2.14844 0.66406,-5.3125 0,-1.09375 0,-2.22656 0,-1.13281 0.0391,-2.07031 0.0391,-1.09375 0.0391,-2.10938 l -0.0781,0 q -1.91406,4.10156 -5.39063,5.9375 -3.4375,1.83594 -8.20312,1.83594 -4.02344,0 -6.95313,-1.5625 -2.89062,-1.60156 -4.80468,-4.41406 -1.91407,-2.85157 -2.85157,-6.75782 -0.89843,-3.94531 -0.89843,-8.67187 0,-4.88281 0.97656,-8.82813 0.97656,-3.98437 2.96875,-6.83593 2.03125,-2.85157 5.07812,-4.375 3.08594,-1.5625 7.30469,-1.5625 4.21875,0 7.53906,1.79687 3.35938,1.79688 5.23438,5.82031 l 0.19531,0 q 0,-0.82031 0.0391,-1.875 0.0781,-1.09375 0.15625,-2.07031 0.0781,-1.01562 0.15625,-1.79687 0.11719,-0.78125 0.19532,-1.05469 l 10.39062,0 q -0.0781,1.40625 -0.15625,3.94531 -0.0781,2.53906 -0.0781,5.82031 l 0,31.21094 q 0,4.60938 -1.32813,8.00781 -1.32812,3.4375 -3.90625,5.70313 -2.53906,2.26562 -6.28906,3.39844 -3.71094,1.13281 -8.47656,1.13281 z m 9.17968,-38.67188 q 0,-3.98437 -0.78125,-6.64062 -0.78125,-2.65625 -2.03125,-4.25781 -1.25,-1.60157 -2.89062,-2.26563 -1.60156,-0.66406 -3.24219,-0.66406 -2.10937,0 -3.75,0.82031 -1.60156,0.82031 -2.73437,2.53906 -1.13282,1.71875 -1.71875,4.375 -0.58594,2.65625 -0.58594,6.32813 0,6.83594 2.1875,10.3125 2.1875,3.47656 6.52344,3.47656 1.64062,0 3.24218,-0.625 1.64063,-0.66406 2.92969,-2.26562 1.28906,-1.64063 2.07031,-4.33594 0.78125,-2.69531 0.78125,-6.79688 z" />
    </g>
    <g
       id="text4234-3"
       style="font-style:normal;font-variant:normal;font-weight:normal;font-stretch:normal;font-size:17.5px;line-height:125%;font-family:Sans;-inkscape-font-specification:'Sans, Normal';text-align:start;letter-spacing:0px;word-spacing:0px;writing-mode:lr-tb;text-anchor:start;fill:#000000;fill-opacity:1;stroke:none;stroke-width:1px;stroke-linecap:butt;stroke-linejoin:miter;stroke-opacity:1">
      <path
         id="path4432"
         style="font-style:normal;font-variant:normal;font-weight:normal;font-stretch:normal;font-size:50px;line-height:125%;font-family:'Liberation Sans';-inkscape-font-specification:'Liberation Sans, Normal';text-align:start;writing-mode:lr-tb;text-anchor:start"
         d="m -65.717773,628.78613 0,-15.94238 -18.603516,0 0,15.94238 -4.663086,0 0,-34.39941 4.663086,0 0,14.55078 18.603516,0 0,-14.55078 4.663086,0 0,34.39941 -4.663086,0 z" />
      <path
         id="path4434"
         style="font-style:normal;font-variant:normal;font-weight:normal;font-stretch:normal;font-size:50px;line-height:125%;font-family:'Liberation Sans';-inkscape-font-specification:'Liberation Sans, Normal';text-align:start;writing-mode:lr-tb;text-anchor:start"
         d="m -46.845703,629.27441 q -3.979492,0 -5.981445,-2.09961 -2.001954,-2.0996 -2.001954,-5.76171 0,-2.61231 0.976563,-4.27247 1.000977,-1.68457 2.587891,-2.63671 1.611328,-0.95215 3.662109,-1.31836 2.050781,-0.36621 4.174805,-0.41504 l 5.932617,-0.0977 0,-1.44043 q 0,-1.63574 -0.341797,-2.7832 -0.341797,-1.14746 -1.049805,-1.85547 -0.708008,-0.70801 -1.782226,-1.02539 -1.049805,-0.3418 -2.490235,-0.3418 -1.269531,0 -2.294922,0.19531 -1.02539,0.1709 -1.782226,0.65918 -0.756836,0.46387 -1.220703,1.29395 -0.463867,0.80566 -0.610352,2.05078 l -4.589844,-0.41504 q 0.244141,-1.5625 0.927735,-2.85644 0.683594,-1.31836 1.928711,-2.27051 1.269531,-0.95215 3.149414,-1.46484 1.904297,-0.53711 4.589844,-0.53711 4.980468,0 7.495117,2.29492 2.514648,2.27051 2.514648,6.59179 l 0,11.37696 q 0,1.95312 0.512696,2.9541 0.512695,0.97656 1.953125,0.97656 0.36621,0 0.732421,-0.0488 0.366211,-0.0488 0.708008,-0.12207 l 0,2.73438 q -0.830078,0.19531 -1.660156,0.29297 -0.805664,0.0976 -1.733398,0.0976 -1.245118,0 -2.148438,-0.31738 -0.878906,-0.3418 -1.44043,-1.00098 -0.561523,-0.68359 -0.854492,-1.66015 -0.292969,-1.00098 -0.366211,-2.31934 l -0.146484,0 q -0.708008,1.26953 -1.5625,2.29492 -0.830078,1.02539 -1.953125,1.75782 -1.123047,0.708 -2.563477,1.09863 -1.416015,0.39062 -3.271484,0.39062 z m 1.000976,-3.29589 q 2.09961,0 3.66211,-0.75684 1.586914,-0.78125 2.612305,-1.97754 1.049804,-1.19629 1.5625,-2.6123 0.512695,-1.41602 0.512695,-2.70997 l 0,-2.17285 -4.80957,0.0977 q -1.611329,0.0244 -3.076172,0.24414 -1.44043,0.19531 -2.539063,0.80566 -1.098633,0.61036 -1.757812,1.70899 -0.634766,1.09863 -0.634766,2.88086 0,2.14844 1.147461,3.32031 1.171875,1.17188 3.320312,1.17188 z" />
      <path
         id="path4436"
         style="font-style:normal;font-variant:normal;font-weight:normal;font-stretch:normal;font-size:50px;line-height:125%;font-family:'Liberation Sans';-inkscape-font-specification:'Liberation Sans, Normal';text-align:start;writing-mode:lr-tb;text-anchor:start"
         d="m -22.407227,615.45605 q 0,2.27051 0.317383,4.17481 0.341797,1.9043 1.123047,3.2959 0.78125,1.36719 2.050781,2.12402 1.293946,0.75684 3.173828,0.75684 2.34375,0 3.90625,-1.26953 1.586915,-1.26954 1.9531255,-3.90625 l 4.4433594,0.29296 q -0.2197266,1.63575 -0.9521485,3.14942 -0.7324218,1.51367 -2.0019531,2.66113 -1.2451172,1.14746 -3.0517583,1.85547 -1.80664,0.68359 -4.174804,0.68359 -3.100586,0 -5.273438,-1.0498 -2.172851,-1.04981 -3.540039,-2.88086 -1.342773,-1.85547 -1.953125,-4.3457 -0.610351,-2.51465 -0.610351,-5.44434 0,-2.66113 0.439453,-4.6875 0.439453,-2.05078 1.220703,-3.56445 0.805664,-1.53809 1.879883,-2.56348 1.074219,-1.0498 2.319336,-1.66016 1.269531,-0.63476 2.661133,-0.90332 1.391601,-0.29296 2.807617,-0.29296 2.221679,0 3.955078,0.61035 1.7333982,0.61035 2.9785154,1.68457 1.2695313,1.0498 2.0507813,2.49023 0.78125,1.44043 1.0986328,3.10059 l -4.5166015,0.34179 q -0.341797,-2.19726 -1.733399,-3.49121 -1.391601,-1.29394 -3.955078,-1.29394 -1.879882,0 -3.149414,0.63476 -1.245117,0.61036 -2.026367,1.87989 -0.78125,1.24511 -1.123047,3.14941 -0.317383,1.9043 -0.317383,4.46777 z" />
      <path
         id="path4438"
         style="font-style:normal;font-variant:normal;font-weight:normal;font-stretch:normal;font-size:50px;line-height:125%;font-family:'Liberation Sans';-inkscape-font-specification:'Liberation Sans, Normal';text-align:start;writing-mode:lr-tb;text-anchor:start"
         d="m 15.800781,628.78613 -8.9355466,-12.06054 -3.2226563,2.66113 0,9.39941 -4.39453122,0 0,-36.23047 4.39453122,0 0,22.63184 11.5966799,-12.81738 5.151367,0 -10.7177734,11.35254 11.2792964,15.06347 -5.151367,0 z" />
      <path
         id="path4440"
         style="font-style:normal;font-variant:normal;font-weight:normal;font-stretch:normal;font-size:50px;line-height:125%;font-family:'Liberation Sans';-inkscape-font-specification:'Liberation Sans, Normal';text-align:start;writing-mode:lr-tb;text-anchor:start"
         d="m 27.617187,616.50586 q 0,2.07519 0.41504,3.83301 0.439453,1.7334 1.318359,3.00293 0.90332,1.24511 2.294922,1.95312 1.391601,0.6836 3.344726,0.6836 2.856446,0 4.56543,-1.14747 1.733398,-1.14746 2.34375,-2.90527 l 3.857422,1.09863 q -0.415039,1.09864 -1.171875,2.22168 -0.732422,1.09864 -1.977539,2.00196 -1.245117,0.8789 -3.125,1.46484 -1.855469,0.56152 -4.492188,0.56152 -5.859375,0 -8.935547,-3.49121 -3.051757,-3.49121 -3.051757,-10.37597 0,-3.71094 0.927734,-6.27442 0.927734,-2.58789 2.539063,-4.19922 1.611328,-1.61132 3.759765,-2.31933 2.148438,-0.73242 4.589844,-0.73242 3.320312,0 5.541992,1.07421 2.246094,1.07422 3.588867,2.97852 1.367188,1.87988 1.928711,4.44336 0.585938,2.56348 0.585938,5.54199 l 0,0.58594 -18.847657,0 z m 14.306641,-3.36914 q -0.366211,-4.17481 -2.124023,-6.0791 -1.757813,-1.92871 -5.053711,-1.92871 -1.098633,0 -2.319336,0.36621 -1.196289,0.34179 -2.22168,1.24511 -1.025391,0.90332 -1.733398,2.46582 -0.708008,1.53809 -0.805664,3.93067 l 14.257812,0 z" />
      <path
         id="path4442"
         style="font-style:normal;font-variant:normal;font-weight:normal;font-stretch:normal;font-size:50px;line-height:125%;font-family:'Liberation Sans';-inkscape-font-specification:'Liberation Sans, Normal';text-align:start;writing-mode:lr-tb;text-anchor:start"
         d="m 52.177734,628.78613 0,-20.26367 q 0,-0.83008 -0.02441,-1.68457 0,-0.87891 -0.02441,-1.68457 -0.02441,-0.80566 -0.04883,-1.51367 -0.02441,-0.70801 -0.04883,-1.26953 l 4.150391,0 q 0.02441,0.56152 0.04883,1.29394 0.04883,0.70801 0.07324,1.46485 0.04883,0.75683 0.04883,1.46484 0.02441,0.68359 0.02441,1.17187 l 0.09766,0 q 0.463868,-1.51367 0.976563,-2.6123 0.537109,-1.12305 1.245117,-1.83105 0.708008,-0.73243 1.68457,-1.07422 0.976563,-0.36621 2.368164,-0.36621 0.53711,0 1.025391,0.0977 0.488281,0.0732 0.756836,0.14649 l 0,4.02832 q -0.439453,-0.12207 -1.025391,-0.1709 -0.585937,-0.0732 -1.318359,-0.0732 -1.513672,0 -2.587891,0.68359 -1.049804,0.68359 -1.733398,1.9043 -0.65918,1.19629 -0.976563,2.88086 -0.317382,1.66015 -0.317382,3.63769 l 0,13.76953 -4.394532,0 z" />
      <path
         id="path4444"
         style="font-style:normal;font-variant:normal;font-weight:normal;font-stretch:normal;font-size:50px;line-height:125%;font-family:'Liberation Sans';-inkscape-font-specification:'Liberation Sans, Normal';text-align:start;writing-mode:lr-tb;text-anchor:start"
         d="m 67.631836,617.45801 0,-3.90625 12.207031,0 0,3.90625 -12.207031,0 z" />
      <path
         id="path4446"
         style="font-style:normal;font-variant:normal;font-weight:normal;font-stretch:normal;font-size:50px;line-height:125%;font-family:'Liberation Sans';-inkscape-font-specification:'Liberation Sans, Normal';text-align:start;writing-mode:lr-tb;text-anchor:start"
         d="m 125.10254,629.0791 q -2.34375,0 -4.10156,-0.80566 -1.75782,-0.80567 -3.17383,-2.29492 -0.73242,0.63476 -1.66016,1.2207 -0.92773,0.58594 -2.07519,1.0498 -1.12305,0.46387 -2.46582,0.73243 -1.31836,0.29296 -2.88086,0.29296 -2.85645,0 -4.95606,-0.73242 -2.07519,-0.73242 -3.41797,-2.00195 -1.34277,-1.29395 -2.001949,-3.02734 -0.634766,-1.75782 -0.634766,-3.78418 0,-1.92872 0.610352,-3.49122 0.634765,-1.58691 1.733403,-2.85644 1.12304,-1.29395 2.66113,-2.29492 1.53808,-1.02539 3.36914,-1.83106 -0.43945,-0.83008 -0.80567,-1.75781 -0.34179,-0.95215 -0.61035,-1.9043 -0.26855,-0.95215 -0.41504,-1.90429 -0.14648,-0.95215 -0.14648,-1.80664 0,-1.61133 0.48828,-3.00293 0.48828,-1.41602 1.51367,-2.44141 1.04981,-1.0498 2.66114,-1.63574 1.63574,-0.61035 3.90625,-0.61035 1.78222,0 3.27148,0.46386 1.51367,0.46387 2.6123,1.34278 1.09864,0.8789 1.70899,2.17285 0.61035,1.29394 0.61035,2.9541 0,1.83105 -0.80566,3.27148 -0.80567,1.41602 -2.17286,2.53907 -1.36718,1.12304 -3.17382,2.05078 -1.80664,0.90332 -3.83301,1.70898 1.51367,2.78321 3.2959,5.24903 1.78222,2.4414 3.85742,4.80957 1.48926,-2.19727 2.46582,-4.61426 1.00098,-2.44141 1.70898,-5.39551 l 3.54004,1.04981 q -0.85449,3.39355 -2.17285,6.17675 -1.29394,2.75879 -3.00293,5.27344 1.29395,1.31836 2.58789,1.85547 1.29395,0.53711 2.49024,0.53711 0.78125,0 1.48925,-0.0732 0.73243,-0.0977 1.36719,-0.31739 l 0,3.2959 q -0.68359,0.26856 -1.61133,0.39063 -0.90332,0.14648 -1.83105,0.14648 z m -7.91016,-27.9541 q 0,-0.90332 -0.34179,-1.63574 -0.31739,-0.73242 -0.90332,-1.24512 -0.58594,-0.53711 -1.44043,-0.80566 -0.83008,-0.29297 -1.85547,-0.29297 -2.34375,0 -3.56446,1.26953 -1.2207,1.24512 -1.2207,3.4668 0,1.44043 0.43945,3.02734 0.46387,1.5625 1.14747,2.92969 1.58691,-0.63477 3.00292,-1.29395 1.41602,-0.68359 2.46583,-1.46484 1.0498,-0.80567 1.66015,-1.75781 0.61035,-0.97657 0.61035,-2.19727 z m -1.80664,22.36328 q -2.17285,-2.56348 -4.1748,-5.37109 -2.00196,-2.80762 -3.61328,-5.78614 -2.75879,1.17188 -4.27246,2.97852 -1.48926,1.80664 -1.48926,4.37012 0,1.34277 0.41504,2.51465 0.43945,1.14746 1.31836,2.02636 0.8789,0.8545 2.19726,1.36719 1.34278,0.48828 3.125,0.48828 1.07422,0 2.02637,-0.21972 0.97656,-0.24415 1.80664,-0.61036 0.83008,-0.36621 1.48926,-0.83007 0.68359,-0.46387 1.17187,-0.92774 z" />
      <path
         id="path4448"
         style="font-style:normal;font-variant:normal;font-weight:normal;font-stretch:normal;font-size:50px;line-height:125%;font-family:'Liberation Sans';-inkscape-font-specification:'Liberation Sans, Normal';text-align:start;writing-mode:lr-tb;text-anchor:start"
         d="m 176.5918,628.78613 0,-22.94922 q 0,-1.24511 0.0244,-2.53906 0.0244,-1.29394 0.0732,-2.36816 0.0488,-1.24512 0.12207,-2.41699 -0.34179,1.24511 -0.708,2.46582 -0.31739,1.0498 -0.70801,2.24609 -0.36621,1.17187 -0.73242,2.12402 l -8.88672,23.4375 -3.27149,0 -9.00879,-23.4375 q -0.14648,-0.36621 -0.31738,-0.85449 -0.14648,-0.48828 -0.3418,-1.02539 -0.17089,-0.56152 -0.36621,-1.12305 -0.1709,-0.58593 -0.34179,-1.14746 -0.41504,-1.29394 -0.80567,-2.68554 0.0244,1.36718 0.0732,2.70996 0.0488,1.14746 0.0733,2.41699 0.0244,1.24512 0.0244,2.19726 l 0,22.94922 -4.15039,0 0,-34.39941 6.12793,0 9.15527,23.85254 q 0.1709,0.48828 0.41504,1.26953 0.24414,0.75683 0.46387,1.5625 0.21973,0.80566 0.39062,1.53808 0.19532,0.70801 0.26856,1.09864 0.0732,-0.39063 0.26855,-1.12305 0.19532,-0.73242 0.43946,-1.53809 0.26855,-0.80566 0.51269,-1.5625 0.24414,-0.75683 0.43946,-1.24511 l 8.98437,-23.85254 5.98145,0 0,34.39941 -4.19922,0 z" />
      <path
         id="path4450"
         style="font-style:normal;font-variant:normal;font-weight:normal;font-stretch:normal;font-size:50px;line-height:125%;font-family:'Liberation Sans';-inkscape-font-specification:'Liberation Sans, Normal';text-align:start;writing-mode:lr-tb;text-anchor:start"
         d="m 195.04883,629.27441 q -3.97949,0 -5.98145,-2.09961 -2.00195,-2.0996 -2.00195,-5.76171 0,-2.61231 0.97656,-4.27247 1.00098,-1.68457 2.58789,-2.63671 1.61133,-0.95215 3.66211,-1.31836 2.05078,-0.36621 4.17481,-0.41504 l 5.93261,-0.0977 0,-1.44043 q 0,-1.63574 -0.34179,-2.7832 -0.3418,-1.14746 -1.04981,-1.85547 -0.70801,-0.70801 -1.78222,-1.02539 -1.04981,-0.3418 -2.49024,-0.3418 -1.26953,0 -2.29492,0.19531 -1.02539,0.1709 -1.78223,0.65918 -0.75683,0.46387 -1.2207,1.29395 -0.46387,0.80566 -0.61035,2.05078 l -4.58985,-0.41504 q 0.24415,-1.5625 0.92774,-2.85644 0.68359,-1.31836 1.92871,-2.27051 1.26953,-0.95215 3.14941,-1.46484 1.9043,-0.53711 4.58985,-0.53711 4.98047,0 7.49511,2.29492 2.51465,2.27051 2.51465,6.59179 l 0,11.37696 q 0,1.95312 0.5127,2.9541 0.51269,0.97656 1.95312,0.97656 0.36621,0 0.73243,-0.0488 0.36621,-0.0488 0.708,-0.12207 l 0,2.73438 q -0.83007,0.19531 -1.66015,0.29297 -0.80567,0.0976 -1.7334,0.0976 -1.24512,0 -2.14844,-0.31738 -0.87891,-0.3418 -1.44043,-1.00098 -0.56152,-0.68359 -0.85449,-1.66015 -0.29297,-1.00098 -0.36621,-2.31934 l -0.14649,0 q -0.708,1.26953 -1.5625,2.29492 -0.83007,1.02539 -1.95312,1.75782 -1.12305,0.708 -2.56348,1.09863 -1.41601,0.39062 -3.27148,0.39062 z m 1.00097,-3.29589 q 2.09961,0 3.66211,-0.75684 1.58692,-0.78125 2.61231,-1.97754 1.0498,-1.19629 1.5625,-2.6123 0.51269,-1.41602 0.51269,-2.70997 l 0,-2.17285 -4.80957,0.0977 q -1.61132,0.0244 -3.07617,0.24414 -1.44043,0.19531 -2.53906,0.80566 -1.09863,0.61036 -1.75781,1.70899 -0.63477,1.09863 -0.63477,2.88086 0,2.14844 1.14746,3.32031 1.17188,1.17188 3.32031,1.17188 z" />
      <path
         id="path4452"
         style="font-style:normal;font-variant:normal;font-weight:normal;font-stretch:normal;font-size:50px;line-height:125%;font-family:'Liberation Sans';-inkscape-font-specification:'Liberation Sans, Normal';text-align:start;writing-mode:lr-tb;text-anchor:start"
         d="m 232.69531,628.78613 -8.93554,-12.06054 -3.22266,2.66113 0,9.39941 -4.39453,0 0,-36.23047 4.39453,0 0,22.63184 11.59668,-12.81738 5.15137,0 -10.71778,11.35254 11.2793,15.06347 -5.15137,0 z" />
      <path
         id="path4454"
         style="font-style:normal;font-variant:normal;font-weight:normal;font-stretch:normal;font-size:50px;line-height:125%;font-family:'Liberation Sans';-inkscape-font-specification:'Liberation Sans, Normal';text-align:start;writing-mode:lr-tb;text-anchor:start"
         d="m 244.51172,616.50586 q 0,2.07519 0.41504,3.83301 0.43945,1.7334 1.31836,3.00293 0.90332,1.24511 2.29492,1.95312 1.3916,0.6836 3.34473,0.6836 2.85644,0 4.56543,-1.14747 1.73339,-1.14746 2.34375,-2.90527 l 3.85742,1.09863 q -0.41504,1.09864 -1.17188,2.22168 -0.73242,1.09864 -1.97754,2.00196 -1.24511,0.8789 -3.125,1.46484 -1.85547,0.56152 -4.49218,0.56152 -5.85938,0 -8.93555,-3.49121 -3.05176,-3.49121 -3.05176,-10.37597 0,-3.71094 0.92774,-6.27442 0.92773,-2.58789 2.53906,-4.19922 1.61133,-1.61132 3.75976,-2.31933 2.14844,-0.73242 4.58985,-0.73242 3.32031,0 5.54199,1.07421 2.24609,1.07422 3.58887,2.97852 1.36718,1.87988 1.92871,4.44336 0.58593,2.56348 0.58593,5.54199 l 0,0.58594 -18.84765,0 z m 14.30664,-3.36914 q -0.36621,-4.17481 -2.12402,-6.0791 -1.75782,-1.92871 -5.05372,-1.92871 -1.09863,0 -2.31933,0.36621 -1.19629,0.34179 -2.22168,1.24511 -1.02539,0.90332 -1.7334,2.46582 -0.70801,1.53809 -0.80566,3.93067 l 14.25781,0 z" />
      <path
         id="path4456"
         style="font-style:normal;font-variant:normal;font-weight:normal;font-stretch:normal;font-size:50px;line-height:125%;font-family:'Liberation Sans';-inkscape-font-specification:'Liberation Sans, Normal';text-align:start;writing-mode:lr-tb;text-anchor:start"
         d="m 269.07227,628.78613 0,-20.26367 q 0,-0.83008 -0.0244,-1.68457 0,-0.87891 -0.0244,-1.68457 -0.0244,-0.80566 -0.0488,-1.51367 -0.0244,-0.70801 -0.0488,-1.26953 l 4.15039,0 q 0.0244,0.56152 0.0488,1.29394 0.0488,0.70801 0.0732,1.46485 0.0488,0.75683 0.0488,1.46484 0.0244,0.68359 0.0244,1.17187 l 0.0977,0 q 0.46387,-1.51367 0.97656,-2.6123 0.53711,-1.12305 1.24512,-1.83105 0.70801,-0.73243 1.68457,-1.07422 0.97656,-0.36621 2.36816,-0.36621 0.53711,0 1.0254,0.0977 0.48828,0.0732 0.75683,0.14649 l 0,4.02832 q -0.43945,-0.12207 -1.02539,-0.1709 -0.58594,-0.0732 -1.31836,-0.0732 -1.51367,0 -2.58789,0.68359 -1.0498,0.68359 -1.7334,1.9043 -0.65918,1.19629 -0.97656,2.88086 -0.31738,1.66015 -0.31738,3.63769 l 0,13.76953 -4.39453,0 z" />
      <path
         id="path4458"
         style="font-style:normal;font-variant:normal;font-weight:normal;font-stretch:normal;font-size:50px;line-height:125%;font-family:'Liberation Sans';-inkscape-font-specification:'Liberation Sans, Normal';text-align:start;writing-mode:lr-tb;text-anchor:start"
         d="m 305.49805,621.48633 q 0,1.85547 -0.73243,3.32031 -0.708,1.44043 -2.07519,2.44141 -1.36719,0.97656 -3.36914,1.51367 -1.97754,0.51269 -4.54102,0.51269 -2.29492,0 -4.15039,-0.36621 -1.83105,-0.34179 -3.22265,-1.12304 -1.39161,-0.78125 -2.34375,-2.05079 -0.92774,-1.29394 -1.36719,-3.14941 l 3.88183,-0.75684 q 0.56153,2.12403 2.31934,3.125 1.75781,0.97657 4.88281,0.97657 1.41602,0 2.58789,-0.19532 1.19629,-0.19531 2.05079,-0.65917 0.85449,-0.48829 1.31835,-1.26954 0.48829,-0.80566 0.48829,-1.97754 0,-1.19628 -0.56153,-1.95312 -0.56152,-0.78125 -1.5625,-1.29395 -1.00097,-0.51269 -2.4414,-0.8789 -1.41602,-0.39063 -3.125,-0.85449 -1.58692,-0.41504 -3.14942,-0.92774 -1.5625,-0.51269 -2.83203,-1.34277 -1.24512,-0.85449 -2.02637,-2.09961 -0.78125,-1.24512 -0.78125,-3.125 0,-3.61328 2.56348,-5.49317 2.58789,-1.90429 7.51953,-1.90429 4.37012,0 6.9336,1.53808 2.58789,1.53809 3.27148,4.93164 l -3.95508,0.48829 q -0.21973,-1.02539 -0.80566,-1.70899 -0.58594,-0.70801 -1.41602,-1.12305 -0.83008,-0.43945 -1.87988,-0.61035 -1.02539,-0.19531 -2.14844,-0.19531 -2.97851,0 -4.39453,0.90332 -1.41602,0.90332 -1.41602,2.73438 0,1.07421 0.5127,1.78222 0.53711,0.6836 1.46484,1.17188 0.95215,0.46386 2.27051,0.83008 1.31836,0.34179 2.90527,0.73242 1.04981,0.26855 2.14844,0.58593 1.09864,0.29297 2.12403,0.73243 1.0498,0.41504 1.95312,1.00097 0.92774,0.56153 1.61133,1.36719 0.68359,0.80566 1.07422,1.87988 0.41504,1.07422 0.41504,2.49024 z" />
      <path
         id="path4460"
         style="font-style:normal;font-variant:normal;font-weight:normal;font-stretch:normal;font-size:50px;line-height:125%;font-family:'Liberation Sans';-inkscape-font-specification:'Liberation Sans, Normal';text-align:start;writing-mode:lr-tb;text-anchor:start"
         d="m 333.0127,615.45605 q 0,3.00293 -0.48829,5.542 -0.48828,2.53906 -1.63574,4.37011 -1.12305,1.83106 -3.00293,2.88086 -1.85547,1.02539 -4.58984,1.02539 -2.83203,0 -4.95606,-1.07421 -2.12402,-1.07422 -3.24707,-3.51563 l -0.12207,0 q 0.0244,0.0488 0.0244,0.43945 0.0244,0.39063 0.0244,0.97657 0.0244,0.58593 0.0244,1.31836 0.0244,0.708 0.0244,1.41601 l 0,10.32715 -4.39453,0 0,-31.39649 q 0,-0.95214 -0.0244,-1.83105 0,-0.87891 -0.0244,-1.58691 -0.0244,-0.73243 -0.0488,-1.24512 -0.0244,-0.5127 -0.0488,-0.73242 l 4.24805,0 q 0.0244,0.0732 0.0488,0.51269 0.0488,0.43946 0.0732,1.07422 0.0488,0.61035 0.0732,1.31836 0.0488,0.70801 0.0488,1.34277 l 0.0977,0 q 0.61035,-1.26953 1.3916,-2.14843 0.78125,-0.90332 1.78223,-1.46485 1.00097,-0.58593 2.22168,-0.83008 1.24511,-0.26855 2.7832,-0.26855 2.73437,0 4.58984,0.97656 1.87988,0.97656 3.00293,2.75879 1.14746,1.75781 1.63574,4.27246 0.48829,2.49024 0.48829,5.54199 z m -4.61426,0.0977 q 0,-2.44141 -0.29297,-4.3457 -0.29297,-1.9043 -1.02539,-3.22266 -0.70801,-1.31836 -1.9043,-2.00195 -1.19629,-0.6836 -3.00293,-0.6836 -1.46484,0 -2.75879,0.41504 -1.29394,0.41504 -2.27051,1.58692 -0.95214,1.17187 -1.51367,3.24707 -0.56152,2.05078 -0.56152,5.34668 0,2.80761 0.46387,4.76074 0.46386,1.92871 1.34277,3.125 0.90332,1.19629 2.22168,1.7334 1.31836,0.51269 3.02734,0.51269 1.83106,0 3.02735,-0.708 1.2207,-0.70801 1.92871,-2.05079 0.73242,-1.34277 1.02539,-3.27148 0.29297,-1.95312 0.29297,-4.44336 z" />
      <path
         id="path4462"
         style="font-style:normal;font-variant:normal;font-weight:normal;font-stretch:normal;font-size:50px;line-height:125%;font-family:'Liberation Sans';-inkscape-font-specification:'Liberation Sans, Normal';text-align:start;writing-mode:lr-tb;text-anchor:start"
         d="m 345.24414,629.27441 q -3.97949,0 -5.98144,-2.09961 -2.00196,-2.0996 -2.00196,-5.76171 0,-2.61231 0.97656,-4.27247 1.00098,-1.68457 2.5879,-2.63671 1.61132,-0.95215 3.6621,-1.31836 2.05079,-0.36621 4.17481,-0.41504 l 5.93262,-0.0977 0,-1.44043 q 0,-1.63574 -0.3418,-2.7832 -0.3418,-1.14746 -1.04981,-1.85547 -0.708,-0.70801 -1.78222,-1.02539 -1.04981,-0.3418 -2.49024,-0.3418 -1.26953,0 -2.29492,0.19531 -1.02539,0.1709 -1.78222,0.65918 -0.75684,0.46387 -1.22071,1.29395 -0.46386,0.80566 -0.61035,2.05078 l -4.58984,-0.41504 q 0.24414,-1.5625 0.92773,-2.85644 0.6836,-1.31836 1.92871,-2.27051 1.26953,-0.95215 3.14942,-1.46484 1.90429,-0.53711 4.58984,-0.53711 4.98047,0 7.49512,2.29492 2.51465,2.27051 2.51465,6.59179 l 0,11.37696 q 0,1.95312 0.51269,2.9541 0.5127,0.97656 1.95313,0.97656 0.36621,0 0.73242,-0.0488 0.36621,-0.0488 0.70801,-0.12207 l 0,2.73438 q -0.83008,0.19531 -1.66016,0.29297 -0.80566,0.0976 -1.7334,0.0976 -1.24512,0 -2.14844,-0.31738 -0.8789,-0.3418 -1.44043,-1.00098 -0.56152,-0.68359 -0.85449,-1.66015 -0.29297,-1.00098 -0.36621,-2.31934 l -0.14648,0 q -0.70801,1.26953 -1.5625,2.29492 -0.83008,1.02539 -1.95313,1.75782 -1.12305,0.708 -2.56348,1.09863 -1.41601,0.39062 -3.27148,0.39062 z m 1.00098,-3.29589 q 2.09961,0 3.66211,-0.75684 1.58691,-0.78125 2.6123,-1.97754 1.04981,-1.19629 1.5625,-2.6123 0.5127,-1.41602 0.5127,-2.70997 l 0,-2.17285 -4.80957,0.0977 q -1.61133,0.0244 -3.07618,0.24414 -1.44043,0.19531 -2.53906,0.80566 -1.09863,0.61036 -1.75781,1.70899 -0.63477,1.09863 -0.63477,2.88086 0,2.14844 1.14746,3.32031 1.17188,1.17188 3.32032,1.17188 z" />
      <path
         id="path4464"
         style="font-style:normal;font-variant:normal;font-weight:normal;font-stretch:normal;font-size:50px;line-height:125%;font-family:'Liberation Sans';-inkscape-font-specification:'Liberation Sans, Normal';text-align:start;writing-mode:lr-tb;text-anchor:start"
         d="m 369.68262,615.45605 q 0,2.27051 0.31738,4.17481 0.3418,1.9043 1.12305,3.2959 0.78125,1.36719 2.05078,2.12402 1.29394,0.75684 3.17383,0.75684 2.34375,0 3.90625,-1.26953 1.58691,-1.26954 1.95312,-3.90625 l 4.44336,0.29296 q -0.21973,1.63575 -0.95215,3.14942 -0.73242,1.51367 -2.00195,2.66113 -1.24512,1.14746 -3.05176,1.85547 -1.80664,0.68359 -4.1748,0.68359 -3.10059,0 -5.27344,-1.0498 -2.17285,-1.04981 -3.54004,-2.88086 -1.34277,-1.85547 -1.95313,-4.3457 -0.61035,-2.51465 -0.61035,-5.44434 0,-2.66113 0.43946,-4.6875 0.43945,-2.05078 1.2207,-3.56445 0.80566,-1.53809 1.87988,-2.56348 1.07422,-1.0498 2.31934,-1.66016 1.26953,-0.63476 2.66113,-0.90332 1.3916,-0.29296 2.80762,-0.29296 2.22168,0 3.95508,0.61035 1.73339,0.61035 2.97851,1.68457 1.26953,1.0498 2.05078,2.49023 0.78125,1.44043 1.09864,3.10059 l -4.51661,0.34179 q -0.34179,-2.19726 -1.73339,-3.49121 -1.39161,-1.29394 -3.95508,-1.29394 -1.87988,0 -3.14942,0.63476 -1.24511,0.61036 -2.02636,1.87989 -0.78125,1.24511 -1.12305,3.14941 -0.31738,1.9043 -0.31738,4.46777 z" />
      <path
         id="path4466"
         style="font-style:normal;font-variant:normal;font-weight:normal;font-stretch:normal;font-size:50px;line-height:125%;font-family:'Liberation Sans';-inkscape-font-specification:'Liberation Sans, Normal';text-align:start;writing-mode:lr-tb;text-anchor:start"
         d="m 394.70703,616.50586 q 0,2.07519 0.41504,3.83301 0.43945,1.7334 1.31836,3.00293 0.90332,1.24511 2.29492,1.95312 1.3916,0.6836 3.34473,0.6836 2.85644,0 4.56543,-1.14747 1.7334,-1.14746 2.34375,-2.90527 l 3.85742,1.09863 q -0.41504,1.09864 -1.17188,2.22168 -0.73242,1.09864 -1.97753,2.00196 -1.24512,0.8789 -3.125,1.46484 -1.85547,0.56152 -4.49219,0.56152 -5.85938,0 -8.93555,-3.49121 -3.05176,-3.49121 -3.05176,-10.37597 0,-3.71094 0.92774,-6.27442 0.92773,-2.58789 2.53906,-4.19922 1.61133,-1.61132 3.75977,-2.31933 2.14843,-0.73242 4.58984,-0.73242 3.32031,0 5.54199,1.07421 2.2461,1.07422 3.58887,2.97852 1.36719,1.87988 1.92871,4.44336 0.58594,2.56348 0.58594,5.54199 l 0,0.58594 -18.84766,0 z m 14.30664,-3.36914 q -0.36621,-4.17481 -2.12402,-6.0791 -1.75781,-1.92871 -5.05371,-1.92871 -1.09864,0 -2.31934,0.36621 -1.19629,0.34179 -2.22168,1.24511 -1.02539,0.90332 -1.7334,2.46582 -0.708,1.53809 -0.80566,3.93067 l 14.25781,0 z" />
      <path
         id="path4468"
         style="font-style:normal;font-variant:normal;font-weight:normal;font-stretch:normal;font-size:50px;line-height:125%;font-family:'Liberation Sans';-inkscape-font-specification:'Liberation Sans, Normal';text-align:start;writing-mode:lr-tb;text-anchor:start"
         d="m 446.36719,598.19531 0,30.59082 -4.63867,0 0,-30.59082 -11.81641,0 0,-3.80859 28.27148,0 0,3.80859 -11.8164,0 z" />
      <path
         id="path4470"
         style="font-style:normal;font-variant:normal;font-weight:normal;font-stretch:normal;font-size:50px;line-height:125%;font-family:'Liberation Sans';-inkscape-font-specification:'Liberation Sans, Normal';text-align:start;writing-mode:lr-tb;text-anchor:start"
         d="m 460.9668,628.78613 0,-20.26367 q 0,-0.83008 -0.0244,-1.68457 0,-0.87891 -0.0244,-1.68457 -0.0244,-0.80566 -0.0488,-1.51367 -0.0244,-0.70801 -0.0488,-1.26953 l 4.15039,0 q 0.0244,0.56152 0.0488,1.29394 0.0488,0.70801 0.0732,1.46485 0.0488,0.75683 0.0488,1.46484 0.0244,0.68359 0.0244,1.17187 l 0.0976,0 q 0.46387,-1.51367 0.97656,-2.6123 0.53711,-1.12305 1.24512,-1.83105 0.70801,-0.73243 1.68457,-1.07422 0.97656,-0.36621 2.36817,-0.36621 0.53711,0 1.02539,0.0977 0.48828,0.0732 0.75683,0.14649 l 0,4.02832 q -0.43945,-0.12207 -1.02539,-0.1709 -0.58594,-0.0732 -1.31836,-0.0732 -1.51367,0 -2.58789,0.68359 -1.0498,0.68359 -1.7334,1.9043 -0.65918,1.19629 -0.97656,2.88086 -0.31738,1.66015 -0.31738,3.63769 l 0,13.76953 -4.39453,0 z" />
      <path
         id="path4472"
         style="font-style:normal;font-variant:normal;font-weight:normal;font-stretch:normal;font-size:50px;line-height:125%;font-family:'Liberation Sans';-inkscape-font-specification:'Liberation Sans, Normal';text-align:start;writing-mode:lr-tb;text-anchor:start"
         d="m 477.54395,596.75488 0,-4.19922 4.39453,0 0,4.19922 -4.39453,0 z m 0,32.03125 0,-26.41601 4.39453,0 0,26.41601 -4.39453,0 z" />
      <path
         id="path4474"
         style="font-style:normal;font-variant:normal;font-weight:normal;font-stretch:normal;font-size:50px;line-height:125%;font-family:'Liberation Sans';-inkscape-font-specification:'Liberation Sans, Normal';text-align:start;writing-mode:lr-tb;text-anchor:start"
         d="m 492.07031,616.50586 q 0,2.07519 0.41504,3.83301 0.43945,1.7334 1.31836,3.00293 0.90332,1.24511 2.29492,1.95312 1.3916,0.6836 3.34473,0.6836 2.85644,0 4.56543,-1.14747 1.7334,-1.14746 2.34375,-2.90527 l 3.85742,1.09863 q -0.41504,1.09864 -1.17187,2.22168 -0.73243,1.09864 -1.97754,2.00196 -1.24512,0.8789 -3.125,1.46484 -1.85547,0.56152 -4.49219,0.56152 -5.85938,0 -8.93555,-3.49121 -3.05176,-3.49121 -3.05176,-10.37597 0,-3.71094 0.92774,-6.27442 0.92773,-2.58789 2.53906,-4.19922 1.61133,-1.61132 3.75977,-2.31933 2.14843,-0.73242 4.58984,-0.73242 3.32031,0 5.54199,1.07421 2.2461,1.07422 3.58887,2.97852 1.36719,1.87988 1.92871,4.44336 0.58594,2.56348 0.58594,5.54199 l 0,0.58594 -18.84766,0 z m 14.30664,-3.36914 q -0.36621,-4.17481 -2.12402,-6.0791 -1.75781,-1.92871 -5.05371,-1.92871 -1.09863,0 -2.31934,0.36621 -1.19629,0.34179 -2.22168,1.24511 -1.02539,0.90332 -1.7334,2.46582 -0.708,1.53809 -0.80566,3.93067 l 14.25781,0 z" />
      <path
         id="path4476"
         style="font-style:normal;font-variant:normal;font-weight:normal;font-stretch:normal;font-size:50px;line-height:125%;font-family:'Liberation Sans';-inkscape-font-specification:'Liberation Sans, Normal';text-align:start;writing-mode:lr-tb;text-anchor:start"
         d="m 516.63086,628.78613 0,-20.26367 q 0,-0.83008 -0.0244,-1.68457 0,-0.87891 -0.0244,-1.68457 -0.0244,-0.80566 -0.0488,-1.51367 -0.0244,-0.70801 -0.0488,-1.26953 l 4.1504,0 q 0.0244,0.56152 0.0488,1.29394 0.0488,0.70801 0.0733,1.46485 0.0488,0.75683 0.0488,1.46484 0.0244,0.68359 0.0244,1.17187 l 0.0977,0 q 0.46387,-1.51367 0.97657,-2.6123 0.53711,-1.12305 1.24511,-1.83105 0.70801,-0.73243 1.68457,-1.07422 0.97657,-0.36621 2.36817,-0.36621 0.53711,0 1.02539,0.0977 0.48828,0.0732 0.75683,0.14649 l 0,4.02832 q -0.43945,-0.12207 -1.02539,-0.1709 -0.58593,-0.0732 -1.31836,-0.0732 -1.51367,0 -2.58789,0.68359 -1.0498,0.68359 -1.73339,1.9043 -0.65918,1.19629 -0.97657,2.88086 -0.31738,1.66015 -0.31738,3.63769 l 0,13.76953 -4.39453,0 z" />
    </g>
  </g>
</svg>
